%TF.GenerationSoftware,KiCad,Pcbnew,(5.1.9-0-10_14)*%
%TF.CreationDate,2022-05-22T11:28:49+01:00*%
%TF.ProjectId,BBCMicro128KRomRam,4242434d-6963-4726-9f31-32384b526f6d,rev?*%
%TF.SameCoordinates,Original*%
%TF.FileFunction,Legend,Top*%
%TF.FilePolarity,Positive*%
%FSLAX46Y46*%
G04 Gerber Fmt 4.6, Leading zero omitted, Abs format (unit mm)*
G04 Created by KiCad (PCBNEW (5.1.9-0-10_14)) date 2022-05-22 11:28:49*
%MOMM*%
%LPD*%
G01*
G04 APERTURE LIST*
%ADD10C,0.150000*%
%ADD11C,0.010000*%
%ADD12C,0.120000*%
G04 APERTURE END LIST*
D10*
X219654380Y-122253142D02*
X219178190Y-122586476D01*
X219654380Y-122824571D02*
X218654380Y-122824571D01*
X218654380Y-122443619D01*
X218702000Y-122348380D01*
X218749619Y-122300761D01*
X218844857Y-122253142D01*
X218987714Y-122253142D01*
X219082952Y-122300761D01*
X219130571Y-122348380D01*
X219178190Y-122443619D01*
X219178190Y-122824571D01*
X219130571Y-121824571D02*
X219130571Y-121491238D01*
X219654380Y-121348380D02*
X219654380Y-121824571D01*
X218654380Y-121824571D01*
X218654380Y-121348380D01*
X218654380Y-121062666D02*
X219654380Y-120729333D01*
X218654380Y-120396000D01*
X219368666Y-119348380D02*
X219368666Y-118872190D01*
X219654380Y-119443619D02*
X218654380Y-119110285D01*
X219654380Y-118776952D01*
X218749619Y-118491238D02*
X218702000Y-118443619D01*
X218654380Y-118348380D01*
X218654380Y-118110285D01*
X218702000Y-118015047D01*
X218749619Y-117967428D01*
X218844857Y-117919809D01*
X218940095Y-117919809D01*
X219082952Y-117967428D01*
X219654380Y-118538857D01*
X219654380Y-117919809D01*
X90892380Y-53633523D02*
X90892380Y-53014476D01*
X91273333Y-53347809D01*
X91273333Y-53204952D01*
X91320952Y-53109714D01*
X91368571Y-53062095D01*
X91463809Y-53014476D01*
X91701904Y-53014476D01*
X91797142Y-53062095D01*
X91844761Y-53109714D01*
X91892380Y-53204952D01*
X91892380Y-53490666D01*
X91844761Y-53585904D01*
X91797142Y-53633523D01*
X91892380Y-52585904D02*
X90892380Y-52585904D01*
X91892380Y-52014476D02*
X91320952Y-52443047D01*
X90892380Y-52014476D02*
X91463809Y-52585904D01*
X90892380Y-51681142D02*
X90892380Y-51062095D01*
X91273333Y-51395428D01*
X91273333Y-51252571D01*
X91320952Y-51157333D01*
X91368571Y-51109714D01*
X91463809Y-51062095D01*
X91701904Y-51062095D01*
X91797142Y-51109714D01*
X91844761Y-51157333D01*
X91892380Y-51252571D01*
X91892380Y-51538285D01*
X91844761Y-51633523D01*
X91797142Y-51681142D01*
X95972380Y-53633523D02*
X95972380Y-53014476D01*
X96353333Y-53347809D01*
X96353333Y-53204952D01*
X96400952Y-53109714D01*
X96448571Y-53062095D01*
X96543809Y-53014476D01*
X96781904Y-53014476D01*
X96877142Y-53062095D01*
X96924761Y-53109714D01*
X96972380Y-53204952D01*
X96972380Y-53490666D01*
X96924761Y-53585904D01*
X96877142Y-53633523D01*
X96972380Y-52585904D02*
X95972380Y-52585904D01*
X96972380Y-52014476D02*
X96400952Y-52443047D01*
X95972380Y-52014476D02*
X96543809Y-52585904D01*
X95972380Y-51681142D02*
X95972380Y-51062095D01*
X96353333Y-51395428D01*
X96353333Y-51252571D01*
X96400952Y-51157333D01*
X96448571Y-51109714D01*
X96543809Y-51062095D01*
X96781904Y-51062095D01*
X96877142Y-51109714D01*
X96924761Y-51157333D01*
X96972380Y-51252571D01*
X96972380Y-51538285D01*
X96924761Y-51633523D01*
X96877142Y-51681142D01*
X167092380Y-118149523D02*
X167092380Y-117530476D01*
X167473333Y-117863809D01*
X167473333Y-117720952D01*
X167520952Y-117625714D01*
X167568571Y-117578095D01*
X167663809Y-117530476D01*
X167901904Y-117530476D01*
X167997142Y-117578095D01*
X168044761Y-117625714D01*
X168092380Y-117720952D01*
X168092380Y-118006666D01*
X168044761Y-118101904D01*
X167997142Y-118149523D01*
X168092380Y-117101904D02*
X167092380Y-117101904D01*
X168092380Y-116530476D02*
X167520952Y-116959047D01*
X167092380Y-116530476D02*
X167663809Y-117101904D01*
X167092380Y-116197142D02*
X167092380Y-115578095D01*
X167473333Y-115911428D01*
X167473333Y-115768571D01*
X167520952Y-115673333D01*
X167568571Y-115625714D01*
X167663809Y-115578095D01*
X167901904Y-115578095D01*
X167997142Y-115625714D01*
X168044761Y-115673333D01*
X168092380Y-115768571D01*
X168092380Y-116054285D01*
X168044761Y-116149523D01*
X167997142Y-116197142D01*
X165044380Y-101401428D02*
X165044380Y-101972857D01*
X165044380Y-101687142D02*
X164044380Y-101687142D01*
X164187238Y-101782380D01*
X164282476Y-101877619D01*
X164330095Y-101972857D01*
X164044380Y-100782380D02*
X164044380Y-100687142D01*
X164092000Y-100591904D01*
X164139619Y-100544285D01*
X164234857Y-100496666D01*
X164425333Y-100449047D01*
X164663428Y-100449047D01*
X164853904Y-100496666D01*
X164949142Y-100544285D01*
X164996761Y-100591904D01*
X165044380Y-100687142D01*
X165044380Y-100782380D01*
X164996761Y-100877619D01*
X164949142Y-100925238D01*
X164853904Y-100972857D01*
X164663428Y-101020476D01*
X164425333Y-101020476D01*
X164234857Y-100972857D01*
X164139619Y-100925238D01*
X164092000Y-100877619D01*
X164044380Y-100782380D01*
X164377714Y-99591904D02*
X165044380Y-99591904D01*
X164377714Y-100020476D02*
X164901523Y-100020476D01*
X164996761Y-99972857D01*
X165044380Y-99877619D01*
X165044380Y-99734761D01*
X164996761Y-99639523D01*
X164949142Y-99591904D01*
X164520571Y-98782380D02*
X164520571Y-99115714D01*
X165044380Y-99115714D02*
X164044380Y-99115714D01*
X164044380Y-98639523D01*
X91146761Y-108370666D02*
X91622952Y-108370666D01*
X91051523Y-108656380D02*
X91384857Y-107656380D01*
X91718190Y-108656380D01*
X92003904Y-108608761D02*
X92146761Y-108656380D01*
X92384857Y-108656380D01*
X92480095Y-108608761D01*
X92527714Y-108561142D01*
X92575333Y-108465904D01*
X92575333Y-108370666D01*
X92527714Y-108275428D01*
X92480095Y-108227809D01*
X92384857Y-108180190D01*
X92194380Y-108132571D01*
X92099142Y-108084952D01*
X92051523Y-108037333D01*
X92003904Y-107942095D01*
X92003904Y-107846857D01*
X92051523Y-107751619D01*
X92099142Y-107704000D01*
X92194380Y-107656380D01*
X92432476Y-107656380D01*
X92575333Y-107704000D01*
X93432476Y-107656380D02*
X93242000Y-107656380D01*
X93146761Y-107704000D01*
X93099142Y-107751619D01*
X93003904Y-107894476D01*
X92956285Y-108084952D01*
X92956285Y-108465904D01*
X93003904Y-108561142D01*
X93051523Y-108608761D01*
X93146761Y-108656380D01*
X93337238Y-108656380D01*
X93432476Y-108608761D01*
X93480095Y-108561142D01*
X93527714Y-108465904D01*
X93527714Y-108227809D01*
X93480095Y-108132571D01*
X93432476Y-108084952D01*
X93337238Y-108037333D01*
X93146761Y-108037333D01*
X93051523Y-108084952D01*
X93003904Y-108132571D01*
X92956285Y-108227809D01*
X94527714Y-108561142D02*
X94480095Y-108608761D01*
X94337238Y-108656380D01*
X94242000Y-108656380D01*
X94099142Y-108608761D01*
X94003904Y-108513523D01*
X93956285Y-108418285D01*
X93908666Y-108227809D01*
X93908666Y-108084952D01*
X93956285Y-107894476D01*
X94003904Y-107799238D01*
X94099142Y-107704000D01*
X94242000Y-107656380D01*
X94337238Y-107656380D01*
X94480095Y-107704000D01*
X94527714Y-107751619D01*
X95480095Y-108656380D02*
X94908666Y-108656380D01*
X95194380Y-108656380D02*
X95194380Y-107656380D01*
X95099142Y-107799238D01*
X95003904Y-107894476D01*
X94908666Y-107942095D01*
X96099142Y-107656380D02*
X96194380Y-107656380D01*
X96289619Y-107704000D01*
X96337238Y-107751619D01*
X96384857Y-107846857D01*
X96432476Y-108037333D01*
X96432476Y-108275428D01*
X96384857Y-108465904D01*
X96337238Y-108561142D01*
X96289619Y-108608761D01*
X96194380Y-108656380D01*
X96099142Y-108656380D01*
X96003904Y-108608761D01*
X95956285Y-108561142D01*
X95908666Y-108465904D01*
X95861047Y-108275428D01*
X95861047Y-108037333D01*
X95908666Y-107846857D01*
X95956285Y-107751619D01*
X96003904Y-107704000D01*
X96099142Y-107656380D01*
X97051523Y-107656380D02*
X97146761Y-107656380D01*
X97242000Y-107704000D01*
X97289619Y-107751619D01*
X97337238Y-107846857D01*
X97384857Y-108037333D01*
X97384857Y-108275428D01*
X97337238Y-108465904D01*
X97289619Y-108561142D01*
X97242000Y-108608761D01*
X97146761Y-108656380D01*
X97051523Y-108656380D01*
X96956285Y-108608761D01*
X96908666Y-108561142D01*
X96861047Y-108465904D01*
X96813428Y-108275428D01*
X96813428Y-108037333D01*
X96861047Y-107846857D01*
X96908666Y-107751619D01*
X96956285Y-107704000D01*
X97051523Y-107656380D01*
X97956285Y-108084952D02*
X97861047Y-108037333D01*
X97813428Y-107989714D01*
X97765809Y-107894476D01*
X97765809Y-107846857D01*
X97813428Y-107751619D01*
X97861047Y-107704000D01*
X97956285Y-107656380D01*
X98146761Y-107656380D01*
X98242000Y-107704000D01*
X98289619Y-107751619D01*
X98337238Y-107846857D01*
X98337238Y-107894476D01*
X98289619Y-107989714D01*
X98242000Y-108037333D01*
X98146761Y-108084952D01*
X97956285Y-108084952D01*
X97861047Y-108132571D01*
X97813428Y-108180190D01*
X97765809Y-108275428D01*
X97765809Y-108465904D01*
X97813428Y-108561142D01*
X97861047Y-108608761D01*
X97956285Y-108656380D01*
X98146761Y-108656380D01*
X98242000Y-108608761D01*
X98289619Y-108561142D01*
X98337238Y-108465904D01*
X98337238Y-108275428D01*
X98289619Y-108180190D01*
X98242000Y-108132571D01*
X98146761Y-108084952D01*
X223734380Y-88106095D02*
X223734380Y-88296571D01*
X223782000Y-88391809D01*
X223829619Y-88439428D01*
X223972476Y-88534666D01*
X224162952Y-88582285D01*
X224543904Y-88582285D01*
X224639142Y-88534666D01*
X224686761Y-88487047D01*
X224734380Y-88391809D01*
X224734380Y-88201333D01*
X224686761Y-88106095D01*
X224639142Y-88058476D01*
X224543904Y-88010857D01*
X224305809Y-88010857D01*
X224210571Y-88058476D01*
X224162952Y-88106095D01*
X224115333Y-88201333D01*
X224115333Y-88391809D01*
X224162952Y-88487047D01*
X224210571Y-88534666D01*
X224305809Y-88582285D01*
X223734380Y-87106095D02*
X223734380Y-87582285D01*
X224210571Y-87629904D01*
X224162952Y-87582285D01*
X224115333Y-87487047D01*
X224115333Y-87248952D01*
X224162952Y-87153714D01*
X224210571Y-87106095D01*
X224305809Y-87058476D01*
X224543904Y-87058476D01*
X224639142Y-87106095D01*
X224686761Y-87153714D01*
X224734380Y-87248952D01*
X224734380Y-87487047D01*
X224686761Y-87582285D01*
X224639142Y-87629904D01*
X223734380Y-86439428D02*
X223734380Y-86344190D01*
X223782000Y-86248952D01*
X223829619Y-86201333D01*
X223924857Y-86153714D01*
X224115333Y-86106095D01*
X224353428Y-86106095D01*
X224543904Y-86153714D01*
X224639142Y-86201333D01*
X224686761Y-86248952D01*
X224734380Y-86344190D01*
X224734380Y-86439428D01*
X224686761Y-86534666D01*
X224639142Y-86582285D01*
X224543904Y-86629904D01*
X224353428Y-86677523D01*
X224115333Y-86677523D01*
X223924857Y-86629904D01*
X223829619Y-86582285D01*
X223782000Y-86534666D01*
X223734380Y-86439428D01*
X223829619Y-85725142D02*
X223782000Y-85677523D01*
X223734380Y-85582285D01*
X223734380Y-85344190D01*
X223782000Y-85248952D01*
X223829619Y-85201333D01*
X223924857Y-85153714D01*
X224020095Y-85153714D01*
X224162952Y-85201333D01*
X224734380Y-85772761D01*
X224734380Y-85153714D01*
X209510380Y-119228857D02*
X209510380Y-118562190D01*
X210510380Y-118990761D01*
X209843714Y-117752666D02*
X210510380Y-117752666D01*
X209462761Y-117990761D02*
X210177047Y-118228857D01*
X210177047Y-117609809D01*
X210510380Y-116752666D02*
X210510380Y-117228857D01*
X209510380Y-117228857D01*
X210462761Y-116466952D02*
X210510380Y-116324095D01*
X210510380Y-116086000D01*
X210462761Y-115990761D01*
X210415142Y-115943142D01*
X210319904Y-115895523D01*
X210224666Y-115895523D01*
X210129428Y-115943142D01*
X210081809Y-115990761D01*
X210034190Y-116086000D01*
X209986571Y-116276476D01*
X209938952Y-116371714D01*
X209891333Y-116419333D01*
X209796095Y-116466952D01*
X209700857Y-116466952D01*
X209605619Y-116419333D01*
X209558000Y-116371714D01*
X209510380Y-116276476D01*
X209510380Y-116038380D01*
X209558000Y-115895523D01*
X209510380Y-115276476D02*
X209510380Y-115181238D01*
X209558000Y-115086000D01*
X209605619Y-115038380D01*
X209700857Y-114990761D01*
X209891333Y-114943142D01*
X210129428Y-114943142D01*
X210319904Y-114990761D01*
X210415142Y-115038380D01*
X210462761Y-115086000D01*
X210510380Y-115181238D01*
X210510380Y-115276476D01*
X210462761Y-115371714D01*
X210415142Y-115419333D01*
X210319904Y-115466952D01*
X210129428Y-115514571D01*
X209891333Y-115514571D01*
X209700857Y-115466952D01*
X209605619Y-115419333D01*
X209558000Y-115371714D01*
X209510380Y-115276476D01*
X209510380Y-114324095D02*
X209510380Y-114228857D01*
X209558000Y-114133619D01*
X209605619Y-114086000D01*
X209700857Y-114038380D01*
X209891333Y-113990761D01*
X210129428Y-113990761D01*
X210319904Y-114038380D01*
X210415142Y-114086000D01*
X210462761Y-114133619D01*
X210510380Y-114228857D01*
X210510380Y-114324095D01*
X210462761Y-114419333D01*
X210415142Y-114466952D01*
X210319904Y-114514571D01*
X210129428Y-114562190D01*
X209891333Y-114562190D01*
X209700857Y-114514571D01*
X209605619Y-114466952D01*
X209558000Y-114419333D01*
X209510380Y-114324095D01*
X164520952Y-72350380D02*
X165187619Y-72350380D01*
X164759047Y-73350380D01*
X165997142Y-72683714D02*
X165997142Y-73350380D01*
X165759047Y-72302761D02*
X165520952Y-73017047D01*
X166140000Y-73017047D01*
X166997142Y-73350380D02*
X166520952Y-73350380D01*
X166520952Y-72350380D01*
X167282857Y-73302761D02*
X167425714Y-73350380D01*
X167663809Y-73350380D01*
X167759047Y-73302761D01*
X167806666Y-73255142D01*
X167854285Y-73159904D01*
X167854285Y-73064666D01*
X167806666Y-72969428D01*
X167759047Y-72921809D01*
X167663809Y-72874190D01*
X167473333Y-72826571D01*
X167378095Y-72778952D01*
X167330476Y-72731333D01*
X167282857Y-72636095D01*
X167282857Y-72540857D01*
X167330476Y-72445619D01*
X167378095Y-72398000D01*
X167473333Y-72350380D01*
X167711428Y-72350380D01*
X167854285Y-72398000D01*
X168806666Y-73350380D02*
X168235238Y-73350380D01*
X168520952Y-73350380D02*
X168520952Y-72350380D01*
X168425714Y-72493238D01*
X168330476Y-72588476D01*
X168235238Y-72636095D01*
X169140000Y-72350380D02*
X169759047Y-72350380D01*
X169425714Y-72731333D01*
X169568571Y-72731333D01*
X169663809Y-72778952D01*
X169711428Y-72826571D01*
X169759047Y-72921809D01*
X169759047Y-73159904D01*
X169711428Y-73255142D01*
X169663809Y-73302761D01*
X169568571Y-73350380D01*
X169282857Y-73350380D01*
X169187619Y-73302761D01*
X169140000Y-73255142D01*
X170235238Y-73350380D02*
X170425714Y-73350380D01*
X170520952Y-73302761D01*
X170568571Y-73255142D01*
X170663809Y-73112285D01*
X170711428Y-72921809D01*
X170711428Y-72540857D01*
X170663809Y-72445619D01*
X170616190Y-72398000D01*
X170520952Y-72350380D01*
X170330476Y-72350380D01*
X170235238Y-72398000D01*
X170187619Y-72445619D01*
X170140000Y-72540857D01*
X170140000Y-72778952D01*
X170187619Y-72874190D01*
X170235238Y-72921809D01*
X170330476Y-72969428D01*
X170520952Y-72969428D01*
X170616190Y-72921809D01*
X170663809Y-72874190D01*
X170711428Y-72778952D01*
X177474952Y-72350380D02*
X178141619Y-72350380D01*
X177713047Y-73350380D01*
X178951142Y-72683714D02*
X178951142Y-73350380D01*
X178713047Y-72302761D02*
X178474952Y-73017047D01*
X179094000Y-73017047D01*
X179951142Y-73350380D02*
X179474952Y-73350380D01*
X179474952Y-72350380D01*
X180236857Y-73302761D02*
X180379714Y-73350380D01*
X180617809Y-73350380D01*
X180713047Y-73302761D01*
X180760666Y-73255142D01*
X180808285Y-73159904D01*
X180808285Y-73064666D01*
X180760666Y-72969428D01*
X180713047Y-72921809D01*
X180617809Y-72874190D01*
X180427333Y-72826571D01*
X180332095Y-72778952D01*
X180284476Y-72731333D01*
X180236857Y-72636095D01*
X180236857Y-72540857D01*
X180284476Y-72445619D01*
X180332095Y-72398000D01*
X180427333Y-72350380D01*
X180665428Y-72350380D01*
X180808285Y-72398000D01*
X181760666Y-73350380D02*
X181189238Y-73350380D01*
X181474952Y-73350380D02*
X181474952Y-72350380D01*
X181379714Y-72493238D01*
X181284476Y-72588476D01*
X181189238Y-72636095D01*
X182094000Y-72350380D02*
X182760666Y-72350380D01*
X182332095Y-73350380D01*
X183570190Y-72683714D02*
X183570190Y-73350380D01*
X183332095Y-72302761D02*
X183094000Y-73017047D01*
X183713047Y-73017047D01*
X190905142Y-69810380D02*
X191571809Y-69810380D01*
X191143238Y-70810380D01*
X192381333Y-70143714D02*
X192381333Y-70810380D01*
X192143238Y-69762761D02*
X191905142Y-70477047D01*
X192524190Y-70477047D01*
X193381333Y-70810380D02*
X192905142Y-70810380D01*
X192905142Y-69810380D01*
X193667047Y-70762761D02*
X193809904Y-70810380D01*
X194048000Y-70810380D01*
X194143238Y-70762761D01*
X194190857Y-70715142D01*
X194238476Y-70619904D01*
X194238476Y-70524666D01*
X194190857Y-70429428D01*
X194143238Y-70381809D01*
X194048000Y-70334190D01*
X193857523Y-70286571D01*
X193762285Y-70238952D01*
X193714666Y-70191333D01*
X193667047Y-70096095D01*
X193667047Y-70000857D01*
X193714666Y-69905619D01*
X193762285Y-69858000D01*
X193857523Y-69810380D01*
X194095619Y-69810380D01*
X194238476Y-69858000D01*
X194857523Y-69810380D02*
X194952761Y-69810380D01*
X195048000Y-69858000D01*
X195095619Y-69905619D01*
X195143238Y-70000857D01*
X195190857Y-70191333D01*
X195190857Y-70429428D01*
X195143238Y-70619904D01*
X195095619Y-70715142D01*
X195048000Y-70762761D01*
X194952761Y-70810380D01*
X194857523Y-70810380D01*
X194762285Y-70762761D01*
X194714666Y-70715142D01*
X194667047Y-70619904D01*
X194619428Y-70429428D01*
X194619428Y-70191333D01*
X194667047Y-70000857D01*
X194714666Y-69905619D01*
X194762285Y-69858000D01*
X194857523Y-69810380D01*
X195809904Y-69810380D02*
X195905142Y-69810380D01*
X196000380Y-69858000D01*
X196048000Y-69905619D01*
X196095619Y-70000857D01*
X196143238Y-70191333D01*
X196143238Y-70429428D01*
X196095619Y-70619904D01*
X196048000Y-70715142D01*
X196000380Y-70762761D01*
X195905142Y-70810380D01*
X195809904Y-70810380D01*
X195714666Y-70762761D01*
X195667047Y-70715142D01*
X195619428Y-70619904D01*
X195571809Y-70429428D01*
X195571809Y-70191333D01*
X195619428Y-70000857D01*
X195667047Y-69905619D01*
X195714666Y-69858000D01*
X195809904Y-69810380D01*
X203859142Y-69810380D02*
X204525809Y-69810380D01*
X204097238Y-70810380D01*
X205335333Y-70143714D02*
X205335333Y-70810380D01*
X205097238Y-69762761D02*
X204859142Y-70477047D01*
X205478190Y-70477047D01*
X206335333Y-70810380D02*
X205859142Y-70810380D01*
X205859142Y-69810380D01*
X206621047Y-70762761D02*
X206763904Y-70810380D01*
X207002000Y-70810380D01*
X207097238Y-70762761D01*
X207144857Y-70715142D01*
X207192476Y-70619904D01*
X207192476Y-70524666D01*
X207144857Y-70429428D01*
X207097238Y-70381809D01*
X207002000Y-70334190D01*
X206811523Y-70286571D01*
X206716285Y-70238952D01*
X206668666Y-70191333D01*
X206621047Y-70096095D01*
X206621047Y-70000857D01*
X206668666Y-69905619D01*
X206716285Y-69858000D01*
X206811523Y-69810380D01*
X207049619Y-69810380D01*
X207192476Y-69858000D01*
X207573428Y-69905619D02*
X207621047Y-69858000D01*
X207716285Y-69810380D01*
X207954380Y-69810380D01*
X208049619Y-69858000D01*
X208097238Y-69905619D01*
X208144857Y-70000857D01*
X208144857Y-70096095D01*
X208097238Y-70238952D01*
X207525809Y-70810380D01*
X208144857Y-70810380D01*
X208478190Y-69810380D02*
X209144857Y-69810380D01*
X208716285Y-70810380D01*
X215797142Y-69810380D02*
X216463809Y-69810380D01*
X216035238Y-70810380D01*
X217273333Y-70143714D02*
X217273333Y-70810380D01*
X217035238Y-69762761D02*
X216797142Y-70477047D01*
X217416190Y-70477047D01*
X218273333Y-70810380D02*
X217797142Y-70810380D01*
X217797142Y-69810380D01*
X218559047Y-70762761D02*
X218701904Y-70810380D01*
X218940000Y-70810380D01*
X219035238Y-70762761D01*
X219082857Y-70715142D01*
X219130476Y-70619904D01*
X219130476Y-70524666D01*
X219082857Y-70429428D01*
X219035238Y-70381809D01*
X218940000Y-70334190D01*
X218749523Y-70286571D01*
X218654285Y-70238952D01*
X218606666Y-70191333D01*
X218559047Y-70096095D01*
X218559047Y-70000857D01*
X218606666Y-69905619D01*
X218654285Y-69858000D01*
X218749523Y-69810380D01*
X218987619Y-69810380D01*
X219130476Y-69858000D01*
X219463809Y-69810380D02*
X220082857Y-69810380D01*
X219749523Y-70191333D01*
X219892380Y-70191333D01*
X219987619Y-70238952D01*
X220035238Y-70286571D01*
X220082857Y-70381809D01*
X220082857Y-70619904D01*
X220035238Y-70715142D01*
X219987619Y-70762761D01*
X219892380Y-70810380D01*
X219606666Y-70810380D01*
X219511428Y-70762761D01*
X219463809Y-70715142D01*
X220701904Y-69810380D02*
X220797142Y-69810380D01*
X220892380Y-69858000D01*
X220940000Y-69905619D01*
X220987619Y-70000857D01*
X221035238Y-70191333D01*
X221035238Y-70429428D01*
X220987619Y-70619904D01*
X220940000Y-70715142D01*
X220892380Y-70762761D01*
X220797142Y-70810380D01*
X220701904Y-70810380D01*
X220606666Y-70762761D01*
X220559047Y-70715142D01*
X220511428Y-70619904D01*
X220463809Y-70429428D01*
X220463809Y-70191333D01*
X220511428Y-70000857D01*
X220559047Y-69905619D01*
X220606666Y-69858000D01*
X220701904Y-69810380D01*
X82875333Y-103804095D02*
X82827714Y-103851714D01*
X82684857Y-103946952D01*
X82589619Y-103994571D01*
X82446761Y-104042190D01*
X82208666Y-104089809D01*
X82018190Y-104089809D01*
X81780095Y-104042190D01*
X81637238Y-103994571D01*
X81542000Y-103946952D01*
X81399142Y-103851714D01*
X81351523Y-103804095D01*
X82446761Y-102994571D02*
X82494380Y-103089809D01*
X82494380Y-103280285D01*
X82446761Y-103375523D01*
X82399142Y-103423142D01*
X82303904Y-103470761D01*
X82018190Y-103470761D01*
X81922952Y-103423142D01*
X81875333Y-103375523D01*
X81827714Y-103280285D01*
X81827714Y-103089809D01*
X81875333Y-102994571D01*
X82875333Y-102661238D02*
X82827714Y-102613619D01*
X82684857Y-102518380D01*
X82589619Y-102470761D01*
X82446761Y-102423142D01*
X82208666Y-102375523D01*
X82018190Y-102375523D01*
X81780095Y-102423142D01*
X81637238Y-102470761D01*
X81542000Y-102518380D01*
X81399142Y-102613619D01*
X81351523Y-102661238D01*
X82399142Y-100566000D02*
X82446761Y-100613619D01*
X82494380Y-100756476D01*
X82494380Y-100851714D01*
X82446761Y-100994571D01*
X82351523Y-101089809D01*
X82256285Y-101137428D01*
X82065809Y-101185047D01*
X81922952Y-101185047D01*
X81732476Y-101137428D01*
X81637238Y-101089809D01*
X81542000Y-100994571D01*
X81494380Y-100851714D01*
X81494380Y-100756476D01*
X81542000Y-100613619D01*
X81589619Y-100566000D01*
X81827714Y-100232666D02*
X82494380Y-99994571D01*
X81827714Y-99756476D02*
X82494380Y-99994571D01*
X82732476Y-100089809D01*
X82780095Y-100137428D01*
X82827714Y-100232666D01*
X82494380Y-99375523D02*
X81494380Y-99375523D01*
X81875333Y-99375523D02*
X81827714Y-99280285D01*
X81827714Y-99089809D01*
X81875333Y-98994571D01*
X81922952Y-98946952D01*
X82018190Y-98899333D01*
X82303904Y-98899333D01*
X82399142Y-98946952D01*
X82446761Y-98994571D01*
X82494380Y-99089809D01*
X82494380Y-99280285D01*
X82446761Y-99375523D01*
X82446761Y-98089809D02*
X82494380Y-98185047D01*
X82494380Y-98375523D01*
X82446761Y-98470761D01*
X82351523Y-98518380D01*
X81970571Y-98518380D01*
X81875333Y-98470761D01*
X81827714Y-98375523D01*
X81827714Y-98185047D01*
X81875333Y-98089809D01*
X81970571Y-98042190D01*
X82065809Y-98042190D01*
X82161047Y-98518380D01*
X82494380Y-97613619D02*
X81827714Y-97613619D01*
X82018190Y-97613619D02*
X81922952Y-97566000D01*
X81875333Y-97518380D01*
X81827714Y-97423142D01*
X81827714Y-97327904D01*
X82446761Y-97042190D02*
X82494380Y-96946952D01*
X82494380Y-96756476D01*
X82446761Y-96661238D01*
X82351523Y-96613619D01*
X82303904Y-96613619D01*
X82208666Y-96661238D01*
X82161047Y-96756476D01*
X82161047Y-96899333D01*
X82113428Y-96994571D01*
X82018190Y-97042190D01*
X81970571Y-97042190D01*
X81875333Y-96994571D01*
X81827714Y-96899333D01*
X81827714Y-96756476D01*
X81875333Y-96661238D01*
X81827714Y-96185047D02*
X82827714Y-96185047D01*
X81875333Y-96185047D02*
X81827714Y-96089809D01*
X81827714Y-95899333D01*
X81875333Y-95804095D01*
X81922952Y-95756476D01*
X82018190Y-95708857D01*
X82303904Y-95708857D01*
X82399142Y-95756476D01*
X82446761Y-95804095D01*
X82494380Y-95899333D01*
X82494380Y-96089809D01*
X82446761Y-96185047D01*
X82494380Y-95280285D02*
X81827714Y-95280285D01*
X81494380Y-95280285D02*
X81542000Y-95327904D01*
X81589619Y-95280285D01*
X81542000Y-95232666D01*
X81494380Y-95280285D01*
X81589619Y-95280285D01*
X82446761Y-94375523D02*
X82494380Y-94470761D01*
X82494380Y-94661238D01*
X82446761Y-94756476D01*
X82399142Y-94804095D01*
X82303904Y-94851714D01*
X82018190Y-94851714D01*
X81922952Y-94804095D01*
X81875333Y-94756476D01*
X81827714Y-94661238D01*
X81827714Y-94470761D01*
X81875333Y-94375523D01*
X82446761Y-93566000D02*
X82494380Y-93661238D01*
X82494380Y-93851714D01*
X82446761Y-93946952D01*
X82351523Y-93994571D01*
X81970571Y-93994571D01*
X81875333Y-93946952D01*
X81827714Y-93851714D01*
X81827714Y-93661238D01*
X81875333Y-93566000D01*
X81970571Y-93518380D01*
X82065809Y-93518380D01*
X82161047Y-93994571D01*
X81589619Y-92375523D02*
X81542000Y-92327904D01*
X81494380Y-92232666D01*
X81494380Y-91994571D01*
X81542000Y-91899333D01*
X81589619Y-91851714D01*
X81684857Y-91804095D01*
X81780095Y-91804095D01*
X81922952Y-91851714D01*
X82494380Y-92423142D01*
X82494380Y-91804095D01*
X81494380Y-91185047D02*
X81494380Y-91089809D01*
X81542000Y-90994571D01*
X81589619Y-90946952D01*
X81684857Y-90899333D01*
X81875333Y-90851714D01*
X82113428Y-90851714D01*
X82303904Y-90899333D01*
X82399142Y-90946952D01*
X82446761Y-90994571D01*
X82494380Y-91089809D01*
X82494380Y-91185047D01*
X82446761Y-91280285D01*
X82399142Y-91327904D01*
X82303904Y-91375523D01*
X82113428Y-91423142D01*
X81875333Y-91423142D01*
X81684857Y-91375523D01*
X81589619Y-91327904D01*
X81542000Y-91280285D01*
X81494380Y-91185047D01*
X81589619Y-90470761D02*
X81542000Y-90423142D01*
X81494380Y-90327904D01*
X81494380Y-90089809D01*
X81542000Y-89994571D01*
X81589619Y-89946952D01*
X81684857Y-89899333D01*
X81780095Y-89899333D01*
X81922952Y-89946952D01*
X82494380Y-90518380D01*
X82494380Y-89899333D01*
X81589619Y-89518380D02*
X81542000Y-89470761D01*
X81494380Y-89375523D01*
X81494380Y-89137428D01*
X81542000Y-89042190D01*
X81589619Y-88994571D01*
X81684857Y-88946952D01*
X81780095Y-88946952D01*
X81922952Y-88994571D01*
X82494380Y-89566000D01*
X82494380Y-88946952D01*
X82113428Y-87756476D02*
X82113428Y-86994571D01*
X82494380Y-85756476D02*
X81494380Y-85756476D01*
X82494380Y-85327904D02*
X81970571Y-85327904D01*
X81875333Y-85375523D01*
X81827714Y-85470761D01*
X81827714Y-85613619D01*
X81875333Y-85708857D01*
X81922952Y-85756476D01*
X81827714Y-84994571D02*
X81827714Y-84613619D01*
X81494380Y-84851714D02*
X82351523Y-84851714D01*
X82446761Y-84804095D01*
X82494380Y-84708857D01*
X82494380Y-84613619D01*
X81827714Y-84423142D02*
X81827714Y-84042190D01*
X81494380Y-84280285D02*
X82351523Y-84280285D01*
X82446761Y-84232666D01*
X82494380Y-84137428D01*
X82494380Y-84042190D01*
X81827714Y-83708857D02*
X82827714Y-83708857D01*
X81875333Y-83708857D02*
X81827714Y-83613619D01*
X81827714Y-83423142D01*
X81875333Y-83327904D01*
X81922952Y-83280285D01*
X82018190Y-83232666D01*
X82303904Y-83232666D01*
X82399142Y-83280285D01*
X82446761Y-83327904D01*
X82494380Y-83423142D01*
X82494380Y-83613619D01*
X82446761Y-83708857D01*
X82399142Y-82804095D02*
X82446761Y-82756476D01*
X82494380Y-82804095D01*
X82446761Y-82851714D01*
X82399142Y-82804095D01*
X82494380Y-82804095D01*
X81875333Y-82804095D02*
X81922952Y-82756476D01*
X81970571Y-82804095D01*
X81922952Y-82851714D01*
X81875333Y-82804095D01*
X81970571Y-82804095D01*
X81446761Y-81613619D02*
X82732476Y-82470761D01*
X81446761Y-80566000D02*
X82732476Y-81423142D01*
X81827714Y-80327904D02*
X82494380Y-80137428D01*
X82018190Y-79946952D01*
X82494380Y-79756476D01*
X81827714Y-79566000D01*
X81827714Y-79280285D02*
X82494380Y-79089809D01*
X82018190Y-78899333D01*
X82494380Y-78708857D01*
X81827714Y-78518380D01*
X81827714Y-78232666D02*
X82494380Y-78042190D01*
X82018190Y-77851714D01*
X82494380Y-77661238D01*
X81827714Y-77470761D01*
X82399142Y-77089809D02*
X82446761Y-77042190D01*
X82494380Y-77089809D01*
X82446761Y-77137428D01*
X82399142Y-77089809D01*
X82494380Y-77089809D01*
X82446761Y-76185047D02*
X82494380Y-76280285D01*
X82494380Y-76470761D01*
X82446761Y-76566000D01*
X82399142Y-76613619D01*
X82303904Y-76661238D01*
X82018190Y-76661238D01*
X81922952Y-76613619D01*
X81875333Y-76566000D01*
X81827714Y-76470761D01*
X81827714Y-76280285D01*
X81875333Y-76185047D01*
X81827714Y-75851714D02*
X82494380Y-75613619D01*
X81827714Y-75375523D02*
X82494380Y-75613619D01*
X82732476Y-75708857D01*
X82780095Y-75756476D01*
X82827714Y-75851714D01*
X82494380Y-74994571D02*
X81494380Y-74994571D01*
X81875333Y-74994571D02*
X81827714Y-74899333D01*
X81827714Y-74708857D01*
X81875333Y-74613619D01*
X81922952Y-74566000D01*
X82018190Y-74518380D01*
X82303904Y-74518380D01*
X82399142Y-74566000D01*
X82446761Y-74613619D01*
X82494380Y-74708857D01*
X82494380Y-74899333D01*
X82446761Y-74994571D01*
X82446761Y-73708857D02*
X82494380Y-73804095D01*
X82494380Y-73994571D01*
X82446761Y-74089809D01*
X82351523Y-74137428D01*
X81970571Y-74137428D01*
X81875333Y-74089809D01*
X81827714Y-73994571D01*
X81827714Y-73804095D01*
X81875333Y-73708857D01*
X81970571Y-73661238D01*
X82065809Y-73661238D01*
X82161047Y-74137428D01*
X82494380Y-73232666D02*
X81827714Y-73232666D01*
X82018190Y-73232666D02*
X81922952Y-73185047D01*
X81875333Y-73137428D01*
X81827714Y-73042190D01*
X81827714Y-72946952D01*
X82446761Y-72661238D02*
X82494380Y-72566000D01*
X82494380Y-72375523D01*
X82446761Y-72280285D01*
X82351523Y-72232666D01*
X82303904Y-72232666D01*
X82208666Y-72280285D01*
X82161047Y-72375523D01*
X82161047Y-72518380D01*
X82113428Y-72613619D01*
X82018190Y-72661238D01*
X81970571Y-72661238D01*
X81875333Y-72613619D01*
X81827714Y-72518380D01*
X81827714Y-72375523D01*
X81875333Y-72280285D01*
X81827714Y-71804095D02*
X82827714Y-71804095D01*
X81875333Y-71804095D02*
X81827714Y-71708857D01*
X81827714Y-71518380D01*
X81875333Y-71423142D01*
X81922952Y-71375523D01*
X82018190Y-71327904D01*
X82303904Y-71327904D01*
X82399142Y-71375523D01*
X82446761Y-71423142D01*
X82494380Y-71518380D01*
X82494380Y-71708857D01*
X82446761Y-71804095D01*
X82494380Y-70899333D02*
X81827714Y-70899333D01*
X81494380Y-70899333D02*
X81542000Y-70946952D01*
X81589619Y-70899333D01*
X81542000Y-70851714D01*
X81494380Y-70899333D01*
X81589619Y-70899333D01*
X82446761Y-69994571D02*
X82494380Y-70089809D01*
X82494380Y-70280285D01*
X82446761Y-70375523D01*
X82399142Y-70423142D01*
X82303904Y-70470761D01*
X82018190Y-70470761D01*
X81922952Y-70423142D01*
X81875333Y-70375523D01*
X81827714Y-70280285D01*
X81827714Y-70089809D01*
X81875333Y-69994571D01*
X82446761Y-69185047D02*
X82494380Y-69280285D01*
X82494380Y-69470761D01*
X82446761Y-69566000D01*
X82351523Y-69613619D01*
X81970571Y-69613619D01*
X81875333Y-69566000D01*
X81827714Y-69470761D01*
X81827714Y-69280285D01*
X81875333Y-69185047D01*
X81970571Y-69137428D01*
X82065809Y-69137428D01*
X82161047Y-69613619D01*
X82399142Y-68708857D02*
X82446761Y-68661238D01*
X82494380Y-68708857D01*
X82446761Y-68756476D01*
X82399142Y-68708857D01*
X82494380Y-68708857D01*
X82494380Y-68089809D02*
X82446761Y-68185047D01*
X82399142Y-68232666D01*
X82303904Y-68280285D01*
X82018190Y-68280285D01*
X81922952Y-68232666D01*
X81875333Y-68185047D01*
X81827714Y-68089809D01*
X81827714Y-67946952D01*
X81875333Y-67851714D01*
X81922952Y-67804095D01*
X82018190Y-67756476D01*
X82303904Y-67756476D01*
X82399142Y-67804095D01*
X82446761Y-67851714D01*
X82494380Y-67946952D01*
X82494380Y-68089809D01*
X82494380Y-67327904D02*
X81827714Y-67327904D01*
X82018190Y-67327904D02*
X81922952Y-67280285D01*
X81875333Y-67232666D01*
X81827714Y-67137428D01*
X81827714Y-67042190D01*
X81827714Y-66280285D02*
X82637238Y-66280285D01*
X82732476Y-66327904D01*
X82780095Y-66375523D01*
X82827714Y-66470761D01*
X82827714Y-66613619D01*
X82780095Y-66708857D01*
X82446761Y-66280285D02*
X82494380Y-66375523D01*
X82494380Y-66566000D01*
X82446761Y-66661238D01*
X82399142Y-66708857D01*
X82303904Y-66756476D01*
X82018190Y-66756476D01*
X81922952Y-66708857D01*
X81875333Y-66661238D01*
X81827714Y-66566000D01*
X81827714Y-66375523D01*
X81875333Y-66280285D01*
X82399142Y-65804095D02*
X82446761Y-65756476D01*
X82494380Y-65804095D01*
X82446761Y-65851714D01*
X82399142Y-65804095D01*
X82494380Y-65804095D01*
X81827714Y-64899333D02*
X82494380Y-64899333D01*
X81827714Y-65327904D02*
X82351523Y-65327904D01*
X82446761Y-65280285D01*
X82494380Y-65185047D01*
X82494380Y-65042190D01*
X82446761Y-64946952D01*
X82399142Y-64899333D01*
X82494380Y-64423142D02*
X81494380Y-64423142D01*
X82113428Y-64327904D02*
X82494380Y-64042190D01*
X81827714Y-64042190D02*
X82208666Y-64423142D01*
X81446761Y-62899333D02*
X82732476Y-63756476D01*
X99020380Y-56689142D02*
X99829904Y-56689142D01*
X99925142Y-56641523D01*
X99972761Y-56593904D01*
X100020380Y-56498666D01*
X100020380Y-56308190D01*
X99972761Y-56212952D01*
X99925142Y-56165333D01*
X99829904Y-56117714D01*
X99020380Y-56117714D01*
X99020380Y-55165333D02*
X99020380Y-55641523D01*
X99496571Y-55689142D01*
X99448952Y-55641523D01*
X99401333Y-55546285D01*
X99401333Y-55308190D01*
X99448952Y-55212952D01*
X99496571Y-55165333D01*
X99591809Y-55117714D01*
X99829904Y-55117714D01*
X99925142Y-55165333D01*
X99972761Y-55212952D01*
X100020380Y-55308190D01*
X100020380Y-55546285D01*
X99972761Y-55641523D01*
X99925142Y-55689142D01*
X99925142Y-53355809D02*
X99972761Y-53403428D01*
X100020380Y-53546285D01*
X100020380Y-53641523D01*
X99972761Y-53784380D01*
X99877523Y-53879619D01*
X99782285Y-53927238D01*
X99591809Y-53974857D01*
X99448952Y-53974857D01*
X99258476Y-53927238D01*
X99163238Y-53879619D01*
X99068000Y-53784380D01*
X99020380Y-53641523D01*
X99020380Y-53546285D01*
X99068000Y-53403428D01*
X99115619Y-53355809D01*
X100020380Y-52784380D02*
X99972761Y-52879619D01*
X99925142Y-52927238D01*
X99829904Y-52974857D01*
X99544190Y-52974857D01*
X99448952Y-52927238D01*
X99401333Y-52879619D01*
X99353714Y-52784380D01*
X99353714Y-52641523D01*
X99401333Y-52546285D01*
X99448952Y-52498666D01*
X99544190Y-52451047D01*
X99829904Y-52451047D01*
X99925142Y-52498666D01*
X99972761Y-52546285D01*
X100020380Y-52641523D01*
X100020380Y-52784380D01*
X99353714Y-52022476D02*
X100020380Y-52022476D01*
X99448952Y-52022476D02*
X99401333Y-51974857D01*
X99353714Y-51879619D01*
X99353714Y-51736761D01*
X99401333Y-51641523D01*
X99496571Y-51593904D01*
X100020380Y-51593904D01*
X99353714Y-51260571D02*
X99353714Y-50879619D01*
X99020380Y-51117714D02*
X99877523Y-51117714D01*
X99972761Y-51070095D01*
X100020380Y-50974857D01*
X100020380Y-50879619D01*
X100020380Y-50546285D02*
X99353714Y-50546285D01*
X99544190Y-50546285D02*
X99448952Y-50498666D01*
X99401333Y-50451047D01*
X99353714Y-50355809D01*
X99353714Y-50260571D01*
X100020380Y-49784380D02*
X99972761Y-49879619D01*
X99925142Y-49927238D01*
X99829904Y-49974857D01*
X99544190Y-49974857D01*
X99448952Y-49927238D01*
X99401333Y-49879619D01*
X99353714Y-49784380D01*
X99353714Y-49641523D01*
X99401333Y-49546285D01*
X99448952Y-49498666D01*
X99544190Y-49451047D01*
X99829904Y-49451047D01*
X99925142Y-49498666D01*
X99972761Y-49546285D01*
X100020380Y-49641523D01*
X100020380Y-49784380D01*
X100020380Y-48879619D02*
X99972761Y-48974857D01*
X99877523Y-49022476D01*
X99020380Y-49022476D01*
X108894571Y-59094476D02*
X108894571Y-59427809D01*
X109418380Y-59427809D02*
X108418380Y-59427809D01*
X108418380Y-58951619D01*
X109418380Y-58094476D02*
X109418380Y-58570666D01*
X108418380Y-58570666D01*
X109132666Y-57808761D02*
X109132666Y-57332571D01*
X109418380Y-57904000D02*
X108418380Y-57570666D01*
X109418380Y-57237333D01*
X109370761Y-56951619D02*
X109418380Y-56808761D01*
X109418380Y-56570666D01*
X109370761Y-56475428D01*
X109323142Y-56427809D01*
X109227904Y-56380190D01*
X109132666Y-56380190D01*
X109037428Y-56427809D01*
X108989809Y-56475428D01*
X108942190Y-56570666D01*
X108894571Y-56761142D01*
X108846952Y-56856380D01*
X108799333Y-56904000D01*
X108704095Y-56951619D01*
X108608857Y-56951619D01*
X108513619Y-56904000D01*
X108466000Y-56856380D01*
X108418380Y-56761142D01*
X108418380Y-56523047D01*
X108466000Y-56380190D01*
X109418380Y-55951619D02*
X108418380Y-55951619D01*
X108894571Y-55951619D02*
X108894571Y-55380190D01*
X109418380Y-55380190D02*
X108418380Y-55380190D01*
X109418380Y-53617714D02*
X108942190Y-53951047D01*
X109418380Y-54189142D02*
X108418380Y-54189142D01*
X108418380Y-53808190D01*
X108466000Y-53712952D01*
X108513619Y-53665333D01*
X108608857Y-53617714D01*
X108751714Y-53617714D01*
X108846952Y-53665333D01*
X108894571Y-53712952D01*
X108942190Y-53808190D01*
X108942190Y-54189142D01*
X108418380Y-52998666D02*
X108418380Y-52808190D01*
X108466000Y-52712952D01*
X108561238Y-52617714D01*
X108751714Y-52570095D01*
X109085047Y-52570095D01*
X109275523Y-52617714D01*
X109370761Y-52712952D01*
X109418380Y-52808190D01*
X109418380Y-52998666D01*
X109370761Y-53093904D01*
X109275523Y-53189142D01*
X109085047Y-53236761D01*
X108751714Y-53236761D01*
X108561238Y-53189142D01*
X108466000Y-53093904D01*
X108418380Y-52998666D01*
X109418380Y-52141523D02*
X108418380Y-52141523D01*
X109132666Y-51808190D01*
X108418380Y-51474857D01*
X109418380Y-51474857D01*
X108418380Y-45759523D02*
X108418380Y-45140476D01*
X108799333Y-45473809D01*
X108799333Y-45330952D01*
X108846952Y-45235714D01*
X108894571Y-45188095D01*
X108989809Y-45140476D01*
X109227904Y-45140476D01*
X109323142Y-45188095D01*
X109370761Y-45235714D01*
X109418380Y-45330952D01*
X109418380Y-45616666D01*
X109370761Y-45711904D01*
X109323142Y-45759523D01*
X108513619Y-44759523D02*
X108466000Y-44711904D01*
X108418380Y-44616666D01*
X108418380Y-44378571D01*
X108466000Y-44283333D01*
X108513619Y-44235714D01*
X108608857Y-44188095D01*
X108704095Y-44188095D01*
X108846952Y-44235714D01*
X109418380Y-44807142D01*
X109418380Y-44188095D01*
X109418380Y-43759523D02*
X108418380Y-43759523D01*
X109418380Y-43188095D02*
X108846952Y-43616666D01*
X108418380Y-43188095D02*
X108989809Y-43759523D01*
X104338380Y-45140476D02*
X104338380Y-45711904D01*
X104338380Y-45426190D02*
X103338380Y-45426190D01*
X103481238Y-45521428D01*
X103576476Y-45616666D01*
X103624095Y-45711904D01*
X103338380Y-44283333D02*
X103338380Y-44473809D01*
X103386000Y-44569047D01*
X103433619Y-44616666D01*
X103576476Y-44711904D01*
X103766952Y-44759523D01*
X104147904Y-44759523D01*
X104243142Y-44711904D01*
X104290761Y-44664285D01*
X104338380Y-44569047D01*
X104338380Y-44378571D01*
X104290761Y-44283333D01*
X104243142Y-44235714D01*
X104147904Y-44188095D01*
X103909809Y-44188095D01*
X103814571Y-44235714D01*
X103766952Y-44283333D01*
X103719333Y-44378571D01*
X103719333Y-44569047D01*
X103766952Y-44664285D01*
X103814571Y-44711904D01*
X103909809Y-44759523D01*
X104338380Y-43759523D02*
X103338380Y-43759523D01*
X104338380Y-43188095D02*
X103766952Y-43616666D01*
X103338380Y-43188095D02*
X103909809Y-43759523D01*
X215542761Y-111474095D02*
X215590380Y-111331238D01*
X215590380Y-111093142D01*
X215542761Y-110997904D01*
X215495142Y-110950285D01*
X215399904Y-110902666D01*
X215304666Y-110902666D01*
X215209428Y-110950285D01*
X215161809Y-110997904D01*
X215114190Y-111093142D01*
X215066571Y-111283619D01*
X215018952Y-111378857D01*
X214971333Y-111426476D01*
X214876095Y-111474095D01*
X214780857Y-111474095D01*
X214685619Y-111426476D01*
X214638000Y-111378857D01*
X214590380Y-111283619D01*
X214590380Y-111045523D01*
X214638000Y-110902666D01*
X214685619Y-110521714D02*
X214638000Y-110474095D01*
X214590380Y-110378857D01*
X214590380Y-110140761D01*
X214638000Y-110045523D01*
X214685619Y-109997904D01*
X214780857Y-109950285D01*
X214876095Y-109950285D01*
X215018952Y-109997904D01*
X215590380Y-110569333D01*
X215590380Y-109950285D01*
X215590380Y-108997904D02*
X215590380Y-109569333D01*
X215590380Y-109283619D02*
X214590380Y-109283619D01*
X214733238Y-109378857D01*
X214828476Y-109474095D01*
X214876095Y-109569333D01*
X213764761Y-108680095D02*
X213812380Y-108537238D01*
X213812380Y-108299142D01*
X213764761Y-108203904D01*
X213717142Y-108156285D01*
X213621904Y-108108666D01*
X213526666Y-108108666D01*
X213431428Y-108156285D01*
X213383809Y-108203904D01*
X213336190Y-108299142D01*
X213288571Y-108489619D01*
X213240952Y-108584857D01*
X213193333Y-108632476D01*
X213098095Y-108680095D01*
X213002857Y-108680095D01*
X212907619Y-108632476D01*
X212860000Y-108584857D01*
X212812380Y-108489619D01*
X212812380Y-108251523D01*
X212860000Y-108108666D01*
X212907619Y-107727714D02*
X212860000Y-107680095D01*
X212812380Y-107584857D01*
X212812380Y-107346761D01*
X212860000Y-107251523D01*
X212907619Y-107203904D01*
X213002857Y-107156285D01*
X213098095Y-107156285D01*
X213240952Y-107203904D01*
X213812380Y-107775333D01*
X213812380Y-107156285D01*
X212812380Y-106537238D02*
X212812380Y-106442000D01*
X212860000Y-106346761D01*
X212907619Y-106299142D01*
X213002857Y-106251523D01*
X213193333Y-106203904D01*
X213431428Y-106203904D01*
X213621904Y-106251523D01*
X213717142Y-106299142D01*
X213764761Y-106346761D01*
X213812380Y-106442000D01*
X213812380Y-106537238D01*
X213764761Y-106632476D01*
X213717142Y-106680095D01*
X213621904Y-106727714D01*
X213431428Y-106775333D01*
X213193333Y-106775333D01*
X213002857Y-106727714D01*
X212907619Y-106680095D01*
X212860000Y-106632476D01*
X212812380Y-106537238D01*
X215542761Y-105886095D02*
X215590380Y-105743238D01*
X215590380Y-105505142D01*
X215542761Y-105409904D01*
X215495142Y-105362285D01*
X215399904Y-105314666D01*
X215304666Y-105314666D01*
X215209428Y-105362285D01*
X215161809Y-105409904D01*
X215114190Y-105505142D01*
X215066571Y-105695619D01*
X215018952Y-105790857D01*
X214971333Y-105838476D01*
X214876095Y-105886095D01*
X214780857Y-105886095D01*
X214685619Y-105838476D01*
X214638000Y-105790857D01*
X214590380Y-105695619D01*
X214590380Y-105457523D01*
X214638000Y-105314666D01*
X214685619Y-104933714D02*
X214638000Y-104886095D01*
X214590380Y-104790857D01*
X214590380Y-104552761D01*
X214638000Y-104457523D01*
X214685619Y-104409904D01*
X214780857Y-104362285D01*
X214876095Y-104362285D01*
X215018952Y-104409904D01*
X215590380Y-104981333D01*
X215590380Y-104362285D01*
X214685619Y-103981333D02*
X214638000Y-103933714D01*
X214590380Y-103838476D01*
X214590380Y-103600380D01*
X214638000Y-103505142D01*
X214685619Y-103457523D01*
X214780857Y-103409904D01*
X214876095Y-103409904D01*
X215018952Y-103457523D01*
X215590380Y-104028952D01*
X215590380Y-103409904D01*
X170140380Y-121324095D02*
X170140380Y-121514571D01*
X170188000Y-121609809D01*
X170235619Y-121657428D01*
X170378476Y-121752666D01*
X170568952Y-121800285D01*
X170949904Y-121800285D01*
X171045142Y-121752666D01*
X171092761Y-121705047D01*
X171140380Y-121609809D01*
X171140380Y-121419333D01*
X171092761Y-121324095D01*
X171045142Y-121276476D01*
X170949904Y-121228857D01*
X170711809Y-121228857D01*
X170616571Y-121276476D01*
X170568952Y-121324095D01*
X170521333Y-121419333D01*
X170521333Y-121609809D01*
X170568952Y-121705047D01*
X170616571Y-121752666D01*
X170711809Y-121800285D01*
X170140380Y-120324095D02*
X170140380Y-120800285D01*
X170616571Y-120847904D01*
X170568952Y-120800285D01*
X170521333Y-120705047D01*
X170521333Y-120466952D01*
X170568952Y-120371714D01*
X170616571Y-120324095D01*
X170711809Y-120276476D01*
X170949904Y-120276476D01*
X171045142Y-120324095D01*
X171092761Y-120371714D01*
X171140380Y-120466952D01*
X171140380Y-120705047D01*
X171092761Y-120800285D01*
X171045142Y-120847904D01*
X170140380Y-119657428D02*
X170140380Y-119562190D01*
X170188000Y-119466952D01*
X170235619Y-119419333D01*
X170330857Y-119371714D01*
X170521333Y-119324095D01*
X170759428Y-119324095D01*
X170949904Y-119371714D01*
X171045142Y-119419333D01*
X171092761Y-119466952D01*
X171140380Y-119562190D01*
X171140380Y-119657428D01*
X171092761Y-119752666D01*
X171045142Y-119800285D01*
X170949904Y-119847904D01*
X170759428Y-119895523D01*
X170521333Y-119895523D01*
X170330857Y-119847904D01*
X170235619Y-119800285D01*
X170188000Y-119752666D01*
X170140380Y-119657428D01*
X170235619Y-118943142D02*
X170188000Y-118895523D01*
X170140380Y-118800285D01*
X170140380Y-118562190D01*
X170188000Y-118466952D01*
X170235619Y-118419333D01*
X170330857Y-118371714D01*
X170426095Y-118371714D01*
X170568952Y-118419333D01*
X171140380Y-118990761D01*
X171140380Y-118371714D01*
X170092761Y-117228857D02*
X171378476Y-118086000D01*
X170140380Y-116990761D02*
X171140380Y-116752666D01*
X170426095Y-116562190D01*
X171140380Y-116371714D01*
X170140380Y-116133619D01*
X170140380Y-115324095D02*
X170140380Y-115514571D01*
X170188000Y-115609809D01*
X170235619Y-115657428D01*
X170378476Y-115752666D01*
X170568952Y-115800285D01*
X170949904Y-115800285D01*
X171045142Y-115752666D01*
X171092761Y-115705047D01*
X171140380Y-115609809D01*
X171140380Y-115419333D01*
X171092761Y-115324095D01*
X171045142Y-115276476D01*
X170949904Y-115228857D01*
X170711809Y-115228857D01*
X170616571Y-115276476D01*
X170568952Y-115324095D01*
X170521333Y-115419333D01*
X170521333Y-115609809D01*
X170568952Y-115705047D01*
X170616571Y-115752666D01*
X170711809Y-115800285D01*
X170140380Y-114324095D02*
X170140380Y-114800285D01*
X170616571Y-114847904D01*
X170568952Y-114800285D01*
X170521333Y-114705047D01*
X170521333Y-114466952D01*
X170568952Y-114371714D01*
X170616571Y-114324095D01*
X170711809Y-114276476D01*
X170949904Y-114276476D01*
X171045142Y-114324095D01*
X171092761Y-114371714D01*
X171140380Y-114466952D01*
X171140380Y-114705047D01*
X171092761Y-114800285D01*
X171045142Y-114847904D01*
X171045142Y-113276476D02*
X171092761Y-113324095D01*
X171140380Y-113466952D01*
X171140380Y-113562190D01*
X171092761Y-113705047D01*
X170997523Y-113800285D01*
X170902285Y-113847904D01*
X170711809Y-113895523D01*
X170568952Y-113895523D01*
X170378476Y-113847904D01*
X170283238Y-113800285D01*
X170188000Y-113705047D01*
X170140380Y-113562190D01*
X170140380Y-113466952D01*
X170188000Y-113324095D01*
X170235619Y-113276476D01*
X170140380Y-112657428D02*
X170140380Y-112562190D01*
X170188000Y-112466952D01*
X170235619Y-112419333D01*
X170330857Y-112371714D01*
X170521333Y-112324095D01*
X170759428Y-112324095D01*
X170949904Y-112371714D01*
X171045142Y-112419333D01*
X171092761Y-112466952D01*
X171140380Y-112562190D01*
X171140380Y-112657428D01*
X171092761Y-112752666D01*
X171045142Y-112800285D01*
X170949904Y-112847904D01*
X170759428Y-112895523D01*
X170521333Y-112895523D01*
X170330857Y-112847904D01*
X170235619Y-112800285D01*
X170188000Y-112752666D01*
X170140380Y-112657428D01*
X170235619Y-111943142D02*
X170188000Y-111895523D01*
X170140380Y-111800285D01*
X170140380Y-111562190D01*
X170188000Y-111466952D01*
X170235619Y-111419333D01*
X170330857Y-111371714D01*
X170426095Y-111371714D01*
X170568952Y-111419333D01*
X171140380Y-111990761D01*
X171140380Y-111371714D01*
X182253380Y-114665047D02*
X181777190Y-114998380D01*
X182253380Y-115236476D02*
X181253380Y-115236476D01*
X181253380Y-114855523D01*
X181301000Y-114760285D01*
X181348619Y-114712666D01*
X181443857Y-114665047D01*
X181586714Y-114665047D01*
X181681952Y-114712666D01*
X181729571Y-114760285D01*
X181777190Y-114855523D01*
X181777190Y-115236476D01*
X182253380Y-114236476D02*
X181253380Y-114236476D01*
X181253380Y-113998380D01*
X181301000Y-113855523D01*
X181396238Y-113760285D01*
X181491476Y-113712666D01*
X181681952Y-113665047D01*
X181824809Y-113665047D01*
X182015285Y-113712666D01*
X182110523Y-113760285D01*
X182205761Y-113855523D01*
X182253380Y-113998380D01*
X182253380Y-114236476D01*
X181777190Y-113046000D02*
X182253380Y-113046000D01*
X181253380Y-113379333D02*
X181777190Y-113046000D01*
X181253380Y-112712666D01*
X183903380Y-115474571D02*
X182903380Y-115474571D01*
X183379571Y-115474571D02*
X183379571Y-114903142D01*
X183903380Y-114903142D02*
X182903380Y-114903142D01*
X183903380Y-114426952D02*
X183236714Y-114426952D01*
X182903380Y-114426952D02*
X182951000Y-114474571D01*
X182998619Y-114426952D01*
X182951000Y-114379333D01*
X182903380Y-114426952D01*
X182998619Y-114426952D01*
X183236714Y-113522190D02*
X184046238Y-113522190D01*
X184141476Y-113569809D01*
X184189095Y-113617428D01*
X184236714Y-113712666D01*
X184236714Y-113855523D01*
X184189095Y-113950761D01*
X183855761Y-113522190D02*
X183903380Y-113617428D01*
X183903380Y-113807904D01*
X183855761Y-113903142D01*
X183808142Y-113950761D01*
X183712904Y-113998380D01*
X183427190Y-113998380D01*
X183331952Y-113950761D01*
X183284333Y-113903142D01*
X183236714Y-113807904D01*
X183236714Y-113617428D01*
X183284333Y-113522190D01*
X183903380Y-113046000D02*
X182903380Y-113046000D01*
X183903380Y-112617428D02*
X183379571Y-112617428D01*
X183284333Y-112665047D01*
X183236714Y-112760285D01*
X183236714Y-112903142D01*
X183284333Y-112998380D01*
X183331952Y-113046000D01*
X182253380Y-120554571D02*
X181253380Y-120554571D01*
X181253380Y-120173619D01*
X181301000Y-120078380D01*
X181348619Y-120030761D01*
X181443857Y-119983142D01*
X181586714Y-119983142D01*
X181681952Y-120030761D01*
X181729571Y-120078380D01*
X181777190Y-120173619D01*
X181777190Y-120554571D01*
X182253380Y-119554571D02*
X181586714Y-119554571D01*
X181253380Y-119554571D02*
X181301000Y-119602190D01*
X181348619Y-119554571D01*
X181301000Y-119506952D01*
X181253380Y-119554571D01*
X181348619Y-119554571D01*
X181586714Y-119078380D02*
X182253380Y-119078380D01*
X181681952Y-119078380D02*
X181634333Y-119030761D01*
X181586714Y-118935523D01*
X181586714Y-118792666D01*
X181634333Y-118697428D01*
X181729571Y-118649809D01*
X182253380Y-118649809D01*
X182253380Y-117649809D02*
X182253380Y-118221238D01*
X182253380Y-117935523D02*
X181253380Y-117935523D01*
X181396238Y-118030761D01*
X181491476Y-118126000D01*
X181539095Y-118221238D01*
X182951000Y-119887904D02*
X182903380Y-119983142D01*
X182903380Y-120126000D01*
X182951000Y-120268857D01*
X183046238Y-120364095D01*
X183141476Y-120411714D01*
X183331952Y-120459333D01*
X183474809Y-120459333D01*
X183665285Y-120411714D01*
X183760523Y-120364095D01*
X183855761Y-120268857D01*
X183903380Y-120126000D01*
X183903380Y-120030761D01*
X183855761Y-119887904D01*
X183808142Y-119840285D01*
X183474809Y-119840285D01*
X183474809Y-120030761D01*
X183903380Y-119411714D02*
X182903380Y-119411714D01*
X183903380Y-118840285D01*
X182903380Y-118840285D01*
X183903380Y-118364095D02*
X182903380Y-118364095D01*
X182903380Y-118126000D01*
X182951000Y-117983142D01*
X183046238Y-117887904D01*
X183141476Y-117840285D01*
X183331952Y-117792666D01*
X183474809Y-117792666D01*
X183665285Y-117840285D01*
X183760523Y-117887904D01*
X183855761Y-117983142D01*
X183903380Y-118126000D01*
X183903380Y-118364095D01*
D11*
%TO.C,REF\u002A\u002A*%
G36*
X91999903Y-125478100D02*
G01*
X92055522Y-125366550D01*
X92157931Y-125268092D01*
X92195864Y-125240977D01*
X92245500Y-125211438D01*
X92299412Y-125192272D01*
X92371364Y-125181307D01*
X92475122Y-125176371D01*
X92612101Y-125175287D01*
X92799815Y-125180182D01*
X92940758Y-125197196D01*
X93045908Y-125229823D01*
X93126243Y-125281558D01*
X93192741Y-125355896D01*
X93196678Y-125361358D01*
X93236953Y-125434620D01*
X93256880Y-125522840D01*
X93261793Y-125635038D01*
X93261793Y-125817433D01*
X93438857Y-125817509D01*
X93537470Y-125819207D01*
X93595314Y-125829550D01*
X93630006Y-125856578D01*
X93659164Y-125908332D01*
X93665121Y-125920761D01*
X93693039Y-125978923D01*
X93710672Y-126023956D01*
X93712194Y-126057441D01*
X93691781Y-126080962D01*
X93643607Y-126096100D01*
X93561846Y-126104437D01*
X93440672Y-126107556D01*
X93274260Y-126107040D01*
X93056785Y-126104471D01*
X92991736Y-126103668D01*
X92767502Y-126100778D01*
X92620821Y-126098188D01*
X92620821Y-125817586D01*
X92745326Y-125816009D01*
X92826787Y-125809000D01*
X92880515Y-125793142D01*
X92921823Y-125765019D01*
X92941971Y-125745925D01*
X93000921Y-125667865D01*
X93005720Y-125598753D01*
X92957038Y-125527440D01*
X92955241Y-125525632D01*
X92917618Y-125496617D01*
X92866484Y-125478967D01*
X92787738Y-125470064D01*
X92667276Y-125467291D01*
X92640588Y-125467241D01*
X92474583Y-125473942D01*
X92359505Y-125495752D01*
X92289254Y-125535235D01*
X92257729Y-125594956D01*
X92254552Y-125629472D01*
X92269460Y-125711389D01*
X92318548Y-125767579D01*
X92408362Y-125801402D01*
X92545445Y-125816220D01*
X92620821Y-125817586D01*
X92620821Y-126098188D01*
X92593952Y-126097713D01*
X92463382Y-126093753D01*
X92368087Y-126088174D01*
X92300364Y-126080254D01*
X92252507Y-126069269D01*
X92216813Y-126054499D01*
X92185578Y-126035218D01*
X92173824Y-126026951D01*
X92062797Y-125917288D01*
X91999847Y-125778635D01*
X91982297Y-125618246D01*
X91999903Y-125478100D01*
G37*
X91999903Y-125478100D02*
X92055522Y-125366550D01*
X92157931Y-125268092D01*
X92195864Y-125240977D01*
X92245500Y-125211438D01*
X92299412Y-125192272D01*
X92371364Y-125181307D01*
X92475122Y-125176371D01*
X92612101Y-125175287D01*
X92799815Y-125180182D01*
X92940758Y-125197196D01*
X93045908Y-125229823D01*
X93126243Y-125281558D01*
X93192741Y-125355896D01*
X93196678Y-125361358D01*
X93236953Y-125434620D01*
X93256880Y-125522840D01*
X93261793Y-125635038D01*
X93261793Y-125817433D01*
X93438857Y-125817509D01*
X93537470Y-125819207D01*
X93595314Y-125829550D01*
X93630006Y-125856578D01*
X93659164Y-125908332D01*
X93665121Y-125920761D01*
X93693039Y-125978923D01*
X93710672Y-126023956D01*
X93712194Y-126057441D01*
X93691781Y-126080962D01*
X93643607Y-126096100D01*
X93561846Y-126104437D01*
X93440672Y-126107556D01*
X93274260Y-126107040D01*
X93056785Y-126104471D01*
X92991736Y-126103668D01*
X92767502Y-126100778D01*
X92620821Y-126098188D01*
X92620821Y-125817586D01*
X92745326Y-125816009D01*
X92826787Y-125809000D01*
X92880515Y-125793142D01*
X92921823Y-125765019D01*
X92941971Y-125745925D01*
X93000921Y-125667865D01*
X93005720Y-125598753D01*
X92957038Y-125527440D01*
X92955241Y-125525632D01*
X92917618Y-125496617D01*
X92866484Y-125478967D01*
X92787738Y-125470064D01*
X92667276Y-125467291D01*
X92640588Y-125467241D01*
X92474583Y-125473942D01*
X92359505Y-125495752D01*
X92289254Y-125535235D01*
X92257729Y-125594956D01*
X92254552Y-125629472D01*
X92269460Y-125711389D01*
X92318548Y-125767579D01*
X92408362Y-125801402D01*
X92545445Y-125816220D01*
X92620821Y-125817586D01*
X92620821Y-126098188D01*
X92593952Y-126097713D01*
X92463382Y-126093753D01*
X92368087Y-126088174D01*
X92300364Y-126080254D01*
X92252507Y-126069269D01*
X92216813Y-126054499D01*
X92185578Y-126035218D01*
X92173824Y-126026951D01*
X92062797Y-125917288D01*
X91999847Y-125778635D01*
X91982297Y-125618246D01*
X91999903Y-125478100D01*
G36*
X92015719Y-123232571D02*
G01*
X92069914Y-123138877D01*
X92123707Y-123073736D01*
X92180066Y-123026093D01*
X92248987Y-122993272D01*
X92340468Y-122972594D01*
X92464506Y-122961380D01*
X92631098Y-122956951D01*
X92750851Y-122956437D01*
X93191659Y-122956437D01*
X93247283Y-123080517D01*
X93302907Y-123204598D01*
X92820095Y-123219195D01*
X92639779Y-123225227D01*
X92508901Y-123231555D01*
X92418511Y-123239394D01*
X92359664Y-123249963D01*
X92323413Y-123264477D01*
X92300810Y-123284152D01*
X92295917Y-123290465D01*
X92257706Y-123386112D01*
X92272827Y-123482793D01*
X92312943Y-123540345D01*
X92341370Y-123563755D01*
X92378672Y-123579961D01*
X92435223Y-123590259D01*
X92521394Y-123595951D01*
X92647558Y-123598336D01*
X92779042Y-123598736D01*
X92943999Y-123598814D01*
X93060761Y-123601639D01*
X93139510Y-123611093D01*
X93190431Y-123631060D01*
X93223706Y-123665424D01*
X93249520Y-123718068D01*
X93276344Y-123788383D01*
X93305542Y-123865180D01*
X92787346Y-123856038D01*
X92600539Y-123852357D01*
X92462490Y-123848050D01*
X92363568Y-123841877D01*
X92294145Y-123832598D01*
X92244590Y-123818973D01*
X92205273Y-123799761D01*
X92170584Y-123776598D01*
X92059770Y-123664848D01*
X91995689Y-123528487D01*
X91980339Y-123380175D01*
X92015719Y-123232571D01*
G37*
X92015719Y-123232571D02*
X92069914Y-123138877D01*
X92123707Y-123073736D01*
X92180066Y-123026093D01*
X92248987Y-122993272D01*
X92340468Y-122972594D01*
X92464506Y-122961380D01*
X92631098Y-122956951D01*
X92750851Y-122956437D01*
X93191659Y-122956437D01*
X93247283Y-123080517D01*
X93302907Y-123204598D01*
X92820095Y-123219195D01*
X92639779Y-123225227D01*
X92508901Y-123231555D01*
X92418511Y-123239394D01*
X92359664Y-123249963D01*
X92323413Y-123264477D01*
X92300810Y-123284152D01*
X92295917Y-123290465D01*
X92257706Y-123386112D01*
X92272827Y-123482793D01*
X92312943Y-123540345D01*
X92341370Y-123563755D01*
X92378672Y-123579961D01*
X92435223Y-123590259D01*
X92521394Y-123595951D01*
X92647558Y-123598336D01*
X92779042Y-123598736D01*
X92943999Y-123598814D01*
X93060761Y-123601639D01*
X93139510Y-123611093D01*
X93190431Y-123631060D01*
X93223706Y-123665424D01*
X93249520Y-123718068D01*
X93276344Y-123788383D01*
X93305542Y-123865180D01*
X92787346Y-123856038D01*
X92600539Y-123852357D01*
X92462490Y-123848050D01*
X92363568Y-123841877D01*
X92294145Y-123832598D01*
X92244590Y-123818973D01*
X92205273Y-123799761D01*
X92170584Y-123776598D01*
X92059770Y-123664848D01*
X91995689Y-123528487D01*
X91980339Y-123380175D01*
X92015719Y-123232571D01*
G36*
X92004015Y-126601779D02*
G01*
X92075968Y-126464939D01*
X92191766Y-126363949D01*
X92266213Y-126328075D01*
X92377992Y-126300161D01*
X92519227Y-126285871D01*
X92673371Y-126284516D01*
X92823879Y-126295405D01*
X92954205Y-126317847D01*
X93047803Y-126351150D01*
X93063922Y-126361385D01*
X93184249Y-126482618D01*
X93256317Y-126626613D01*
X93277408Y-126782861D01*
X93244802Y-126940852D01*
X93225253Y-126984820D01*
X93165012Y-127070444D01*
X93085135Y-127145592D01*
X93075004Y-127152694D01*
X93026181Y-127181561D01*
X92973990Y-127200643D01*
X92905285Y-127211916D01*
X92806918Y-127217355D01*
X92665744Y-127218938D01*
X92634092Y-127218965D01*
X92624019Y-127218893D01*
X92624019Y-126927011D01*
X92757256Y-126925313D01*
X92845674Y-126918628D01*
X92902785Y-126904575D01*
X92942102Y-126880771D01*
X92955241Y-126868621D01*
X93005172Y-126798764D01*
X93002895Y-126730941D01*
X92959584Y-126662365D01*
X92913346Y-126621465D01*
X92845857Y-126597242D01*
X92739433Y-126583639D01*
X92727020Y-126582706D01*
X92534147Y-126580384D01*
X92390900Y-126604650D01*
X92298160Y-126655176D01*
X92256807Y-126731632D01*
X92254552Y-126758924D01*
X92265893Y-126830589D01*
X92305184Y-126879610D01*
X92380326Y-126909582D01*
X92499222Y-126924101D01*
X92624019Y-126927011D01*
X92624019Y-127218893D01*
X92483659Y-127217878D01*
X92378549Y-127213312D01*
X92305714Y-127203312D01*
X92252108Y-127185921D01*
X92204681Y-127159184D01*
X92195864Y-127153276D01*
X92077007Y-127053968D01*
X92008008Y-126945758D01*
X91980619Y-126814019D01*
X91979281Y-126769283D01*
X92004015Y-126601779D01*
G37*
X92004015Y-126601779D02*
X92075968Y-126464939D01*
X92191766Y-126363949D01*
X92266213Y-126328075D01*
X92377992Y-126300161D01*
X92519227Y-126285871D01*
X92673371Y-126284516D01*
X92823879Y-126295405D01*
X92954205Y-126317847D01*
X93047803Y-126351150D01*
X93063922Y-126361385D01*
X93184249Y-126482618D01*
X93256317Y-126626613D01*
X93277408Y-126782861D01*
X93244802Y-126940852D01*
X93225253Y-126984820D01*
X93165012Y-127070444D01*
X93085135Y-127145592D01*
X93075004Y-127152694D01*
X93026181Y-127181561D01*
X92973990Y-127200643D01*
X92905285Y-127211916D01*
X92806918Y-127217355D01*
X92665744Y-127218938D01*
X92634092Y-127218965D01*
X92624019Y-127218893D01*
X92624019Y-126927011D01*
X92757256Y-126925313D01*
X92845674Y-126918628D01*
X92902785Y-126904575D01*
X92942102Y-126880771D01*
X92955241Y-126868621D01*
X93005172Y-126798764D01*
X93002895Y-126730941D01*
X92959584Y-126662365D01*
X92913346Y-126621465D01*
X92845857Y-126597242D01*
X92739433Y-126583639D01*
X92727020Y-126582706D01*
X92534147Y-126580384D01*
X92390900Y-126604650D01*
X92298160Y-126655176D01*
X92256807Y-126731632D01*
X92254552Y-126758924D01*
X92265893Y-126830589D01*
X92305184Y-126879610D01*
X92380326Y-126909582D01*
X92499222Y-126924101D01*
X92624019Y-126927011D01*
X92624019Y-127218893D01*
X92483659Y-127217878D01*
X92378549Y-127213312D01*
X92305714Y-127203312D01*
X92252108Y-127185921D01*
X92204681Y-127159184D01*
X92195864Y-127153276D01*
X92077007Y-127053968D01*
X92008008Y-126945758D01*
X91980619Y-126814019D01*
X91979281Y-126769283D01*
X92004015Y-126601779D01*
G36*
X92022676Y-124334448D02*
G01*
X92100111Y-124219342D01*
X92211949Y-124130389D01*
X92354265Y-124077251D01*
X92459015Y-124066503D01*
X92502726Y-124067724D01*
X92536194Y-124077944D01*
X92566179Y-124106039D01*
X92599440Y-124160884D01*
X92642738Y-124251355D01*
X92702833Y-124386328D01*
X92703134Y-124387011D01*
X92760037Y-124511249D01*
X92810565Y-124613127D01*
X92849280Y-124682233D01*
X92870740Y-124708154D01*
X92870913Y-124708161D01*
X92917644Y-124685315D01*
X92969154Y-124631891D01*
X93006261Y-124570558D01*
X93013632Y-124539485D01*
X92988138Y-124454711D01*
X92924291Y-124381707D01*
X92854094Y-124346087D01*
X92802343Y-124311820D01*
X92743409Y-124244697D01*
X92692496Y-124165792D01*
X92664809Y-124096179D01*
X92663287Y-124081623D01*
X92688321Y-124065237D01*
X92752311Y-124064250D01*
X92838593Y-124076292D01*
X92930501Y-124098993D01*
X93011369Y-124129986D01*
X93014509Y-124131552D01*
X93144734Y-124224819D01*
X93233311Y-124345696D01*
X93276786Y-124482973D01*
X93271706Y-124625440D01*
X93214616Y-124761888D01*
X93210602Y-124767955D01*
X93113326Y-124875290D01*
X92986409Y-124945868D01*
X92819526Y-124984926D01*
X92772639Y-124990168D01*
X92551329Y-124999452D01*
X92448124Y-124988322D01*
X92448124Y-124708161D01*
X92512503Y-124704521D01*
X92531291Y-124684611D01*
X92517235Y-124634974D01*
X92484009Y-124556733D01*
X92442359Y-124469274D01*
X92441256Y-124467101D01*
X92402265Y-124392970D01*
X92376244Y-124363219D01*
X92348965Y-124370555D01*
X92313121Y-124401447D01*
X92261251Y-124480040D01*
X92257439Y-124564677D01*
X92295189Y-124640597D01*
X92368001Y-124693035D01*
X92448124Y-124708161D01*
X92448124Y-124988322D01*
X92374261Y-124980356D01*
X92233829Y-124931366D01*
X92135447Y-124863164D01*
X92036030Y-124740065D01*
X91986711Y-124604472D01*
X91983568Y-124466045D01*
X92022676Y-124334448D01*
G37*
X92022676Y-124334448D02*
X92100111Y-124219342D01*
X92211949Y-124130389D01*
X92354265Y-124077251D01*
X92459015Y-124066503D01*
X92502726Y-124067724D01*
X92536194Y-124077944D01*
X92566179Y-124106039D01*
X92599440Y-124160884D01*
X92642738Y-124251355D01*
X92702833Y-124386328D01*
X92703134Y-124387011D01*
X92760037Y-124511249D01*
X92810565Y-124613127D01*
X92849280Y-124682233D01*
X92870740Y-124708154D01*
X92870913Y-124708161D01*
X92917644Y-124685315D01*
X92969154Y-124631891D01*
X93006261Y-124570558D01*
X93013632Y-124539485D01*
X92988138Y-124454711D01*
X92924291Y-124381707D01*
X92854094Y-124346087D01*
X92802343Y-124311820D01*
X92743409Y-124244697D01*
X92692496Y-124165792D01*
X92664809Y-124096179D01*
X92663287Y-124081623D01*
X92688321Y-124065237D01*
X92752311Y-124064250D01*
X92838593Y-124076292D01*
X92930501Y-124098993D01*
X93011369Y-124129986D01*
X93014509Y-124131552D01*
X93144734Y-124224819D01*
X93233311Y-124345696D01*
X93276786Y-124482973D01*
X93271706Y-124625440D01*
X93214616Y-124761888D01*
X93210602Y-124767955D01*
X93113326Y-124875290D01*
X92986409Y-124945868D01*
X92819526Y-124984926D01*
X92772639Y-124990168D01*
X92551329Y-124999452D01*
X92448124Y-124988322D01*
X92448124Y-124708161D01*
X92512503Y-124704521D01*
X92531291Y-124684611D01*
X92517235Y-124634974D01*
X92484009Y-124556733D01*
X92442359Y-124469274D01*
X92441256Y-124467101D01*
X92402265Y-124392970D01*
X92376244Y-124363219D01*
X92348965Y-124370555D01*
X92313121Y-124401447D01*
X92261251Y-124480040D01*
X92257439Y-124564677D01*
X92295189Y-124640597D01*
X92368001Y-124693035D01*
X92448124Y-124708161D01*
X92448124Y-124988322D01*
X92374261Y-124980356D01*
X92233829Y-124931366D01*
X92135447Y-124863164D01*
X92036030Y-124740065D01*
X91986711Y-124604472D01*
X91983568Y-124466045D01*
X92022676Y-124334448D01*
G36*
X91861857Y-121905402D02*
G01*
X91981188Y-121896846D01*
X92051506Y-121887019D01*
X92082179Y-121873401D01*
X92082571Y-121853473D01*
X92078910Y-121847011D01*
X92052398Y-121761060D01*
X92053946Y-121649255D01*
X92081199Y-121535586D01*
X92116455Y-121464490D01*
X92172778Y-121391595D01*
X92236519Y-121338307D01*
X92317510Y-121301725D01*
X92425586Y-121278950D01*
X92570580Y-121267081D01*
X92762326Y-121263218D01*
X92799109Y-121263149D01*
X93212288Y-121263103D01*
X93244339Y-121355046D01*
X93266144Y-121420348D01*
X93276297Y-121456176D01*
X93276391Y-121457230D01*
X93248860Y-121460758D01*
X93172923Y-121463761D01*
X93058565Y-121466010D01*
X92915769Y-121467276D01*
X92828951Y-121467471D01*
X92657773Y-121467877D01*
X92535088Y-121469968D01*
X92451000Y-121475053D01*
X92395614Y-121484440D01*
X92359032Y-121499439D01*
X92331359Y-121521358D01*
X92318032Y-121535043D01*
X92264328Y-121629051D01*
X92260307Y-121731636D01*
X92305725Y-121824710D01*
X92322123Y-121841922D01*
X92352957Y-121867168D01*
X92389531Y-121884680D01*
X92442415Y-121895858D01*
X92522177Y-121902104D01*
X92639385Y-121904818D01*
X92800991Y-121905402D01*
X93212288Y-121905402D01*
X93244339Y-121997345D01*
X93266144Y-122062647D01*
X93276297Y-122098475D01*
X93276391Y-122099529D01*
X93248448Y-122102225D01*
X93169630Y-122104655D01*
X93047453Y-122106722D01*
X92889432Y-122108329D01*
X92703083Y-122109377D01*
X92495920Y-122109769D01*
X92486706Y-122109770D01*
X91697020Y-122109770D01*
X91656997Y-122014885D01*
X91616973Y-121920000D01*
X91861857Y-121905402D01*
G37*
X91861857Y-121905402D02*
X91981188Y-121896846D01*
X92051506Y-121887019D01*
X92082179Y-121873401D01*
X92082571Y-121853473D01*
X92078910Y-121847011D01*
X92052398Y-121761060D01*
X92053946Y-121649255D01*
X92081199Y-121535586D01*
X92116455Y-121464490D01*
X92172778Y-121391595D01*
X92236519Y-121338307D01*
X92317510Y-121301725D01*
X92425586Y-121278950D01*
X92570580Y-121267081D01*
X92762326Y-121263218D01*
X92799109Y-121263149D01*
X93212288Y-121263103D01*
X93244339Y-121355046D01*
X93266144Y-121420348D01*
X93276297Y-121456176D01*
X93276391Y-121457230D01*
X93248860Y-121460758D01*
X93172923Y-121463761D01*
X93058565Y-121466010D01*
X92915769Y-121467276D01*
X92828951Y-121467471D01*
X92657773Y-121467877D01*
X92535088Y-121469968D01*
X92451000Y-121475053D01*
X92395614Y-121484440D01*
X92359032Y-121499439D01*
X92331359Y-121521358D01*
X92318032Y-121535043D01*
X92264328Y-121629051D01*
X92260307Y-121731636D01*
X92305725Y-121824710D01*
X92322123Y-121841922D01*
X92352957Y-121867168D01*
X92389531Y-121884680D01*
X92442415Y-121895858D01*
X92522177Y-121902104D01*
X92639385Y-121904818D01*
X92800991Y-121905402D01*
X93212288Y-121905402D01*
X93244339Y-121997345D01*
X93266144Y-122062647D01*
X93276297Y-122098475D01*
X93276391Y-122099529D01*
X93248448Y-122102225D01*
X93169630Y-122104655D01*
X93047453Y-122106722D01*
X92889432Y-122108329D01*
X92703083Y-122109377D01*
X92495920Y-122109769D01*
X92486706Y-122109770D01*
X91697020Y-122109770D01*
X91656997Y-122014885D01*
X91616973Y-121920000D01*
X91861857Y-121905402D01*
G36*
X92062360Y-120570056D02*
G01*
X92104842Y-120455657D01*
X92105658Y-120454348D01*
X92157730Y-120383597D01*
X92218584Y-120331364D01*
X92297887Y-120294629D01*
X92405309Y-120270366D01*
X92550517Y-120255555D01*
X92743179Y-120247171D01*
X92770628Y-120246436D01*
X93184521Y-120235880D01*
X93230456Y-120324709D01*
X93261498Y-120388982D01*
X93276206Y-120427790D01*
X93276391Y-120429585D01*
X93249250Y-120436300D01*
X93176041Y-120441635D01*
X93069081Y-120444917D01*
X92982469Y-120445632D01*
X92842162Y-120445649D01*
X92754051Y-120452063D01*
X92712025Y-120474420D01*
X92709975Y-120522268D01*
X92741790Y-120605151D01*
X92800272Y-120730287D01*
X92848845Y-120822303D01*
X92890986Y-120869629D01*
X92936916Y-120883542D01*
X92939189Y-120883563D01*
X93018311Y-120860605D01*
X93061055Y-120792630D01*
X93067246Y-120688602D01*
X93066172Y-120613670D01*
X93087753Y-120574161D01*
X93139591Y-120549522D01*
X93205632Y-120535341D01*
X93243104Y-120555777D01*
X93248467Y-120563472D01*
X93270006Y-120635917D01*
X93273055Y-120737367D01*
X93258778Y-120841843D01*
X93232688Y-120915875D01*
X93145785Y-121018228D01*
X93024816Y-121076409D01*
X92930308Y-121087931D01*
X92845062Y-121079138D01*
X92775476Y-121047320D01*
X92713672Y-120984316D01*
X92651772Y-120881969D01*
X92581897Y-120732118D01*
X92577948Y-120722988D01*
X92515588Y-120588003D01*
X92464446Y-120504706D01*
X92418488Y-120469003D01*
X92371683Y-120476797D01*
X92317998Y-120523993D01*
X92305644Y-120538106D01*
X92257741Y-120632641D01*
X92259758Y-120730594D01*
X92306724Y-120815903D01*
X92393669Y-120872504D01*
X92410734Y-120877763D01*
X92493504Y-120928977D01*
X92533372Y-120993963D01*
X92572882Y-121087931D01*
X92470658Y-121087931D01*
X92322072Y-121059347D01*
X92185784Y-120974505D01*
X92140191Y-120930355D01*
X92081674Y-120829995D01*
X92055184Y-120702365D01*
X92062360Y-120570056D01*
G37*
X92062360Y-120570056D02*
X92104842Y-120455657D01*
X92105658Y-120454348D01*
X92157730Y-120383597D01*
X92218584Y-120331364D01*
X92297887Y-120294629D01*
X92405309Y-120270366D01*
X92550517Y-120255555D01*
X92743179Y-120247171D01*
X92770628Y-120246436D01*
X93184521Y-120235880D01*
X93230456Y-120324709D01*
X93261498Y-120388982D01*
X93276206Y-120427790D01*
X93276391Y-120429585D01*
X93249250Y-120436300D01*
X93176041Y-120441635D01*
X93069081Y-120444917D01*
X92982469Y-120445632D01*
X92842162Y-120445649D01*
X92754051Y-120452063D01*
X92712025Y-120474420D01*
X92709975Y-120522268D01*
X92741790Y-120605151D01*
X92800272Y-120730287D01*
X92848845Y-120822303D01*
X92890986Y-120869629D01*
X92936916Y-120883542D01*
X92939189Y-120883563D01*
X93018311Y-120860605D01*
X93061055Y-120792630D01*
X93067246Y-120688602D01*
X93066172Y-120613670D01*
X93087753Y-120574161D01*
X93139591Y-120549522D01*
X93205632Y-120535341D01*
X93243104Y-120555777D01*
X93248467Y-120563472D01*
X93270006Y-120635917D01*
X93273055Y-120737367D01*
X93258778Y-120841843D01*
X93232688Y-120915875D01*
X93145785Y-121018228D01*
X93024816Y-121076409D01*
X92930308Y-121087931D01*
X92845062Y-121079138D01*
X92775476Y-121047320D01*
X92713672Y-120984316D01*
X92651772Y-120881969D01*
X92581897Y-120732118D01*
X92577948Y-120722988D01*
X92515588Y-120588003D01*
X92464446Y-120504706D01*
X92418488Y-120469003D01*
X92371683Y-120476797D01*
X92317998Y-120523993D01*
X92305644Y-120538106D01*
X92257741Y-120632641D01*
X92259758Y-120730594D01*
X92306724Y-120815903D01*
X92393669Y-120872504D01*
X92410734Y-120877763D01*
X92493504Y-120928977D01*
X92533372Y-120993963D01*
X92572882Y-121087931D01*
X92470658Y-121087931D01*
X92322072Y-121059347D01*
X92185784Y-120974505D01*
X92140191Y-120930355D01*
X92081674Y-120829995D01*
X92055184Y-120702365D01*
X92062360Y-120570056D01*
G36*
X92059920Y-119584057D02*
G01*
X92108859Y-119451435D01*
X92195419Y-119343990D01*
X92256352Y-119301968D01*
X92368161Y-119256157D01*
X92449006Y-119257109D01*
X92503378Y-119305192D01*
X92512624Y-119322983D01*
X92541450Y-119399796D01*
X92534065Y-119439024D01*
X92485658Y-119452311D01*
X92458920Y-119452988D01*
X92360548Y-119477314D01*
X92291734Y-119540719D01*
X92258498Y-119628846D01*
X92266861Y-119727337D01*
X92310296Y-119807398D01*
X92335072Y-119834439D01*
X92365129Y-119853606D01*
X92410565Y-119866554D01*
X92481476Y-119874936D01*
X92587960Y-119880407D01*
X92740112Y-119884622D01*
X92788287Y-119885713D01*
X92953095Y-119889693D01*
X93069088Y-119894219D01*
X93145833Y-119901005D01*
X93192893Y-119911769D01*
X93219835Y-119928227D01*
X93236223Y-119952094D01*
X93243463Y-119967374D01*
X93268220Y-120032267D01*
X93276391Y-120070466D01*
X93249103Y-120083088D01*
X93166603Y-120090792D01*
X93027941Y-120093620D01*
X92832162Y-120091614D01*
X92801965Y-120090989D01*
X92623349Y-120086579D01*
X92492923Y-120081365D01*
X92400492Y-120073945D01*
X92335858Y-120062918D01*
X92288825Y-120046883D01*
X92249196Y-120024439D01*
X92232215Y-120012698D01*
X92157080Y-119945381D01*
X92098638Y-119870090D01*
X92093536Y-119860872D01*
X92053260Y-119725867D01*
X92059920Y-119584057D01*
G37*
X92059920Y-119584057D02*
X92108859Y-119451435D01*
X92195419Y-119343990D01*
X92256352Y-119301968D01*
X92368161Y-119256157D01*
X92449006Y-119257109D01*
X92503378Y-119305192D01*
X92512624Y-119322983D01*
X92541450Y-119399796D01*
X92534065Y-119439024D01*
X92485658Y-119452311D01*
X92458920Y-119452988D01*
X92360548Y-119477314D01*
X92291734Y-119540719D01*
X92258498Y-119628846D01*
X92266861Y-119727337D01*
X92310296Y-119807398D01*
X92335072Y-119834439D01*
X92365129Y-119853606D01*
X92410565Y-119866554D01*
X92481476Y-119874936D01*
X92587960Y-119880407D01*
X92740112Y-119884622D01*
X92788287Y-119885713D01*
X92953095Y-119889693D01*
X93069088Y-119894219D01*
X93145833Y-119901005D01*
X93192893Y-119911769D01*
X93219835Y-119928227D01*
X93236223Y-119952094D01*
X93243463Y-119967374D01*
X93268220Y-120032267D01*
X93276391Y-120070466D01*
X93249103Y-120083088D01*
X93166603Y-120090792D01*
X93027941Y-120093620D01*
X92832162Y-120091614D01*
X92801965Y-120090989D01*
X92623349Y-120086579D01*
X92492923Y-120081365D01*
X92400492Y-120073945D01*
X92335858Y-120062918D01*
X92288825Y-120046883D01*
X92249196Y-120024439D01*
X92232215Y-120012698D01*
X92157080Y-119945381D01*
X92098638Y-119870090D01*
X92093536Y-119860872D01*
X92053260Y-119725867D01*
X92059920Y-119584057D01*
G36*
X92292455Y-118256086D02*
G01*
X92510661Y-118256457D01*
X92678519Y-118257892D01*
X92804070Y-118260998D01*
X92895355Y-118266378D01*
X92960415Y-118274638D01*
X93007291Y-118286384D01*
X93044024Y-118302219D01*
X93064991Y-118314210D01*
X93178694Y-118413510D01*
X93249965Y-118539412D01*
X93275538Y-118678709D01*
X93252150Y-118818195D01*
X93210119Y-118901257D01*
X93137411Y-118988455D01*
X93048612Y-119047883D01*
X92932320Y-119083739D01*
X92777135Y-119100219D01*
X92663287Y-119102553D01*
X92655106Y-119102239D01*
X92655106Y-118898276D01*
X92785657Y-118897030D01*
X92872080Y-118891322D01*
X92928618Y-118878196D01*
X92969514Y-118854694D01*
X93000362Y-118826614D01*
X93059905Y-118732312D01*
X93064992Y-118631060D01*
X93015279Y-118535364D01*
X93008543Y-118527916D01*
X92973502Y-118496126D01*
X92931811Y-118476192D01*
X92869762Y-118465400D01*
X92773644Y-118461035D01*
X92667379Y-118460345D01*
X92533880Y-118461841D01*
X92444822Y-118468036D01*
X92386293Y-118481486D01*
X92344382Y-118504749D01*
X92322123Y-118523825D01*
X92265985Y-118612437D01*
X92259235Y-118714492D01*
X92302114Y-118811905D01*
X92318032Y-118830704D01*
X92353382Y-118862707D01*
X92395502Y-118882682D01*
X92458251Y-118893407D01*
X92555487Y-118897661D01*
X92655106Y-118898276D01*
X92655106Y-119102239D01*
X92479947Y-119095496D01*
X92342195Y-119071528D01*
X92238632Y-119026452D01*
X92157856Y-118956072D01*
X92116455Y-118901257D01*
X92071728Y-118801624D01*
X92050967Y-118686145D01*
X92056525Y-118578801D01*
X92078943Y-118518736D01*
X92085323Y-118495165D01*
X92061535Y-118479523D01*
X91997788Y-118468605D01*
X91900687Y-118460345D01*
X91792541Y-118451301D01*
X91727475Y-118438739D01*
X91690268Y-118415881D01*
X91665699Y-118375949D01*
X91654819Y-118350862D01*
X91615072Y-118255977D01*
X92292455Y-118256086D01*
G37*
X92292455Y-118256086D02*
X92510661Y-118256457D01*
X92678519Y-118257892D01*
X92804070Y-118260998D01*
X92895355Y-118266378D01*
X92960415Y-118274638D01*
X93007291Y-118286384D01*
X93044024Y-118302219D01*
X93064991Y-118314210D01*
X93178694Y-118413510D01*
X93249965Y-118539412D01*
X93275538Y-118678709D01*
X93252150Y-118818195D01*
X93210119Y-118901257D01*
X93137411Y-118988455D01*
X93048612Y-119047883D01*
X92932320Y-119083739D01*
X92777135Y-119100219D01*
X92663287Y-119102553D01*
X92655106Y-119102239D01*
X92655106Y-118898276D01*
X92785657Y-118897030D01*
X92872080Y-118891322D01*
X92928618Y-118878196D01*
X92969514Y-118854694D01*
X93000362Y-118826614D01*
X93059905Y-118732312D01*
X93064992Y-118631060D01*
X93015279Y-118535364D01*
X93008543Y-118527916D01*
X92973502Y-118496126D01*
X92931811Y-118476192D01*
X92869762Y-118465400D01*
X92773644Y-118461035D01*
X92667379Y-118460345D01*
X92533880Y-118461841D01*
X92444822Y-118468036D01*
X92386293Y-118481486D01*
X92344382Y-118504749D01*
X92322123Y-118523825D01*
X92265985Y-118612437D01*
X92259235Y-118714492D01*
X92302114Y-118811905D01*
X92318032Y-118830704D01*
X92353382Y-118862707D01*
X92395502Y-118882682D01*
X92458251Y-118893407D01*
X92555487Y-118897661D01*
X92655106Y-118898276D01*
X92655106Y-119102239D01*
X92479947Y-119095496D01*
X92342195Y-119071528D01*
X92238632Y-119026452D01*
X92157856Y-118956072D01*
X92116455Y-118901257D01*
X92071728Y-118801624D01*
X92050967Y-118686145D01*
X92056525Y-118578801D01*
X92078943Y-118518736D01*
X92085323Y-118495165D01*
X92061535Y-118479523D01*
X91997788Y-118468605D01*
X91900687Y-118460345D01*
X91792541Y-118451301D01*
X91727475Y-118438739D01*
X91690268Y-118415881D01*
X91665699Y-118375949D01*
X91654819Y-118350862D01*
X91615072Y-118255977D01*
X92292455Y-118256086D01*
G36*
X92077840Y-117069876D02*
G01*
X92154653Y-117065421D01*
X92271391Y-117061929D01*
X92418821Y-117059685D01*
X92573455Y-117058965D01*
X93096727Y-117058965D01*
X93189117Y-117151355D01*
X93246047Y-117215022D01*
X93269107Y-117270911D01*
X93267647Y-117347298D01*
X93263934Y-117377620D01*
X93253126Y-117472390D01*
X93246933Y-117550778D01*
X93246361Y-117569885D01*
X93250102Y-117634301D01*
X93259494Y-117726429D01*
X93263934Y-117762150D01*
X93270801Y-117849886D01*
X93255885Y-117908847D01*
X93209835Y-117967310D01*
X93189117Y-117988415D01*
X93096727Y-118080805D01*
X92117947Y-118080805D01*
X92084066Y-118006442D01*
X92058970Y-117942410D01*
X92050184Y-117904948D01*
X92077950Y-117895343D01*
X92155530Y-117886365D01*
X92274348Y-117878614D01*
X92425828Y-117872686D01*
X92553805Y-117869827D01*
X93057425Y-117861839D01*
X93067278Y-117792152D01*
X93060389Y-117728771D01*
X93038083Y-117697714D01*
X92996379Y-117689033D01*
X92907544Y-117681622D01*
X92782834Y-117676069D01*
X92633507Y-117672964D01*
X92556661Y-117672516D01*
X92114287Y-117672069D01*
X92082235Y-117580126D01*
X92060443Y-117515051D01*
X92050281Y-117479653D01*
X92050184Y-117478632D01*
X92077809Y-117475080D01*
X92154411Y-117471177D01*
X92270579Y-117467249D01*
X92416904Y-117463624D01*
X92553805Y-117461092D01*
X93057425Y-117453103D01*
X93057425Y-117277931D01*
X92597965Y-117269893D01*
X92138505Y-117261854D01*
X92094344Y-117176457D01*
X92064019Y-117113407D01*
X92050258Y-117076090D01*
X92050184Y-117075013D01*
X92077840Y-117069876D01*
G37*
X92077840Y-117069876D02*
X92154653Y-117065421D01*
X92271391Y-117061929D01*
X92418821Y-117059685D01*
X92573455Y-117058965D01*
X93096727Y-117058965D01*
X93189117Y-117151355D01*
X93246047Y-117215022D01*
X93269107Y-117270911D01*
X93267647Y-117347298D01*
X93263934Y-117377620D01*
X93253126Y-117472390D01*
X93246933Y-117550778D01*
X93246361Y-117569885D01*
X93250102Y-117634301D01*
X93259494Y-117726429D01*
X93263934Y-117762150D01*
X93270801Y-117849886D01*
X93255885Y-117908847D01*
X93209835Y-117967310D01*
X93189117Y-117988415D01*
X93096727Y-118080805D01*
X92117947Y-118080805D01*
X92084066Y-118006442D01*
X92058970Y-117942410D01*
X92050184Y-117904948D01*
X92077950Y-117895343D01*
X92155530Y-117886365D01*
X92274348Y-117878614D01*
X92425828Y-117872686D01*
X92553805Y-117869827D01*
X93057425Y-117861839D01*
X93067278Y-117792152D01*
X93060389Y-117728771D01*
X93038083Y-117697714D01*
X92996379Y-117689033D01*
X92907544Y-117681622D01*
X92782834Y-117676069D01*
X92633507Y-117672964D01*
X92556661Y-117672516D01*
X92114287Y-117672069D01*
X92082235Y-117580126D01*
X92060443Y-117515051D01*
X92050281Y-117479653D01*
X92050184Y-117478632D01*
X92077809Y-117475080D01*
X92154411Y-117471177D01*
X92270579Y-117467249D01*
X92416904Y-117463624D01*
X92553805Y-117461092D01*
X93057425Y-117453103D01*
X93057425Y-117277931D01*
X92597965Y-117269893D01*
X92138505Y-117261854D01*
X92094344Y-117176457D01*
X92064019Y-117113407D01*
X92050258Y-117076090D01*
X92050184Y-117075013D01*
X92077840Y-117069876D01*
G36*
X92073156Y-116335594D02*
G01*
X92111393Y-116251531D01*
X92157726Y-116185550D01*
X92209532Y-116137206D01*
X92276363Y-116103828D01*
X92367769Y-116082747D01*
X92493301Y-116071293D01*
X92662508Y-116066797D01*
X92773933Y-116066322D01*
X93208627Y-116066322D01*
X93242509Y-116140684D01*
X93267272Y-116199254D01*
X93276391Y-116228270D01*
X93249257Y-116233821D01*
X93176094Y-116238225D01*
X93069263Y-116240922D01*
X92984437Y-116241494D01*
X92861887Y-116243954D01*
X92764668Y-116250588D01*
X92705134Y-116260274D01*
X92692483Y-116267968D01*
X92705402Y-116319689D01*
X92738539Y-116400883D01*
X92783461Y-116494898D01*
X92831735Y-116585083D01*
X92874928Y-116654785D01*
X92904608Y-116687352D01*
X92904929Y-116687481D01*
X92959857Y-116684680D01*
X93012292Y-116659561D01*
X93054881Y-116615459D01*
X93069126Y-116551091D01*
X93067466Y-116496079D01*
X93066245Y-116418165D01*
X93084498Y-116377268D01*
X93132726Y-116352705D01*
X93141820Y-116349608D01*
X93210598Y-116338960D01*
X93252360Y-116367435D01*
X93272263Y-116441656D01*
X93275944Y-116521832D01*
X93248658Y-116666110D01*
X93209690Y-116740797D01*
X93118148Y-116833037D01*
X93005782Y-116881957D01*
X92887051Y-116886346D01*
X92776411Y-116844999D01*
X92707080Y-116782803D01*
X92668265Y-116720706D01*
X92619125Y-116623105D01*
X92569292Y-116509368D01*
X92561677Y-116490410D01*
X92506545Y-116365479D01*
X92457954Y-116293461D01*
X92409647Y-116270300D01*
X92355370Y-116291936D01*
X92312943Y-116329080D01*
X92260702Y-116416873D01*
X92256784Y-116513470D01*
X92297041Y-116602056D01*
X92377326Y-116665814D01*
X92398040Y-116674183D01*
X92474225Y-116722904D01*
X92530785Y-116794035D01*
X92577201Y-116883793D01*
X92445584Y-116883793D01*
X92365168Y-116878510D01*
X92301786Y-116855858D01*
X92234163Y-116805633D01*
X92182076Y-116757418D01*
X92108322Y-116682446D01*
X92068702Y-116624194D01*
X92052810Y-116561628D01*
X92050184Y-116490807D01*
X92073156Y-116335594D01*
G37*
X92073156Y-116335594D02*
X92111393Y-116251531D01*
X92157726Y-116185550D01*
X92209532Y-116137206D01*
X92276363Y-116103828D01*
X92367769Y-116082747D01*
X92493301Y-116071293D01*
X92662508Y-116066797D01*
X92773933Y-116066322D01*
X93208627Y-116066322D01*
X93242509Y-116140684D01*
X93267272Y-116199254D01*
X93276391Y-116228270D01*
X93249257Y-116233821D01*
X93176094Y-116238225D01*
X93069263Y-116240922D01*
X92984437Y-116241494D01*
X92861887Y-116243954D01*
X92764668Y-116250588D01*
X92705134Y-116260274D01*
X92692483Y-116267968D01*
X92705402Y-116319689D01*
X92738539Y-116400883D01*
X92783461Y-116494898D01*
X92831735Y-116585083D01*
X92874928Y-116654785D01*
X92904608Y-116687352D01*
X92904929Y-116687481D01*
X92959857Y-116684680D01*
X93012292Y-116659561D01*
X93054881Y-116615459D01*
X93069126Y-116551091D01*
X93067466Y-116496079D01*
X93066245Y-116418165D01*
X93084498Y-116377268D01*
X93132726Y-116352705D01*
X93141820Y-116349608D01*
X93210598Y-116338960D01*
X93252360Y-116367435D01*
X93272263Y-116441656D01*
X93275944Y-116521832D01*
X93248658Y-116666110D01*
X93209690Y-116740797D01*
X93118148Y-116833037D01*
X93005782Y-116881957D01*
X92887051Y-116886346D01*
X92776411Y-116844999D01*
X92707080Y-116782803D01*
X92668265Y-116720706D01*
X92619125Y-116623105D01*
X92569292Y-116509368D01*
X92561677Y-116490410D01*
X92506545Y-116365479D01*
X92457954Y-116293461D01*
X92409647Y-116270300D01*
X92355370Y-116291936D01*
X92312943Y-116329080D01*
X92260702Y-116416873D01*
X92256784Y-116513470D01*
X92297041Y-116602056D01*
X92377326Y-116665814D01*
X92398040Y-116674183D01*
X92474225Y-116722904D01*
X92530785Y-116794035D01*
X92577201Y-116883793D01*
X92445584Y-116883793D01*
X92365168Y-116878510D01*
X92301786Y-116855858D01*
X92234163Y-116805633D01*
X92182076Y-116757418D01*
X92108322Y-116682446D01*
X92068702Y-116624194D01*
X92052810Y-116561628D01*
X92050184Y-116490807D01*
X92073156Y-116335594D01*
G36*
X92078018Y-115314310D02*
G01*
X92093269Y-115279415D01*
X92159235Y-115196123D01*
X92254618Y-115124897D01*
X92356406Y-115080847D01*
X92406587Y-115073678D01*
X92476647Y-115097715D01*
X92513717Y-115150439D01*
X92536164Y-115206969D01*
X92540300Y-115232854D01*
X92510283Y-115245458D01*
X92444961Y-115270346D01*
X92415445Y-115281265D01*
X92313348Y-115342492D01*
X92262423Y-115431139D01*
X92263989Y-115544807D01*
X92265994Y-115553226D01*
X92294767Y-115613912D01*
X92350859Y-115658526D01*
X92441163Y-115688998D01*
X92572571Y-115707256D01*
X92751974Y-115715229D01*
X92847433Y-115715977D01*
X92997913Y-115716348D01*
X93100495Y-115718777D01*
X93165672Y-115725240D01*
X93203938Y-115737712D01*
X93225785Y-115758167D01*
X93241707Y-115788581D01*
X93242509Y-115790339D01*
X93267272Y-115848909D01*
X93276391Y-115877925D01*
X93248822Y-115882384D01*
X93172620Y-115886201D01*
X93057541Y-115889101D01*
X92913341Y-115890809D01*
X92807814Y-115891149D01*
X92603613Y-115889412D01*
X92448697Y-115882618D01*
X92334024Y-115868393D01*
X92250551Y-115844362D01*
X92189236Y-115808152D01*
X92141034Y-115757388D01*
X92107393Y-115707261D01*
X92062619Y-115586725D01*
X92052521Y-115446443D01*
X92078018Y-115314310D01*
G37*
X92078018Y-115314310D02*
X92093269Y-115279415D01*
X92159235Y-115196123D01*
X92254618Y-115124897D01*
X92356406Y-115080847D01*
X92406587Y-115073678D01*
X92476647Y-115097715D01*
X92513717Y-115150439D01*
X92536164Y-115206969D01*
X92540300Y-115232854D01*
X92510283Y-115245458D01*
X92444961Y-115270346D01*
X92415445Y-115281265D01*
X92313348Y-115342492D01*
X92262423Y-115431139D01*
X92263989Y-115544807D01*
X92265994Y-115553226D01*
X92294767Y-115613912D01*
X92350859Y-115658526D01*
X92441163Y-115688998D01*
X92572571Y-115707256D01*
X92751974Y-115715229D01*
X92847433Y-115715977D01*
X92997913Y-115716348D01*
X93100495Y-115718777D01*
X93165672Y-115725240D01*
X93203938Y-115737712D01*
X93225785Y-115758167D01*
X93241707Y-115788581D01*
X93242509Y-115790339D01*
X93267272Y-115848909D01*
X93276391Y-115877925D01*
X93248822Y-115882384D01*
X93172620Y-115886201D01*
X93057541Y-115889101D01*
X92913341Y-115890809D01*
X92807814Y-115891149D01*
X92603613Y-115889412D01*
X92448697Y-115882618D01*
X92334024Y-115868393D01*
X92250551Y-115844362D01*
X92189236Y-115808152D01*
X92141034Y-115757388D01*
X92107393Y-115707261D01*
X92062619Y-115586725D01*
X92052521Y-115446443D01*
X92078018Y-115314310D01*
G36*
X92094540Y-114306561D02*
G01*
X92170034Y-114191050D01*
X92237617Y-114135336D01*
X92360255Y-114091196D01*
X92457298Y-114087691D01*
X92587056Y-114095632D01*
X92718039Y-114394885D01*
X92784958Y-114540389D01*
X92838790Y-114635463D01*
X92885416Y-114684899D01*
X92930720Y-114693489D01*
X92980582Y-114666028D01*
X93013632Y-114635747D01*
X93066633Y-114547637D01*
X93070347Y-114451804D01*
X93029041Y-114363788D01*
X92946983Y-114299131D01*
X92918008Y-114287567D01*
X92827509Y-114232175D01*
X92788940Y-114168447D01*
X92755946Y-114081034D01*
X92881034Y-114081034D01*
X92966156Y-114088762D01*
X93037938Y-114119034D01*
X93120356Y-114182482D01*
X93131066Y-114191912D01*
X93204391Y-114262487D01*
X93243742Y-114323153D01*
X93261845Y-114399050D01*
X93267774Y-114461970D01*
X93269251Y-114574513D01*
X93250535Y-114654630D01*
X93222747Y-114704610D01*
X93161641Y-114783162D01*
X93095554Y-114837537D01*
X93012441Y-114871948D01*
X92900254Y-114890612D01*
X92746946Y-114897744D01*
X92669136Y-114898313D01*
X92575853Y-114896378D01*
X92575853Y-114720101D01*
X92625896Y-114718056D01*
X92634092Y-114712961D01*
X92622958Y-114679334D01*
X92593493Y-114606970D01*
X92551601Y-114510253D01*
X92542597Y-114490027D01*
X92480442Y-114367797D01*
X92425815Y-114300453D01*
X92374649Y-114285652D01*
X92322876Y-114321053D01*
X92300000Y-114350289D01*
X92254250Y-114455784D01*
X92261808Y-114554524D01*
X92317651Y-114637188D01*
X92416753Y-114694452D01*
X92495414Y-114712812D01*
X92575853Y-114720101D01*
X92575853Y-114896378D01*
X92487351Y-114894541D01*
X92352853Y-114880641D01*
X92254916Y-114853106D01*
X92182811Y-114808428D01*
X92125813Y-114743099D01*
X92107393Y-114714617D01*
X92059422Y-114585237D01*
X92056403Y-114443588D01*
X92094540Y-114306561D01*
G37*
X92094540Y-114306561D02*
X92170034Y-114191050D01*
X92237617Y-114135336D01*
X92360255Y-114091196D01*
X92457298Y-114087691D01*
X92587056Y-114095632D01*
X92718039Y-114394885D01*
X92784958Y-114540389D01*
X92838790Y-114635463D01*
X92885416Y-114684899D01*
X92930720Y-114693489D01*
X92980582Y-114666028D01*
X93013632Y-114635747D01*
X93066633Y-114547637D01*
X93070347Y-114451804D01*
X93029041Y-114363788D01*
X92946983Y-114299131D01*
X92918008Y-114287567D01*
X92827509Y-114232175D01*
X92788940Y-114168447D01*
X92755946Y-114081034D01*
X92881034Y-114081034D01*
X92966156Y-114088762D01*
X93037938Y-114119034D01*
X93120356Y-114182482D01*
X93131066Y-114191912D01*
X93204391Y-114262487D01*
X93243742Y-114323153D01*
X93261845Y-114399050D01*
X93267774Y-114461970D01*
X93269251Y-114574513D01*
X93250535Y-114654630D01*
X93222747Y-114704610D01*
X93161641Y-114783162D01*
X93095554Y-114837537D01*
X93012441Y-114871948D01*
X92900254Y-114890612D01*
X92746946Y-114897744D01*
X92669136Y-114898313D01*
X92575853Y-114896378D01*
X92575853Y-114720101D01*
X92625896Y-114718056D01*
X92634092Y-114712961D01*
X92622958Y-114679334D01*
X92593493Y-114606970D01*
X92551601Y-114510253D01*
X92542597Y-114490027D01*
X92480442Y-114367797D01*
X92425815Y-114300453D01*
X92374649Y-114285652D01*
X92322876Y-114321053D01*
X92300000Y-114350289D01*
X92254250Y-114455784D01*
X92261808Y-114554524D01*
X92317651Y-114637188D01*
X92416753Y-114694452D01*
X92495414Y-114712812D01*
X92575853Y-114720101D01*
X92575853Y-114896378D01*
X92487351Y-114894541D01*
X92352853Y-114880641D01*
X92254916Y-114853106D01*
X92182811Y-114808428D01*
X92125813Y-114743099D01*
X92107393Y-114714617D01*
X92059422Y-114585237D01*
X92056403Y-114443588D01*
X92094540Y-114306561D01*
G36*
X82590998Y-120440986D02*
G01*
X82591863Y-120282994D01*
X82594205Y-120168653D01*
X82598762Y-120090593D01*
X82606270Y-120041446D01*
X82617466Y-120013841D01*
X82633088Y-120000408D01*
X82653873Y-119993779D01*
X82656563Y-119993135D01*
X82705113Y-119983065D01*
X82800905Y-119964425D01*
X82933743Y-119939155D01*
X83093431Y-119909193D01*
X83269774Y-119876478D01*
X83275967Y-119875336D01*
X83448782Y-119842567D01*
X83601469Y-119811907D01*
X83724871Y-119785336D01*
X83809831Y-119764833D01*
X83847190Y-119752374D01*
X83847852Y-119751780D01*
X83866095Y-119715081D01*
X83896497Y-119639414D01*
X83932493Y-119541122D01*
X83932685Y-119540575D01*
X83979222Y-119416767D01*
X84038504Y-119270804D01*
X84098109Y-119133219D01*
X84101056Y-119126707D01*
X84202765Y-118902610D01*
X83863897Y-118406381D01*
X83760592Y-118254154D01*
X83668237Y-118116259D01*
X83592084Y-118000685D01*
X83537385Y-117915421D01*
X83509393Y-117868456D01*
X83507317Y-117863996D01*
X83516560Y-117829866D01*
X83561156Y-117766119D01*
X83643209Y-117670269D01*
X83764821Y-117539831D01*
X83894205Y-117406672D01*
X84021702Y-117278306D01*
X84138046Y-117163419D01*
X84236052Y-117068927D01*
X84308536Y-117001747D01*
X84348313Y-116968794D01*
X84350361Y-116967568D01*
X84377656Y-116963926D01*
X84422234Y-116977650D01*
X84490112Y-117012131D01*
X84587311Y-117070761D01*
X84719851Y-117156930D01*
X84890476Y-117271800D01*
X85040655Y-117373746D01*
X85175350Y-117464877D01*
X85286740Y-117539927D01*
X85367005Y-117593631D01*
X85408325Y-117620720D01*
X85411130Y-117622426D01*
X85450721Y-117619118D01*
X85527669Y-117594047D01*
X85627432Y-117552202D01*
X85659291Y-117537288D01*
X85801226Y-117472214D01*
X85962273Y-117402788D01*
X86101621Y-117346391D01*
X86205044Y-117305753D01*
X86283642Y-117273474D01*
X86324720Y-117254822D01*
X86327885Y-117252503D01*
X86333128Y-117218197D01*
X86347494Y-117137331D01*
X86368937Y-117020657D01*
X86395413Y-116878925D01*
X86424877Y-116722890D01*
X86455283Y-116563302D01*
X86484588Y-116410915D01*
X86510745Y-116276479D01*
X86531710Y-116170748D01*
X86545439Y-116104474D01*
X86549320Y-116088218D01*
X86558900Y-116071427D01*
X86580536Y-116058751D01*
X86621531Y-116049622D01*
X86689189Y-116043469D01*
X86790812Y-116039720D01*
X86933703Y-116037808D01*
X87125165Y-116037160D01*
X87203645Y-116037126D01*
X87841906Y-116037126D01*
X87872160Y-116190402D01*
X87888564Y-116275678D01*
X87912509Y-116402930D01*
X87941107Y-116556685D01*
X87971467Y-116721466D01*
X87979806Y-116767011D01*
X88009370Y-116919068D01*
X88038442Y-117051532D01*
X88064329Y-117153286D01*
X88084337Y-117213212D01*
X88090301Y-117223195D01*
X88132534Y-117247707D01*
X88214370Y-117282852D01*
X88319683Y-117321827D01*
X88342368Y-117329558D01*
X88483018Y-117380640D01*
X88641714Y-117444046D01*
X88784225Y-117506096D01*
X88784886Y-117506402D01*
X89008440Y-117609733D01*
X90008232Y-116930039D01*
X90445300Y-117366379D01*
X90575381Y-117498351D01*
X90690048Y-117618721D01*
X90783181Y-117720727D01*
X90848658Y-117797609D01*
X90880357Y-117842607D01*
X90882368Y-117849062D01*
X90866529Y-117886960D01*
X90822496Y-117964292D01*
X90755490Y-118072611D01*
X90670734Y-118203468D01*
X90575816Y-118344948D01*
X90478998Y-118488539D01*
X90394751Y-118616565D01*
X90328258Y-118720895D01*
X90284702Y-118793400D01*
X90269264Y-118825842D01*
X90282328Y-118865424D01*
X90316750Y-118940481D01*
X90365380Y-119035532D01*
X90370785Y-119045608D01*
X90434980Y-119173609D01*
X90466463Y-119261382D01*
X90466798Y-119315972D01*
X90437548Y-119344425D01*
X90437138Y-119344590D01*
X90402498Y-119358812D01*
X90320269Y-119392731D01*
X90196814Y-119443716D01*
X90038498Y-119509138D01*
X89851686Y-119586366D01*
X89642742Y-119672771D01*
X89440446Y-119756449D01*
X89217200Y-119848412D01*
X89010392Y-119932850D01*
X88826362Y-120007231D01*
X88671451Y-120069026D01*
X88551996Y-120115703D01*
X88474339Y-120144732D01*
X88445356Y-120153678D01*
X88412110Y-120131244D01*
X88359123Y-120072561D01*
X88300704Y-119994311D01*
X88115952Y-119771466D01*
X87904182Y-119597282D01*
X87669856Y-119473846D01*
X87417434Y-119403246D01*
X87151377Y-119387569D01*
X87028575Y-119398964D01*
X86773793Y-119461050D01*
X86548801Y-119567977D01*
X86355817Y-119713111D01*
X86197061Y-119889822D01*
X86074750Y-120091478D01*
X85991105Y-120311446D01*
X85948344Y-120543094D01*
X85948687Y-120779791D01*
X85994352Y-121014905D01*
X86087559Y-121241804D01*
X86230527Y-121453856D01*
X86311383Y-121542364D01*
X86519007Y-121712111D01*
X86745895Y-121830301D01*
X86985433Y-121897722D01*
X87231007Y-121915160D01*
X87476003Y-121883402D01*
X87713808Y-121803235D01*
X87937807Y-121675445D01*
X88141387Y-121500820D01*
X88300704Y-121305688D01*
X88361602Y-121224409D01*
X88414015Y-121166991D01*
X88445406Y-121146322D01*
X88479639Y-121157144D01*
X88561419Y-121187923D01*
X88684407Y-121236126D01*
X88842263Y-121299222D01*
X89028649Y-121374678D01*
X89237226Y-121459962D01*
X89440496Y-121543781D01*
X89663933Y-121636255D01*
X89870984Y-121721911D01*
X90055286Y-121798118D01*
X90210475Y-121862247D01*
X90330188Y-121911668D01*
X90408061Y-121943752D01*
X90437138Y-121955641D01*
X90466677Y-121983726D01*
X90466591Y-122038051D01*
X90435326Y-122125605D01*
X90371329Y-122253381D01*
X90370785Y-122254392D01*
X90321121Y-122350598D01*
X90284945Y-122428369D01*
X90269408Y-122472223D01*
X90269264Y-122474158D01*
X90285024Y-122507171D01*
X90328850Y-122580054D01*
X90395557Y-122684678D01*
X90479964Y-122812910D01*
X90575816Y-122955052D01*
X90672867Y-123099767D01*
X90757270Y-123230196D01*
X90823801Y-123337890D01*
X90867238Y-123414402D01*
X90882368Y-123450938D01*
X90862482Y-123484582D01*
X90806903Y-123552224D01*
X90721754Y-123647107D01*
X90613153Y-123762470D01*
X90487221Y-123891555D01*
X90445149Y-123933771D01*
X90007931Y-124370261D01*
X89520340Y-124038023D01*
X89370605Y-123937054D01*
X89236220Y-123848438D01*
X89124969Y-123777146D01*
X89044639Y-123728150D01*
X89003014Y-123706422D01*
X89000053Y-123705785D01*
X88960818Y-123717240D01*
X88881895Y-123748051D01*
X88776509Y-123792884D01*
X88705954Y-123824353D01*
X88570876Y-123883192D01*
X88434409Y-123938604D01*
X88319103Y-123981564D01*
X88283977Y-123993234D01*
X88190174Y-124026389D01*
X88117694Y-124058799D01*
X88090301Y-124076601D01*
X88073536Y-124115886D01*
X88049770Y-124201626D01*
X88021697Y-124322697D01*
X87992009Y-124467973D01*
X87979806Y-124532988D01*
X87949468Y-124698087D01*
X87920093Y-124856448D01*
X87894569Y-124992596D01*
X87875785Y-125091057D01*
X87872160Y-125109598D01*
X87841906Y-125262873D01*
X87203645Y-125262873D01*
X86993770Y-125262529D01*
X86834980Y-125261116D01*
X86719973Y-125258064D01*
X86641446Y-125252803D01*
X86592096Y-125244763D01*
X86564619Y-125233373D01*
X86551713Y-125218063D01*
X86549320Y-125211782D01*
X86540833Y-125173896D01*
X86523900Y-125090195D01*
X86500566Y-124971433D01*
X86472875Y-124828361D01*
X86442873Y-124671732D01*
X86412604Y-124512297D01*
X86384115Y-124360809D01*
X86359449Y-124228019D01*
X86340651Y-124124681D01*
X86329767Y-124061545D01*
X86327885Y-124047497D01*
X86302704Y-124034770D01*
X86235622Y-124006600D01*
X86139333Y-123968252D01*
X86101621Y-123953609D01*
X85955921Y-123894548D01*
X85794951Y-123825000D01*
X85659291Y-123762712D01*
X85555561Y-123716879D01*
X85470326Y-123686387D01*
X85418126Y-123676208D01*
X85411130Y-123677831D01*
X85378102Y-123699343D01*
X85304643Y-123748465D01*
X85198577Y-123819923D01*
X85067726Y-123908445D01*
X84919912Y-124008759D01*
X84890734Y-124028594D01*
X84717863Y-124144988D01*
X84586226Y-124230548D01*
X84489761Y-124288684D01*
X84422408Y-124322808D01*
X84378106Y-124336331D01*
X84350794Y-124332664D01*
X84350620Y-124332570D01*
X84314746Y-124303707D01*
X84245391Y-124239867D01*
X84149745Y-124147969D01*
X84034999Y-124034933D01*
X83908341Y-123907679D01*
X83894205Y-123893328D01*
X83738903Y-123732957D01*
X83624870Y-123609195D01*
X83550002Y-123519555D01*
X83512196Y-123461552D01*
X83507317Y-123436004D01*
X83528603Y-123398718D01*
X83577773Y-123321343D01*
X83649575Y-123211867D01*
X83738755Y-123078280D01*
X83840063Y-122928570D01*
X83863897Y-122893618D01*
X84202765Y-122397390D01*
X84101056Y-122173293D01*
X84041783Y-122037011D01*
X83982170Y-121890724D01*
X83934640Y-121764965D01*
X83932685Y-121759425D01*
X83896677Y-121661057D01*
X83866229Y-121585229D01*
X83847905Y-121548282D01*
X83847852Y-121548220D01*
X83814729Y-121536496D01*
X83733267Y-121516568D01*
X83612625Y-121490413D01*
X83461959Y-121460010D01*
X83290428Y-121427337D01*
X83275967Y-121424664D01*
X83099235Y-121391890D01*
X82938810Y-121361802D01*
X82804888Y-121336339D01*
X82707663Y-121317441D01*
X82657332Y-121307047D01*
X82656563Y-121306865D01*
X82635153Y-121300539D01*
X82618988Y-121288239D01*
X82607331Y-121262594D01*
X82599445Y-121216235D01*
X82594593Y-121141792D01*
X82592039Y-121031895D01*
X82591045Y-120879175D01*
X82590874Y-120676262D01*
X82590874Y-120650000D01*
X82590998Y-120440986D01*
G37*
X82590998Y-120440986D02*
X82591863Y-120282994D01*
X82594205Y-120168653D01*
X82598762Y-120090593D01*
X82606270Y-120041446D01*
X82617466Y-120013841D01*
X82633088Y-120000408D01*
X82653873Y-119993779D01*
X82656563Y-119993135D01*
X82705113Y-119983065D01*
X82800905Y-119964425D01*
X82933743Y-119939155D01*
X83093431Y-119909193D01*
X83269774Y-119876478D01*
X83275967Y-119875336D01*
X83448782Y-119842567D01*
X83601469Y-119811907D01*
X83724871Y-119785336D01*
X83809831Y-119764833D01*
X83847190Y-119752374D01*
X83847852Y-119751780D01*
X83866095Y-119715081D01*
X83896497Y-119639414D01*
X83932493Y-119541122D01*
X83932685Y-119540575D01*
X83979222Y-119416767D01*
X84038504Y-119270804D01*
X84098109Y-119133219D01*
X84101056Y-119126707D01*
X84202765Y-118902610D01*
X83863897Y-118406381D01*
X83760592Y-118254154D01*
X83668237Y-118116259D01*
X83592084Y-118000685D01*
X83537385Y-117915421D01*
X83509393Y-117868456D01*
X83507317Y-117863996D01*
X83516560Y-117829866D01*
X83561156Y-117766119D01*
X83643209Y-117670269D01*
X83764821Y-117539831D01*
X83894205Y-117406672D01*
X84021702Y-117278306D01*
X84138046Y-117163419D01*
X84236052Y-117068927D01*
X84308536Y-117001747D01*
X84348313Y-116968794D01*
X84350361Y-116967568D01*
X84377656Y-116963926D01*
X84422234Y-116977650D01*
X84490112Y-117012131D01*
X84587311Y-117070761D01*
X84719851Y-117156930D01*
X84890476Y-117271800D01*
X85040655Y-117373746D01*
X85175350Y-117464877D01*
X85286740Y-117539927D01*
X85367005Y-117593631D01*
X85408325Y-117620720D01*
X85411130Y-117622426D01*
X85450721Y-117619118D01*
X85527669Y-117594047D01*
X85627432Y-117552202D01*
X85659291Y-117537288D01*
X85801226Y-117472214D01*
X85962273Y-117402788D01*
X86101621Y-117346391D01*
X86205044Y-117305753D01*
X86283642Y-117273474D01*
X86324720Y-117254822D01*
X86327885Y-117252503D01*
X86333128Y-117218197D01*
X86347494Y-117137331D01*
X86368937Y-117020657D01*
X86395413Y-116878925D01*
X86424877Y-116722890D01*
X86455283Y-116563302D01*
X86484588Y-116410915D01*
X86510745Y-116276479D01*
X86531710Y-116170748D01*
X86545439Y-116104474D01*
X86549320Y-116088218D01*
X86558900Y-116071427D01*
X86580536Y-116058751D01*
X86621531Y-116049622D01*
X86689189Y-116043469D01*
X86790812Y-116039720D01*
X86933703Y-116037808D01*
X87125165Y-116037160D01*
X87203645Y-116037126D01*
X87841906Y-116037126D01*
X87872160Y-116190402D01*
X87888564Y-116275678D01*
X87912509Y-116402930D01*
X87941107Y-116556685D01*
X87971467Y-116721466D01*
X87979806Y-116767011D01*
X88009370Y-116919068D01*
X88038442Y-117051532D01*
X88064329Y-117153286D01*
X88084337Y-117213212D01*
X88090301Y-117223195D01*
X88132534Y-117247707D01*
X88214370Y-117282852D01*
X88319683Y-117321827D01*
X88342368Y-117329558D01*
X88483018Y-117380640D01*
X88641714Y-117444046D01*
X88784225Y-117506096D01*
X88784886Y-117506402D01*
X89008440Y-117609733D01*
X90008232Y-116930039D01*
X90445300Y-117366379D01*
X90575381Y-117498351D01*
X90690048Y-117618721D01*
X90783181Y-117720727D01*
X90848658Y-117797609D01*
X90880357Y-117842607D01*
X90882368Y-117849062D01*
X90866529Y-117886960D01*
X90822496Y-117964292D01*
X90755490Y-118072611D01*
X90670734Y-118203468D01*
X90575816Y-118344948D01*
X90478998Y-118488539D01*
X90394751Y-118616565D01*
X90328258Y-118720895D01*
X90284702Y-118793400D01*
X90269264Y-118825842D01*
X90282328Y-118865424D01*
X90316750Y-118940481D01*
X90365380Y-119035532D01*
X90370785Y-119045608D01*
X90434980Y-119173609D01*
X90466463Y-119261382D01*
X90466798Y-119315972D01*
X90437548Y-119344425D01*
X90437138Y-119344590D01*
X90402498Y-119358812D01*
X90320269Y-119392731D01*
X90196814Y-119443716D01*
X90038498Y-119509138D01*
X89851686Y-119586366D01*
X89642742Y-119672771D01*
X89440446Y-119756449D01*
X89217200Y-119848412D01*
X89010392Y-119932850D01*
X88826362Y-120007231D01*
X88671451Y-120069026D01*
X88551996Y-120115703D01*
X88474339Y-120144732D01*
X88445356Y-120153678D01*
X88412110Y-120131244D01*
X88359123Y-120072561D01*
X88300704Y-119994311D01*
X88115952Y-119771466D01*
X87904182Y-119597282D01*
X87669856Y-119473846D01*
X87417434Y-119403246D01*
X87151377Y-119387569D01*
X87028575Y-119398964D01*
X86773793Y-119461050D01*
X86548801Y-119567977D01*
X86355817Y-119713111D01*
X86197061Y-119889822D01*
X86074750Y-120091478D01*
X85991105Y-120311446D01*
X85948344Y-120543094D01*
X85948687Y-120779791D01*
X85994352Y-121014905D01*
X86087559Y-121241804D01*
X86230527Y-121453856D01*
X86311383Y-121542364D01*
X86519007Y-121712111D01*
X86745895Y-121830301D01*
X86985433Y-121897722D01*
X87231007Y-121915160D01*
X87476003Y-121883402D01*
X87713808Y-121803235D01*
X87937807Y-121675445D01*
X88141387Y-121500820D01*
X88300704Y-121305688D01*
X88361602Y-121224409D01*
X88414015Y-121166991D01*
X88445406Y-121146322D01*
X88479639Y-121157144D01*
X88561419Y-121187923D01*
X88684407Y-121236126D01*
X88842263Y-121299222D01*
X89028649Y-121374678D01*
X89237226Y-121459962D01*
X89440496Y-121543781D01*
X89663933Y-121636255D01*
X89870984Y-121721911D01*
X90055286Y-121798118D01*
X90210475Y-121862247D01*
X90330188Y-121911668D01*
X90408061Y-121943752D01*
X90437138Y-121955641D01*
X90466677Y-121983726D01*
X90466591Y-122038051D01*
X90435326Y-122125605D01*
X90371329Y-122253381D01*
X90370785Y-122254392D01*
X90321121Y-122350598D01*
X90284945Y-122428369D01*
X90269408Y-122472223D01*
X90269264Y-122474158D01*
X90285024Y-122507171D01*
X90328850Y-122580054D01*
X90395557Y-122684678D01*
X90479964Y-122812910D01*
X90575816Y-122955052D01*
X90672867Y-123099767D01*
X90757270Y-123230196D01*
X90823801Y-123337890D01*
X90867238Y-123414402D01*
X90882368Y-123450938D01*
X90862482Y-123484582D01*
X90806903Y-123552224D01*
X90721754Y-123647107D01*
X90613153Y-123762470D01*
X90487221Y-123891555D01*
X90445149Y-123933771D01*
X90007931Y-124370261D01*
X89520340Y-124038023D01*
X89370605Y-123937054D01*
X89236220Y-123848438D01*
X89124969Y-123777146D01*
X89044639Y-123728150D01*
X89003014Y-123706422D01*
X89000053Y-123705785D01*
X88960818Y-123717240D01*
X88881895Y-123748051D01*
X88776509Y-123792884D01*
X88705954Y-123824353D01*
X88570876Y-123883192D01*
X88434409Y-123938604D01*
X88319103Y-123981564D01*
X88283977Y-123993234D01*
X88190174Y-124026389D01*
X88117694Y-124058799D01*
X88090301Y-124076601D01*
X88073536Y-124115886D01*
X88049770Y-124201626D01*
X88021697Y-124322697D01*
X87992009Y-124467973D01*
X87979806Y-124532988D01*
X87949468Y-124698087D01*
X87920093Y-124856448D01*
X87894569Y-124992596D01*
X87875785Y-125091057D01*
X87872160Y-125109598D01*
X87841906Y-125262873D01*
X87203645Y-125262873D01*
X86993770Y-125262529D01*
X86834980Y-125261116D01*
X86719973Y-125258064D01*
X86641446Y-125252803D01*
X86592096Y-125244763D01*
X86564619Y-125233373D01*
X86551713Y-125218063D01*
X86549320Y-125211782D01*
X86540833Y-125173896D01*
X86523900Y-125090195D01*
X86500566Y-124971433D01*
X86472875Y-124828361D01*
X86442873Y-124671732D01*
X86412604Y-124512297D01*
X86384115Y-124360809D01*
X86359449Y-124228019D01*
X86340651Y-124124681D01*
X86329767Y-124061545D01*
X86327885Y-124047497D01*
X86302704Y-124034770D01*
X86235622Y-124006600D01*
X86139333Y-123968252D01*
X86101621Y-123953609D01*
X85955921Y-123894548D01*
X85794951Y-123825000D01*
X85659291Y-123762712D01*
X85555561Y-123716879D01*
X85470326Y-123686387D01*
X85418126Y-123676208D01*
X85411130Y-123677831D01*
X85378102Y-123699343D01*
X85304643Y-123748465D01*
X85198577Y-123819923D01*
X85067726Y-123908445D01*
X84919912Y-124008759D01*
X84890734Y-124028594D01*
X84717863Y-124144988D01*
X84586226Y-124230548D01*
X84489761Y-124288684D01*
X84422408Y-124322808D01*
X84378106Y-124336331D01*
X84350794Y-124332664D01*
X84350620Y-124332570D01*
X84314746Y-124303707D01*
X84245391Y-124239867D01*
X84149745Y-124147969D01*
X84034999Y-124034933D01*
X83908341Y-123907679D01*
X83894205Y-123893328D01*
X83738903Y-123732957D01*
X83624870Y-123609195D01*
X83550002Y-123519555D01*
X83512196Y-123461552D01*
X83507317Y-123436004D01*
X83528603Y-123398718D01*
X83577773Y-123321343D01*
X83649575Y-123211867D01*
X83738755Y-123078280D01*
X83840063Y-122928570D01*
X83863897Y-122893618D01*
X84202765Y-122397390D01*
X84101056Y-122173293D01*
X84041783Y-122037011D01*
X83982170Y-121890724D01*
X83934640Y-121764965D01*
X83932685Y-121759425D01*
X83896677Y-121661057D01*
X83866229Y-121585229D01*
X83847905Y-121548282D01*
X83847852Y-121548220D01*
X83814729Y-121536496D01*
X83733267Y-121516568D01*
X83612625Y-121490413D01*
X83461959Y-121460010D01*
X83290428Y-121427337D01*
X83275967Y-121424664D01*
X83099235Y-121391890D01*
X82938810Y-121361802D01*
X82804888Y-121336339D01*
X82707663Y-121317441D01*
X82657332Y-121307047D01*
X82656563Y-121306865D01*
X82635153Y-121300539D01*
X82618988Y-121288239D01*
X82607331Y-121262594D01*
X82599445Y-121216235D01*
X82594593Y-121141792D01*
X82592039Y-121031895D01*
X82591045Y-120879175D01*
X82590874Y-120676262D01*
X82590874Y-120650000D01*
X82590998Y-120440986D01*
D12*
%TO.C,U5*%
X120403000Y-49470000D02*
X120403000Y-67370000D01*
X156203000Y-49470000D02*
X120403000Y-49470000D01*
X156203000Y-67370000D02*
X156203000Y-49470000D01*
X120403000Y-67370000D02*
X156203000Y-67370000D01*
X120463000Y-51960000D02*
X120463000Y-57420000D01*
X156143000Y-51960000D02*
X120463000Y-51960000D01*
X156143000Y-64880000D02*
X156143000Y-51960000D01*
X120463000Y-64880000D02*
X156143000Y-64880000D01*
X120463000Y-59420000D02*
X120463000Y-64880000D01*
X120463000Y-57420000D02*
G75*
G02*
X120463000Y-59420000I0J-1000000D01*
G01*
%TO.C,U2*%
X120430000Y-106620000D02*
X120430000Y-124520000D01*
X156230000Y-106620000D02*
X120430000Y-106620000D01*
X156230000Y-124520000D02*
X156230000Y-106620000D01*
X120430000Y-124520000D02*
X156230000Y-124520000D01*
X120490000Y-109110000D02*
X120490000Y-114570000D01*
X156170000Y-109110000D02*
X120490000Y-109110000D01*
X156170000Y-122030000D02*
X156170000Y-109110000D01*
X120490000Y-122030000D02*
X156170000Y-122030000D01*
X120490000Y-116570000D02*
X120490000Y-122030000D01*
X120490000Y-114570000D02*
G75*
G02*
X120490000Y-116570000I0J-1000000D01*
G01*
%TO.C,U9*%
X191015000Y-111446000D02*
X191015000Y-121726000D01*
X209035000Y-111446000D02*
X191015000Y-111446000D01*
X209035000Y-121726000D02*
X209035000Y-111446000D01*
X191015000Y-121726000D02*
X209035000Y-121726000D01*
X191075000Y-113936000D02*
X191075000Y-115586000D01*
X208975000Y-113936000D02*
X191075000Y-113936000D01*
X208975000Y-119236000D02*
X208975000Y-113936000D01*
X191075000Y-119236000D02*
X208975000Y-119236000D01*
X191075000Y-117586000D02*
X191075000Y-119236000D01*
X191075000Y-115586000D02*
G75*
G02*
X191075000Y-117586000I0J-1000000D01*
G01*
%TO.C,J2*%
X180400000Y-115376000D02*
X180400000Y-112716000D01*
X177800000Y-115376000D02*
X180400000Y-115376000D01*
X177800000Y-112716000D02*
X180400000Y-112716000D01*
X177800000Y-115376000D02*
X177800000Y-112716000D01*
X176530000Y-115376000D02*
X175200000Y-115376000D01*
X175200000Y-115376000D02*
X175200000Y-114046000D01*
%TO.C,J1*%
X180400000Y-120583000D02*
X180400000Y-117923000D01*
X177800000Y-120583000D02*
X180400000Y-120583000D01*
X177800000Y-117923000D02*
X180400000Y-117923000D01*
X177800000Y-120583000D02*
X177800000Y-117923000D01*
X176530000Y-120583000D02*
X175200000Y-120583000D01*
X175200000Y-120583000D02*
X175200000Y-119253000D01*
%TO.C,J4*%
X107756000Y-54162000D02*
X107756000Y-51502000D01*
X105156000Y-54162000D02*
X107756000Y-54162000D01*
X105156000Y-51502000D02*
X107756000Y-51502000D01*
X105156000Y-54162000D02*
X105156000Y-51502000D01*
X103886000Y-54162000D02*
X102556000Y-54162000D01*
X102556000Y-54162000D02*
X102556000Y-52832000D01*
%TO.C,U3*%
X120463000Y-97520000D02*
X120463000Y-102980000D01*
X120463000Y-102980000D02*
X156143000Y-102980000D01*
X156143000Y-102980000D02*
X156143000Y-90060000D01*
X156143000Y-90060000D02*
X120463000Y-90060000D01*
X120463000Y-90060000D02*
X120463000Y-95520000D01*
X120403000Y-105470000D02*
X156203000Y-105470000D01*
X156203000Y-105470000D02*
X156203000Y-87570000D01*
X156203000Y-87570000D02*
X120403000Y-87570000D01*
X120403000Y-87570000D02*
X120403000Y-105470000D01*
X120463000Y-95520000D02*
G75*
G02*
X120463000Y-97520000I0J-1000000D01*
G01*
%TO.C,R3*%
X90527000Y-55721000D02*
X90197000Y-55721000D01*
X90197000Y-55721000D02*
X90197000Y-49181000D01*
X90197000Y-49181000D02*
X90527000Y-49181000D01*
X92607000Y-55721000D02*
X92937000Y-55721000D01*
X92937000Y-55721000D02*
X92937000Y-49181000D01*
X92937000Y-49181000D02*
X92607000Y-49181000D01*
%TO.C,R2*%
X95353000Y-55721000D02*
X95023000Y-55721000D01*
X95023000Y-55721000D02*
X95023000Y-49181000D01*
X95023000Y-49181000D02*
X95353000Y-49181000D01*
X97433000Y-55721000D02*
X97763000Y-55721000D01*
X97763000Y-55721000D02*
X97763000Y-49181000D01*
X97763000Y-49181000D02*
X97433000Y-49181000D01*
%TO.C,J5*%
X110296000Y-49590000D02*
X110296000Y-46930000D01*
X105156000Y-49590000D02*
X110296000Y-49590000D01*
X105156000Y-46930000D02*
X110296000Y-46930000D01*
X105156000Y-49590000D02*
X105156000Y-46930000D01*
X103886000Y-49590000D02*
X102556000Y-49590000D01*
X102556000Y-49590000D02*
X102556000Y-48260000D01*
%TO.C,J3*%
X107756000Y-58734000D02*
X107756000Y-56074000D01*
X105156000Y-58734000D02*
X107756000Y-58734000D01*
X105156000Y-56074000D02*
X107756000Y-56074000D01*
X105156000Y-58734000D02*
X105156000Y-56074000D01*
X103886000Y-58734000D02*
X102556000Y-58734000D01*
X102556000Y-58734000D02*
X102556000Y-57404000D01*
%TO.C,U4*%
X120403000Y-68520000D02*
X120403000Y-86420000D01*
X156203000Y-68520000D02*
X120403000Y-68520000D01*
X156203000Y-86420000D02*
X156203000Y-68520000D01*
X120403000Y-86420000D02*
X156203000Y-86420000D01*
X120463000Y-71010000D02*
X120463000Y-76470000D01*
X156143000Y-71010000D02*
X120463000Y-71010000D01*
X156143000Y-83930000D02*
X156143000Y-71010000D01*
X120463000Y-83930000D02*
X156143000Y-83930000D01*
X120463000Y-78470000D02*
X120463000Y-83930000D01*
X120463000Y-76470000D02*
G75*
G02*
X120463000Y-78470000I0J-1000000D01*
G01*
%TO.C,C3*%
X115597000Y-101827000D02*
X115597000Y-94087000D01*
X118337000Y-101827000D02*
X118337000Y-94087000D01*
X115597000Y-101827000D02*
X118337000Y-101827000D01*
X115597000Y-94087000D02*
X118337000Y-94087000D01*
%TO.C,C5*%
X115597000Y-69315000D02*
X115597000Y-61575000D01*
X118337000Y-69315000D02*
X118337000Y-61575000D01*
X115597000Y-69315000D02*
X118337000Y-69315000D01*
X115597000Y-61575000D02*
X118337000Y-61575000D01*
%TO.C,C12*%
X171470000Y-45874000D02*
X171470000Y-48614000D01*
X163730000Y-45874000D02*
X163730000Y-48614000D01*
X163730000Y-48614000D02*
X171470000Y-48614000D01*
X163730000Y-45874000D02*
X171470000Y-45874000D01*
%TO.C,U6*%
X93869000Y-66361000D02*
X88409000Y-66361000D01*
X88409000Y-66361000D02*
X88409000Y-107121000D01*
X88409000Y-107121000D02*
X101329000Y-107121000D01*
X101329000Y-107121000D02*
X101329000Y-66361000D01*
X101329000Y-66361000D02*
X95869000Y-66361000D01*
X85919000Y-66301000D02*
X85919000Y-107181000D01*
X85919000Y-107181000D02*
X103819000Y-107181000D01*
X103819000Y-107181000D02*
X103819000Y-66301000D01*
X103819000Y-66301000D02*
X85919000Y-66301000D01*
X95869000Y-66361000D02*
G75*
G02*
X93869000Y-66361000I-1000000J0D01*
G01*
%TO.C,U12*%
X166513000Y-51375000D02*
X164863000Y-51375000D01*
X164863000Y-51375000D02*
X164863000Y-71815000D01*
X164863000Y-71815000D02*
X170163000Y-71815000D01*
X170163000Y-71815000D02*
X170163000Y-51375000D01*
X170163000Y-51375000D02*
X168513000Y-51375000D01*
X162373000Y-51315000D02*
X162373000Y-71875000D01*
X162373000Y-71875000D02*
X172653000Y-71875000D01*
X172653000Y-71875000D02*
X172653000Y-51315000D01*
X172653000Y-51315000D02*
X162373000Y-51315000D01*
X168513000Y-51375000D02*
G75*
G02*
X166513000Y-51375000I-1000000J0D01*
G01*
%TO.C,C1*%
X167212000Y-105557000D02*
G75*
G03*
X167212000Y-105557000I-2620000J0D01*
G01*
X162012000Y-105557000D02*
X167172000Y-105557000D01*
X162012000Y-105517000D02*
X167172000Y-105517000D01*
X162013000Y-105477000D02*
X167171000Y-105477000D01*
X162014000Y-105437000D02*
X167170000Y-105437000D01*
X162016000Y-105397000D02*
X167168000Y-105397000D01*
X162019000Y-105357000D02*
X167165000Y-105357000D01*
X162023000Y-105317000D02*
X163552000Y-105317000D01*
X165632000Y-105317000D02*
X167161000Y-105317000D01*
X162027000Y-105277000D02*
X163552000Y-105277000D01*
X165632000Y-105277000D02*
X167157000Y-105277000D01*
X162031000Y-105237000D02*
X163552000Y-105237000D01*
X165632000Y-105237000D02*
X167153000Y-105237000D01*
X162036000Y-105197000D02*
X163552000Y-105197000D01*
X165632000Y-105197000D02*
X167148000Y-105197000D01*
X162042000Y-105157000D02*
X163552000Y-105157000D01*
X165632000Y-105157000D02*
X167142000Y-105157000D01*
X162049000Y-105117000D02*
X163552000Y-105117000D01*
X165632000Y-105117000D02*
X167135000Y-105117000D01*
X162056000Y-105077000D02*
X163552000Y-105077000D01*
X165632000Y-105077000D02*
X167128000Y-105077000D01*
X162064000Y-105037000D02*
X163552000Y-105037000D01*
X165632000Y-105037000D02*
X167120000Y-105037000D01*
X162072000Y-104997000D02*
X163552000Y-104997000D01*
X165632000Y-104997000D02*
X167112000Y-104997000D01*
X162081000Y-104957000D02*
X163552000Y-104957000D01*
X165632000Y-104957000D02*
X167103000Y-104957000D01*
X162091000Y-104917000D02*
X163552000Y-104917000D01*
X165632000Y-104917000D02*
X167093000Y-104917000D01*
X162101000Y-104877000D02*
X163552000Y-104877000D01*
X165632000Y-104877000D02*
X167083000Y-104877000D01*
X162112000Y-104836000D02*
X163552000Y-104836000D01*
X165632000Y-104836000D02*
X167072000Y-104836000D01*
X162124000Y-104796000D02*
X163552000Y-104796000D01*
X165632000Y-104796000D02*
X167060000Y-104796000D01*
X162137000Y-104756000D02*
X163552000Y-104756000D01*
X165632000Y-104756000D02*
X167047000Y-104756000D01*
X162150000Y-104716000D02*
X163552000Y-104716000D01*
X165632000Y-104716000D02*
X167034000Y-104716000D01*
X162164000Y-104676000D02*
X163552000Y-104676000D01*
X165632000Y-104676000D02*
X167020000Y-104676000D01*
X162178000Y-104636000D02*
X163552000Y-104636000D01*
X165632000Y-104636000D02*
X167006000Y-104636000D01*
X162194000Y-104596000D02*
X163552000Y-104596000D01*
X165632000Y-104596000D02*
X166990000Y-104596000D01*
X162210000Y-104556000D02*
X163552000Y-104556000D01*
X165632000Y-104556000D02*
X166974000Y-104556000D01*
X162227000Y-104516000D02*
X163552000Y-104516000D01*
X165632000Y-104516000D02*
X166957000Y-104516000D01*
X162244000Y-104476000D02*
X163552000Y-104476000D01*
X165632000Y-104476000D02*
X166940000Y-104476000D01*
X162263000Y-104436000D02*
X163552000Y-104436000D01*
X165632000Y-104436000D02*
X166921000Y-104436000D01*
X162282000Y-104396000D02*
X163552000Y-104396000D01*
X165632000Y-104396000D02*
X166902000Y-104396000D01*
X162302000Y-104356000D02*
X163552000Y-104356000D01*
X165632000Y-104356000D02*
X166882000Y-104356000D01*
X162324000Y-104316000D02*
X163552000Y-104316000D01*
X165632000Y-104316000D02*
X166860000Y-104316000D01*
X162345000Y-104276000D02*
X163552000Y-104276000D01*
X165632000Y-104276000D02*
X166839000Y-104276000D01*
X162368000Y-104236000D02*
X163552000Y-104236000D01*
X165632000Y-104236000D02*
X166816000Y-104236000D01*
X162392000Y-104196000D02*
X163552000Y-104196000D01*
X165632000Y-104196000D02*
X166792000Y-104196000D01*
X162417000Y-104156000D02*
X163552000Y-104156000D01*
X165632000Y-104156000D02*
X166767000Y-104156000D01*
X162443000Y-104116000D02*
X163552000Y-104116000D01*
X165632000Y-104116000D02*
X166741000Y-104116000D01*
X162470000Y-104076000D02*
X163552000Y-104076000D01*
X165632000Y-104076000D02*
X166714000Y-104076000D01*
X162497000Y-104036000D02*
X163552000Y-104036000D01*
X165632000Y-104036000D02*
X166687000Y-104036000D01*
X162527000Y-103996000D02*
X163552000Y-103996000D01*
X165632000Y-103996000D02*
X166657000Y-103996000D01*
X162557000Y-103956000D02*
X163552000Y-103956000D01*
X165632000Y-103956000D02*
X166627000Y-103956000D01*
X162588000Y-103916000D02*
X163552000Y-103916000D01*
X165632000Y-103916000D02*
X166596000Y-103916000D01*
X162621000Y-103876000D02*
X163552000Y-103876000D01*
X165632000Y-103876000D02*
X166563000Y-103876000D01*
X162655000Y-103836000D02*
X163552000Y-103836000D01*
X165632000Y-103836000D02*
X166529000Y-103836000D01*
X162691000Y-103796000D02*
X163552000Y-103796000D01*
X165632000Y-103796000D02*
X166493000Y-103796000D01*
X162728000Y-103756000D02*
X163552000Y-103756000D01*
X165632000Y-103756000D02*
X166456000Y-103756000D01*
X162766000Y-103716000D02*
X163552000Y-103716000D01*
X165632000Y-103716000D02*
X166418000Y-103716000D01*
X162807000Y-103676000D02*
X163552000Y-103676000D01*
X165632000Y-103676000D02*
X166377000Y-103676000D01*
X162849000Y-103636000D02*
X163552000Y-103636000D01*
X165632000Y-103636000D02*
X166335000Y-103636000D01*
X162893000Y-103596000D02*
X163552000Y-103596000D01*
X165632000Y-103596000D02*
X166291000Y-103596000D01*
X162939000Y-103556000D02*
X163552000Y-103556000D01*
X165632000Y-103556000D02*
X166245000Y-103556000D01*
X162987000Y-103516000D02*
X163552000Y-103516000D01*
X165632000Y-103516000D02*
X166197000Y-103516000D01*
X163038000Y-103476000D02*
X163552000Y-103476000D01*
X165632000Y-103476000D02*
X166146000Y-103476000D01*
X163092000Y-103436000D02*
X163552000Y-103436000D01*
X165632000Y-103436000D02*
X166092000Y-103436000D01*
X163149000Y-103396000D02*
X163552000Y-103396000D01*
X165632000Y-103396000D02*
X166035000Y-103396000D01*
X163209000Y-103356000D02*
X163552000Y-103356000D01*
X165632000Y-103356000D02*
X165975000Y-103356000D01*
X163273000Y-103316000D02*
X163552000Y-103316000D01*
X165632000Y-103316000D02*
X165911000Y-103316000D01*
X163341000Y-103276000D02*
X163552000Y-103276000D01*
X165632000Y-103276000D02*
X165843000Y-103276000D01*
X163414000Y-103236000D02*
X165770000Y-103236000D01*
X163494000Y-103196000D02*
X165690000Y-103196000D01*
X163581000Y-103156000D02*
X165603000Y-103156000D01*
X163677000Y-103116000D02*
X165507000Y-103116000D01*
X163787000Y-103076000D02*
X165397000Y-103076000D01*
X163915000Y-103036000D02*
X165269000Y-103036000D01*
X164074000Y-102996000D02*
X165110000Y-102996000D01*
X164308000Y-102956000D02*
X164876000Y-102956000D01*
X163117000Y-108361775D02*
X163117000Y-107861775D01*
X162867000Y-108111775D02*
X163367000Y-108111775D01*
%TO.C,C11*%
X184297000Y-45874000D02*
X184297000Y-48614000D01*
X176557000Y-45874000D02*
X176557000Y-48614000D01*
X176557000Y-48614000D02*
X184297000Y-48614000D01*
X176557000Y-45874000D02*
X184297000Y-45874000D01*
%TO.C,U10*%
X192548000Y-51375000D02*
X190898000Y-51375000D01*
X190898000Y-51375000D02*
X190898000Y-69275000D01*
X190898000Y-69275000D02*
X196198000Y-69275000D01*
X196198000Y-69275000D02*
X196198000Y-51375000D01*
X196198000Y-51375000D02*
X194548000Y-51375000D01*
X188408000Y-51315000D02*
X188408000Y-69335000D01*
X188408000Y-69335000D02*
X198688000Y-69335000D01*
X198688000Y-69335000D02*
X198688000Y-51315000D01*
X198688000Y-51315000D02*
X188408000Y-51315000D01*
X194548000Y-51375000D02*
G75*
G02*
X192548000Y-51375000I-1000000J0D01*
G01*
%TO.C,U7*%
X217567000Y-51375000D02*
X215917000Y-51375000D01*
X215917000Y-51375000D02*
X215917000Y-69275000D01*
X215917000Y-69275000D02*
X221217000Y-69275000D01*
X221217000Y-69275000D02*
X221217000Y-51375000D01*
X221217000Y-51375000D02*
X219567000Y-51375000D01*
X213427000Y-51315000D02*
X213427000Y-69335000D01*
X213427000Y-69335000D02*
X223707000Y-69335000D01*
X223707000Y-69335000D02*
X223707000Y-51315000D01*
X223707000Y-51315000D02*
X213427000Y-51315000D01*
X219567000Y-51375000D02*
G75*
G02*
X217567000Y-51375000I-1000000J0D01*
G01*
%TO.C,U8*%
X205248000Y-51375000D02*
X203598000Y-51375000D01*
X203598000Y-51375000D02*
X203598000Y-69275000D01*
X203598000Y-69275000D02*
X208898000Y-69275000D01*
X208898000Y-69275000D02*
X208898000Y-51375000D01*
X208898000Y-51375000D02*
X207248000Y-51375000D01*
X201108000Y-51315000D02*
X201108000Y-69335000D01*
X201108000Y-69335000D02*
X211388000Y-69335000D01*
X211388000Y-69335000D02*
X211388000Y-51315000D01*
X211388000Y-51315000D02*
X201108000Y-51315000D01*
X207248000Y-51375000D02*
G75*
G02*
X205248000Y-51375000I-1000000J0D01*
G01*
%TO.C,U1*%
X171938000Y-88279775D02*
X171938000Y-93739775D01*
X171938000Y-93739775D02*
X222858000Y-93739775D01*
X222858000Y-93739775D02*
X222858000Y-80819775D01*
X222858000Y-80819775D02*
X171938000Y-80819775D01*
X171938000Y-80819775D02*
X171938000Y-86279775D01*
X171878000Y-96229775D02*
X222918000Y-96229775D01*
X222918000Y-96229775D02*
X222918000Y-78329775D01*
X222918000Y-78329775D02*
X171878000Y-78329775D01*
X171878000Y-78329775D02*
X171878000Y-96229775D01*
X171938000Y-86279775D02*
G75*
G02*
X171938000Y-88279775I0J-1000000D01*
G01*
%TO.C,U11*%
X179467000Y-51375000D02*
X177817000Y-51375000D01*
X177817000Y-51375000D02*
X177817000Y-71815000D01*
X177817000Y-71815000D02*
X183117000Y-71815000D01*
X183117000Y-71815000D02*
X183117000Y-51375000D01*
X183117000Y-51375000D02*
X181467000Y-51375000D01*
X175327000Y-51315000D02*
X175327000Y-71875000D01*
X175327000Y-71875000D02*
X185607000Y-71875000D01*
X185607000Y-71875000D02*
X185607000Y-51315000D01*
X185607000Y-51315000D02*
X175327000Y-51315000D01*
X181467000Y-51375000D02*
G75*
G02*
X179467000Y-51375000I-1000000J0D01*
G01*
%TO.C,R1*%
X166473000Y-119983000D02*
X166143000Y-119983000D01*
X166143000Y-119983000D02*
X166143000Y-113443000D01*
X166143000Y-113443000D02*
X166473000Y-113443000D01*
X168553000Y-119983000D02*
X168883000Y-119983000D01*
X168883000Y-119983000D02*
X168883000Y-113443000D01*
X168883000Y-113443000D02*
X168553000Y-113443000D01*
%TO.C,CON2*%
X219118000Y-103572000D02*
X219118000Y-111312000D01*
X219118000Y-111312000D02*
X221778000Y-111312000D01*
X221778000Y-111312000D02*
X221778000Y-103572000D01*
X221778000Y-103572000D02*
X219118000Y-103572000D01*
X221778000Y-104522000D02*
X227778000Y-104522000D01*
X227778000Y-104522000D02*
X227778000Y-105282000D01*
X227778000Y-105282000D02*
X221778000Y-105282000D01*
X221778000Y-104582000D02*
X227778000Y-104582000D01*
X221778000Y-104702000D02*
X227778000Y-104702000D01*
X221778000Y-104822000D02*
X227778000Y-104822000D01*
X221778000Y-104942000D02*
X227778000Y-104942000D01*
X221778000Y-105062000D02*
X227778000Y-105062000D01*
X221778000Y-105182000D02*
X227778000Y-105182000D01*
X218788000Y-104522000D02*
X219118000Y-104522000D01*
X218788000Y-105282000D02*
X219118000Y-105282000D01*
X219118000Y-106172000D02*
X221778000Y-106172000D01*
X221778000Y-107062000D02*
X227778000Y-107062000D01*
X227778000Y-107062000D02*
X227778000Y-107822000D01*
X227778000Y-107822000D02*
X221778000Y-107822000D01*
X218720929Y-107062000D02*
X219118000Y-107062000D01*
X218720929Y-107822000D02*
X219118000Y-107822000D01*
X219118000Y-108712000D02*
X221778000Y-108712000D01*
X221778000Y-109602000D02*
X227778000Y-109602000D01*
X227778000Y-109602000D02*
X227778000Y-110362000D01*
X227778000Y-110362000D02*
X221778000Y-110362000D01*
X218720929Y-109602000D02*
X219118000Y-109602000D01*
X218720929Y-110362000D02*
X219118000Y-110362000D01*
X216408000Y-104902000D02*
X216408000Y-103632000D01*
X216408000Y-103632000D02*
X217678000Y-103632000D01*
%TO.C,C10*%
X189892000Y-45874000D02*
X197632000Y-45874000D01*
X189892000Y-48614000D02*
X197632000Y-48614000D01*
X189892000Y-45874000D02*
X189892000Y-48614000D01*
X197632000Y-45874000D02*
X197632000Y-48614000D01*
%TO.C,C9*%
X186082000Y-120496000D02*
X186082000Y-112756000D01*
X188822000Y-120496000D02*
X188822000Y-112756000D01*
X186082000Y-120496000D02*
X188822000Y-120496000D01*
X186082000Y-112756000D02*
X188822000Y-112756000D01*
%TO.C,C8*%
X202211000Y-45874000D02*
X209951000Y-45874000D01*
X202211000Y-48614000D02*
X209951000Y-48614000D01*
X202211000Y-45874000D02*
X202211000Y-48614000D01*
X209951000Y-45874000D02*
X209951000Y-48614000D01*
%TO.C,C7*%
X214657000Y-45874000D02*
X222397000Y-45874000D01*
X214657000Y-48614000D02*
X222397000Y-48614000D01*
X214657000Y-45874000D02*
X214657000Y-48614000D01*
X222397000Y-45874000D02*
X222397000Y-48614000D01*
%TO.C,C6*%
X90959000Y-61241000D02*
X98699000Y-61241000D01*
X90959000Y-63981000D02*
X98699000Y-63981000D01*
X90959000Y-61241000D02*
X90959000Y-63981000D01*
X98699000Y-61241000D02*
X98699000Y-63981000D01*
%TO.C,C4*%
X115597000Y-79729000D02*
X115597000Y-71989000D01*
X118337000Y-79729000D02*
X118337000Y-71989000D01*
X115597000Y-79729000D02*
X118337000Y-79729000D01*
X115597000Y-71989000D02*
X118337000Y-71989000D01*
%TO.C,C2*%
X115597000Y-111352000D02*
X115597000Y-103612000D01*
X118337000Y-111352000D02*
X118337000Y-103612000D01*
X115597000Y-111352000D02*
X118337000Y-111352000D01*
X115597000Y-103612000D02*
X118337000Y-103612000D01*
%TO.C,U5*%
D10*
X118915380Y-59181904D02*
X119724904Y-59181904D01*
X119820142Y-59134285D01*
X119867761Y-59086666D01*
X119915380Y-58991428D01*
X119915380Y-58800952D01*
X119867761Y-58705714D01*
X119820142Y-58658095D01*
X119724904Y-58610476D01*
X118915380Y-58610476D01*
X118915380Y-57658095D02*
X118915380Y-58134285D01*
X119391571Y-58181904D01*
X119343952Y-58134285D01*
X119296333Y-58039047D01*
X119296333Y-57800952D01*
X119343952Y-57705714D01*
X119391571Y-57658095D01*
X119486809Y-57610476D01*
X119724904Y-57610476D01*
X119820142Y-57658095D01*
X119867761Y-57705714D01*
X119915380Y-57800952D01*
X119915380Y-58039047D01*
X119867761Y-58134285D01*
X119820142Y-58181904D01*
%TO.C,U2*%
X118942380Y-116331904D02*
X119751904Y-116331904D01*
X119847142Y-116284285D01*
X119894761Y-116236666D01*
X119942380Y-116141428D01*
X119942380Y-115950952D01*
X119894761Y-115855714D01*
X119847142Y-115808095D01*
X119751904Y-115760476D01*
X118942380Y-115760476D01*
X119037619Y-115331904D02*
X118990000Y-115284285D01*
X118942380Y-115189047D01*
X118942380Y-114950952D01*
X118990000Y-114855714D01*
X119037619Y-114808095D01*
X119132857Y-114760476D01*
X119228095Y-114760476D01*
X119370952Y-114808095D01*
X119942380Y-115379523D01*
X119942380Y-114760476D01*
%TO.C,U9*%
X189527380Y-117347904D02*
X190336904Y-117347904D01*
X190432142Y-117300285D01*
X190479761Y-117252666D01*
X190527380Y-117157428D01*
X190527380Y-116966952D01*
X190479761Y-116871714D01*
X190432142Y-116824095D01*
X190336904Y-116776476D01*
X189527380Y-116776476D01*
X190527380Y-116252666D02*
X190527380Y-116062190D01*
X190479761Y-115966952D01*
X190432142Y-115919333D01*
X190289285Y-115824095D01*
X190098809Y-115776476D01*
X189717857Y-115776476D01*
X189622619Y-115824095D01*
X189575000Y-115871714D01*
X189527380Y-115966952D01*
X189527380Y-116157428D01*
X189575000Y-116252666D01*
X189622619Y-116300285D01*
X189717857Y-116347904D01*
X189955952Y-116347904D01*
X190051190Y-116300285D01*
X190098809Y-116252666D01*
X190146428Y-116157428D01*
X190146428Y-115966952D01*
X190098809Y-115871714D01*
X190051190Y-115824095D01*
X189955952Y-115776476D01*
%TO.C,J2*%
X173652380Y-114379333D02*
X174366666Y-114379333D01*
X174509523Y-114426952D01*
X174604761Y-114522190D01*
X174652380Y-114665047D01*
X174652380Y-114760285D01*
X173747619Y-113950761D02*
X173700000Y-113903142D01*
X173652380Y-113807904D01*
X173652380Y-113569809D01*
X173700000Y-113474571D01*
X173747619Y-113426952D01*
X173842857Y-113379333D01*
X173938095Y-113379333D01*
X174080952Y-113426952D01*
X174652380Y-113998380D01*
X174652380Y-113379333D01*
%TO.C,J1*%
X173652380Y-119586333D02*
X174366666Y-119586333D01*
X174509523Y-119633952D01*
X174604761Y-119729190D01*
X174652380Y-119872047D01*
X174652380Y-119967285D01*
X174652380Y-118586333D02*
X174652380Y-119157761D01*
X174652380Y-118872047D02*
X173652380Y-118872047D01*
X173795238Y-118967285D01*
X173890476Y-119062523D01*
X173938095Y-119157761D01*
%TO.C,J4*%
X101008380Y-53165333D02*
X101722666Y-53165333D01*
X101865523Y-53212952D01*
X101960761Y-53308190D01*
X102008380Y-53451047D01*
X102008380Y-53546285D01*
X101341714Y-52260571D02*
X102008380Y-52260571D01*
X100960761Y-52498666D02*
X101675047Y-52736761D01*
X101675047Y-52117714D01*
%TO.C,U3*%
X118915380Y-97281904D02*
X119724904Y-97281904D01*
X119820142Y-97234285D01*
X119867761Y-97186666D01*
X119915380Y-97091428D01*
X119915380Y-96900952D01*
X119867761Y-96805714D01*
X119820142Y-96758095D01*
X119724904Y-96710476D01*
X118915380Y-96710476D01*
X118915380Y-96329523D02*
X118915380Y-95710476D01*
X119296333Y-96043809D01*
X119296333Y-95900952D01*
X119343952Y-95805714D01*
X119391571Y-95758095D01*
X119486809Y-95710476D01*
X119724904Y-95710476D01*
X119820142Y-95758095D01*
X119867761Y-95805714D01*
X119915380Y-95900952D01*
X119915380Y-96186666D01*
X119867761Y-96281904D01*
X119820142Y-96329523D01*
%TO.C,R3*%
X89649380Y-52617666D02*
X89173190Y-52951000D01*
X89649380Y-53189095D02*
X88649380Y-53189095D01*
X88649380Y-52808142D01*
X88697000Y-52712904D01*
X88744619Y-52665285D01*
X88839857Y-52617666D01*
X88982714Y-52617666D01*
X89077952Y-52665285D01*
X89125571Y-52712904D01*
X89173190Y-52808142D01*
X89173190Y-53189095D01*
X88649380Y-52284333D02*
X88649380Y-51665285D01*
X89030333Y-51998619D01*
X89030333Y-51855761D01*
X89077952Y-51760523D01*
X89125571Y-51712904D01*
X89220809Y-51665285D01*
X89458904Y-51665285D01*
X89554142Y-51712904D01*
X89601761Y-51760523D01*
X89649380Y-51855761D01*
X89649380Y-52141476D01*
X89601761Y-52236714D01*
X89554142Y-52284333D01*
%TO.C,R2*%
X94475380Y-52617666D02*
X93999190Y-52951000D01*
X94475380Y-53189095D02*
X93475380Y-53189095D01*
X93475380Y-52808142D01*
X93523000Y-52712904D01*
X93570619Y-52665285D01*
X93665857Y-52617666D01*
X93808714Y-52617666D01*
X93903952Y-52665285D01*
X93951571Y-52712904D01*
X93999190Y-52808142D01*
X93999190Y-53189095D01*
X93570619Y-52236714D02*
X93523000Y-52189095D01*
X93475380Y-52093857D01*
X93475380Y-51855761D01*
X93523000Y-51760523D01*
X93570619Y-51712904D01*
X93665857Y-51665285D01*
X93761095Y-51665285D01*
X93903952Y-51712904D01*
X94475380Y-52284333D01*
X94475380Y-51665285D01*
%TO.C,J5*%
X101008380Y-48593333D02*
X101722666Y-48593333D01*
X101865523Y-48640952D01*
X101960761Y-48736190D01*
X102008380Y-48879047D01*
X102008380Y-48974285D01*
X101008380Y-47640952D02*
X101008380Y-48117142D01*
X101484571Y-48164761D01*
X101436952Y-48117142D01*
X101389333Y-48021904D01*
X101389333Y-47783809D01*
X101436952Y-47688571D01*
X101484571Y-47640952D01*
X101579809Y-47593333D01*
X101817904Y-47593333D01*
X101913142Y-47640952D01*
X101960761Y-47688571D01*
X102008380Y-47783809D01*
X102008380Y-48021904D01*
X101960761Y-48117142D01*
X101913142Y-48164761D01*
%TO.C,J3*%
X101008380Y-57737333D02*
X101722666Y-57737333D01*
X101865523Y-57784952D01*
X101960761Y-57880190D01*
X102008380Y-58023047D01*
X102008380Y-58118285D01*
X101008380Y-57356380D02*
X101008380Y-56737333D01*
X101389333Y-57070666D01*
X101389333Y-56927809D01*
X101436952Y-56832571D01*
X101484571Y-56784952D01*
X101579809Y-56737333D01*
X101817904Y-56737333D01*
X101913142Y-56784952D01*
X101960761Y-56832571D01*
X102008380Y-56927809D01*
X102008380Y-57213523D01*
X101960761Y-57308761D01*
X101913142Y-57356380D01*
%TO.C,U4*%
X118915380Y-78231904D02*
X119724904Y-78231904D01*
X119820142Y-78184285D01*
X119867761Y-78136666D01*
X119915380Y-78041428D01*
X119915380Y-77850952D01*
X119867761Y-77755714D01*
X119820142Y-77708095D01*
X119724904Y-77660476D01*
X118915380Y-77660476D01*
X119248714Y-76755714D02*
X119915380Y-76755714D01*
X118867761Y-76993809D02*
X119582047Y-77231904D01*
X119582047Y-76612857D01*
%TO.C,C3*%
X114824142Y-98123666D02*
X114871761Y-98171285D01*
X114919380Y-98314142D01*
X114919380Y-98409380D01*
X114871761Y-98552238D01*
X114776523Y-98647476D01*
X114681285Y-98695095D01*
X114490809Y-98742714D01*
X114347952Y-98742714D01*
X114157476Y-98695095D01*
X114062238Y-98647476D01*
X113967000Y-98552238D01*
X113919380Y-98409380D01*
X113919380Y-98314142D01*
X113967000Y-98171285D01*
X114014619Y-98123666D01*
X113919380Y-97790333D02*
X113919380Y-97171285D01*
X114300333Y-97504619D01*
X114300333Y-97361761D01*
X114347952Y-97266523D01*
X114395571Y-97218904D01*
X114490809Y-97171285D01*
X114728904Y-97171285D01*
X114824142Y-97218904D01*
X114871761Y-97266523D01*
X114919380Y-97361761D01*
X114919380Y-97647476D01*
X114871761Y-97742714D01*
X114824142Y-97790333D01*
%TO.C,C5*%
X114824142Y-65611666D02*
X114871761Y-65659285D01*
X114919380Y-65802142D01*
X114919380Y-65897380D01*
X114871761Y-66040238D01*
X114776523Y-66135476D01*
X114681285Y-66183095D01*
X114490809Y-66230714D01*
X114347952Y-66230714D01*
X114157476Y-66183095D01*
X114062238Y-66135476D01*
X113967000Y-66040238D01*
X113919380Y-65897380D01*
X113919380Y-65802142D01*
X113967000Y-65659285D01*
X114014619Y-65611666D01*
X113919380Y-64706904D02*
X113919380Y-65183095D01*
X114395571Y-65230714D01*
X114347952Y-65183095D01*
X114300333Y-65087857D01*
X114300333Y-64849761D01*
X114347952Y-64754523D01*
X114395571Y-64706904D01*
X114490809Y-64659285D01*
X114728904Y-64659285D01*
X114824142Y-64706904D01*
X114871761Y-64754523D01*
X114919380Y-64849761D01*
X114919380Y-65087857D01*
X114871761Y-65183095D01*
X114824142Y-65230714D01*
%TO.C,C12*%
X166957142Y-45101142D02*
X166909523Y-45148761D01*
X166766666Y-45196380D01*
X166671428Y-45196380D01*
X166528571Y-45148761D01*
X166433333Y-45053523D01*
X166385714Y-44958285D01*
X166338095Y-44767809D01*
X166338095Y-44624952D01*
X166385714Y-44434476D01*
X166433333Y-44339238D01*
X166528571Y-44244000D01*
X166671428Y-44196380D01*
X166766666Y-44196380D01*
X166909523Y-44244000D01*
X166957142Y-44291619D01*
X167909523Y-45196380D02*
X167338095Y-45196380D01*
X167623809Y-45196380D02*
X167623809Y-44196380D01*
X167528571Y-44339238D01*
X167433333Y-44434476D01*
X167338095Y-44482095D01*
X168290476Y-44291619D02*
X168338095Y-44244000D01*
X168433333Y-44196380D01*
X168671428Y-44196380D01*
X168766666Y-44244000D01*
X168814285Y-44291619D01*
X168861904Y-44386857D01*
X168861904Y-44482095D01*
X168814285Y-44624952D01*
X168242857Y-45196380D01*
X168861904Y-45196380D01*
%TO.C,U6*%
X94107095Y-64813380D02*
X94107095Y-65622904D01*
X94154714Y-65718142D01*
X94202333Y-65765761D01*
X94297571Y-65813380D01*
X94488047Y-65813380D01*
X94583285Y-65765761D01*
X94630904Y-65718142D01*
X94678523Y-65622904D01*
X94678523Y-64813380D01*
X95583285Y-64813380D02*
X95392809Y-64813380D01*
X95297571Y-64861000D01*
X95249952Y-64908619D01*
X95154714Y-65051476D01*
X95107095Y-65241952D01*
X95107095Y-65622904D01*
X95154714Y-65718142D01*
X95202333Y-65765761D01*
X95297571Y-65813380D01*
X95488047Y-65813380D01*
X95583285Y-65765761D01*
X95630904Y-65718142D01*
X95678523Y-65622904D01*
X95678523Y-65384809D01*
X95630904Y-65289571D01*
X95583285Y-65241952D01*
X95488047Y-65194333D01*
X95297571Y-65194333D01*
X95202333Y-65241952D01*
X95154714Y-65289571D01*
X95107095Y-65384809D01*
%TO.C,U12*%
X166274904Y-49827380D02*
X166274904Y-50636904D01*
X166322523Y-50732142D01*
X166370142Y-50779761D01*
X166465380Y-50827380D01*
X166655857Y-50827380D01*
X166751095Y-50779761D01*
X166798714Y-50732142D01*
X166846333Y-50636904D01*
X166846333Y-49827380D01*
X167846333Y-50827380D02*
X167274904Y-50827380D01*
X167560619Y-50827380D02*
X167560619Y-49827380D01*
X167465380Y-49970238D01*
X167370142Y-50065476D01*
X167274904Y-50113095D01*
X168227285Y-49922619D02*
X168274904Y-49875000D01*
X168370142Y-49827380D01*
X168608238Y-49827380D01*
X168703476Y-49875000D01*
X168751095Y-49922619D01*
X168798714Y-50017857D01*
X168798714Y-50113095D01*
X168751095Y-50255952D01*
X168179666Y-50827380D01*
X168798714Y-50827380D01*
%TO.C,C1*%
X161199142Y-105723666D02*
X161246761Y-105771285D01*
X161294380Y-105914142D01*
X161294380Y-106009380D01*
X161246761Y-106152238D01*
X161151523Y-106247476D01*
X161056285Y-106295095D01*
X160865809Y-106342714D01*
X160722952Y-106342714D01*
X160532476Y-106295095D01*
X160437238Y-106247476D01*
X160342000Y-106152238D01*
X160294380Y-106009380D01*
X160294380Y-105914142D01*
X160342000Y-105771285D01*
X160389619Y-105723666D01*
X161294380Y-104771285D02*
X161294380Y-105342714D01*
X161294380Y-105057000D02*
X160294380Y-105057000D01*
X160437238Y-105152238D01*
X160532476Y-105247476D01*
X160580095Y-105342714D01*
%TO.C,C11*%
X179784142Y-45101142D02*
X179736523Y-45148761D01*
X179593666Y-45196380D01*
X179498428Y-45196380D01*
X179355571Y-45148761D01*
X179260333Y-45053523D01*
X179212714Y-44958285D01*
X179165095Y-44767809D01*
X179165095Y-44624952D01*
X179212714Y-44434476D01*
X179260333Y-44339238D01*
X179355571Y-44244000D01*
X179498428Y-44196380D01*
X179593666Y-44196380D01*
X179736523Y-44244000D01*
X179784142Y-44291619D01*
X180736523Y-45196380D02*
X180165095Y-45196380D01*
X180450809Y-45196380D02*
X180450809Y-44196380D01*
X180355571Y-44339238D01*
X180260333Y-44434476D01*
X180165095Y-44482095D01*
X181688904Y-45196380D02*
X181117476Y-45196380D01*
X181403190Y-45196380D02*
X181403190Y-44196380D01*
X181307952Y-44339238D01*
X181212714Y-44434476D01*
X181117476Y-44482095D01*
%TO.C,U10*%
X192309904Y-49827380D02*
X192309904Y-50636904D01*
X192357523Y-50732142D01*
X192405142Y-50779761D01*
X192500380Y-50827380D01*
X192690857Y-50827380D01*
X192786095Y-50779761D01*
X192833714Y-50732142D01*
X192881333Y-50636904D01*
X192881333Y-49827380D01*
X193881333Y-50827380D02*
X193309904Y-50827380D01*
X193595619Y-50827380D02*
X193595619Y-49827380D01*
X193500380Y-49970238D01*
X193405142Y-50065476D01*
X193309904Y-50113095D01*
X194500380Y-49827380D02*
X194595619Y-49827380D01*
X194690857Y-49875000D01*
X194738476Y-49922619D01*
X194786095Y-50017857D01*
X194833714Y-50208333D01*
X194833714Y-50446428D01*
X194786095Y-50636904D01*
X194738476Y-50732142D01*
X194690857Y-50779761D01*
X194595619Y-50827380D01*
X194500380Y-50827380D01*
X194405142Y-50779761D01*
X194357523Y-50732142D01*
X194309904Y-50636904D01*
X194262285Y-50446428D01*
X194262285Y-50208333D01*
X194309904Y-50017857D01*
X194357523Y-49922619D01*
X194405142Y-49875000D01*
X194500380Y-49827380D01*
%TO.C,U7*%
X217805095Y-49827380D02*
X217805095Y-50636904D01*
X217852714Y-50732142D01*
X217900333Y-50779761D01*
X217995571Y-50827380D01*
X218186047Y-50827380D01*
X218281285Y-50779761D01*
X218328904Y-50732142D01*
X218376523Y-50636904D01*
X218376523Y-49827380D01*
X218757476Y-49827380D02*
X219424142Y-49827380D01*
X218995571Y-50827380D01*
%TO.C,U8*%
X205486095Y-49827380D02*
X205486095Y-50636904D01*
X205533714Y-50732142D01*
X205581333Y-50779761D01*
X205676571Y-50827380D01*
X205867047Y-50827380D01*
X205962285Y-50779761D01*
X206009904Y-50732142D01*
X206057523Y-50636904D01*
X206057523Y-49827380D01*
X206676571Y-50255952D02*
X206581333Y-50208333D01*
X206533714Y-50160714D01*
X206486095Y-50065476D01*
X206486095Y-50017857D01*
X206533714Y-49922619D01*
X206581333Y-49875000D01*
X206676571Y-49827380D01*
X206867047Y-49827380D01*
X206962285Y-49875000D01*
X207009904Y-49922619D01*
X207057523Y-50017857D01*
X207057523Y-50065476D01*
X207009904Y-50160714D01*
X206962285Y-50208333D01*
X206867047Y-50255952D01*
X206676571Y-50255952D01*
X206581333Y-50303571D01*
X206533714Y-50351190D01*
X206486095Y-50446428D01*
X206486095Y-50636904D01*
X206533714Y-50732142D01*
X206581333Y-50779761D01*
X206676571Y-50827380D01*
X206867047Y-50827380D01*
X206962285Y-50779761D01*
X207009904Y-50732142D01*
X207057523Y-50636904D01*
X207057523Y-50446428D01*
X207009904Y-50351190D01*
X206962285Y-50303571D01*
X206867047Y-50255952D01*
%TO.C,U1*%
X170390380Y-88041679D02*
X171199904Y-88041679D01*
X171295142Y-87994060D01*
X171342761Y-87946441D01*
X171390380Y-87851203D01*
X171390380Y-87660727D01*
X171342761Y-87565489D01*
X171295142Y-87517870D01*
X171199904Y-87470251D01*
X170390380Y-87470251D01*
X171390380Y-86470251D02*
X171390380Y-87041679D01*
X171390380Y-86755965D02*
X170390380Y-86755965D01*
X170533238Y-86851203D01*
X170628476Y-86946441D01*
X170676095Y-87041679D01*
%TO.C,U11*%
X179228904Y-49827380D02*
X179228904Y-50636904D01*
X179276523Y-50732142D01*
X179324142Y-50779761D01*
X179419380Y-50827380D01*
X179609857Y-50827380D01*
X179705095Y-50779761D01*
X179752714Y-50732142D01*
X179800333Y-50636904D01*
X179800333Y-49827380D01*
X180800333Y-50827380D02*
X180228904Y-50827380D01*
X180514619Y-50827380D02*
X180514619Y-49827380D01*
X180419380Y-49970238D01*
X180324142Y-50065476D01*
X180228904Y-50113095D01*
X181752714Y-50827380D02*
X181181285Y-50827380D01*
X181467000Y-50827380D02*
X181467000Y-49827380D01*
X181371761Y-49970238D01*
X181276523Y-50065476D01*
X181181285Y-50113095D01*
%TO.C,R1*%
X165595380Y-116879666D02*
X165119190Y-117213000D01*
X165595380Y-117451095D02*
X164595380Y-117451095D01*
X164595380Y-117070142D01*
X164643000Y-116974904D01*
X164690619Y-116927285D01*
X164785857Y-116879666D01*
X164928714Y-116879666D01*
X165023952Y-116927285D01*
X165071571Y-116974904D01*
X165119190Y-117070142D01*
X165119190Y-117451095D01*
X165595380Y-115927285D02*
X165595380Y-116498714D01*
X165595380Y-116213000D02*
X164595380Y-116213000D01*
X164738238Y-116308238D01*
X164833476Y-116403476D01*
X164881095Y-116498714D01*
%TO.C,CON2*%
X220848714Y-102989142D02*
X220801095Y-103036761D01*
X220658238Y-103084380D01*
X220563000Y-103084380D01*
X220420142Y-103036761D01*
X220324904Y-102941523D01*
X220277285Y-102846285D01*
X220229666Y-102655809D01*
X220229666Y-102512952D01*
X220277285Y-102322476D01*
X220324904Y-102227238D01*
X220420142Y-102132000D01*
X220563000Y-102084380D01*
X220658238Y-102084380D01*
X220801095Y-102132000D01*
X220848714Y-102179619D01*
X221467761Y-102084380D02*
X221658238Y-102084380D01*
X221753476Y-102132000D01*
X221848714Y-102227238D01*
X221896333Y-102417714D01*
X221896333Y-102751047D01*
X221848714Y-102941523D01*
X221753476Y-103036761D01*
X221658238Y-103084380D01*
X221467761Y-103084380D01*
X221372523Y-103036761D01*
X221277285Y-102941523D01*
X221229666Y-102751047D01*
X221229666Y-102417714D01*
X221277285Y-102227238D01*
X221372523Y-102132000D01*
X221467761Y-102084380D01*
X222324904Y-103084380D02*
X222324904Y-102084380D01*
X222896333Y-103084380D01*
X222896333Y-102084380D01*
X223324904Y-102179619D02*
X223372523Y-102132000D01*
X223467761Y-102084380D01*
X223705857Y-102084380D01*
X223801095Y-102132000D01*
X223848714Y-102179619D01*
X223896333Y-102274857D01*
X223896333Y-102370095D01*
X223848714Y-102512952D01*
X223277285Y-103084380D01*
X223896333Y-103084380D01*
%TO.C,C10*%
X193119142Y-45101142D02*
X193071523Y-45148761D01*
X192928666Y-45196380D01*
X192833428Y-45196380D01*
X192690571Y-45148761D01*
X192595333Y-45053523D01*
X192547714Y-44958285D01*
X192500095Y-44767809D01*
X192500095Y-44624952D01*
X192547714Y-44434476D01*
X192595333Y-44339238D01*
X192690571Y-44244000D01*
X192833428Y-44196380D01*
X192928666Y-44196380D01*
X193071523Y-44244000D01*
X193119142Y-44291619D01*
X194071523Y-45196380D02*
X193500095Y-45196380D01*
X193785809Y-45196380D02*
X193785809Y-44196380D01*
X193690571Y-44339238D01*
X193595333Y-44434476D01*
X193500095Y-44482095D01*
X194690571Y-44196380D02*
X194785809Y-44196380D01*
X194881047Y-44244000D01*
X194928666Y-44291619D01*
X194976285Y-44386857D01*
X195023904Y-44577333D01*
X195023904Y-44815428D01*
X194976285Y-45005904D01*
X194928666Y-45101142D01*
X194881047Y-45148761D01*
X194785809Y-45196380D01*
X194690571Y-45196380D01*
X194595333Y-45148761D01*
X194547714Y-45101142D01*
X194500095Y-45005904D01*
X194452476Y-44815428D01*
X194452476Y-44577333D01*
X194500095Y-44386857D01*
X194547714Y-44291619D01*
X194595333Y-44244000D01*
X194690571Y-44196380D01*
%TO.C,C9*%
X185309142Y-116792666D02*
X185356761Y-116840285D01*
X185404380Y-116983142D01*
X185404380Y-117078380D01*
X185356761Y-117221238D01*
X185261523Y-117316476D01*
X185166285Y-117364095D01*
X184975809Y-117411714D01*
X184832952Y-117411714D01*
X184642476Y-117364095D01*
X184547238Y-117316476D01*
X184452000Y-117221238D01*
X184404380Y-117078380D01*
X184404380Y-116983142D01*
X184452000Y-116840285D01*
X184499619Y-116792666D01*
X185404380Y-116316476D02*
X185404380Y-116126000D01*
X185356761Y-116030761D01*
X185309142Y-115983142D01*
X185166285Y-115887904D01*
X184975809Y-115840285D01*
X184594857Y-115840285D01*
X184499619Y-115887904D01*
X184452000Y-115935523D01*
X184404380Y-116030761D01*
X184404380Y-116221238D01*
X184452000Y-116316476D01*
X184499619Y-116364095D01*
X184594857Y-116411714D01*
X184832952Y-116411714D01*
X184928190Y-116364095D01*
X184975809Y-116316476D01*
X185023428Y-116221238D01*
X185023428Y-116030761D01*
X184975809Y-115935523D01*
X184928190Y-115887904D01*
X184832952Y-115840285D01*
%TO.C,C8*%
X205914333Y-45101142D02*
X205866714Y-45148761D01*
X205723857Y-45196380D01*
X205628619Y-45196380D01*
X205485761Y-45148761D01*
X205390523Y-45053523D01*
X205342904Y-44958285D01*
X205295285Y-44767809D01*
X205295285Y-44624952D01*
X205342904Y-44434476D01*
X205390523Y-44339238D01*
X205485761Y-44244000D01*
X205628619Y-44196380D01*
X205723857Y-44196380D01*
X205866714Y-44244000D01*
X205914333Y-44291619D01*
X206485761Y-44624952D02*
X206390523Y-44577333D01*
X206342904Y-44529714D01*
X206295285Y-44434476D01*
X206295285Y-44386857D01*
X206342904Y-44291619D01*
X206390523Y-44244000D01*
X206485761Y-44196380D01*
X206676238Y-44196380D01*
X206771476Y-44244000D01*
X206819095Y-44291619D01*
X206866714Y-44386857D01*
X206866714Y-44434476D01*
X206819095Y-44529714D01*
X206771476Y-44577333D01*
X206676238Y-44624952D01*
X206485761Y-44624952D01*
X206390523Y-44672571D01*
X206342904Y-44720190D01*
X206295285Y-44815428D01*
X206295285Y-45005904D01*
X206342904Y-45101142D01*
X206390523Y-45148761D01*
X206485761Y-45196380D01*
X206676238Y-45196380D01*
X206771476Y-45148761D01*
X206819095Y-45101142D01*
X206866714Y-45005904D01*
X206866714Y-44815428D01*
X206819095Y-44720190D01*
X206771476Y-44672571D01*
X206676238Y-44624952D01*
%TO.C,C7*%
X218360333Y-45101142D02*
X218312714Y-45148761D01*
X218169857Y-45196380D01*
X218074619Y-45196380D01*
X217931761Y-45148761D01*
X217836523Y-45053523D01*
X217788904Y-44958285D01*
X217741285Y-44767809D01*
X217741285Y-44624952D01*
X217788904Y-44434476D01*
X217836523Y-44339238D01*
X217931761Y-44244000D01*
X218074619Y-44196380D01*
X218169857Y-44196380D01*
X218312714Y-44244000D01*
X218360333Y-44291619D01*
X218693666Y-44196380D02*
X219360333Y-44196380D01*
X218931761Y-45196380D01*
%TO.C,C6*%
X94662333Y-60468142D02*
X94614714Y-60515761D01*
X94471857Y-60563380D01*
X94376619Y-60563380D01*
X94233761Y-60515761D01*
X94138523Y-60420523D01*
X94090904Y-60325285D01*
X94043285Y-60134809D01*
X94043285Y-59991952D01*
X94090904Y-59801476D01*
X94138523Y-59706238D01*
X94233761Y-59611000D01*
X94376619Y-59563380D01*
X94471857Y-59563380D01*
X94614714Y-59611000D01*
X94662333Y-59658619D01*
X95519476Y-59563380D02*
X95329000Y-59563380D01*
X95233761Y-59611000D01*
X95186142Y-59658619D01*
X95090904Y-59801476D01*
X95043285Y-59991952D01*
X95043285Y-60372904D01*
X95090904Y-60468142D01*
X95138523Y-60515761D01*
X95233761Y-60563380D01*
X95424238Y-60563380D01*
X95519476Y-60515761D01*
X95567095Y-60468142D01*
X95614714Y-60372904D01*
X95614714Y-60134809D01*
X95567095Y-60039571D01*
X95519476Y-59991952D01*
X95424238Y-59944333D01*
X95233761Y-59944333D01*
X95138523Y-59991952D01*
X95090904Y-60039571D01*
X95043285Y-60134809D01*
%TO.C,C4*%
X114824142Y-76025666D02*
X114871761Y-76073285D01*
X114919380Y-76216142D01*
X114919380Y-76311380D01*
X114871761Y-76454238D01*
X114776523Y-76549476D01*
X114681285Y-76597095D01*
X114490809Y-76644714D01*
X114347952Y-76644714D01*
X114157476Y-76597095D01*
X114062238Y-76549476D01*
X113967000Y-76454238D01*
X113919380Y-76311380D01*
X113919380Y-76216142D01*
X113967000Y-76073285D01*
X114014619Y-76025666D01*
X114252714Y-75168523D02*
X114919380Y-75168523D01*
X113871761Y-75406619D02*
X114586047Y-75644714D01*
X114586047Y-75025666D01*
%TO.C,C2*%
X114824142Y-107648666D02*
X114871761Y-107696285D01*
X114919380Y-107839142D01*
X114919380Y-107934380D01*
X114871761Y-108077238D01*
X114776523Y-108172476D01*
X114681285Y-108220095D01*
X114490809Y-108267714D01*
X114347952Y-108267714D01*
X114157476Y-108220095D01*
X114062238Y-108172476D01*
X113967000Y-108077238D01*
X113919380Y-107934380D01*
X113919380Y-107839142D01*
X113967000Y-107696285D01*
X114014619Y-107648666D01*
X114014619Y-107267714D02*
X113967000Y-107220095D01*
X113919380Y-107124857D01*
X113919380Y-106886761D01*
X113967000Y-106791523D01*
X114014619Y-106743904D01*
X114109857Y-106696285D01*
X114205095Y-106696285D01*
X114347952Y-106743904D01*
X114919380Y-107315333D01*
X114919380Y-106696285D01*
%TD*%
M02*
