%TF.GenerationSoftware,KiCad,Pcbnew,(5.1.9-0-10_14)*%
%TF.CreationDate,2022-05-21T18:10:01+01:00*%
%TF.ProjectId,BBCMicro128KRomRam,4242434d-6963-4726-9f31-32384b526f6d,rev?*%
%TF.SameCoordinates,Original*%
%TF.FileFunction,Legend,Bot*%
%TF.FilePolarity,Positive*%
%FSLAX46Y46*%
G04 Gerber Fmt 4.6, Leading zero omitted, Abs format (unit mm)*
G04 Created by KiCad (PCBNEW (5.1.9-0-10_14)) date 2022-05-21 18:10:01*
%MOMM*%
%LPD*%
G01*
G04 APERTURE LIST*
%ADD10C,0.120000*%
%ADD11C,0.150000*%
G04 APERTURE END LIST*
D10*
%TO.C,CON1*%
X171898000Y-89519000D02*
X171898000Y-94979000D01*
X171898000Y-94979000D02*
X222818000Y-94979000D01*
X222818000Y-94979000D02*
X222818000Y-82059000D01*
X222818000Y-82059000D02*
X171898000Y-82059000D01*
X171898000Y-82059000D02*
X171898000Y-87519000D01*
X171838000Y-97469000D02*
X222878000Y-97469000D01*
X222878000Y-97469000D02*
X222878000Y-79569000D01*
X222878000Y-79569000D02*
X171838000Y-79569000D01*
X171838000Y-79569000D02*
X171838000Y-97469000D01*
X171898000Y-87519000D02*
G75*
G02*
X171898000Y-89519000I0J-1000000D01*
G01*
D11*
X171299142Y-87304714D02*
X171346761Y-87257095D01*
X171394380Y-87114238D01*
X171394380Y-87019000D01*
X171346761Y-86876142D01*
X171251523Y-86780904D01*
X171156285Y-86733285D01*
X170965809Y-86685666D01*
X170822952Y-86685666D01*
X170632476Y-86733285D01*
X170537238Y-86780904D01*
X170442000Y-86876142D01*
X170394380Y-87019000D01*
X170394380Y-87114238D01*
X170442000Y-87257095D01*
X170489619Y-87304714D01*
X170394380Y-87923761D02*
X170394380Y-88114238D01*
X170442000Y-88209476D01*
X170537238Y-88304714D01*
X170727714Y-88352333D01*
X171061047Y-88352333D01*
X171251523Y-88304714D01*
X171346761Y-88209476D01*
X171394380Y-88114238D01*
X171394380Y-87923761D01*
X171346761Y-87828523D01*
X171251523Y-87733285D01*
X171061047Y-87685666D01*
X170727714Y-87685666D01*
X170537238Y-87733285D01*
X170442000Y-87828523D01*
X170394380Y-87923761D01*
X171394380Y-88780904D02*
X170394380Y-88780904D01*
X171394380Y-89352333D01*
X170394380Y-89352333D01*
X171394380Y-90352333D02*
X171394380Y-89780904D01*
X171394380Y-90066619D02*
X170394380Y-90066619D01*
X170537238Y-89971380D01*
X170632476Y-89876142D01*
X170680095Y-89780904D01*
%TD*%
M02*
