M48
; DRILL file {KiCad (5.1.9-0-10_14)} date Saturday, May 21, 2022 at 06:10:06 PM
; FORMAT={-:-/ absolute / inch / decimal}
; #@! TF.CreationDate,2022-05-21T18:10:06+01:00
; #@! TF.GenerationSoftware,Kicad,Pcbnew,(5.1.9-0-10_14)
FMAT,2
INCH
T1C0.0157
T2C0.0315
T3C0.0394
%
G90
G05
T1
X3.75Y-2.72
X3.755Y-3.94
X3.9223Y-4.3927
X3.995Y-4.395
X4.0027Y-2.4923
X4.115Y-2.445
X4.155Y-2.395
X4.23Y-2.625
X4.3Y-2.555
X4.3375Y-2.0625
X4.37Y-4.69
X4.555Y-4.525
X4.56Y-3.325
X4.897Y-2.972
X4.897Y-3.022
X4.997Y-3.022
X4.997Y-3.16
X5.045Y-2.92
X5.045Y-3.06
X5.097Y-3.08
X5.097Y-3.215
X5.145Y-3.105
X5.145Y-3.89
X5.1675Y-3.4925
X5.197Y-3.215
X5.235Y-3.515
X5.245Y-3.105
X5.295Y-3.52
X5.297Y-3.635
X5.345Y-3.09
X5.345Y-3.565
X5.397Y-3.562
X5.397Y-3.612
X5.397Y-4.298
X5.397Y-4.47
X5.495Y-3.6
X5.495Y-3.705
X5.545Y-3.1
X5.545Y-3.755
X5.5961Y-4.2439
X5.597Y-3.807
X5.6Y-3.64
X5.645Y-2.435
X5.645Y-3.705
X5.695Y-3.85
X5.695Y-4.345
X5.697Y-3.222
X5.745Y-2.855
X5.745Y-4.585
X5.795Y-2.995
X5.795Y-4.385
X5.845Y-2.895
X5.845Y-4.6
X5.897Y-2.962
X5.9Y-4.43
X5.945Y-2.8
X5.945Y-4.645
X5.995Y-4.475
X5.997Y-2.927
X6.045Y-2.835
X6.1Y-4.475
X6.155Y-2.895
X6.235Y-2.455
X6.235Y-4.21
X6.265Y-2.34
X6.28Y-2.555
X6.28Y-3.705
X6.325Y-2.7
X6.515Y-2.675
X6.5165Y-2.1065
X6.545Y-2.25
X6.545Y-2.57
X6.61Y-2.205
X6.64Y-2.305
X6.66Y-4.035
X6.675Y-2.45
X6.695Y-3.995
X6.73Y-4.035
X7.03Y-2.93
X7.06Y-2.965
X7.09Y-2.995
X7.105Y-2.13
X7.115Y-1.965
X7.13Y-2.84
X7.16Y-2.87
X7.195Y-2.9
X7.27Y-4.135
X7.325Y-2.255
X7.325Y-3.58
X7.39Y-2.055
X7.475Y-4.13
X7.5216Y-2.995
X7.605Y-2.5
X7.615Y-3.455
X7.6216Y-2.9716
X7.625Y-2.045
X7.69Y-2.355
X7.71Y-3.975
X7.72Y-2.97
X7.72Y-3.545
X7.82Y-2.97
X7.825Y-3.55
X7.885Y-2.505
X7.885Y-2.605
X7.92Y-3.485
X7.9216Y-2.7866
X8.0216Y-2.785
X8.0216Y-3.5916
X8.04Y-2.555
X8.07Y-2.205
X8.07Y-2.455
X8.07Y-3.43
X8.12Y-2.97
X8.125Y-2.105
X8.145Y-2.205
X8.17Y-3.4
X8.175Y-2.45
X8.22Y-2.97
X8.26Y-2.79
X8.27Y-3.375
X8.39Y-2.105
X8.42Y-3.89
X8.515Y-2.355
X8.5216Y-3.4166
X8.5525Y-3.2625
X8.59Y-1.96
X8.59Y-2.505
X8.6216Y-2.3066
X8.6216Y-3.3816
X8.65Y-2.405
X8.675Y-3.305
X8.68Y-2.055
X8.7216Y-3.3466
X8.76Y-3.89
T2
X3.435Y-2.595
X3.435Y-2.695
X3.435Y-2.795
X3.435Y-2.895
X3.435Y-2.995
X3.435Y-3.095
X3.435Y-3.195
X3.435Y-3.295
X3.435Y-3.395
X3.435Y-3.495
X3.435Y-3.595
X3.435Y-3.695
X3.435Y-3.795
X3.435Y-3.895
X3.435Y-3.995
X3.435Y-4.095
X3.605Y-1.845
X3.605Y-2.145
X3.795Y-1.845
X3.795Y-2.145
X4.035Y-2.595
X4.035Y-2.695
X4.035Y-2.795
X4.035Y-2.895
X4.035Y-2.995
X4.035Y-3.095
X4.035Y-3.195
X4.035Y-3.295
X4.035Y-3.395
X4.035Y-3.495
X4.035Y-3.595
X4.035Y-3.695
X4.035Y-3.795
X4.035Y-3.895
X4.035Y-3.995
X4.035Y-4.095
X4.795Y-1.93
X4.795Y-2.53
X4.795Y-2.68
X4.795Y-3.28
X4.795Y-3.43
X4.795Y-4.03
X4.7961Y-4.18
X4.7961Y-4.78
X4.895Y-1.93
X4.895Y-2.53
X4.895Y-2.68
X4.895Y-3.28
X4.895Y-3.43
X4.895Y-4.03
X4.8961Y-4.18
X4.8961Y-4.78
X4.995Y-1.93
X4.995Y-2.53
X4.995Y-2.68
X4.995Y-3.28
X4.995Y-3.43
X4.995Y-4.03
X4.9961Y-4.18
X4.9961Y-4.78
X5.095Y-1.93
X5.095Y-2.53
X5.095Y-2.68
X5.095Y-3.28
X5.095Y-3.43
X5.095Y-4.03
X5.0961Y-4.18
X5.0961Y-4.78
X5.195Y-1.93
X5.195Y-2.53
X5.195Y-2.68
X5.195Y-3.28
X5.195Y-3.43
X5.195Y-4.03
X5.1961Y-4.18
X5.1961Y-4.78
X5.295Y-1.93
X5.295Y-2.53
X5.295Y-2.68
X5.295Y-3.28
X5.295Y-3.43
X5.295Y-4.03
X5.2961Y-4.18
X5.2961Y-4.78
X5.395Y-1.93
X5.395Y-2.53
X5.395Y-2.68
X5.395Y-3.28
X5.395Y-3.43
X5.395Y-4.03
X5.3961Y-4.18
X5.3961Y-4.78
X5.495Y-1.93
X5.495Y-2.53
X5.495Y-2.68
X5.495Y-3.28
X5.495Y-3.43
X5.495Y-4.03
X5.4961Y-4.18
X5.4961Y-4.78
X5.595Y-1.93
X5.595Y-2.53
X5.595Y-2.68
X5.595Y-3.28
X5.595Y-3.43
X5.595Y-4.03
X5.5961Y-4.18
X5.5961Y-4.78
X5.695Y-1.93
X5.695Y-2.53
X5.695Y-2.68
X5.695Y-3.28
X5.695Y-3.43
X5.695Y-4.03
X5.6961Y-4.18
X5.6961Y-4.78
X5.795Y-1.93
X5.795Y-2.53
X5.795Y-2.68
X5.795Y-3.28
X5.795Y-3.43
X5.795Y-4.03
X5.7961Y-4.18
X5.7961Y-4.78
X5.895Y-1.93
X5.895Y-2.53
X5.895Y-2.68
X5.895Y-3.28
X5.895Y-3.43
X5.895Y-4.03
X5.8961Y-4.18
X5.8961Y-4.78
X5.995Y-1.93
X5.995Y-2.53
X5.995Y-2.68
X5.995Y-3.28
X5.995Y-3.43
X5.995Y-4.03
X5.9961Y-4.18
X5.9961Y-4.78
X6.095Y-1.93
X6.095Y-2.53
X6.095Y-2.68
X6.095Y-3.28
X6.095Y-3.43
X6.095Y-4.03
X6.0961Y-4.18
X6.0961Y-4.78
X6.445Y-2.005
X6.445Y-2.105
X6.445Y-2.205
X6.445Y-2.305
X6.445Y-2.405
X6.445Y-2.505
X6.445Y-2.605
X6.445Y-2.705
X6.48Y-4.0366
X6.48Y-4.135
X6.595Y-4.375
X6.595Y-4.675
X6.745Y-2.005
X6.745Y-2.105
X6.745Y-2.205
X6.745Y-2.305
X6.745Y-2.405
X6.745Y-2.505
X6.745Y-2.605
X6.745Y-2.705
X6.82Y-3.185
X6.82Y-3.785
X6.8216Y-3.0662
X6.8216Y-3.6662
X6.92Y-3.185
X6.92Y-3.785
X6.9216Y-3.0662
X6.9216Y-3.6662
X6.955Y-2.005
X6.955Y-2.105
X6.955Y-2.205
X6.955Y-2.305
X6.955Y-2.405
X6.955Y-2.505
X6.955Y-2.605
X6.955Y-2.705
X7.02Y-3.185
X7.02Y-3.785
X7.0216Y-3.0662
X7.0216Y-3.6662
X7.12Y-3.185
X7.12Y-3.785
X7.1216Y-3.0662
X7.1216Y-3.6662
X7.22Y-3.185
X7.22Y-3.785
X7.2216Y-3.0662
X7.2216Y-3.6662
X7.255Y-2.005
X7.255Y-2.105
X7.255Y-2.205
X7.255Y-2.305
X7.255Y-2.405
X7.255Y-2.505
X7.255Y-2.605
X7.255Y-2.705
X7.32Y-3.185
X7.32Y-3.785
X7.3216Y-3.0662
X7.3216Y-3.6662
X7.42Y-3.185
X7.42Y-3.785
X7.4216Y-3.0662
X7.4216Y-3.6662
X7.47Y-2.005
X7.47Y-2.105
X7.47Y-2.205
X7.47Y-2.305
X7.47Y-2.405
X7.47Y-2.505
X7.47Y-2.605
X7.52Y-3.185
X7.52Y-3.785
X7.5216Y-3.0662
X7.5216Y-3.6662
X7.575Y-4.37
X7.575Y-4.67
X7.62Y-3.185
X7.62Y-3.785
X7.6216Y-3.0662
X7.6216Y-3.6662
X7.675Y-4.37
X7.675Y-4.67
X7.72Y-3.185
X7.72Y-3.785
X7.7216Y-3.0662
X7.7216Y-3.6662
X7.77Y-2.005
X7.77Y-2.105
X7.77Y-2.205
X7.77Y-2.305
X7.77Y-2.405
X7.77Y-2.505
X7.77Y-2.605
X7.775Y-4.37
X7.775Y-4.67
X7.82Y-3.185
X7.82Y-3.785
X7.8216Y-3.0662
X7.8216Y-3.6662
X7.875Y-4.37
X7.875Y-4.67
X7.92Y-3.185
X7.92Y-3.785
X7.9216Y-3.0662
X7.9216Y-3.6662
X7.97Y-2.005
X7.97Y-2.105
X7.97Y-2.205
X7.97Y-2.305
X7.97Y-2.405
X7.97Y-2.505
X7.97Y-2.605
X7.975Y-4.37
X7.975Y-4.67
X8.02Y-3.185
X8.02Y-3.785
X8.0216Y-3.0662
X8.0216Y-3.6662
X8.075Y-4.37
X8.075Y-4.67
X8.12Y-3.185
X8.12Y-3.785
X8.1216Y-3.0662
X8.1216Y-3.6662
X8.175Y-4.37
X8.175Y-4.67
X8.22Y-3.185
X8.22Y-3.785
X8.2216Y-3.0662
X8.2216Y-3.6662
X8.27Y-2.005
X8.27Y-2.105
X8.27Y-2.205
X8.27Y-2.305
X8.27Y-2.405
X8.27Y-2.505
X8.27Y-2.605
X8.32Y-3.185
X8.32Y-3.785
X8.3216Y-3.0662
X8.3216Y-3.6662
X8.42Y-3.185
X8.42Y-3.785
X8.4216Y-3.0662
X8.4216Y-3.6662
X8.455Y-2.005
X8.455Y-2.105
X8.455Y-2.205
X8.455Y-2.305
X8.455Y-2.405
X8.455Y-2.505
X8.455Y-2.605
X8.52Y-3.185
X8.52Y-3.785
X8.5216Y-3.0662
X8.5216Y-3.6662
X8.62Y-3.185
X8.62Y-3.785
X8.6216Y-3.0662
X8.6216Y-3.6662
X8.72Y-3.185
X8.72Y-3.785
X8.7216Y-3.0662
X8.7216Y-3.6662
X8.755Y-2.005
X8.755Y-2.105
X8.755Y-2.205
X8.755Y-2.305
X8.755Y-2.405
X8.755Y-2.505
X8.755Y-2.605
T3
X3.635Y-2.395
X3.8319Y-2.395
X4.09Y-1.83
X4.09Y-2.01
X4.09Y-2.19
X4.19Y-1.83
X4.19Y-2.01
X4.19Y-2.19
X4.29Y-1.83
X4.605Y-2.4081
X4.605Y-2.605
X4.605Y-2.8181
X4.605Y-3.015
X4.605Y-3.6881
X4.605Y-3.885
X4.605Y-4.0631
X4.605Y-4.26
X6.5Y-1.79
X6.6969Y-1.79
X6.95Y-4.42
X6.95Y-4.625
X7.005Y-1.79
X7.05Y-4.42
X7.05Y-4.625
X7.2019Y-1.79
X7.38Y-4.4231
X7.38Y-4.62
X7.53Y-1.79
X7.7269Y-1.79
X8.015Y-1.79
X8.2119Y-1.79
X8.505Y-1.79
X8.57Y-4.06
X8.57Y-4.16
X8.57Y-4.26
X8.7019Y-1.79
T0
M30
