M48
; DRILL file {KiCad (5.1.9-0-10_14)} date Sunday, May 22, 2022 at 11:28:53 AM
; FORMAT={-:-/ absolute / inch / decimal}
; #@! TF.CreationDate,2022-05-22T11:28:53+01:00
; #@! TF.GenerationSoftware,Kicad,Pcbnew,(5.1.9-0-10_14)
FMAT,2
INCH
T1C0.0157
T2C0.0315
T3C0.0394
%
G90
G05
T1
X3.75Y-2.79
X3.755Y-4.01
X3.9223Y-4.4627
X3.995Y-4.465
X4.0027Y-2.5623
X4.115Y-2.515
X4.155Y-2.465
X4.23Y-2.695
X4.3Y-2.625
X4.3375Y-2.1325
X4.37Y-4.76
X4.555Y-4.595
X4.56Y-3.395
X4.897Y-3.042
X4.897Y-3.092
X4.997Y-3.092
X4.997Y-3.23
X5.045Y-2.99
X5.045Y-3.13
X5.097Y-3.15
X5.097Y-3.285
X5.145Y-3.175
X5.145Y-3.96
X5.1675Y-3.5625
X5.197Y-3.285
X5.235Y-3.585
X5.245Y-3.175
X5.295Y-3.59
X5.297Y-3.705
X5.345Y-3.16
X5.345Y-3.635
X5.397Y-3.632
X5.397Y-3.682
X5.397Y-4.368
X5.397Y-4.54
X5.495Y-3.67
X5.495Y-3.775
X5.545Y-3.17
X5.545Y-3.825
X5.5961Y-4.3139
X5.597Y-3.877
X5.6Y-3.71
X5.645Y-2.505
X5.645Y-3.775
X5.695Y-3.92
X5.695Y-4.415
X5.697Y-3.292
X5.745Y-2.925
X5.745Y-4.655
X5.795Y-3.065
X5.795Y-4.455
X5.845Y-2.965
X5.845Y-4.67
X5.897Y-3.032
X5.9Y-4.5
X5.945Y-2.87
X5.945Y-4.715
X5.995Y-4.545
X5.997Y-2.997
X6.045Y-2.905
X6.1Y-4.545
X6.155Y-2.965
X6.235Y-2.525
X6.235Y-4.28
X6.265Y-2.41
X6.28Y-2.625
X6.28Y-3.775
X6.325Y-2.77
X6.515Y-2.745
X6.5165Y-2.1765
X6.545Y-2.32
X6.545Y-2.64
X6.61Y-2.275
X6.64Y-2.375
X6.66Y-4.105
X6.675Y-2.52
X6.695Y-4.065
X6.73Y-4.105
X7.03Y-3.0
X7.06Y-3.035
X7.09Y-3.065
X7.105Y-2.2
X7.115Y-2.035
X7.13Y-2.91
X7.16Y-2.94
X7.195Y-2.97
X7.27Y-4.205
X7.325Y-2.325
X7.325Y-3.65
X7.39Y-2.125
X7.475Y-4.2
X7.5216Y-3.065
X7.605Y-2.57
X7.615Y-3.525
X7.6216Y-3.0416
X7.625Y-2.115
X7.69Y-2.425
X7.71Y-4.045
X7.72Y-3.04
X7.72Y-3.615
X7.82Y-3.04
X7.825Y-3.62
X7.885Y-2.575
X7.885Y-2.675
X7.92Y-3.555
X7.9216Y-2.8566
X8.0216Y-2.855
X8.0216Y-3.6616
X8.04Y-2.625
X8.07Y-2.275
X8.07Y-2.525
X8.07Y-3.5
X8.12Y-3.04
X8.125Y-2.175
X8.145Y-2.275
X8.17Y-3.47
X8.175Y-2.52
X8.22Y-3.04
X8.26Y-2.86
X8.27Y-3.445
X8.39Y-2.175
X8.42Y-3.96
X8.515Y-2.425
X8.5216Y-3.4866
X8.5525Y-3.3325
X8.59Y-2.03
X8.59Y-2.575
X8.6216Y-2.3766
X8.6216Y-3.4516
X8.65Y-2.475
X8.675Y-3.375
X8.68Y-2.125
X8.7216Y-3.4166
X8.76Y-3.96
T2
X3.435Y-2.665
X3.435Y-2.765
X3.435Y-2.865
X3.435Y-2.965
X3.435Y-3.065
X3.435Y-3.165
X3.435Y-3.265
X3.435Y-3.365
X3.435Y-3.465
X3.435Y-3.565
X3.435Y-3.665
X3.435Y-3.765
X3.435Y-3.865
X3.435Y-3.965
X3.435Y-4.065
X3.435Y-4.165
X3.605Y-1.915
X3.605Y-2.215
X3.795Y-1.915
X3.795Y-2.215
X4.035Y-2.665
X4.035Y-2.765
X4.035Y-2.865
X4.035Y-2.965
X4.035Y-3.065
X4.035Y-3.165
X4.035Y-3.265
X4.035Y-3.365
X4.035Y-3.465
X4.035Y-3.565
X4.035Y-3.665
X4.035Y-3.765
X4.035Y-3.865
X4.035Y-3.965
X4.035Y-4.065
X4.035Y-4.165
X4.795Y-2.0
X4.795Y-2.6
X4.795Y-2.75
X4.795Y-3.35
X4.795Y-3.5
X4.795Y-4.1
X4.7961Y-4.25
X4.7961Y-4.85
X4.895Y-2.0
X4.895Y-2.6
X4.895Y-2.75
X4.895Y-3.35
X4.895Y-3.5
X4.895Y-4.1
X4.8961Y-4.25
X4.8961Y-4.85
X4.995Y-2.0
X4.995Y-2.6
X4.995Y-2.75
X4.995Y-3.35
X4.995Y-3.5
X4.995Y-4.1
X4.9961Y-4.25
X4.9961Y-4.85
X5.095Y-2.0
X5.095Y-2.6
X5.095Y-2.75
X5.095Y-3.35
X5.095Y-3.5
X5.095Y-4.1
X5.0961Y-4.25
X5.0961Y-4.85
X5.195Y-2.0
X5.195Y-2.6
X5.195Y-2.75
X5.195Y-3.35
X5.195Y-3.5
X5.195Y-4.1
X5.1961Y-4.25
X5.1961Y-4.85
X5.295Y-2.0
X5.295Y-2.6
X5.295Y-2.75
X5.295Y-3.35
X5.295Y-3.5
X5.295Y-4.1
X5.2961Y-4.25
X5.2961Y-4.85
X5.395Y-2.0
X5.395Y-2.6
X5.395Y-2.75
X5.395Y-3.35
X5.395Y-3.5
X5.395Y-4.1
X5.3961Y-4.25
X5.3961Y-4.85
X5.495Y-2.0
X5.495Y-2.6
X5.495Y-2.75
X5.495Y-3.35
X5.495Y-3.5
X5.495Y-4.1
X5.4961Y-4.25
X5.4961Y-4.85
X5.595Y-2.0
X5.595Y-2.6
X5.595Y-2.75
X5.595Y-3.35
X5.595Y-3.5
X5.595Y-4.1
X5.5961Y-4.25
X5.5961Y-4.85
X5.695Y-2.0
X5.695Y-2.6
X5.695Y-2.75
X5.695Y-3.35
X5.695Y-3.5
X5.695Y-4.1
X5.6961Y-4.25
X5.6961Y-4.85
X5.795Y-2.0
X5.795Y-2.6
X5.795Y-2.75
X5.795Y-3.35
X5.795Y-3.5
X5.795Y-4.1
X5.7961Y-4.25
X5.7961Y-4.85
X5.895Y-2.0
X5.895Y-2.6
X5.895Y-2.75
X5.895Y-3.35
X5.895Y-3.5
X5.895Y-4.1
X5.8961Y-4.25
X5.8961Y-4.85
X5.995Y-2.0
X5.995Y-2.6
X5.995Y-2.75
X5.995Y-3.35
X5.995Y-3.5
X5.995Y-4.1
X5.9961Y-4.25
X5.9961Y-4.85
X6.095Y-2.0
X6.095Y-2.6
X6.095Y-2.75
X6.095Y-3.35
X6.095Y-3.5
X6.095Y-4.1
X6.0961Y-4.25
X6.0961Y-4.85
X6.445Y-2.075
X6.445Y-2.175
X6.445Y-2.275
X6.445Y-2.375
X6.445Y-2.475
X6.445Y-2.575
X6.445Y-2.675
X6.445Y-2.775
X6.48Y-4.1066
X6.48Y-4.205
X6.595Y-4.445
X6.595Y-4.745
X6.745Y-2.075
X6.745Y-2.175
X6.745Y-2.275
X6.745Y-2.375
X6.745Y-2.475
X6.745Y-2.575
X6.745Y-2.675
X6.745Y-2.775
X6.82Y-3.255
X6.82Y-3.855
X6.8216Y-3.1362
X6.8216Y-3.7362
X6.92Y-3.255
X6.92Y-3.855
X6.9216Y-3.1362
X6.9216Y-3.7362
X6.955Y-2.075
X6.955Y-2.175
X6.955Y-2.275
X6.955Y-2.375
X6.955Y-2.475
X6.955Y-2.575
X6.955Y-2.675
X6.955Y-2.775
X7.02Y-3.255
X7.02Y-3.855
X7.0216Y-3.1362
X7.0216Y-3.7362
X7.12Y-3.255
X7.12Y-3.855
X7.1216Y-3.1362
X7.1216Y-3.7362
X7.22Y-3.255
X7.22Y-3.855
X7.2216Y-3.1362
X7.2216Y-3.7362
X7.255Y-2.075
X7.255Y-2.175
X7.255Y-2.275
X7.255Y-2.375
X7.255Y-2.475
X7.255Y-2.575
X7.255Y-2.675
X7.255Y-2.775
X7.32Y-3.255
X7.32Y-3.855
X7.3216Y-3.1362
X7.3216Y-3.7362
X7.42Y-3.255
X7.42Y-3.855
X7.4216Y-3.1362
X7.4216Y-3.7362
X7.47Y-2.075
X7.47Y-2.175
X7.47Y-2.275
X7.47Y-2.375
X7.47Y-2.475
X7.47Y-2.575
X7.47Y-2.675
X7.52Y-3.255
X7.52Y-3.855
X7.5216Y-3.1362
X7.5216Y-3.7362
X7.575Y-4.44
X7.575Y-4.74
X7.62Y-3.255
X7.62Y-3.855
X7.6216Y-3.1362
X7.6216Y-3.7362
X7.675Y-4.44
X7.675Y-4.74
X7.72Y-3.255
X7.72Y-3.855
X7.7216Y-3.1362
X7.7216Y-3.7362
X7.77Y-2.075
X7.77Y-2.175
X7.77Y-2.275
X7.77Y-2.375
X7.77Y-2.475
X7.77Y-2.575
X7.77Y-2.675
X7.775Y-4.44
X7.775Y-4.74
X7.82Y-3.255
X7.82Y-3.855
X7.8216Y-3.1362
X7.8216Y-3.7362
X7.875Y-4.44
X7.875Y-4.74
X7.92Y-3.255
X7.92Y-3.855
X7.9216Y-3.1362
X7.9216Y-3.7362
X7.97Y-2.075
X7.97Y-2.175
X7.97Y-2.275
X7.97Y-2.375
X7.97Y-2.475
X7.97Y-2.575
X7.97Y-2.675
X7.975Y-4.44
X7.975Y-4.74
X8.02Y-3.255
X8.02Y-3.855
X8.0216Y-3.1362
X8.0216Y-3.7362
X8.075Y-4.44
X8.075Y-4.74
X8.12Y-3.255
X8.12Y-3.855
X8.1216Y-3.1362
X8.1216Y-3.7362
X8.175Y-4.44
X8.175Y-4.74
X8.22Y-3.255
X8.22Y-3.855
X8.2216Y-3.1362
X8.2216Y-3.7362
X8.27Y-2.075
X8.27Y-2.175
X8.27Y-2.275
X8.27Y-2.375
X8.27Y-2.475
X8.27Y-2.575
X8.27Y-2.675
X8.32Y-3.255
X8.32Y-3.855
X8.3216Y-3.1362
X8.3216Y-3.7362
X8.42Y-3.255
X8.42Y-3.855
X8.4216Y-3.1362
X8.4216Y-3.7362
X8.455Y-2.075
X8.455Y-2.175
X8.455Y-2.275
X8.455Y-2.375
X8.455Y-2.475
X8.455Y-2.575
X8.455Y-2.675
X8.52Y-3.255
X8.52Y-3.855
X8.5216Y-3.1362
X8.5216Y-3.7362
X8.62Y-3.255
X8.62Y-3.855
X8.6216Y-3.1362
X8.6216Y-3.7362
X8.72Y-3.255
X8.72Y-3.855
X8.7216Y-3.1362
X8.7216Y-3.7362
X8.755Y-2.075
X8.755Y-2.175
X8.755Y-2.275
X8.755Y-2.375
X8.755Y-2.475
X8.755Y-2.575
X8.755Y-2.675
T3
X3.635Y-2.465
X3.8319Y-2.465
X4.09Y-1.9
X4.09Y-2.08
X4.09Y-2.26
X4.19Y-1.9
X4.19Y-2.08
X4.19Y-2.26
X4.29Y-1.9
X4.605Y-2.4781
X4.605Y-2.675
X4.605Y-2.8881
X4.605Y-3.085
X4.605Y-3.7581
X4.605Y-3.955
X4.605Y-4.1331
X4.605Y-4.33
X6.5Y-1.86
X6.6969Y-1.86
X6.95Y-4.49
X6.95Y-4.695
X7.005Y-1.86
X7.05Y-4.49
X7.05Y-4.695
X7.2019Y-1.86
X7.38Y-4.4931
X7.38Y-4.69
X7.53Y-1.86
X7.7269Y-1.86
X8.015Y-1.86
X8.2119Y-1.86
X8.505Y-1.86
X8.57Y-4.13
X8.57Y-4.23
X8.57Y-4.33
X8.7019Y-1.86
T0
M30
