%TF.GenerationSoftware,KiCad,Pcbnew,(5.1.9-0-10_14)*%
%TF.CreationDate,2022-05-22T11:28:49+01:00*%
%TF.ProjectId,BBCMicro128KRomRam,4242434d-6963-4726-9f31-32384b526f6d,rev?*%
%TF.SameCoordinates,Original*%
%TF.FileFunction,Soldermask,Top*%
%TF.FilePolarity,Negative*%
%FSLAX46Y46*%
G04 Gerber Fmt 4.6, Leading zero omitted, Abs format (unit mm)*
G04 Created by KiCad (PCBNEW (5.1.9-0-10_14)) date 2022-05-22 11:28:49*
%MOMM*%
%LPD*%
G01*
G04 APERTURE LIST*
%ADD10O,1.600000X1.600000*%
%ADD11R,1.600000X1.600000*%
%ADD12O,1.700000X1.700000*%
%ADD13R,1.700000X1.700000*%
%ADD14C,1.600000*%
%ADD15C,2.000000*%
G04 APERTURE END LIST*
D10*
%TO.C,U5*%
X121793000Y-50800000D03*
X154813000Y-66040000D03*
X124333000Y-50800000D03*
X152273000Y-66040000D03*
X126873000Y-50800000D03*
X149733000Y-66040000D03*
X129413000Y-50800000D03*
X147193000Y-66040000D03*
X131953000Y-50800000D03*
X144653000Y-66040000D03*
X134493000Y-50800000D03*
X142113000Y-66040000D03*
X137033000Y-50800000D03*
X139573000Y-66040000D03*
X139573000Y-50800000D03*
X137033000Y-66040000D03*
X142113000Y-50800000D03*
X134493000Y-66040000D03*
X144653000Y-50800000D03*
X131953000Y-66040000D03*
X147193000Y-50800000D03*
X129413000Y-66040000D03*
X149733000Y-50800000D03*
X126873000Y-66040000D03*
X152273000Y-50800000D03*
X124333000Y-66040000D03*
X154813000Y-50800000D03*
D11*
X121793000Y-66040000D03*
%TD*%
D10*
%TO.C,U2*%
X121820000Y-107950000D03*
X154840000Y-123190000D03*
X124360000Y-107950000D03*
X152300000Y-123190000D03*
X126900000Y-107950000D03*
X149760000Y-123190000D03*
X129440000Y-107950000D03*
X147220000Y-123190000D03*
X131980000Y-107950000D03*
X144680000Y-123190000D03*
X134520000Y-107950000D03*
X142140000Y-123190000D03*
X137060000Y-107950000D03*
X139600000Y-123190000D03*
X139600000Y-107950000D03*
X137060000Y-123190000D03*
X142140000Y-107950000D03*
X134520000Y-123190000D03*
X144680000Y-107950000D03*
X131980000Y-123190000D03*
X147220000Y-107950000D03*
X129440000Y-123190000D03*
X149760000Y-107950000D03*
X126900000Y-123190000D03*
X152300000Y-107950000D03*
X124360000Y-123190000D03*
X154840000Y-107950000D03*
D11*
X121820000Y-123190000D03*
%TD*%
D10*
%TO.C,U9*%
X192405000Y-112776000D03*
X207645000Y-120396000D03*
X194945000Y-112776000D03*
X205105000Y-120396000D03*
X197485000Y-112776000D03*
X202565000Y-120396000D03*
X200025000Y-112776000D03*
X200025000Y-120396000D03*
X202565000Y-112776000D03*
X197485000Y-120396000D03*
X205105000Y-112776000D03*
X194945000Y-120396000D03*
X207645000Y-112776000D03*
D11*
X192405000Y-120396000D03*
%TD*%
D12*
%TO.C,J2*%
X179070000Y-114046000D03*
D13*
X176530000Y-114046000D03*
%TD*%
D12*
%TO.C,J1*%
X179070000Y-119253000D03*
D13*
X176530000Y-119253000D03*
%TD*%
D12*
%TO.C,J4*%
X106426000Y-52832000D03*
D13*
X103886000Y-52832000D03*
%TD*%
D11*
%TO.C,U3*%
X121793000Y-104140000D03*
D10*
X154813000Y-88900000D03*
X124333000Y-104140000D03*
X152273000Y-88900000D03*
X126873000Y-104140000D03*
X149733000Y-88900000D03*
X129413000Y-104140000D03*
X147193000Y-88900000D03*
X131953000Y-104140000D03*
X144653000Y-88900000D03*
X134493000Y-104140000D03*
X142113000Y-88900000D03*
X137033000Y-104140000D03*
X139573000Y-88900000D03*
X139573000Y-104140000D03*
X137033000Y-88900000D03*
X142113000Y-104140000D03*
X134493000Y-88900000D03*
X144653000Y-104140000D03*
X131953000Y-88900000D03*
X147193000Y-104140000D03*
X129413000Y-88900000D03*
X149733000Y-104140000D03*
X126873000Y-88900000D03*
X152273000Y-104140000D03*
X124333000Y-88900000D03*
X154813000Y-104140000D03*
X121793000Y-88900000D03*
%TD*%
%TO.C,R3*%
X91567000Y-48641000D03*
D14*
X91567000Y-56261000D03*
%TD*%
D10*
%TO.C,R2*%
X96393000Y-48641000D03*
D14*
X96393000Y-56261000D03*
%TD*%
D12*
%TO.C,J5*%
X108966000Y-48260000D03*
X106426000Y-48260000D03*
D13*
X103886000Y-48260000D03*
%TD*%
D12*
%TO.C,J3*%
X106426000Y-57404000D03*
D13*
X103886000Y-57404000D03*
%TD*%
D10*
%TO.C,U4*%
X121793000Y-69850000D03*
X154813000Y-85090000D03*
X124333000Y-69850000D03*
X152273000Y-85090000D03*
X126873000Y-69850000D03*
X149733000Y-85090000D03*
X129413000Y-69850000D03*
X147193000Y-85090000D03*
X131953000Y-69850000D03*
X144653000Y-85090000D03*
X134493000Y-69850000D03*
X142113000Y-85090000D03*
X137033000Y-69850000D03*
X139573000Y-85090000D03*
X139573000Y-69850000D03*
X137033000Y-85090000D03*
X142113000Y-69850000D03*
X134493000Y-85090000D03*
X144653000Y-69850000D03*
X131953000Y-85090000D03*
X147193000Y-69850000D03*
X129413000Y-85090000D03*
X149733000Y-69850000D03*
X126873000Y-85090000D03*
X152273000Y-69850000D03*
X124333000Y-85090000D03*
X154813000Y-69850000D03*
D11*
X121793000Y-85090000D03*
%TD*%
D15*
%TO.C,C3*%
X116967000Y-95457000D03*
X116967000Y-100457000D03*
%TD*%
%TO.C,C5*%
X116967000Y-62945000D03*
X116967000Y-67945000D03*
%TD*%
%TO.C,C12*%
X170100000Y-47244000D03*
X165100000Y-47244000D03*
%TD*%
D10*
%TO.C,U6*%
X102489000Y-67691000D03*
X87249000Y-105791000D03*
X102489000Y-70231000D03*
X87249000Y-103251000D03*
X102489000Y-72771000D03*
X87249000Y-100711000D03*
X102489000Y-75311000D03*
X87249000Y-98171000D03*
X102489000Y-77851000D03*
X87249000Y-95631000D03*
X102489000Y-80391000D03*
X87249000Y-93091000D03*
X102489000Y-82931000D03*
X87249000Y-90551000D03*
X102489000Y-85471000D03*
X87249000Y-88011000D03*
X102489000Y-88011000D03*
X87249000Y-85471000D03*
X102489000Y-90551000D03*
X87249000Y-82931000D03*
X102489000Y-93091000D03*
X87249000Y-80391000D03*
X102489000Y-95631000D03*
X87249000Y-77851000D03*
X102489000Y-98171000D03*
X87249000Y-75311000D03*
X102489000Y-100711000D03*
X87249000Y-72771000D03*
X102489000Y-103251000D03*
X87249000Y-70231000D03*
X102489000Y-105791000D03*
D11*
X87249000Y-67691000D03*
%TD*%
D10*
%TO.C,U12*%
X171323000Y-52705000D03*
X163703000Y-70485000D03*
X171323000Y-55245000D03*
X163703000Y-67945000D03*
X171323000Y-57785000D03*
X163703000Y-65405000D03*
X171323000Y-60325000D03*
X163703000Y-62865000D03*
X171323000Y-62865000D03*
X163703000Y-60325000D03*
X171323000Y-65405000D03*
X163703000Y-57785000D03*
X171323000Y-67945000D03*
X163703000Y-55245000D03*
X171323000Y-70485000D03*
D11*
X163703000Y-52705000D03*
%TD*%
D14*
%TO.C,C1*%
X164592000Y-104307000D03*
D11*
X164592000Y-106807000D03*
%TD*%
D15*
%TO.C,C11*%
X182927000Y-47244000D03*
X177927000Y-47244000D03*
%TD*%
D10*
%TO.C,U10*%
X197358000Y-52705000D03*
X189738000Y-67945000D03*
X197358000Y-55245000D03*
X189738000Y-65405000D03*
X197358000Y-57785000D03*
X189738000Y-62865000D03*
X197358000Y-60325000D03*
X189738000Y-60325000D03*
X197358000Y-62865000D03*
X189738000Y-57785000D03*
X197358000Y-65405000D03*
X189738000Y-55245000D03*
X197358000Y-67945000D03*
D11*
X189738000Y-52705000D03*
%TD*%
D10*
%TO.C,CON1*%
X173228000Y-82677000D03*
X221488000Y-97917000D03*
X175768000Y-82677000D03*
X218948000Y-97917000D03*
X178308000Y-82677000D03*
X216408000Y-97917000D03*
X180848000Y-82677000D03*
X213868000Y-97917000D03*
X183388000Y-82677000D03*
X211328000Y-97917000D03*
X185928000Y-82677000D03*
X208788000Y-97917000D03*
X188468000Y-82677000D03*
X206248000Y-97917000D03*
X191008000Y-82677000D03*
X203708000Y-97917000D03*
X193548000Y-82677000D03*
X201168000Y-97917000D03*
X196088000Y-82677000D03*
X198628000Y-97917000D03*
X198628000Y-82677000D03*
X196088000Y-97917000D03*
X201168000Y-82677000D03*
X193548000Y-97917000D03*
X203708000Y-82677000D03*
X191008000Y-97917000D03*
X206248000Y-82677000D03*
X188468000Y-97917000D03*
X208788000Y-82677000D03*
X185928000Y-97917000D03*
X211328000Y-82677000D03*
X183388000Y-97917000D03*
X213868000Y-82677000D03*
X180848000Y-97917000D03*
X216408000Y-82677000D03*
X178308000Y-97917000D03*
X218948000Y-82677000D03*
X175768000Y-97917000D03*
X221488000Y-82677000D03*
D11*
X173228000Y-97917000D03*
%TD*%
D10*
%TO.C,U7*%
X222377000Y-52705000D03*
X214757000Y-67945000D03*
X222377000Y-55245000D03*
X214757000Y-65405000D03*
X222377000Y-57785000D03*
X214757000Y-62865000D03*
X222377000Y-60325000D03*
X214757000Y-60325000D03*
X222377000Y-62865000D03*
X214757000Y-57785000D03*
X222377000Y-65405000D03*
X214757000Y-55245000D03*
X222377000Y-67945000D03*
D11*
X214757000Y-52705000D03*
%TD*%
D10*
%TO.C,U8*%
X210058000Y-52705000D03*
X202438000Y-67945000D03*
X210058000Y-55245000D03*
X202438000Y-65405000D03*
X210058000Y-57785000D03*
X202438000Y-62865000D03*
X210058000Y-60325000D03*
X202438000Y-60325000D03*
X210058000Y-62865000D03*
X202438000Y-57785000D03*
X210058000Y-65405000D03*
X202438000Y-55245000D03*
X210058000Y-67945000D03*
D11*
X202438000Y-52705000D03*
%TD*%
D10*
%TO.C,U1*%
X173268000Y-79659775D03*
X221528000Y-94899775D03*
X175808000Y-79659775D03*
X218988000Y-94899775D03*
X178348000Y-79659775D03*
X216448000Y-94899775D03*
X180888000Y-79659775D03*
X213908000Y-94899775D03*
X183428000Y-79659775D03*
X211368000Y-94899775D03*
X185968000Y-79659775D03*
X208828000Y-94899775D03*
X188508000Y-79659775D03*
X206288000Y-94899775D03*
X191048000Y-79659775D03*
X203748000Y-94899775D03*
X193588000Y-79659775D03*
X201208000Y-94899775D03*
X196128000Y-79659775D03*
X198668000Y-94899775D03*
X198668000Y-79659775D03*
X196128000Y-94899775D03*
X201208000Y-79659775D03*
X193588000Y-94899775D03*
X203748000Y-79659775D03*
X191048000Y-94899775D03*
X206288000Y-79659775D03*
X188508000Y-94899775D03*
X208828000Y-79659775D03*
X185968000Y-94899775D03*
X211368000Y-79659775D03*
X183428000Y-94899775D03*
X213908000Y-79659775D03*
X180888000Y-94899775D03*
X216448000Y-79659775D03*
X178348000Y-94899775D03*
X218988000Y-79659775D03*
X175808000Y-94899775D03*
X221528000Y-79659775D03*
D11*
X173268000Y-94899775D03*
%TD*%
D10*
%TO.C,U11*%
X184277000Y-52705000D03*
X176657000Y-70485000D03*
X184277000Y-55245000D03*
X176657000Y-67945000D03*
X184277000Y-57785000D03*
X176657000Y-65405000D03*
X184277000Y-60325000D03*
X176657000Y-62865000D03*
X184277000Y-62865000D03*
X176657000Y-60325000D03*
X184277000Y-65405000D03*
X176657000Y-57785000D03*
X184277000Y-67945000D03*
X176657000Y-55245000D03*
X184277000Y-70485000D03*
D11*
X176657000Y-52705000D03*
%TD*%
D10*
%TO.C,R1*%
X167513000Y-112903000D03*
D14*
X167513000Y-120523000D03*
%TD*%
D12*
%TO.C,CON2*%
X217678000Y-109982000D03*
X217678000Y-107442000D03*
D13*
X217678000Y-104902000D03*
%TD*%
D15*
%TO.C,C10*%
X196262000Y-47244000D03*
X191262000Y-47244000D03*
%TD*%
%TO.C,C9*%
X187452000Y-114126000D03*
X187452000Y-119126000D03*
%TD*%
%TO.C,C8*%
X208581000Y-47244000D03*
X203581000Y-47244000D03*
%TD*%
%TO.C,C7*%
X221027000Y-47244000D03*
X216027000Y-47244000D03*
%TD*%
%TO.C,C6*%
X97329000Y-62611000D03*
X92329000Y-62611000D03*
%TD*%
%TO.C,C4*%
X116967000Y-73359000D03*
X116967000Y-78359000D03*
%TD*%
%TO.C,C2*%
X116967000Y-104982000D03*
X116967000Y-109982000D03*
%TD*%
M02*
