%TF.GenerationSoftware,KiCad,Pcbnew,(5.1.9-0-10_14)*%
%TF.CreationDate,2022-05-21T18:10:01+01:00*%
%TF.ProjectId,BBCMicro128KRomRam,4242434d-6963-4726-9f31-32384b526f6d,rev?*%
%TF.SameCoordinates,Original*%
%TF.FileFunction,Legend,Top*%
%TF.FilePolarity,Positive*%
%FSLAX46Y46*%
G04 Gerber Fmt 4.6, Leading zero omitted, Abs format (unit mm)*
G04 Created by KiCad (PCBNEW (5.1.9-0-10_14)) date 2022-05-21 18:10:01*
%MOMM*%
%LPD*%
G01*
G04 APERTURE LIST*
%ADD10C,0.150000*%
%ADD11C,0.300000*%
%ADD12C,0.010000*%
%ADD13C,0.120000*%
G04 APERTURE END LIST*
D10*
X90892380Y-51855523D02*
X90892380Y-51236476D01*
X91273333Y-51569809D01*
X91273333Y-51426952D01*
X91320952Y-51331714D01*
X91368571Y-51284095D01*
X91463809Y-51236476D01*
X91701904Y-51236476D01*
X91797142Y-51284095D01*
X91844761Y-51331714D01*
X91892380Y-51426952D01*
X91892380Y-51712666D01*
X91844761Y-51807904D01*
X91797142Y-51855523D01*
X91892380Y-50807904D02*
X90892380Y-50807904D01*
X91892380Y-50236476D02*
X91320952Y-50665047D01*
X90892380Y-50236476D02*
X91463809Y-50807904D01*
X90892380Y-49903142D02*
X90892380Y-49284095D01*
X91273333Y-49617428D01*
X91273333Y-49474571D01*
X91320952Y-49379333D01*
X91368571Y-49331714D01*
X91463809Y-49284095D01*
X91701904Y-49284095D01*
X91797142Y-49331714D01*
X91844761Y-49379333D01*
X91892380Y-49474571D01*
X91892380Y-49760285D01*
X91844761Y-49855523D01*
X91797142Y-49903142D01*
X95972380Y-51855523D02*
X95972380Y-51236476D01*
X96353333Y-51569809D01*
X96353333Y-51426952D01*
X96400952Y-51331714D01*
X96448571Y-51284095D01*
X96543809Y-51236476D01*
X96781904Y-51236476D01*
X96877142Y-51284095D01*
X96924761Y-51331714D01*
X96972380Y-51426952D01*
X96972380Y-51712666D01*
X96924761Y-51807904D01*
X96877142Y-51855523D01*
X96972380Y-50807904D02*
X95972380Y-50807904D01*
X96972380Y-50236476D02*
X96400952Y-50665047D01*
X95972380Y-50236476D02*
X96543809Y-50807904D01*
X95972380Y-49903142D02*
X95972380Y-49284095D01*
X96353333Y-49617428D01*
X96353333Y-49474571D01*
X96400952Y-49379333D01*
X96448571Y-49331714D01*
X96543809Y-49284095D01*
X96781904Y-49284095D01*
X96877142Y-49331714D01*
X96924761Y-49379333D01*
X96972380Y-49474571D01*
X96972380Y-49760285D01*
X96924761Y-49855523D01*
X96877142Y-49903142D01*
X167092380Y-116371523D02*
X167092380Y-115752476D01*
X167473333Y-116085809D01*
X167473333Y-115942952D01*
X167520952Y-115847714D01*
X167568571Y-115800095D01*
X167663809Y-115752476D01*
X167901904Y-115752476D01*
X167997142Y-115800095D01*
X168044761Y-115847714D01*
X168092380Y-115942952D01*
X168092380Y-116228666D01*
X168044761Y-116323904D01*
X167997142Y-116371523D01*
X168092380Y-115323904D02*
X167092380Y-115323904D01*
X168092380Y-114752476D02*
X167520952Y-115181047D01*
X167092380Y-114752476D02*
X167663809Y-115323904D01*
X167092380Y-114419142D02*
X167092380Y-113800095D01*
X167473333Y-114133428D01*
X167473333Y-113990571D01*
X167520952Y-113895333D01*
X167568571Y-113847714D01*
X167663809Y-113800095D01*
X167901904Y-113800095D01*
X167997142Y-113847714D01*
X168044761Y-113895333D01*
X168092380Y-113990571D01*
X168092380Y-114276285D01*
X168044761Y-114371523D01*
X167997142Y-114419142D01*
X165044380Y-99623428D02*
X165044380Y-100194857D01*
X165044380Y-99909142D02*
X164044380Y-99909142D01*
X164187238Y-100004380D01*
X164282476Y-100099619D01*
X164330095Y-100194857D01*
X164044380Y-99004380D02*
X164044380Y-98909142D01*
X164092000Y-98813904D01*
X164139619Y-98766285D01*
X164234857Y-98718666D01*
X164425333Y-98671047D01*
X164663428Y-98671047D01*
X164853904Y-98718666D01*
X164949142Y-98766285D01*
X164996761Y-98813904D01*
X165044380Y-98909142D01*
X165044380Y-99004380D01*
X164996761Y-99099619D01*
X164949142Y-99147238D01*
X164853904Y-99194857D01*
X164663428Y-99242476D01*
X164425333Y-99242476D01*
X164234857Y-99194857D01*
X164139619Y-99147238D01*
X164092000Y-99099619D01*
X164044380Y-99004380D01*
X164377714Y-97813904D02*
X165044380Y-97813904D01*
X164377714Y-98242476D02*
X164901523Y-98242476D01*
X164996761Y-98194857D01*
X165044380Y-98099619D01*
X165044380Y-97956761D01*
X164996761Y-97861523D01*
X164949142Y-97813904D01*
X164520571Y-97004380D02*
X164520571Y-97337714D01*
X165044380Y-97337714D02*
X164044380Y-97337714D01*
X164044380Y-96861523D01*
X91146761Y-106592666D02*
X91622952Y-106592666D01*
X91051523Y-106878380D02*
X91384857Y-105878380D01*
X91718190Y-106878380D01*
X92003904Y-106830761D02*
X92146761Y-106878380D01*
X92384857Y-106878380D01*
X92480095Y-106830761D01*
X92527714Y-106783142D01*
X92575333Y-106687904D01*
X92575333Y-106592666D01*
X92527714Y-106497428D01*
X92480095Y-106449809D01*
X92384857Y-106402190D01*
X92194380Y-106354571D01*
X92099142Y-106306952D01*
X92051523Y-106259333D01*
X92003904Y-106164095D01*
X92003904Y-106068857D01*
X92051523Y-105973619D01*
X92099142Y-105926000D01*
X92194380Y-105878380D01*
X92432476Y-105878380D01*
X92575333Y-105926000D01*
X93432476Y-105878380D02*
X93242000Y-105878380D01*
X93146761Y-105926000D01*
X93099142Y-105973619D01*
X93003904Y-106116476D01*
X92956285Y-106306952D01*
X92956285Y-106687904D01*
X93003904Y-106783142D01*
X93051523Y-106830761D01*
X93146761Y-106878380D01*
X93337238Y-106878380D01*
X93432476Y-106830761D01*
X93480095Y-106783142D01*
X93527714Y-106687904D01*
X93527714Y-106449809D01*
X93480095Y-106354571D01*
X93432476Y-106306952D01*
X93337238Y-106259333D01*
X93146761Y-106259333D01*
X93051523Y-106306952D01*
X93003904Y-106354571D01*
X92956285Y-106449809D01*
X94527714Y-106783142D02*
X94480095Y-106830761D01*
X94337238Y-106878380D01*
X94242000Y-106878380D01*
X94099142Y-106830761D01*
X94003904Y-106735523D01*
X93956285Y-106640285D01*
X93908666Y-106449809D01*
X93908666Y-106306952D01*
X93956285Y-106116476D01*
X94003904Y-106021238D01*
X94099142Y-105926000D01*
X94242000Y-105878380D01*
X94337238Y-105878380D01*
X94480095Y-105926000D01*
X94527714Y-105973619D01*
X95480095Y-106878380D02*
X94908666Y-106878380D01*
X95194380Y-106878380D02*
X95194380Y-105878380D01*
X95099142Y-106021238D01*
X95003904Y-106116476D01*
X94908666Y-106164095D01*
X96099142Y-105878380D02*
X96194380Y-105878380D01*
X96289619Y-105926000D01*
X96337238Y-105973619D01*
X96384857Y-106068857D01*
X96432476Y-106259333D01*
X96432476Y-106497428D01*
X96384857Y-106687904D01*
X96337238Y-106783142D01*
X96289619Y-106830761D01*
X96194380Y-106878380D01*
X96099142Y-106878380D01*
X96003904Y-106830761D01*
X95956285Y-106783142D01*
X95908666Y-106687904D01*
X95861047Y-106497428D01*
X95861047Y-106259333D01*
X95908666Y-106068857D01*
X95956285Y-105973619D01*
X96003904Y-105926000D01*
X96099142Y-105878380D01*
X97051523Y-105878380D02*
X97146761Y-105878380D01*
X97242000Y-105926000D01*
X97289619Y-105973619D01*
X97337238Y-106068857D01*
X97384857Y-106259333D01*
X97384857Y-106497428D01*
X97337238Y-106687904D01*
X97289619Y-106783142D01*
X97242000Y-106830761D01*
X97146761Y-106878380D01*
X97051523Y-106878380D01*
X96956285Y-106830761D01*
X96908666Y-106783142D01*
X96861047Y-106687904D01*
X96813428Y-106497428D01*
X96813428Y-106259333D01*
X96861047Y-106068857D01*
X96908666Y-105973619D01*
X96956285Y-105926000D01*
X97051523Y-105878380D01*
X97956285Y-106306952D02*
X97861047Y-106259333D01*
X97813428Y-106211714D01*
X97765809Y-106116476D01*
X97765809Y-106068857D01*
X97813428Y-105973619D01*
X97861047Y-105926000D01*
X97956285Y-105878380D01*
X98146761Y-105878380D01*
X98242000Y-105926000D01*
X98289619Y-105973619D01*
X98337238Y-106068857D01*
X98337238Y-106116476D01*
X98289619Y-106211714D01*
X98242000Y-106259333D01*
X98146761Y-106306952D01*
X97956285Y-106306952D01*
X97861047Y-106354571D01*
X97813428Y-106402190D01*
X97765809Y-106497428D01*
X97765809Y-106687904D01*
X97813428Y-106783142D01*
X97861047Y-106830761D01*
X97956285Y-106878380D01*
X98146761Y-106878380D01*
X98242000Y-106830761D01*
X98289619Y-106783142D01*
X98337238Y-106687904D01*
X98337238Y-106497428D01*
X98289619Y-106402190D01*
X98242000Y-106354571D01*
X98146761Y-106306952D01*
X223734380Y-86328095D02*
X223734380Y-86518571D01*
X223782000Y-86613809D01*
X223829619Y-86661428D01*
X223972476Y-86756666D01*
X224162952Y-86804285D01*
X224543904Y-86804285D01*
X224639142Y-86756666D01*
X224686761Y-86709047D01*
X224734380Y-86613809D01*
X224734380Y-86423333D01*
X224686761Y-86328095D01*
X224639142Y-86280476D01*
X224543904Y-86232857D01*
X224305809Y-86232857D01*
X224210571Y-86280476D01*
X224162952Y-86328095D01*
X224115333Y-86423333D01*
X224115333Y-86613809D01*
X224162952Y-86709047D01*
X224210571Y-86756666D01*
X224305809Y-86804285D01*
X223734380Y-85328095D02*
X223734380Y-85804285D01*
X224210571Y-85851904D01*
X224162952Y-85804285D01*
X224115333Y-85709047D01*
X224115333Y-85470952D01*
X224162952Y-85375714D01*
X224210571Y-85328095D01*
X224305809Y-85280476D01*
X224543904Y-85280476D01*
X224639142Y-85328095D01*
X224686761Y-85375714D01*
X224734380Y-85470952D01*
X224734380Y-85709047D01*
X224686761Y-85804285D01*
X224639142Y-85851904D01*
X223734380Y-84661428D02*
X223734380Y-84566190D01*
X223782000Y-84470952D01*
X223829619Y-84423333D01*
X223924857Y-84375714D01*
X224115333Y-84328095D01*
X224353428Y-84328095D01*
X224543904Y-84375714D01*
X224639142Y-84423333D01*
X224686761Y-84470952D01*
X224734380Y-84566190D01*
X224734380Y-84661428D01*
X224686761Y-84756666D01*
X224639142Y-84804285D01*
X224543904Y-84851904D01*
X224353428Y-84899523D01*
X224115333Y-84899523D01*
X223924857Y-84851904D01*
X223829619Y-84804285D01*
X223782000Y-84756666D01*
X223734380Y-84661428D01*
X223829619Y-83947142D02*
X223782000Y-83899523D01*
X223734380Y-83804285D01*
X223734380Y-83566190D01*
X223782000Y-83470952D01*
X223829619Y-83423333D01*
X223924857Y-83375714D01*
X224020095Y-83375714D01*
X224162952Y-83423333D01*
X224734380Y-83994761D01*
X224734380Y-83375714D01*
X209510380Y-117450857D02*
X209510380Y-116784190D01*
X210510380Y-117212761D01*
X209843714Y-115974666D02*
X210510380Y-115974666D01*
X209462761Y-116212761D02*
X210177047Y-116450857D01*
X210177047Y-115831809D01*
X210510380Y-114974666D02*
X210510380Y-115450857D01*
X209510380Y-115450857D01*
X210462761Y-114688952D02*
X210510380Y-114546095D01*
X210510380Y-114308000D01*
X210462761Y-114212761D01*
X210415142Y-114165142D01*
X210319904Y-114117523D01*
X210224666Y-114117523D01*
X210129428Y-114165142D01*
X210081809Y-114212761D01*
X210034190Y-114308000D01*
X209986571Y-114498476D01*
X209938952Y-114593714D01*
X209891333Y-114641333D01*
X209796095Y-114688952D01*
X209700857Y-114688952D01*
X209605619Y-114641333D01*
X209558000Y-114593714D01*
X209510380Y-114498476D01*
X209510380Y-114260380D01*
X209558000Y-114117523D01*
X209510380Y-113498476D02*
X209510380Y-113403238D01*
X209558000Y-113308000D01*
X209605619Y-113260380D01*
X209700857Y-113212761D01*
X209891333Y-113165142D01*
X210129428Y-113165142D01*
X210319904Y-113212761D01*
X210415142Y-113260380D01*
X210462761Y-113308000D01*
X210510380Y-113403238D01*
X210510380Y-113498476D01*
X210462761Y-113593714D01*
X210415142Y-113641333D01*
X210319904Y-113688952D01*
X210129428Y-113736571D01*
X209891333Y-113736571D01*
X209700857Y-113688952D01*
X209605619Y-113641333D01*
X209558000Y-113593714D01*
X209510380Y-113498476D01*
X209510380Y-112546095D02*
X209510380Y-112450857D01*
X209558000Y-112355619D01*
X209605619Y-112308000D01*
X209700857Y-112260380D01*
X209891333Y-112212761D01*
X210129428Y-112212761D01*
X210319904Y-112260380D01*
X210415142Y-112308000D01*
X210462761Y-112355619D01*
X210510380Y-112450857D01*
X210510380Y-112546095D01*
X210462761Y-112641333D01*
X210415142Y-112688952D01*
X210319904Y-112736571D01*
X210129428Y-112784190D01*
X209891333Y-112784190D01*
X209700857Y-112736571D01*
X209605619Y-112688952D01*
X209558000Y-112641333D01*
X209510380Y-112546095D01*
X164520952Y-70572380D02*
X165187619Y-70572380D01*
X164759047Y-71572380D01*
X165997142Y-70905714D02*
X165997142Y-71572380D01*
X165759047Y-70524761D02*
X165520952Y-71239047D01*
X166140000Y-71239047D01*
X166997142Y-71572380D02*
X166520952Y-71572380D01*
X166520952Y-70572380D01*
X167282857Y-71524761D02*
X167425714Y-71572380D01*
X167663809Y-71572380D01*
X167759047Y-71524761D01*
X167806666Y-71477142D01*
X167854285Y-71381904D01*
X167854285Y-71286666D01*
X167806666Y-71191428D01*
X167759047Y-71143809D01*
X167663809Y-71096190D01*
X167473333Y-71048571D01*
X167378095Y-71000952D01*
X167330476Y-70953333D01*
X167282857Y-70858095D01*
X167282857Y-70762857D01*
X167330476Y-70667619D01*
X167378095Y-70620000D01*
X167473333Y-70572380D01*
X167711428Y-70572380D01*
X167854285Y-70620000D01*
X168806666Y-71572380D02*
X168235238Y-71572380D01*
X168520952Y-71572380D02*
X168520952Y-70572380D01*
X168425714Y-70715238D01*
X168330476Y-70810476D01*
X168235238Y-70858095D01*
X169140000Y-70572380D02*
X169759047Y-70572380D01*
X169425714Y-70953333D01*
X169568571Y-70953333D01*
X169663809Y-71000952D01*
X169711428Y-71048571D01*
X169759047Y-71143809D01*
X169759047Y-71381904D01*
X169711428Y-71477142D01*
X169663809Y-71524761D01*
X169568571Y-71572380D01*
X169282857Y-71572380D01*
X169187619Y-71524761D01*
X169140000Y-71477142D01*
X170235238Y-71572380D02*
X170425714Y-71572380D01*
X170520952Y-71524761D01*
X170568571Y-71477142D01*
X170663809Y-71334285D01*
X170711428Y-71143809D01*
X170711428Y-70762857D01*
X170663809Y-70667619D01*
X170616190Y-70620000D01*
X170520952Y-70572380D01*
X170330476Y-70572380D01*
X170235238Y-70620000D01*
X170187619Y-70667619D01*
X170140000Y-70762857D01*
X170140000Y-71000952D01*
X170187619Y-71096190D01*
X170235238Y-71143809D01*
X170330476Y-71191428D01*
X170520952Y-71191428D01*
X170616190Y-71143809D01*
X170663809Y-71096190D01*
X170711428Y-71000952D01*
X177474952Y-70572380D02*
X178141619Y-70572380D01*
X177713047Y-71572380D01*
X178951142Y-70905714D02*
X178951142Y-71572380D01*
X178713047Y-70524761D02*
X178474952Y-71239047D01*
X179094000Y-71239047D01*
X179951142Y-71572380D02*
X179474952Y-71572380D01*
X179474952Y-70572380D01*
X180236857Y-71524761D02*
X180379714Y-71572380D01*
X180617809Y-71572380D01*
X180713047Y-71524761D01*
X180760666Y-71477142D01*
X180808285Y-71381904D01*
X180808285Y-71286666D01*
X180760666Y-71191428D01*
X180713047Y-71143809D01*
X180617809Y-71096190D01*
X180427333Y-71048571D01*
X180332095Y-71000952D01*
X180284476Y-70953333D01*
X180236857Y-70858095D01*
X180236857Y-70762857D01*
X180284476Y-70667619D01*
X180332095Y-70620000D01*
X180427333Y-70572380D01*
X180665428Y-70572380D01*
X180808285Y-70620000D01*
X181760666Y-71572380D02*
X181189238Y-71572380D01*
X181474952Y-71572380D02*
X181474952Y-70572380D01*
X181379714Y-70715238D01*
X181284476Y-70810476D01*
X181189238Y-70858095D01*
X182094000Y-70572380D02*
X182760666Y-70572380D01*
X182332095Y-71572380D01*
X183570190Y-70905714D02*
X183570190Y-71572380D01*
X183332095Y-70524761D02*
X183094000Y-71239047D01*
X183713047Y-71239047D01*
X190905142Y-68032380D02*
X191571809Y-68032380D01*
X191143238Y-69032380D01*
X192381333Y-68365714D02*
X192381333Y-69032380D01*
X192143238Y-67984761D02*
X191905142Y-68699047D01*
X192524190Y-68699047D01*
X193381333Y-69032380D02*
X192905142Y-69032380D01*
X192905142Y-68032380D01*
X193667047Y-68984761D02*
X193809904Y-69032380D01*
X194048000Y-69032380D01*
X194143238Y-68984761D01*
X194190857Y-68937142D01*
X194238476Y-68841904D01*
X194238476Y-68746666D01*
X194190857Y-68651428D01*
X194143238Y-68603809D01*
X194048000Y-68556190D01*
X193857523Y-68508571D01*
X193762285Y-68460952D01*
X193714666Y-68413333D01*
X193667047Y-68318095D01*
X193667047Y-68222857D01*
X193714666Y-68127619D01*
X193762285Y-68080000D01*
X193857523Y-68032380D01*
X194095619Y-68032380D01*
X194238476Y-68080000D01*
X194857523Y-68032380D02*
X194952761Y-68032380D01*
X195048000Y-68080000D01*
X195095619Y-68127619D01*
X195143238Y-68222857D01*
X195190857Y-68413333D01*
X195190857Y-68651428D01*
X195143238Y-68841904D01*
X195095619Y-68937142D01*
X195048000Y-68984761D01*
X194952761Y-69032380D01*
X194857523Y-69032380D01*
X194762285Y-68984761D01*
X194714666Y-68937142D01*
X194667047Y-68841904D01*
X194619428Y-68651428D01*
X194619428Y-68413333D01*
X194667047Y-68222857D01*
X194714666Y-68127619D01*
X194762285Y-68080000D01*
X194857523Y-68032380D01*
X195809904Y-68032380D02*
X195905142Y-68032380D01*
X196000380Y-68080000D01*
X196048000Y-68127619D01*
X196095619Y-68222857D01*
X196143238Y-68413333D01*
X196143238Y-68651428D01*
X196095619Y-68841904D01*
X196048000Y-68937142D01*
X196000380Y-68984761D01*
X195905142Y-69032380D01*
X195809904Y-69032380D01*
X195714666Y-68984761D01*
X195667047Y-68937142D01*
X195619428Y-68841904D01*
X195571809Y-68651428D01*
X195571809Y-68413333D01*
X195619428Y-68222857D01*
X195667047Y-68127619D01*
X195714666Y-68080000D01*
X195809904Y-68032380D01*
X203859142Y-68032380D02*
X204525809Y-68032380D01*
X204097238Y-69032380D01*
X205335333Y-68365714D02*
X205335333Y-69032380D01*
X205097238Y-67984761D02*
X204859142Y-68699047D01*
X205478190Y-68699047D01*
X206335333Y-69032380D02*
X205859142Y-69032380D01*
X205859142Y-68032380D01*
X206621047Y-68984761D02*
X206763904Y-69032380D01*
X207002000Y-69032380D01*
X207097238Y-68984761D01*
X207144857Y-68937142D01*
X207192476Y-68841904D01*
X207192476Y-68746666D01*
X207144857Y-68651428D01*
X207097238Y-68603809D01*
X207002000Y-68556190D01*
X206811523Y-68508571D01*
X206716285Y-68460952D01*
X206668666Y-68413333D01*
X206621047Y-68318095D01*
X206621047Y-68222857D01*
X206668666Y-68127619D01*
X206716285Y-68080000D01*
X206811523Y-68032380D01*
X207049619Y-68032380D01*
X207192476Y-68080000D01*
X207573428Y-68127619D02*
X207621047Y-68080000D01*
X207716285Y-68032380D01*
X207954380Y-68032380D01*
X208049619Y-68080000D01*
X208097238Y-68127619D01*
X208144857Y-68222857D01*
X208144857Y-68318095D01*
X208097238Y-68460952D01*
X207525809Y-69032380D01*
X208144857Y-69032380D01*
X208478190Y-68032380D02*
X209144857Y-68032380D01*
X208716285Y-69032380D01*
X215797142Y-68032380D02*
X216463809Y-68032380D01*
X216035238Y-69032380D01*
X217273333Y-68365714D02*
X217273333Y-69032380D01*
X217035238Y-67984761D02*
X216797142Y-68699047D01*
X217416190Y-68699047D01*
X218273333Y-69032380D02*
X217797142Y-69032380D01*
X217797142Y-68032380D01*
X218559047Y-68984761D02*
X218701904Y-69032380D01*
X218940000Y-69032380D01*
X219035238Y-68984761D01*
X219082857Y-68937142D01*
X219130476Y-68841904D01*
X219130476Y-68746666D01*
X219082857Y-68651428D01*
X219035238Y-68603809D01*
X218940000Y-68556190D01*
X218749523Y-68508571D01*
X218654285Y-68460952D01*
X218606666Y-68413333D01*
X218559047Y-68318095D01*
X218559047Y-68222857D01*
X218606666Y-68127619D01*
X218654285Y-68080000D01*
X218749523Y-68032380D01*
X218987619Y-68032380D01*
X219130476Y-68080000D01*
X219463809Y-68032380D02*
X220082857Y-68032380D01*
X219749523Y-68413333D01*
X219892380Y-68413333D01*
X219987619Y-68460952D01*
X220035238Y-68508571D01*
X220082857Y-68603809D01*
X220082857Y-68841904D01*
X220035238Y-68937142D01*
X219987619Y-68984761D01*
X219892380Y-69032380D01*
X219606666Y-69032380D01*
X219511428Y-68984761D01*
X219463809Y-68937142D01*
X220701904Y-68032380D02*
X220797142Y-68032380D01*
X220892380Y-68080000D01*
X220940000Y-68127619D01*
X220987619Y-68222857D01*
X221035238Y-68413333D01*
X221035238Y-68651428D01*
X220987619Y-68841904D01*
X220940000Y-68937142D01*
X220892380Y-68984761D01*
X220797142Y-69032380D01*
X220701904Y-69032380D01*
X220606666Y-68984761D01*
X220559047Y-68937142D01*
X220511428Y-68841904D01*
X220463809Y-68651428D01*
X220463809Y-68413333D01*
X220511428Y-68222857D01*
X220559047Y-68127619D01*
X220606666Y-68080000D01*
X220701904Y-68032380D01*
D11*
X219626571Y-120895714D02*
X218912285Y-121395714D01*
X219626571Y-121752857D02*
X218126571Y-121752857D01*
X218126571Y-121181428D01*
X218198000Y-121038571D01*
X218269428Y-120967142D01*
X218412285Y-120895714D01*
X218626571Y-120895714D01*
X218769428Y-120967142D01*
X218840857Y-121038571D01*
X218912285Y-121181428D01*
X218912285Y-121752857D01*
X218840857Y-120252857D02*
X218840857Y-119752857D01*
X219626571Y-119538571D02*
X219626571Y-120252857D01*
X218126571Y-120252857D01*
X218126571Y-119538571D01*
X218126571Y-119110000D02*
X219626571Y-118610000D01*
X218126571Y-118110000D01*
X219198000Y-116538571D02*
X219198000Y-115824285D01*
X219626571Y-116681428D02*
X218126571Y-116181428D01*
X219626571Y-115681428D01*
X219626571Y-114395714D02*
X219626571Y-115252857D01*
X219626571Y-114824285D02*
X218126571Y-114824285D01*
X218340857Y-114967142D01*
X218483714Y-115110000D01*
X218555142Y-115252857D01*
D10*
X82875333Y-102026095D02*
X82827714Y-102073714D01*
X82684857Y-102168952D01*
X82589619Y-102216571D01*
X82446761Y-102264190D01*
X82208666Y-102311809D01*
X82018190Y-102311809D01*
X81780095Y-102264190D01*
X81637238Y-102216571D01*
X81542000Y-102168952D01*
X81399142Y-102073714D01*
X81351523Y-102026095D01*
X82446761Y-101216571D02*
X82494380Y-101311809D01*
X82494380Y-101502285D01*
X82446761Y-101597523D01*
X82399142Y-101645142D01*
X82303904Y-101692761D01*
X82018190Y-101692761D01*
X81922952Y-101645142D01*
X81875333Y-101597523D01*
X81827714Y-101502285D01*
X81827714Y-101311809D01*
X81875333Y-101216571D01*
X82875333Y-100883238D02*
X82827714Y-100835619D01*
X82684857Y-100740380D01*
X82589619Y-100692761D01*
X82446761Y-100645142D01*
X82208666Y-100597523D01*
X82018190Y-100597523D01*
X81780095Y-100645142D01*
X81637238Y-100692761D01*
X81542000Y-100740380D01*
X81399142Y-100835619D01*
X81351523Y-100883238D01*
X82399142Y-98788000D02*
X82446761Y-98835619D01*
X82494380Y-98978476D01*
X82494380Y-99073714D01*
X82446761Y-99216571D01*
X82351523Y-99311809D01*
X82256285Y-99359428D01*
X82065809Y-99407047D01*
X81922952Y-99407047D01*
X81732476Y-99359428D01*
X81637238Y-99311809D01*
X81542000Y-99216571D01*
X81494380Y-99073714D01*
X81494380Y-98978476D01*
X81542000Y-98835619D01*
X81589619Y-98788000D01*
X81827714Y-98454666D02*
X82494380Y-98216571D01*
X81827714Y-97978476D02*
X82494380Y-98216571D01*
X82732476Y-98311809D01*
X82780095Y-98359428D01*
X82827714Y-98454666D01*
X82494380Y-97597523D02*
X81494380Y-97597523D01*
X81875333Y-97597523D02*
X81827714Y-97502285D01*
X81827714Y-97311809D01*
X81875333Y-97216571D01*
X81922952Y-97168952D01*
X82018190Y-97121333D01*
X82303904Y-97121333D01*
X82399142Y-97168952D01*
X82446761Y-97216571D01*
X82494380Y-97311809D01*
X82494380Y-97502285D01*
X82446761Y-97597523D01*
X82446761Y-96311809D02*
X82494380Y-96407047D01*
X82494380Y-96597523D01*
X82446761Y-96692761D01*
X82351523Y-96740380D01*
X81970571Y-96740380D01*
X81875333Y-96692761D01*
X81827714Y-96597523D01*
X81827714Y-96407047D01*
X81875333Y-96311809D01*
X81970571Y-96264190D01*
X82065809Y-96264190D01*
X82161047Y-96740380D01*
X82494380Y-95835619D02*
X81827714Y-95835619D01*
X82018190Y-95835619D02*
X81922952Y-95788000D01*
X81875333Y-95740380D01*
X81827714Y-95645142D01*
X81827714Y-95549904D01*
X82446761Y-95264190D02*
X82494380Y-95168952D01*
X82494380Y-94978476D01*
X82446761Y-94883238D01*
X82351523Y-94835619D01*
X82303904Y-94835619D01*
X82208666Y-94883238D01*
X82161047Y-94978476D01*
X82161047Y-95121333D01*
X82113428Y-95216571D01*
X82018190Y-95264190D01*
X81970571Y-95264190D01*
X81875333Y-95216571D01*
X81827714Y-95121333D01*
X81827714Y-94978476D01*
X81875333Y-94883238D01*
X81827714Y-94407047D02*
X82827714Y-94407047D01*
X81875333Y-94407047D02*
X81827714Y-94311809D01*
X81827714Y-94121333D01*
X81875333Y-94026095D01*
X81922952Y-93978476D01*
X82018190Y-93930857D01*
X82303904Y-93930857D01*
X82399142Y-93978476D01*
X82446761Y-94026095D01*
X82494380Y-94121333D01*
X82494380Y-94311809D01*
X82446761Y-94407047D01*
X82494380Y-93502285D02*
X81827714Y-93502285D01*
X81494380Y-93502285D02*
X81542000Y-93549904D01*
X81589619Y-93502285D01*
X81542000Y-93454666D01*
X81494380Y-93502285D01*
X81589619Y-93502285D01*
X82446761Y-92597523D02*
X82494380Y-92692761D01*
X82494380Y-92883238D01*
X82446761Y-92978476D01*
X82399142Y-93026095D01*
X82303904Y-93073714D01*
X82018190Y-93073714D01*
X81922952Y-93026095D01*
X81875333Y-92978476D01*
X81827714Y-92883238D01*
X81827714Y-92692761D01*
X81875333Y-92597523D01*
X82446761Y-91788000D02*
X82494380Y-91883238D01*
X82494380Y-92073714D01*
X82446761Y-92168952D01*
X82351523Y-92216571D01*
X81970571Y-92216571D01*
X81875333Y-92168952D01*
X81827714Y-92073714D01*
X81827714Y-91883238D01*
X81875333Y-91788000D01*
X81970571Y-91740380D01*
X82065809Y-91740380D01*
X82161047Y-92216571D01*
X81589619Y-90597523D02*
X81542000Y-90549904D01*
X81494380Y-90454666D01*
X81494380Y-90216571D01*
X81542000Y-90121333D01*
X81589619Y-90073714D01*
X81684857Y-90026095D01*
X81780095Y-90026095D01*
X81922952Y-90073714D01*
X82494380Y-90645142D01*
X82494380Y-90026095D01*
X81494380Y-89407047D02*
X81494380Y-89311809D01*
X81542000Y-89216571D01*
X81589619Y-89168952D01*
X81684857Y-89121333D01*
X81875333Y-89073714D01*
X82113428Y-89073714D01*
X82303904Y-89121333D01*
X82399142Y-89168952D01*
X82446761Y-89216571D01*
X82494380Y-89311809D01*
X82494380Y-89407047D01*
X82446761Y-89502285D01*
X82399142Y-89549904D01*
X82303904Y-89597523D01*
X82113428Y-89645142D01*
X81875333Y-89645142D01*
X81684857Y-89597523D01*
X81589619Y-89549904D01*
X81542000Y-89502285D01*
X81494380Y-89407047D01*
X81589619Y-88692761D02*
X81542000Y-88645142D01*
X81494380Y-88549904D01*
X81494380Y-88311809D01*
X81542000Y-88216571D01*
X81589619Y-88168952D01*
X81684857Y-88121333D01*
X81780095Y-88121333D01*
X81922952Y-88168952D01*
X82494380Y-88740380D01*
X82494380Y-88121333D01*
X81589619Y-87740380D02*
X81542000Y-87692761D01*
X81494380Y-87597523D01*
X81494380Y-87359428D01*
X81542000Y-87264190D01*
X81589619Y-87216571D01*
X81684857Y-87168952D01*
X81780095Y-87168952D01*
X81922952Y-87216571D01*
X82494380Y-87788000D01*
X82494380Y-87168952D01*
X82113428Y-85978476D02*
X82113428Y-85216571D01*
X82494380Y-83978476D02*
X81494380Y-83978476D01*
X82494380Y-83549904D02*
X81970571Y-83549904D01*
X81875333Y-83597523D01*
X81827714Y-83692761D01*
X81827714Y-83835619D01*
X81875333Y-83930857D01*
X81922952Y-83978476D01*
X81827714Y-83216571D02*
X81827714Y-82835619D01*
X81494380Y-83073714D02*
X82351523Y-83073714D01*
X82446761Y-83026095D01*
X82494380Y-82930857D01*
X82494380Y-82835619D01*
X81827714Y-82645142D02*
X81827714Y-82264190D01*
X81494380Y-82502285D02*
X82351523Y-82502285D01*
X82446761Y-82454666D01*
X82494380Y-82359428D01*
X82494380Y-82264190D01*
X81827714Y-81930857D02*
X82827714Y-81930857D01*
X81875333Y-81930857D02*
X81827714Y-81835619D01*
X81827714Y-81645142D01*
X81875333Y-81549904D01*
X81922952Y-81502285D01*
X82018190Y-81454666D01*
X82303904Y-81454666D01*
X82399142Y-81502285D01*
X82446761Y-81549904D01*
X82494380Y-81645142D01*
X82494380Y-81835619D01*
X82446761Y-81930857D01*
X82399142Y-81026095D02*
X82446761Y-80978476D01*
X82494380Y-81026095D01*
X82446761Y-81073714D01*
X82399142Y-81026095D01*
X82494380Y-81026095D01*
X81875333Y-81026095D02*
X81922952Y-80978476D01*
X81970571Y-81026095D01*
X81922952Y-81073714D01*
X81875333Y-81026095D01*
X81970571Y-81026095D01*
X81446761Y-79835619D02*
X82732476Y-80692761D01*
X81446761Y-78788000D02*
X82732476Y-79645142D01*
X81827714Y-78549904D02*
X82494380Y-78359428D01*
X82018190Y-78168952D01*
X82494380Y-77978476D01*
X81827714Y-77788000D01*
X81827714Y-77502285D02*
X82494380Y-77311809D01*
X82018190Y-77121333D01*
X82494380Y-76930857D01*
X81827714Y-76740380D01*
X81827714Y-76454666D02*
X82494380Y-76264190D01*
X82018190Y-76073714D01*
X82494380Y-75883238D01*
X81827714Y-75692761D01*
X82399142Y-75311809D02*
X82446761Y-75264190D01*
X82494380Y-75311809D01*
X82446761Y-75359428D01*
X82399142Y-75311809D01*
X82494380Y-75311809D01*
X82446761Y-74407047D02*
X82494380Y-74502285D01*
X82494380Y-74692761D01*
X82446761Y-74788000D01*
X82399142Y-74835619D01*
X82303904Y-74883238D01*
X82018190Y-74883238D01*
X81922952Y-74835619D01*
X81875333Y-74788000D01*
X81827714Y-74692761D01*
X81827714Y-74502285D01*
X81875333Y-74407047D01*
X81827714Y-74073714D02*
X82494380Y-73835619D01*
X81827714Y-73597523D02*
X82494380Y-73835619D01*
X82732476Y-73930857D01*
X82780095Y-73978476D01*
X82827714Y-74073714D01*
X82494380Y-73216571D02*
X81494380Y-73216571D01*
X81875333Y-73216571D02*
X81827714Y-73121333D01*
X81827714Y-72930857D01*
X81875333Y-72835619D01*
X81922952Y-72788000D01*
X82018190Y-72740380D01*
X82303904Y-72740380D01*
X82399142Y-72788000D01*
X82446761Y-72835619D01*
X82494380Y-72930857D01*
X82494380Y-73121333D01*
X82446761Y-73216571D01*
X82446761Y-71930857D02*
X82494380Y-72026095D01*
X82494380Y-72216571D01*
X82446761Y-72311809D01*
X82351523Y-72359428D01*
X81970571Y-72359428D01*
X81875333Y-72311809D01*
X81827714Y-72216571D01*
X81827714Y-72026095D01*
X81875333Y-71930857D01*
X81970571Y-71883238D01*
X82065809Y-71883238D01*
X82161047Y-72359428D01*
X82494380Y-71454666D02*
X81827714Y-71454666D01*
X82018190Y-71454666D02*
X81922952Y-71407047D01*
X81875333Y-71359428D01*
X81827714Y-71264190D01*
X81827714Y-71168952D01*
X82446761Y-70883238D02*
X82494380Y-70788000D01*
X82494380Y-70597523D01*
X82446761Y-70502285D01*
X82351523Y-70454666D01*
X82303904Y-70454666D01*
X82208666Y-70502285D01*
X82161047Y-70597523D01*
X82161047Y-70740380D01*
X82113428Y-70835619D01*
X82018190Y-70883238D01*
X81970571Y-70883238D01*
X81875333Y-70835619D01*
X81827714Y-70740380D01*
X81827714Y-70597523D01*
X81875333Y-70502285D01*
X81827714Y-70026095D02*
X82827714Y-70026095D01*
X81875333Y-70026095D02*
X81827714Y-69930857D01*
X81827714Y-69740380D01*
X81875333Y-69645142D01*
X81922952Y-69597523D01*
X82018190Y-69549904D01*
X82303904Y-69549904D01*
X82399142Y-69597523D01*
X82446761Y-69645142D01*
X82494380Y-69740380D01*
X82494380Y-69930857D01*
X82446761Y-70026095D01*
X82494380Y-69121333D02*
X81827714Y-69121333D01*
X81494380Y-69121333D02*
X81542000Y-69168952D01*
X81589619Y-69121333D01*
X81542000Y-69073714D01*
X81494380Y-69121333D01*
X81589619Y-69121333D01*
X82446761Y-68216571D02*
X82494380Y-68311809D01*
X82494380Y-68502285D01*
X82446761Y-68597523D01*
X82399142Y-68645142D01*
X82303904Y-68692761D01*
X82018190Y-68692761D01*
X81922952Y-68645142D01*
X81875333Y-68597523D01*
X81827714Y-68502285D01*
X81827714Y-68311809D01*
X81875333Y-68216571D01*
X82446761Y-67407047D02*
X82494380Y-67502285D01*
X82494380Y-67692761D01*
X82446761Y-67788000D01*
X82351523Y-67835619D01*
X81970571Y-67835619D01*
X81875333Y-67788000D01*
X81827714Y-67692761D01*
X81827714Y-67502285D01*
X81875333Y-67407047D01*
X81970571Y-67359428D01*
X82065809Y-67359428D01*
X82161047Y-67835619D01*
X82399142Y-66930857D02*
X82446761Y-66883238D01*
X82494380Y-66930857D01*
X82446761Y-66978476D01*
X82399142Y-66930857D01*
X82494380Y-66930857D01*
X82494380Y-66311809D02*
X82446761Y-66407047D01*
X82399142Y-66454666D01*
X82303904Y-66502285D01*
X82018190Y-66502285D01*
X81922952Y-66454666D01*
X81875333Y-66407047D01*
X81827714Y-66311809D01*
X81827714Y-66168952D01*
X81875333Y-66073714D01*
X81922952Y-66026095D01*
X82018190Y-65978476D01*
X82303904Y-65978476D01*
X82399142Y-66026095D01*
X82446761Y-66073714D01*
X82494380Y-66168952D01*
X82494380Y-66311809D01*
X82494380Y-65549904D02*
X81827714Y-65549904D01*
X82018190Y-65549904D02*
X81922952Y-65502285D01*
X81875333Y-65454666D01*
X81827714Y-65359428D01*
X81827714Y-65264190D01*
X81827714Y-64502285D02*
X82637238Y-64502285D01*
X82732476Y-64549904D01*
X82780095Y-64597523D01*
X82827714Y-64692761D01*
X82827714Y-64835619D01*
X82780095Y-64930857D01*
X82446761Y-64502285D02*
X82494380Y-64597523D01*
X82494380Y-64788000D01*
X82446761Y-64883238D01*
X82399142Y-64930857D01*
X82303904Y-64978476D01*
X82018190Y-64978476D01*
X81922952Y-64930857D01*
X81875333Y-64883238D01*
X81827714Y-64788000D01*
X81827714Y-64597523D01*
X81875333Y-64502285D01*
X82399142Y-64026095D02*
X82446761Y-63978476D01*
X82494380Y-64026095D01*
X82446761Y-64073714D01*
X82399142Y-64026095D01*
X82494380Y-64026095D01*
X81827714Y-63121333D02*
X82494380Y-63121333D01*
X81827714Y-63549904D02*
X82351523Y-63549904D01*
X82446761Y-63502285D01*
X82494380Y-63407047D01*
X82494380Y-63264190D01*
X82446761Y-63168952D01*
X82399142Y-63121333D01*
X82494380Y-62645142D02*
X81494380Y-62645142D01*
X82113428Y-62549904D02*
X82494380Y-62264190D01*
X81827714Y-62264190D02*
X82208666Y-62645142D01*
X81446761Y-61121333D02*
X82732476Y-61978476D01*
X99020380Y-54911142D02*
X99829904Y-54911142D01*
X99925142Y-54863523D01*
X99972761Y-54815904D01*
X100020380Y-54720666D01*
X100020380Y-54530190D01*
X99972761Y-54434952D01*
X99925142Y-54387333D01*
X99829904Y-54339714D01*
X99020380Y-54339714D01*
X99020380Y-53387333D02*
X99020380Y-53863523D01*
X99496571Y-53911142D01*
X99448952Y-53863523D01*
X99401333Y-53768285D01*
X99401333Y-53530190D01*
X99448952Y-53434952D01*
X99496571Y-53387333D01*
X99591809Y-53339714D01*
X99829904Y-53339714D01*
X99925142Y-53387333D01*
X99972761Y-53434952D01*
X100020380Y-53530190D01*
X100020380Y-53768285D01*
X99972761Y-53863523D01*
X99925142Y-53911142D01*
X99925142Y-51577809D02*
X99972761Y-51625428D01*
X100020380Y-51768285D01*
X100020380Y-51863523D01*
X99972761Y-52006380D01*
X99877523Y-52101619D01*
X99782285Y-52149238D01*
X99591809Y-52196857D01*
X99448952Y-52196857D01*
X99258476Y-52149238D01*
X99163238Y-52101619D01*
X99068000Y-52006380D01*
X99020380Y-51863523D01*
X99020380Y-51768285D01*
X99068000Y-51625428D01*
X99115619Y-51577809D01*
X100020380Y-51006380D02*
X99972761Y-51101619D01*
X99925142Y-51149238D01*
X99829904Y-51196857D01*
X99544190Y-51196857D01*
X99448952Y-51149238D01*
X99401333Y-51101619D01*
X99353714Y-51006380D01*
X99353714Y-50863523D01*
X99401333Y-50768285D01*
X99448952Y-50720666D01*
X99544190Y-50673047D01*
X99829904Y-50673047D01*
X99925142Y-50720666D01*
X99972761Y-50768285D01*
X100020380Y-50863523D01*
X100020380Y-51006380D01*
X99353714Y-50244476D02*
X100020380Y-50244476D01*
X99448952Y-50244476D02*
X99401333Y-50196857D01*
X99353714Y-50101619D01*
X99353714Y-49958761D01*
X99401333Y-49863523D01*
X99496571Y-49815904D01*
X100020380Y-49815904D01*
X99353714Y-49482571D02*
X99353714Y-49101619D01*
X99020380Y-49339714D02*
X99877523Y-49339714D01*
X99972761Y-49292095D01*
X100020380Y-49196857D01*
X100020380Y-49101619D01*
X100020380Y-48768285D02*
X99353714Y-48768285D01*
X99544190Y-48768285D02*
X99448952Y-48720666D01*
X99401333Y-48673047D01*
X99353714Y-48577809D01*
X99353714Y-48482571D01*
X100020380Y-48006380D02*
X99972761Y-48101619D01*
X99925142Y-48149238D01*
X99829904Y-48196857D01*
X99544190Y-48196857D01*
X99448952Y-48149238D01*
X99401333Y-48101619D01*
X99353714Y-48006380D01*
X99353714Y-47863523D01*
X99401333Y-47768285D01*
X99448952Y-47720666D01*
X99544190Y-47673047D01*
X99829904Y-47673047D01*
X99925142Y-47720666D01*
X99972761Y-47768285D01*
X100020380Y-47863523D01*
X100020380Y-48006380D01*
X100020380Y-47101619D02*
X99972761Y-47196857D01*
X99877523Y-47244476D01*
X99020380Y-47244476D01*
X108894571Y-57316476D02*
X108894571Y-57649809D01*
X109418380Y-57649809D02*
X108418380Y-57649809D01*
X108418380Y-57173619D01*
X109418380Y-56316476D02*
X109418380Y-56792666D01*
X108418380Y-56792666D01*
X109132666Y-56030761D02*
X109132666Y-55554571D01*
X109418380Y-56126000D02*
X108418380Y-55792666D01*
X109418380Y-55459333D01*
X109370761Y-55173619D02*
X109418380Y-55030761D01*
X109418380Y-54792666D01*
X109370761Y-54697428D01*
X109323142Y-54649809D01*
X109227904Y-54602190D01*
X109132666Y-54602190D01*
X109037428Y-54649809D01*
X108989809Y-54697428D01*
X108942190Y-54792666D01*
X108894571Y-54983142D01*
X108846952Y-55078380D01*
X108799333Y-55126000D01*
X108704095Y-55173619D01*
X108608857Y-55173619D01*
X108513619Y-55126000D01*
X108466000Y-55078380D01*
X108418380Y-54983142D01*
X108418380Y-54745047D01*
X108466000Y-54602190D01*
X109418380Y-54173619D02*
X108418380Y-54173619D01*
X108894571Y-54173619D02*
X108894571Y-53602190D01*
X109418380Y-53602190D02*
X108418380Y-53602190D01*
X109418380Y-51839714D02*
X108942190Y-52173047D01*
X109418380Y-52411142D02*
X108418380Y-52411142D01*
X108418380Y-52030190D01*
X108466000Y-51934952D01*
X108513619Y-51887333D01*
X108608857Y-51839714D01*
X108751714Y-51839714D01*
X108846952Y-51887333D01*
X108894571Y-51934952D01*
X108942190Y-52030190D01*
X108942190Y-52411142D01*
X108418380Y-51220666D02*
X108418380Y-51030190D01*
X108466000Y-50934952D01*
X108561238Y-50839714D01*
X108751714Y-50792095D01*
X109085047Y-50792095D01*
X109275523Y-50839714D01*
X109370761Y-50934952D01*
X109418380Y-51030190D01*
X109418380Y-51220666D01*
X109370761Y-51315904D01*
X109275523Y-51411142D01*
X109085047Y-51458761D01*
X108751714Y-51458761D01*
X108561238Y-51411142D01*
X108466000Y-51315904D01*
X108418380Y-51220666D01*
X109418380Y-50363523D02*
X108418380Y-50363523D01*
X109132666Y-50030190D01*
X108418380Y-49696857D01*
X109418380Y-49696857D01*
X108418380Y-43981523D02*
X108418380Y-43362476D01*
X108799333Y-43695809D01*
X108799333Y-43552952D01*
X108846952Y-43457714D01*
X108894571Y-43410095D01*
X108989809Y-43362476D01*
X109227904Y-43362476D01*
X109323142Y-43410095D01*
X109370761Y-43457714D01*
X109418380Y-43552952D01*
X109418380Y-43838666D01*
X109370761Y-43933904D01*
X109323142Y-43981523D01*
X108513619Y-42981523D02*
X108466000Y-42933904D01*
X108418380Y-42838666D01*
X108418380Y-42600571D01*
X108466000Y-42505333D01*
X108513619Y-42457714D01*
X108608857Y-42410095D01*
X108704095Y-42410095D01*
X108846952Y-42457714D01*
X109418380Y-43029142D01*
X109418380Y-42410095D01*
X109418380Y-41981523D02*
X108418380Y-41981523D01*
X109418380Y-41410095D02*
X108846952Y-41838666D01*
X108418380Y-41410095D02*
X108989809Y-41981523D01*
X104338380Y-43362476D02*
X104338380Y-43933904D01*
X104338380Y-43648190D02*
X103338380Y-43648190D01*
X103481238Y-43743428D01*
X103576476Y-43838666D01*
X103624095Y-43933904D01*
X103338380Y-42505333D02*
X103338380Y-42695809D01*
X103386000Y-42791047D01*
X103433619Y-42838666D01*
X103576476Y-42933904D01*
X103766952Y-42981523D01*
X104147904Y-42981523D01*
X104243142Y-42933904D01*
X104290761Y-42886285D01*
X104338380Y-42791047D01*
X104338380Y-42600571D01*
X104290761Y-42505333D01*
X104243142Y-42457714D01*
X104147904Y-42410095D01*
X103909809Y-42410095D01*
X103814571Y-42457714D01*
X103766952Y-42505333D01*
X103719333Y-42600571D01*
X103719333Y-42791047D01*
X103766952Y-42886285D01*
X103814571Y-42933904D01*
X103909809Y-42981523D01*
X104338380Y-41981523D02*
X103338380Y-41981523D01*
X104338380Y-41410095D02*
X103766952Y-41838666D01*
X103338380Y-41410095D02*
X103909809Y-41981523D01*
X215542761Y-109696095D02*
X215590380Y-109553238D01*
X215590380Y-109315142D01*
X215542761Y-109219904D01*
X215495142Y-109172285D01*
X215399904Y-109124666D01*
X215304666Y-109124666D01*
X215209428Y-109172285D01*
X215161809Y-109219904D01*
X215114190Y-109315142D01*
X215066571Y-109505619D01*
X215018952Y-109600857D01*
X214971333Y-109648476D01*
X214876095Y-109696095D01*
X214780857Y-109696095D01*
X214685619Y-109648476D01*
X214638000Y-109600857D01*
X214590380Y-109505619D01*
X214590380Y-109267523D01*
X214638000Y-109124666D01*
X214685619Y-108743714D02*
X214638000Y-108696095D01*
X214590380Y-108600857D01*
X214590380Y-108362761D01*
X214638000Y-108267523D01*
X214685619Y-108219904D01*
X214780857Y-108172285D01*
X214876095Y-108172285D01*
X215018952Y-108219904D01*
X215590380Y-108791333D01*
X215590380Y-108172285D01*
X215590380Y-107219904D02*
X215590380Y-107791333D01*
X215590380Y-107505619D02*
X214590380Y-107505619D01*
X214733238Y-107600857D01*
X214828476Y-107696095D01*
X214876095Y-107791333D01*
X213764761Y-106902095D02*
X213812380Y-106759238D01*
X213812380Y-106521142D01*
X213764761Y-106425904D01*
X213717142Y-106378285D01*
X213621904Y-106330666D01*
X213526666Y-106330666D01*
X213431428Y-106378285D01*
X213383809Y-106425904D01*
X213336190Y-106521142D01*
X213288571Y-106711619D01*
X213240952Y-106806857D01*
X213193333Y-106854476D01*
X213098095Y-106902095D01*
X213002857Y-106902095D01*
X212907619Y-106854476D01*
X212860000Y-106806857D01*
X212812380Y-106711619D01*
X212812380Y-106473523D01*
X212860000Y-106330666D01*
X212907619Y-105949714D02*
X212860000Y-105902095D01*
X212812380Y-105806857D01*
X212812380Y-105568761D01*
X212860000Y-105473523D01*
X212907619Y-105425904D01*
X213002857Y-105378285D01*
X213098095Y-105378285D01*
X213240952Y-105425904D01*
X213812380Y-105997333D01*
X213812380Y-105378285D01*
X212812380Y-104759238D02*
X212812380Y-104664000D01*
X212860000Y-104568761D01*
X212907619Y-104521142D01*
X213002857Y-104473523D01*
X213193333Y-104425904D01*
X213431428Y-104425904D01*
X213621904Y-104473523D01*
X213717142Y-104521142D01*
X213764761Y-104568761D01*
X213812380Y-104664000D01*
X213812380Y-104759238D01*
X213764761Y-104854476D01*
X213717142Y-104902095D01*
X213621904Y-104949714D01*
X213431428Y-104997333D01*
X213193333Y-104997333D01*
X213002857Y-104949714D01*
X212907619Y-104902095D01*
X212860000Y-104854476D01*
X212812380Y-104759238D01*
X215542761Y-104108095D02*
X215590380Y-103965238D01*
X215590380Y-103727142D01*
X215542761Y-103631904D01*
X215495142Y-103584285D01*
X215399904Y-103536666D01*
X215304666Y-103536666D01*
X215209428Y-103584285D01*
X215161809Y-103631904D01*
X215114190Y-103727142D01*
X215066571Y-103917619D01*
X215018952Y-104012857D01*
X214971333Y-104060476D01*
X214876095Y-104108095D01*
X214780857Y-104108095D01*
X214685619Y-104060476D01*
X214638000Y-104012857D01*
X214590380Y-103917619D01*
X214590380Y-103679523D01*
X214638000Y-103536666D01*
X214685619Y-103155714D02*
X214638000Y-103108095D01*
X214590380Y-103012857D01*
X214590380Y-102774761D01*
X214638000Y-102679523D01*
X214685619Y-102631904D01*
X214780857Y-102584285D01*
X214876095Y-102584285D01*
X215018952Y-102631904D01*
X215590380Y-103203333D01*
X215590380Y-102584285D01*
X214685619Y-102203333D02*
X214638000Y-102155714D01*
X214590380Y-102060476D01*
X214590380Y-101822380D01*
X214638000Y-101727142D01*
X214685619Y-101679523D01*
X214780857Y-101631904D01*
X214876095Y-101631904D01*
X215018952Y-101679523D01*
X215590380Y-102250952D01*
X215590380Y-101631904D01*
X170140380Y-119546095D02*
X170140380Y-119736571D01*
X170188000Y-119831809D01*
X170235619Y-119879428D01*
X170378476Y-119974666D01*
X170568952Y-120022285D01*
X170949904Y-120022285D01*
X171045142Y-119974666D01*
X171092761Y-119927047D01*
X171140380Y-119831809D01*
X171140380Y-119641333D01*
X171092761Y-119546095D01*
X171045142Y-119498476D01*
X170949904Y-119450857D01*
X170711809Y-119450857D01*
X170616571Y-119498476D01*
X170568952Y-119546095D01*
X170521333Y-119641333D01*
X170521333Y-119831809D01*
X170568952Y-119927047D01*
X170616571Y-119974666D01*
X170711809Y-120022285D01*
X170140380Y-118546095D02*
X170140380Y-119022285D01*
X170616571Y-119069904D01*
X170568952Y-119022285D01*
X170521333Y-118927047D01*
X170521333Y-118688952D01*
X170568952Y-118593714D01*
X170616571Y-118546095D01*
X170711809Y-118498476D01*
X170949904Y-118498476D01*
X171045142Y-118546095D01*
X171092761Y-118593714D01*
X171140380Y-118688952D01*
X171140380Y-118927047D01*
X171092761Y-119022285D01*
X171045142Y-119069904D01*
X170140380Y-117879428D02*
X170140380Y-117784190D01*
X170188000Y-117688952D01*
X170235619Y-117641333D01*
X170330857Y-117593714D01*
X170521333Y-117546095D01*
X170759428Y-117546095D01*
X170949904Y-117593714D01*
X171045142Y-117641333D01*
X171092761Y-117688952D01*
X171140380Y-117784190D01*
X171140380Y-117879428D01*
X171092761Y-117974666D01*
X171045142Y-118022285D01*
X170949904Y-118069904D01*
X170759428Y-118117523D01*
X170521333Y-118117523D01*
X170330857Y-118069904D01*
X170235619Y-118022285D01*
X170188000Y-117974666D01*
X170140380Y-117879428D01*
X170235619Y-117165142D02*
X170188000Y-117117523D01*
X170140380Y-117022285D01*
X170140380Y-116784190D01*
X170188000Y-116688952D01*
X170235619Y-116641333D01*
X170330857Y-116593714D01*
X170426095Y-116593714D01*
X170568952Y-116641333D01*
X171140380Y-117212761D01*
X171140380Y-116593714D01*
X170092761Y-115450857D02*
X171378476Y-116308000D01*
X170140380Y-115212761D02*
X171140380Y-114974666D01*
X170426095Y-114784190D01*
X171140380Y-114593714D01*
X170140380Y-114355619D01*
X170140380Y-113546095D02*
X170140380Y-113736571D01*
X170188000Y-113831809D01*
X170235619Y-113879428D01*
X170378476Y-113974666D01*
X170568952Y-114022285D01*
X170949904Y-114022285D01*
X171045142Y-113974666D01*
X171092761Y-113927047D01*
X171140380Y-113831809D01*
X171140380Y-113641333D01*
X171092761Y-113546095D01*
X171045142Y-113498476D01*
X170949904Y-113450857D01*
X170711809Y-113450857D01*
X170616571Y-113498476D01*
X170568952Y-113546095D01*
X170521333Y-113641333D01*
X170521333Y-113831809D01*
X170568952Y-113927047D01*
X170616571Y-113974666D01*
X170711809Y-114022285D01*
X170140380Y-112546095D02*
X170140380Y-113022285D01*
X170616571Y-113069904D01*
X170568952Y-113022285D01*
X170521333Y-112927047D01*
X170521333Y-112688952D01*
X170568952Y-112593714D01*
X170616571Y-112546095D01*
X170711809Y-112498476D01*
X170949904Y-112498476D01*
X171045142Y-112546095D01*
X171092761Y-112593714D01*
X171140380Y-112688952D01*
X171140380Y-112927047D01*
X171092761Y-113022285D01*
X171045142Y-113069904D01*
X171045142Y-111498476D02*
X171092761Y-111546095D01*
X171140380Y-111688952D01*
X171140380Y-111784190D01*
X171092761Y-111927047D01*
X170997523Y-112022285D01*
X170902285Y-112069904D01*
X170711809Y-112117523D01*
X170568952Y-112117523D01*
X170378476Y-112069904D01*
X170283238Y-112022285D01*
X170188000Y-111927047D01*
X170140380Y-111784190D01*
X170140380Y-111688952D01*
X170188000Y-111546095D01*
X170235619Y-111498476D01*
X170140380Y-110879428D02*
X170140380Y-110784190D01*
X170188000Y-110688952D01*
X170235619Y-110641333D01*
X170330857Y-110593714D01*
X170521333Y-110546095D01*
X170759428Y-110546095D01*
X170949904Y-110593714D01*
X171045142Y-110641333D01*
X171092761Y-110688952D01*
X171140380Y-110784190D01*
X171140380Y-110879428D01*
X171092761Y-110974666D01*
X171045142Y-111022285D01*
X170949904Y-111069904D01*
X170759428Y-111117523D01*
X170521333Y-111117523D01*
X170330857Y-111069904D01*
X170235619Y-111022285D01*
X170188000Y-110974666D01*
X170140380Y-110879428D01*
X170235619Y-110165142D02*
X170188000Y-110117523D01*
X170140380Y-110022285D01*
X170140380Y-109784190D01*
X170188000Y-109688952D01*
X170235619Y-109641333D01*
X170330857Y-109593714D01*
X170426095Y-109593714D01*
X170568952Y-109641333D01*
X171140380Y-110212761D01*
X171140380Y-109593714D01*
X182253380Y-112887047D02*
X181777190Y-113220380D01*
X182253380Y-113458476D02*
X181253380Y-113458476D01*
X181253380Y-113077523D01*
X181301000Y-112982285D01*
X181348619Y-112934666D01*
X181443857Y-112887047D01*
X181586714Y-112887047D01*
X181681952Y-112934666D01*
X181729571Y-112982285D01*
X181777190Y-113077523D01*
X181777190Y-113458476D01*
X182253380Y-112458476D02*
X181253380Y-112458476D01*
X181253380Y-112220380D01*
X181301000Y-112077523D01*
X181396238Y-111982285D01*
X181491476Y-111934666D01*
X181681952Y-111887047D01*
X181824809Y-111887047D01*
X182015285Y-111934666D01*
X182110523Y-111982285D01*
X182205761Y-112077523D01*
X182253380Y-112220380D01*
X182253380Y-112458476D01*
X181777190Y-111268000D02*
X182253380Y-111268000D01*
X181253380Y-111601333D02*
X181777190Y-111268000D01*
X181253380Y-110934666D01*
X183903380Y-113696571D02*
X182903380Y-113696571D01*
X183379571Y-113696571D02*
X183379571Y-113125142D01*
X183903380Y-113125142D02*
X182903380Y-113125142D01*
X183903380Y-112648952D02*
X183236714Y-112648952D01*
X182903380Y-112648952D02*
X182951000Y-112696571D01*
X182998619Y-112648952D01*
X182951000Y-112601333D01*
X182903380Y-112648952D01*
X182998619Y-112648952D01*
X183236714Y-111744190D02*
X184046238Y-111744190D01*
X184141476Y-111791809D01*
X184189095Y-111839428D01*
X184236714Y-111934666D01*
X184236714Y-112077523D01*
X184189095Y-112172761D01*
X183855761Y-111744190D02*
X183903380Y-111839428D01*
X183903380Y-112029904D01*
X183855761Y-112125142D01*
X183808142Y-112172761D01*
X183712904Y-112220380D01*
X183427190Y-112220380D01*
X183331952Y-112172761D01*
X183284333Y-112125142D01*
X183236714Y-112029904D01*
X183236714Y-111839428D01*
X183284333Y-111744190D01*
X183903380Y-111268000D02*
X182903380Y-111268000D01*
X183903380Y-110839428D02*
X183379571Y-110839428D01*
X183284333Y-110887047D01*
X183236714Y-110982285D01*
X183236714Y-111125142D01*
X183284333Y-111220380D01*
X183331952Y-111268000D01*
X182253380Y-118776571D02*
X181253380Y-118776571D01*
X181253380Y-118395619D01*
X181301000Y-118300380D01*
X181348619Y-118252761D01*
X181443857Y-118205142D01*
X181586714Y-118205142D01*
X181681952Y-118252761D01*
X181729571Y-118300380D01*
X181777190Y-118395619D01*
X181777190Y-118776571D01*
X182253380Y-117776571D02*
X181586714Y-117776571D01*
X181253380Y-117776571D02*
X181301000Y-117824190D01*
X181348619Y-117776571D01*
X181301000Y-117728952D01*
X181253380Y-117776571D01*
X181348619Y-117776571D01*
X181586714Y-117300380D02*
X182253380Y-117300380D01*
X181681952Y-117300380D02*
X181634333Y-117252761D01*
X181586714Y-117157523D01*
X181586714Y-117014666D01*
X181634333Y-116919428D01*
X181729571Y-116871809D01*
X182253380Y-116871809D01*
X182253380Y-115871809D02*
X182253380Y-116443238D01*
X182253380Y-116157523D02*
X181253380Y-116157523D01*
X181396238Y-116252761D01*
X181491476Y-116348000D01*
X181539095Y-116443238D01*
X182951000Y-118109904D02*
X182903380Y-118205142D01*
X182903380Y-118348000D01*
X182951000Y-118490857D01*
X183046238Y-118586095D01*
X183141476Y-118633714D01*
X183331952Y-118681333D01*
X183474809Y-118681333D01*
X183665285Y-118633714D01*
X183760523Y-118586095D01*
X183855761Y-118490857D01*
X183903380Y-118348000D01*
X183903380Y-118252761D01*
X183855761Y-118109904D01*
X183808142Y-118062285D01*
X183474809Y-118062285D01*
X183474809Y-118252761D01*
X183903380Y-117633714D02*
X182903380Y-117633714D01*
X183903380Y-117062285D01*
X182903380Y-117062285D01*
X183903380Y-116586095D02*
X182903380Y-116586095D01*
X182903380Y-116348000D01*
X182951000Y-116205142D01*
X183046238Y-116109904D01*
X183141476Y-116062285D01*
X183331952Y-116014666D01*
X183474809Y-116014666D01*
X183665285Y-116062285D01*
X183760523Y-116109904D01*
X183855761Y-116205142D01*
X183903380Y-116348000D01*
X183903380Y-116586095D01*
D12*
%TO.C,REF\u002A\u002A*%
G36*
X90475903Y-121160100D02*
G01*
X90531522Y-121048550D01*
X90633931Y-120950092D01*
X90671864Y-120922977D01*
X90721500Y-120893438D01*
X90775412Y-120874272D01*
X90847364Y-120863307D01*
X90951122Y-120858371D01*
X91088101Y-120857287D01*
X91275815Y-120862182D01*
X91416758Y-120879196D01*
X91521908Y-120911823D01*
X91602243Y-120963558D01*
X91668741Y-121037896D01*
X91672678Y-121043358D01*
X91712953Y-121116620D01*
X91732880Y-121204840D01*
X91737793Y-121317038D01*
X91737793Y-121499433D01*
X91914857Y-121499509D01*
X92013470Y-121501207D01*
X92071314Y-121511550D01*
X92106006Y-121538578D01*
X92135164Y-121590332D01*
X92141121Y-121602761D01*
X92169039Y-121660923D01*
X92186672Y-121705956D01*
X92188194Y-121739441D01*
X92167781Y-121762962D01*
X92119607Y-121778100D01*
X92037846Y-121786437D01*
X91916672Y-121789556D01*
X91750260Y-121789040D01*
X91532785Y-121786471D01*
X91467736Y-121785668D01*
X91243502Y-121782778D01*
X91096821Y-121780188D01*
X91096821Y-121499586D01*
X91221326Y-121498009D01*
X91302787Y-121491000D01*
X91356515Y-121475142D01*
X91397823Y-121447019D01*
X91417971Y-121427925D01*
X91476921Y-121349865D01*
X91481720Y-121280753D01*
X91433038Y-121209440D01*
X91431241Y-121207632D01*
X91393618Y-121178617D01*
X91342484Y-121160967D01*
X91263738Y-121152064D01*
X91143276Y-121149291D01*
X91116588Y-121149241D01*
X90950583Y-121155942D01*
X90835505Y-121177752D01*
X90765254Y-121217235D01*
X90733729Y-121276956D01*
X90730552Y-121311472D01*
X90745460Y-121393389D01*
X90794548Y-121449579D01*
X90884362Y-121483402D01*
X91021445Y-121498220D01*
X91096821Y-121499586D01*
X91096821Y-121780188D01*
X91069952Y-121779713D01*
X90939382Y-121775753D01*
X90844087Y-121770174D01*
X90776364Y-121762254D01*
X90728507Y-121751269D01*
X90692813Y-121736499D01*
X90661578Y-121717218D01*
X90649824Y-121708951D01*
X90538797Y-121599288D01*
X90475847Y-121460635D01*
X90458297Y-121300246D01*
X90475903Y-121160100D01*
G37*
X90475903Y-121160100D02*
X90531522Y-121048550D01*
X90633931Y-120950092D01*
X90671864Y-120922977D01*
X90721500Y-120893438D01*
X90775412Y-120874272D01*
X90847364Y-120863307D01*
X90951122Y-120858371D01*
X91088101Y-120857287D01*
X91275815Y-120862182D01*
X91416758Y-120879196D01*
X91521908Y-120911823D01*
X91602243Y-120963558D01*
X91668741Y-121037896D01*
X91672678Y-121043358D01*
X91712953Y-121116620D01*
X91732880Y-121204840D01*
X91737793Y-121317038D01*
X91737793Y-121499433D01*
X91914857Y-121499509D01*
X92013470Y-121501207D01*
X92071314Y-121511550D01*
X92106006Y-121538578D01*
X92135164Y-121590332D01*
X92141121Y-121602761D01*
X92169039Y-121660923D01*
X92186672Y-121705956D01*
X92188194Y-121739441D01*
X92167781Y-121762962D01*
X92119607Y-121778100D01*
X92037846Y-121786437D01*
X91916672Y-121789556D01*
X91750260Y-121789040D01*
X91532785Y-121786471D01*
X91467736Y-121785668D01*
X91243502Y-121782778D01*
X91096821Y-121780188D01*
X91096821Y-121499586D01*
X91221326Y-121498009D01*
X91302787Y-121491000D01*
X91356515Y-121475142D01*
X91397823Y-121447019D01*
X91417971Y-121427925D01*
X91476921Y-121349865D01*
X91481720Y-121280753D01*
X91433038Y-121209440D01*
X91431241Y-121207632D01*
X91393618Y-121178617D01*
X91342484Y-121160967D01*
X91263738Y-121152064D01*
X91143276Y-121149291D01*
X91116588Y-121149241D01*
X90950583Y-121155942D01*
X90835505Y-121177752D01*
X90765254Y-121217235D01*
X90733729Y-121276956D01*
X90730552Y-121311472D01*
X90745460Y-121393389D01*
X90794548Y-121449579D01*
X90884362Y-121483402D01*
X91021445Y-121498220D01*
X91096821Y-121499586D01*
X91096821Y-121780188D01*
X91069952Y-121779713D01*
X90939382Y-121775753D01*
X90844087Y-121770174D01*
X90776364Y-121762254D01*
X90728507Y-121751269D01*
X90692813Y-121736499D01*
X90661578Y-121717218D01*
X90649824Y-121708951D01*
X90538797Y-121599288D01*
X90475847Y-121460635D01*
X90458297Y-121300246D01*
X90475903Y-121160100D01*
G36*
X90491719Y-118914571D02*
G01*
X90545914Y-118820877D01*
X90599707Y-118755736D01*
X90656066Y-118708093D01*
X90724987Y-118675272D01*
X90816468Y-118654594D01*
X90940506Y-118643380D01*
X91107098Y-118638951D01*
X91226851Y-118638437D01*
X91667659Y-118638437D01*
X91723283Y-118762517D01*
X91778907Y-118886598D01*
X91296095Y-118901195D01*
X91115779Y-118907227D01*
X90984901Y-118913555D01*
X90894511Y-118921394D01*
X90835664Y-118931963D01*
X90799413Y-118946477D01*
X90776810Y-118966152D01*
X90771917Y-118972465D01*
X90733706Y-119068112D01*
X90748827Y-119164793D01*
X90788943Y-119222345D01*
X90817370Y-119245755D01*
X90854672Y-119261961D01*
X90911223Y-119272259D01*
X90997394Y-119277951D01*
X91123558Y-119280336D01*
X91255042Y-119280736D01*
X91419999Y-119280814D01*
X91536761Y-119283639D01*
X91615510Y-119293093D01*
X91666431Y-119313060D01*
X91699706Y-119347424D01*
X91725520Y-119400068D01*
X91752344Y-119470383D01*
X91781542Y-119547180D01*
X91263346Y-119538038D01*
X91076539Y-119534357D01*
X90938490Y-119530050D01*
X90839568Y-119523877D01*
X90770145Y-119514598D01*
X90720590Y-119500973D01*
X90681273Y-119481761D01*
X90646584Y-119458598D01*
X90535770Y-119346848D01*
X90471689Y-119210487D01*
X90456339Y-119062175D01*
X90491719Y-118914571D01*
G37*
X90491719Y-118914571D02*
X90545914Y-118820877D01*
X90599707Y-118755736D01*
X90656066Y-118708093D01*
X90724987Y-118675272D01*
X90816468Y-118654594D01*
X90940506Y-118643380D01*
X91107098Y-118638951D01*
X91226851Y-118638437D01*
X91667659Y-118638437D01*
X91723283Y-118762517D01*
X91778907Y-118886598D01*
X91296095Y-118901195D01*
X91115779Y-118907227D01*
X90984901Y-118913555D01*
X90894511Y-118921394D01*
X90835664Y-118931963D01*
X90799413Y-118946477D01*
X90776810Y-118966152D01*
X90771917Y-118972465D01*
X90733706Y-119068112D01*
X90748827Y-119164793D01*
X90788943Y-119222345D01*
X90817370Y-119245755D01*
X90854672Y-119261961D01*
X90911223Y-119272259D01*
X90997394Y-119277951D01*
X91123558Y-119280336D01*
X91255042Y-119280736D01*
X91419999Y-119280814D01*
X91536761Y-119283639D01*
X91615510Y-119293093D01*
X91666431Y-119313060D01*
X91699706Y-119347424D01*
X91725520Y-119400068D01*
X91752344Y-119470383D01*
X91781542Y-119547180D01*
X91263346Y-119538038D01*
X91076539Y-119534357D01*
X90938490Y-119530050D01*
X90839568Y-119523877D01*
X90770145Y-119514598D01*
X90720590Y-119500973D01*
X90681273Y-119481761D01*
X90646584Y-119458598D01*
X90535770Y-119346848D01*
X90471689Y-119210487D01*
X90456339Y-119062175D01*
X90491719Y-118914571D01*
G36*
X90480015Y-122283779D02*
G01*
X90551968Y-122146939D01*
X90667766Y-122045949D01*
X90742213Y-122010075D01*
X90853992Y-121982161D01*
X90995227Y-121967871D01*
X91149371Y-121966516D01*
X91299879Y-121977405D01*
X91430205Y-121999847D01*
X91523803Y-122033150D01*
X91539922Y-122043385D01*
X91660249Y-122164618D01*
X91732317Y-122308613D01*
X91753408Y-122464861D01*
X91720802Y-122622852D01*
X91701253Y-122666820D01*
X91641012Y-122752444D01*
X91561135Y-122827592D01*
X91551004Y-122834694D01*
X91502181Y-122863561D01*
X91449990Y-122882643D01*
X91381285Y-122893916D01*
X91282918Y-122899355D01*
X91141744Y-122900938D01*
X91110092Y-122900965D01*
X91100019Y-122900893D01*
X91100019Y-122609011D01*
X91233256Y-122607313D01*
X91321674Y-122600628D01*
X91378785Y-122586575D01*
X91418102Y-122562771D01*
X91431241Y-122550621D01*
X91481172Y-122480764D01*
X91478895Y-122412941D01*
X91435584Y-122344365D01*
X91389346Y-122303465D01*
X91321857Y-122279242D01*
X91215433Y-122265639D01*
X91203020Y-122264706D01*
X91010147Y-122262384D01*
X90866900Y-122286650D01*
X90774160Y-122337176D01*
X90732807Y-122413632D01*
X90730552Y-122440924D01*
X90741893Y-122512589D01*
X90781184Y-122561610D01*
X90856326Y-122591582D01*
X90975222Y-122606101D01*
X91100019Y-122609011D01*
X91100019Y-122900893D01*
X90959659Y-122899878D01*
X90854549Y-122895312D01*
X90781714Y-122885312D01*
X90728108Y-122867921D01*
X90680681Y-122841184D01*
X90671864Y-122835276D01*
X90553007Y-122735968D01*
X90484008Y-122627758D01*
X90456619Y-122496019D01*
X90455281Y-122451283D01*
X90480015Y-122283779D01*
G37*
X90480015Y-122283779D02*
X90551968Y-122146939D01*
X90667766Y-122045949D01*
X90742213Y-122010075D01*
X90853992Y-121982161D01*
X90995227Y-121967871D01*
X91149371Y-121966516D01*
X91299879Y-121977405D01*
X91430205Y-121999847D01*
X91523803Y-122033150D01*
X91539922Y-122043385D01*
X91660249Y-122164618D01*
X91732317Y-122308613D01*
X91753408Y-122464861D01*
X91720802Y-122622852D01*
X91701253Y-122666820D01*
X91641012Y-122752444D01*
X91561135Y-122827592D01*
X91551004Y-122834694D01*
X91502181Y-122863561D01*
X91449990Y-122882643D01*
X91381285Y-122893916D01*
X91282918Y-122899355D01*
X91141744Y-122900938D01*
X91110092Y-122900965D01*
X91100019Y-122900893D01*
X91100019Y-122609011D01*
X91233256Y-122607313D01*
X91321674Y-122600628D01*
X91378785Y-122586575D01*
X91418102Y-122562771D01*
X91431241Y-122550621D01*
X91481172Y-122480764D01*
X91478895Y-122412941D01*
X91435584Y-122344365D01*
X91389346Y-122303465D01*
X91321857Y-122279242D01*
X91215433Y-122265639D01*
X91203020Y-122264706D01*
X91010147Y-122262384D01*
X90866900Y-122286650D01*
X90774160Y-122337176D01*
X90732807Y-122413632D01*
X90730552Y-122440924D01*
X90741893Y-122512589D01*
X90781184Y-122561610D01*
X90856326Y-122591582D01*
X90975222Y-122606101D01*
X91100019Y-122609011D01*
X91100019Y-122900893D01*
X90959659Y-122899878D01*
X90854549Y-122895312D01*
X90781714Y-122885312D01*
X90728108Y-122867921D01*
X90680681Y-122841184D01*
X90671864Y-122835276D01*
X90553007Y-122735968D01*
X90484008Y-122627758D01*
X90456619Y-122496019D01*
X90455281Y-122451283D01*
X90480015Y-122283779D01*
G36*
X90498676Y-120016448D02*
G01*
X90576111Y-119901342D01*
X90687949Y-119812389D01*
X90830265Y-119759251D01*
X90935015Y-119748503D01*
X90978726Y-119749724D01*
X91012194Y-119759944D01*
X91042179Y-119788039D01*
X91075440Y-119842884D01*
X91118738Y-119933355D01*
X91178833Y-120068328D01*
X91179134Y-120069011D01*
X91236037Y-120193249D01*
X91286565Y-120295127D01*
X91325280Y-120364233D01*
X91346740Y-120390154D01*
X91346913Y-120390161D01*
X91393644Y-120367315D01*
X91445154Y-120313891D01*
X91482261Y-120252558D01*
X91489632Y-120221485D01*
X91464138Y-120136711D01*
X91400291Y-120063707D01*
X91330094Y-120028087D01*
X91278343Y-119993820D01*
X91219409Y-119926697D01*
X91168496Y-119847792D01*
X91140809Y-119778179D01*
X91139287Y-119763623D01*
X91164321Y-119747237D01*
X91228311Y-119746250D01*
X91314593Y-119758292D01*
X91406501Y-119780993D01*
X91487369Y-119811986D01*
X91490509Y-119813552D01*
X91620734Y-119906819D01*
X91709311Y-120027696D01*
X91752786Y-120164973D01*
X91747706Y-120307440D01*
X91690616Y-120443888D01*
X91686602Y-120449955D01*
X91589326Y-120557290D01*
X91462409Y-120627868D01*
X91295526Y-120666926D01*
X91248639Y-120672168D01*
X91027329Y-120681452D01*
X90924124Y-120670322D01*
X90924124Y-120390161D01*
X90988503Y-120386521D01*
X91007291Y-120366611D01*
X90993235Y-120316974D01*
X90960009Y-120238733D01*
X90918359Y-120151274D01*
X90917256Y-120149101D01*
X90878265Y-120074970D01*
X90852244Y-120045219D01*
X90824965Y-120052555D01*
X90789121Y-120083447D01*
X90737251Y-120162040D01*
X90733439Y-120246677D01*
X90771189Y-120322597D01*
X90844001Y-120375035D01*
X90924124Y-120390161D01*
X90924124Y-120670322D01*
X90850261Y-120662356D01*
X90709829Y-120613366D01*
X90611447Y-120545164D01*
X90512030Y-120422065D01*
X90462711Y-120286472D01*
X90459568Y-120148045D01*
X90498676Y-120016448D01*
G37*
X90498676Y-120016448D02*
X90576111Y-119901342D01*
X90687949Y-119812389D01*
X90830265Y-119759251D01*
X90935015Y-119748503D01*
X90978726Y-119749724D01*
X91012194Y-119759944D01*
X91042179Y-119788039D01*
X91075440Y-119842884D01*
X91118738Y-119933355D01*
X91178833Y-120068328D01*
X91179134Y-120069011D01*
X91236037Y-120193249D01*
X91286565Y-120295127D01*
X91325280Y-120364233D01*
X91346740Y-120390154D01*
X91346913Y-120390161D01*
X91393644Y-120367315D01*
X91445154Y-120313891D01*
X91482261Y-120252558D01*
X91489632Y-120221485D01*
X91464138Y-120136711D01*
X91400291Y-120063707D01*
X91330094Y-120028087D01*
X91278343Y-119993820D01*
X91219409Y-119926697D01*
X91168496Y-119847792D01*
X91140809Y-119778179D01*
X91139287Y-119763623D01*
X91164321Y-119747237D01*
X91228311Y-119746250D01*
X91314593Y-119758292D01*
X91406501Y-119780993D01*
X91487369Y-119811986D01*
X91490509Y-119813552D01*
X91620734Y-119906819D01*
X91709311Y-120027696D01*
X91752786Y-120164973D01*
X91747706Y-120307440D01*
X91690616Y-120443888D01*
X91686602Y-120449955D01*
X91589326Y-120557290D01*
X91462409Y-120627868D01*
X91295526Y-120666926D01*
X91248639Y-120672168D01*
X91027329Y-120681452D01*
X90924124Y-120670322D01*
X90924124Y-120390161D01*
X90988503Y-120386521D01*
X91007291Y-120366611D01*
X90993235Y-120316974D01*
X90960009Y-120238733D01*
X90918359Y-120151274D01*
X90917256Y-120149101D01*
X90878265Y-120074970D01*
X90852244Y-120045219D01*
X90824965Y-120052555D01*
X90789121Y-120083447D01*
X90737251Y-120162040D01*
X90733439Y-120246677D01*
X90771189Y-120322597D01*
X90844001Y-120375035D01*
X90924124Y-120390161D01*
X90924124Y-120670322D01*
X90850261Y-120662356D01*
X90709829Y-120613366D01*
X90611447Y-120545164D01*
X90512030Y-120422065D01*
X90462711Y-120286472D01*
X90459568Y-120148045D01*
X90498676Y-120016448D01*
G36*
X90337857Y-117587402D02*
G01*
X90457188Y-117578846D01*
X90527506Y-117569019D01*
X90558179Y-117555401D01*
X90558571Y-117535473D01*
X90554910Y-117529011D01*
X90528398Y-117443060D01*
X90529946Y-117331255D01*
X90557199Y-117217586D01*
X90592455Y-117146490D01*
X90648778Y-117073595D01*
X90712519Y-117020307D01*
X90793510Y-116983725D01*
X90901586Y-116960950D01*
X91046580Y-116949081D01*
X91238326Y-116945218D01*
X91275109Y-116945149D01*
X91688288Y-116945103D01*
X91720339Y-117037046D01*
X91742144Y-117102348D01*
X91752297Y-117138176D01*
X91752391Y-117139230D01*
X91724860Y-117142758D01*
X91648923Y-117145761D01*
X91534565Y-117148010D01*
X91391769Y-117149276D01*
X91304951Y-117149471D01*
X91133773Y-117149877D01*
X91011088Y-117151968D01*
X90927000Y-117157053D01*
X90871614Y-117166440D01*
X90835032Y-117181439D01*
X90807359Y-117203358D01*
X90794032Y-117217043D01*
X90740328Y-117311051D01*
X90736307Y-117413636D01*
X90781725Y-117506710D01*
X90798123Y-117523922D01*
X90828957Y-117549168D01*
X90865531Y-117566680D01*
X90918415Y-117577858D01*
X90998177Y-117584104D01*
X91115385Y-117586818D01*
X91276991Y-117587402D01*
X91688288Y-117587402D01*
X91720339Y-117679345D01*
X91742144Y-117744647D01*
X91752297Y-117780475D01*
X91752391Y-117781529D01*
X91724448Y-117784225D01*
X91645630Y-117786655D01*
X91523453Y-117788722D01*
X91365432Y-117790329D01*
X91179083Y-117791377D01*
X90971920Y-117791769D01*
X90962706Y-117791770D01*
X90173020Y-117791770D01*
X90132997Y-117696885D01*
X90092973Y-117602000D01*
X90337857Y-117587402D01*
G37*
X90337857Y-117587402D02*
X90457188Y-117578846D01*
X90527506Y-117569019D01*
X90558179Y-117555401D01*
X90558571Y-117535473D01*
X90554910Y-117529011D01*
X90528398Y-117443060D01*
X90529946Y-117331255D01*
X90557199Y-117217586D01*
X90592455Y-117146490D01*
X90648778Y-117073595D01*
X90712519Y-117020307D01*
X90793510Y-116983725D01*
X90901586Y-116960950D01*
X91046580Y-116949081D01*
X91238326Y-116945218D01*
X91275109Y-116945149D01*
X91688288Y-116945103D01*
X91720339Y-117037046D01*
X91742144Y-117102348D01*
X91752297Y-117138176D01*
X91752391Y-117139230D01*
X91724860Y-117142758D01*
X91648923Y-117145761D01*
X91534565Y-117148010D01*
X91391769Y-117149276D01*
X91304951Y-117149471D01*
X91133773Y-117149877D01*
X91011088Y-117151968D01*
X90927000Y-117157053D01*
X90871614Y-117166440D01*
X90835032Y-117181439D01*
X90807359Y-117203358D01*
X90794032Y-117217043D01*
X90740328Y-117311051D01*
X90736307Y-117413636D01*
X90781725Y-117506710D01*
X90798123Y-117523922D01*
X90828957Y-117549168D01*
X90865531Y-117566680D01*
X90918415Y-117577858D01*
X90998177Y-117584104D01*
X91115385Y-117586818D01*
X91276991Y-117587402D01*
X91688288Y-117587402D01*
X91720339Y-117679345D01*
X91742144Y-117744647D01*
X91752297Y-117780475D01*
X91752391Y-117781529D01*
X91724448Y-117784225D01*
X91645630Y-117786655D01*
X91523453Y-117788722D01*
X91365432Y-117790329D01*
X91179083Y-117791377D01*
X90971920Y-117791769D01*
X90962706Y-117791770D01*
X90173020Y-117791770D01*
X90132997Y-117696885D01*
X90092973Y-117602000D01*
X90337857Y-117587402D01*
G36*
X90538360Y-116252056D02*
G01*
X90580842Y-116137657D01*
X90581658Y-116136348D01*
X90633730Y-116065597D01*
X90694584Y-116013364D01*
X90773887Y-115976629D01*
X90881309Y-115952366D01*
X91026517Y-115937555D01*
X91219179Y-115929171D01*
X91246628Y-115928436D01*
X91660521Y-115917880D01*
X91706456Y-116006709D01*
X91737498Y-116070982D01*
X91752206Y-116109790D01*
X91752391Y-116111585D01*
X91725250Y-116118300D01*
X91652041Y-116123635D01*
X91545081Y-116126917D01*
X91458469Y-116127632D01*
X91318162Y-116127649D01*
X91230051Y-116134063D01*
X91188025Y-116156420D01*
X91185975Y-116204268D01*
X91217790Y-116287151D01*
X91276272Y-116412287D01*
X91324845Y-116504303D01*
X91366986Y-116551629D01*
X91412916Y-116565542D01*
X91415189Y-116565563D01*
X91494311Y-116542605D01*
X91537055Y-116474630D01*
X91543246Y-116370602D01*
X91542172Y-116295670D01*
X91563753Y-116256161D01*
X91615591Y-116231522D01*
X91681632Y-116217341D01*
X91719104Y-116237777D01*
X91724467Y-116245472D01*
X91746006Y-116317917D01*
X91749055Y-116419367D01*
X91734778Y-116523843D01*
X91708688Y-116597875D01*
X91621785Y-116700228D01*
X91500816Y-116758409D01*
X91406308Y-116769931D01*
X91321062Y-116761138D01*
X91251476Y-116729320D01*
X91189672Y-116666316D01*
X91127772Y-116563969D01*
X91057897Y-116414118D01*
X91053948Y-116404988D01*
X90991588Y-116270003D01*
X90940446Y-116186706D01*
X90894488Y-116151003D01*
X90847683Y-116158797D01*
X90793998Y-116205993D01*
X90781644Y-116220106D01*
X90733741Y-116314641D01*
X90735758Y-116412594D01*
X90782724Y-116497903D01*
X90869669Y-116554504D01*
X90886734Y-116559763D01*
X90969504Y-116610977D01*
X91009372Y-116675963D01*
X91048882Y-116769931D01*
X90946658Y-116769931D01*
X90798072Y-116741347D01*
X90661784Y-116656505D01*
X90616191Y-116612355D01*
X90557674Y-116511995D01*
X90531184Y-116384365D01*
X90538360Y-116252056D01*
G37*
X90538360Y-116252056D02*
X90580842Y-116137657D01*
X90581658Y-116136348D01*
X90633730Y-116065597D01*
X90694584Y-116013364D01*
X90773887Y-115976629D01*
X90881309Y-115952366D01*
X91026517Y-115937555D01*
X91219179Y-115929171D01*
X91246628Y-115928436D01*
X91660521Y-115917880D01*
X91706456Y-116006709D01*
X91737498Y-116070982D01*
X91752206Y-116109790D01*
X91752391Y-116111585D01*
X91725250Y-116118300D01*
X91652041Y-116123635D01*
X91545081Y-116126917D01*
X91458469Y-116127632D01*
X91318162Y-116127649D01*
X91230051Y-116134063D01*
X91188025Y-116156420D01*
X91185975Y-116204268D01*
X91217790Y-116287151D01*
X91276272Y-116412287D01*
X91324845Y-116504303D01*
X91366986Y-116551629D01*
X91412916Y-116565542D01*
X91415189Y-116565563D01*
X91494311Y-116542605D01*
X91537055Y-116474630D01*
X91543246Y-116370602D01*
X91542172Y-116295670D01*
X91563753Y-116256161D01*
X91615591Y-116231522D01*
X91681632Y-116217341D01*
X91719104Y-116237777D01*
X91724467Y-116245472D01*
X91746006Y-116317917D01*
X91749055Y-116419367D01*
X91734778Y-116523843D01*
X91708688Y-116597875D01*
X91621785Y-116700228D01*
X91500816Y-116758409D01*
X91406308Y-116769931D01*
X91321062Y-116761138D01*
X91251476Y-116729320D01*
X91189672Y-116666316D01*
X91127772Y-116563969D01*
X91057897Y-116414118D01*
X91053948Y-116404988D01*
X90991588Y-116270003D01*
X90940446Y-116186706D01*
X90894488Y-116151003D01*
X90847683Y-116158797D01*
X90793998Y-116205993D01*
X90781644Y-116220106D01*
X90733741Y-116314641D01*
X90735758Y-116412594D01*
X90782724Y-116497903D01*
X90869669Y-116554504D01*
X90886734Y-116559763D01*
X90969504Y-116610977D01*
X91009372Y-116675963D01*
X91048882Y-116769931D01*
X90946658Y-116769931D01*
X90798072Y-116741347D01*
X90661784Y-116656505D01*
X90616191Y-116612355D01*
X90557674Y-116511995D01*
X90531184Y-116384365D01*
X90538360Y-116252056D01*
G36*
X90535920Y-115266057D02*
G01*
X90584859Y-115133435D01*
X90671419Y-115025990D01*
X90732352Y-114983968D01*
X90844161Y-114938157D01*
X90925006Y-114939109D01*
X90979378Y-114987192D01*
X90988624Y-115004983D01*
X91017450Y-115081796D01*
X91010065Y-115121024D01*
X90961658Y-115134311D01*
X90934920Y-115134988D01*
X90836548Y-115159314D01*
X90767734Y-115222719D01*
X90734498Y-115310846D01*
X90742861Y-115409337D01*
X90786296Y-115489398D01*
X90811072Y-115516439D01*
X90841129Y-115535606D01*
X90886565Y-115548554D01*
X90957476Y-115556936D01*
X91063960Y-115562407D01*
X91216112Y-115566622D01*
X91264287Y-115567713D01*
X91429095Y-115571693D01*
X91545088Y-115576219D01*
X91621833Y-115583005D01*
X91668893Y-115593769D01*
X91695835Y-115610227D01*
X91712223Y-115634094D01*
X91719463Y-115649374D01*
X91744220Y-115714267D01*
X91752391Y-115752466D01*
X91725103Y-115765088D01*
X91642603Y-115772792D01*
X91503941Y-115775620D01*
X91308162Y-115773614D01*
X91277965Y-115772989D01*
X91099349Y-115768579D01*
X90968923Y-115763365D01*
X90876492Y-115755945D01*
X90811858Y-115744918D01*
X90764825Y-115728883D01*
X90725196Y-115706439D01*
X90708215Y-115694698D01*
X90633080Y-115627381D01*
X90574638Y-115552090D01*
X90569536Y-115542872D01*
X90529260Y-115407867D01*
X90535920Y-115266057D01*
G37*
X90535920Y-115266057D02*
X90584859Y-115133435D01*
X90671419Y-115025990D01*
X90732352Y-114983968D01*
X90844161Y-114938157D01*
X90925006Y-114939109D01*
X90979378Y-114987192D01*
X90988624Y-115004983D01*
X91017450Y-115081796D01*
X91010065Y-115121024D01*
X90961658Y-115134311D01*
X90934920Y-115134988D01*
X90836548Y-115159314D01*
X90767734Y-115222719D01*
X90734498Y-115310846D01*
X90742861Y-115409337D01*
X90786296Y-115489398D01*
X90811072Y-115516439D01*
X90841129Y-115535606D01*
X90886565Y-115548554D01*
X90957476Y-115556936D01*
X91063960Y-115562407D01*
X91216112Y-115566622D01*
X91264287Y-115567713D01*
X91429095Y-115571693D01*
X91545088Y-115576219D01*
X91621833Y-115583005D01*
X91668893Y-115593769D01*
X91695835Y-115610227D01*
X91712223Y-115634094D01*
X91719463Y-115649374D01*
X91744220Y-115714267D01*
X91752391Y-115752466D01*
X91725103Y-115765088D01*
X91642603Y-115772792D01*
X91503941Y-115775620D01*
X91308162Y-115773614D01*
X91277965Y-115772989D01*
X91099349Y-115768579D01*
X90968923Y-115763365D01*
X90876492Y-115755945D01*
X90811858Y-115744918D01*
X90764825Y-115728883D01*
X90725196Y-115706439D01*
X90708215Y-115694698D01*
X90633080Y-115627381D01*
X90574638Y-115552090D01*
X90569536Y-115542872D01*
X90529260Y-115407867D01*
X90535920Y-115266057D01*
G36*
X90768455Y-113938086D02*
G01*
X90986661Y-113938457D01*
X91154519Y-113939892D01*
X91280070Y-113942998D01*
X91371355Y-113948378D01*
X91436415Y-113956638D01*
X91483291Y-113968384D01*
X91520024Y-113984219D01*
X91540991Y-113996210D01*
X91654694Y-114095510D01*
X91725965Y-114221412D01*
X91751538Y-114360709D01*
X91728150Y-114500195D01*
X91686119Y-114583257D01*
X91613411Y-114670455D01*
X91524612Y-114729883D01*
X91408320Y-114765739D01*
X91253135Y-114782219D01*
X91139287Y-114784553D01*
X91131106Y-114784239D01*
X91131106Y-114580276D01*
X91261657Y-114579030D01*
X91348080Y-114573322D01*
X91404618Y-114560196D01*
X91445514Y-114536694D01*
X91476362Y-114508614D01*
X91535905Y-114414312D01*
X91540992Y-114313060D01*
X91491279Y-114217364D01*
X91484543Y-114209916D01*
X91449502Y-114178126D01*
X91407811Y-114158192D01*
X91345762Y-114147400D01*
X91249644Y-114143035D01*
X91143379Y-114142345D01*
X91009880Y-114143841D01*
X90920822Y-114150036D01*
X90862293Y-114163486D01*
X90820382Y-114186749D01*
X90798123Y-114205825D01*
X90741985Y-114294437D01*
X90735235Y-114396492D01*
X90778114Y-114493905D01*
X90794032Y-114512704D01*
X90829382Y-114544707D01*
X90871502Y-114564682D01*
X90934251Y-114575407D01*
X91031487Y-114579661D01*
X91131106Y-114580276D01*
X91131106Y-114784239D01*
X90955947Y-114777496D01*
X90818195Y-114753528D01*
X90714632Y-114708452D01*
X90633856Y-114638072D01*
X90592455Y-114583257D01*
X90547728Y-114483624D01*
X90526967Y-114368145D01*
X90532525Y-114260801D01*
X90554943Y-114200736D01*
X90561323Y-114177165D01*
X90537535Y-114161523D01*
X90473788Y-114150605D01*
X90376687Y-114142345D01*
X90268541Y-114133301D01*
X90203475Y-114120739D01*
X90166268Y-114097881D01*
X90141699Y-114057949D01*
X90130819Y-114032862D01*
X90091072Y-113937977D01*
X90768455Y-113938086D01*
G37*
X90768455Y-113938086D02*
X90986661Y-113938457D01*
X91154519Y-113939892D01*
X91280070Y-113942998D01*
X91371355Y-113948378D01*
X91436415Y-113956638D01*
X91483291Y-113968384D01*
X91520024Y-113984219D01*
X91540991Y-113996210D01*
X91654694Y-114095510D01*
X91725965Y-114221412D01*
X91751538Y-114360709D01*
X91728150Y-114500195D01*
X91686119Y-114583257D01*
X91613411Y-114670455D01*
X91524612Y-114729883D01*
X91408320Y-114765739D01*
X91253135Y-114782219D01*
X91139287Y-114784553D01*
X91131106Y-114784239D01*
X91131106Y-114580276D01*
X91261657Y-114579030D01*
X91348080Y-114573322D01*
X91404618Y-114560196D01*
X91445514Y-114536694D01*
X91476362Y-114508614D01*
X91535905Y-114414312D01*
X91540992Y-114313060D01*
X91491279Y-114217364D01*
X91484543Y-114209916D01*
X91449502Y-114178126D01*
X91407811Y-114158192D01*
X91345762Y-114147400D01*
X91249644Y-114143035D01*
X91143379Y-114142345D01*
X91009880Y-114143841D01*
X90920822Y-114150036D01*
X90862293Y-114163486D01*
X90820382Y-114186749D01*
X90798123Y-114205825D01*
X90741985Y-114294437D01*
X90735235Y-114396492D01*
X90778114Y-114493905D01*
X90794032Y-114512704D01*
X90829382Y-114544707D01*
X90871502Y-114564682D01*
X90934251Y-114575407D01*
X91031487Y-114579661D01*
X91131106Y-114580276D01*
X91131106Y-114784239D01*
X90955947Y-114777496D01*
X90818195Y-114753528D01*
X90714632Y-114708452D01*
X90633856Y-114638072D01*
X90592455Y-114583257D01*
X90547728Y-114483624D01*
X90526967Y-114368145D01*
X90532525Y-114260801D01*
X90554943Y-114200736D01*
X90561323Y-114177165D01*
X90537535Y-114161523D01*
X90473788Y-114150605D01*
X90376687Y-114142345D01*
X90268541Y-114133301D01*
X90203475Y-114120739D01*
X90166268Y-114097881D01*
X90141699Y-114057949D01*
X90130819Y-114032862D01*
X90091072Y-113937977D01*
X90768455Y-113938086D01*
G36*
X90553840Y-112751876D02*
G01*
X90630653Y-112747421D01*
X90747391Y-112743929D01*
X90894821Y-112741685D01*
X91049455Y-112740965D01*
X91572727Y-112740965D01*
X91665117Y-112833355D01*
X91722047Y-112897022D01*
X91745107Y-112952911D01*
X91743647Y-113029298D01*
X91739934Y-113059620D01*
X91729126Y-113154390D01*
X91722933Y-113232778D01*
X91722361Y-113251885D01*
X91726102Y-113316301D01*
X91735494Y-113408429D01*
X91739934Y-113444150D01*
X91746801Y-113531886D01*
X91731885Y-113590847D01*
X91685835Y-113649310D01*
X91665117Y-113670415D01*
X91572727Y-113762805D01*
X90593947Y-113762805D01*
X90560066Y-113688442D01*
X90534970Y-113624410D01*
X90526184Y-113586948D01*
X90553950Y-113577343D01*
X90631530Y-113568365D01*
X90750348Y-113560614D01*
X90901828Y-113554686D01*
X91029805Y-113551827D01*
X91533425Y-113543839D01*
X91543278Y-113474152D01*
X91536389Y-113410771D01*
X91514083Y-113379714D01*
X91472379Y-113371033D01*
X91383544Y-113363622D01*
X91258834Y-113358069D01*
X91109507Y-113354964D01*
X91032661Y-113354516D01*
X90590287Y-113354069D01*
X90558235Y-113262126D01*
X90536443Y-113197051D01*
X90526281Y-113161653D01*
X90526184Y-113160632D01*
X90553809Y-113157080D01*
X90630411Y-113153177D01*
X90746579Y-113149249D01*
X90892904Y-113145624D01*
X91029805Y-113143092D01*
X91533425Y-113135103D01*
X91533425Y-112959931D01*
X91073965Y-112951893D01*
X90614505Y-112943854D01*
X90570344Y-112858457D01*
X90540019Y-112795407D01*
X90526258Y-112758090D01*
X90526184Y-112757013D01*
X90553840Y-112751876D01*
G37*
X90553840Y-112751876D02*
X90630653Y-112747421D01*
X90747391Y-112743929D01*
X90894821Y-112741685D01*
X91049455Y-112740965D01*
X91572727Y-112740965D01*
X91665117Y-112833355D01*
X91722047Y-112897022D01*
X91745107Y-112952911D01*
X91743647Y-113029298D01*
X91739934Y-113059620D01*
X91729126Y-113154390D01*
X91722933Y-113232778D01*
X91722361Y-113251885D01*
X91726102Y-113316301D01*
X91735494Y-113408429D01*
X91739934Y-113444150D01*
X91746801Y-113531886D01*
X91731885Y-113590847D01*
X91685835Y-113649310D01*
X91665117Y-113670415D01*
X91572727Y-113762805D01*
X90593947Y-113762805D01*
X90560066Y-113688442D01*
X90534970Y-113624410D01*
X90526184Y-113586948D01*
X90553950Y-113577343D01*
X90631530Y-113568365D01*
X90750348Y-113560614D01*
X90901828Y-113554686D01*
X91029805Y-113551827D01*
X91533425Y-113543839D01*
X91543278Y-113474152D01*
X91536389Y-113410771D01*
X91514083Y-113379714D01*
X91472379Y-113371033D01*
X91383544Y-113363622D01*
X91258834Y-113358069D01*
X91109507Y-113354964D01*
X91032661Y-113354516D01*
X90590287Y-113354069D01*
X90558235Y-113262126D01*
X90536443Y-113197051D01*
X90526281Y-113161653D01*
X90526184Y-113160632D01*
X90553809Y-113157080D01*
X90630411Y-113153177D01*
X90746579Y-113149249D01*
X90892904Y-113145624D01*
X91029805Y-113143092D01*
X91533425Y-113135103D01*
X91533425Y-112959931D01*
X91073965Y-112951893D01*
X90614505Y-112943854D01*
X90570344Y-112858457D01*
X90540019Y-112795407D01*
X90526258Y-112758090D01*
X90526184Y-112757013D01*
X90553840Y-112751876D01*
G36*
X90549156Y-112017594D02*
G01*
X90587393Y-111933531D01*
X90633726Y-111867550D01*
X90685532Y-111819206D01*
X90752363Y-111785828D01*
X90843769Y-111764747D01*
X90969301Y-111753293D01*
X91138508Y-111748797D01*
X91249933Y-111748322D01*
X91684627Y-111748322D01*
X91718509Y-111822684D01*
X91743272Y-111881254D01*
X91752391Y-111910270D01*
X91725257Y-111915821D01*
X91652094Y-111920225D01*
X91545263Y-111922922D01*
X91460437Y-111923494D01*
X91337887Y-111925954D01*
X91240668Y-111932588D01*
X91181134Y-111942274D01*
X91168483Y-111949968D01*
X91181402Y-112001689D01*
X91214539Y-112082883D01*
X91259461Y-112176898D01*
X91307735Y-112267083D01*
X91350928Y-112336785D01*
X91380608Y-112369352D01*
X91380929Y-112369481D01*
X91435857Y-112366680D01*
X91488292Y-112341561D01*
X91530881Y-112297459D01*
X91545126Y-112233091D01*
X91543466Y-112178079D01*
X91542245Y-112100165D01*
X91560498Y-112059268D01*
X91608726Y-112034705D01*
X91617820Y-112031608D01*
X91686598Y-112020960D01*
X91728360Y-112049435D01*
X91748263Y-112123656D01*
X91751944Y-112203832D01*
X91724658Y-112348110D01*
X91685690Y-112422797D01*
X91594148Y-112515037D01*
X91481782Y-112563957D01*
X91363051Y-112568346D01*
X91252411Y-112526999D01*
X91183080Y-112464803D01*
X91144265Y-112402706D01*
X91095125Y-112305105D01*
X91045292Y-112191368D01*
X91037677Y-112172410D01*
X90982545Y-112047479D01*
X90933954Y-111975461D01*
X90885647Y-111952300D01*
X90831370Y-111973936D01*
X90788943Y-112011080D01*
X90736702Y-112098873D01*
X90732784Y-112195470D01*
X90773041Y-112284056D01*
X90853326Y-112347814D01*
X90874040Y-112356183D01*
X90950225Y-112404904D01*
X91006785Y-112476035D01*
X91053201Y-112565793D01*
X90921584Y-112565793D01*
X90841168Y-112560510D01*
X90777786Y-112537858D01*
X90710163Y-112487633D01*
X90658076Y-112439418D01*
X90584322Y-112364446D01*
X90544702Y-112306194D01*
X90528810Y-112243628D01*
X90526184Y-112172807D01*
X90549156Y-112017594D01*
G37*
X90549156Y-112017594D02*
X90587393Y-111933531D01*
X90633726Y-111867550D01*
X90685532Y-111819206D01*
X90752363Y-111785828D01*
X90843769Y-111764747D01*
X90969301Y-111753293D01*
X91138508Y-111748797D01*
X91249933Y-111748322D01*
X91684627Y-111748322D01*
X91718509Y-111822684D01*
X91743272Y-111881254D01*
X91752391Y-111910270D01*
X91725257Y-111915821D01*
X91652094Y-111920225D01*
X91545263Y-111922922D01*
X91460437Y-111923494D01*
X91337887Y-111925954D01*
X91240668Y-111932588D01*
X91181134Y-111942274D01*
X91168483Y-111949968D01*
X91181402Y-112001689D01*
X91214539Y-112082883D01*
X91259461Y-112176898D01*
X91307735Y-112267083D01*
X91350928Y-112336785D01*
X91380608Y-112369352D01*
X91380929Y-112369481D01*
X91435857Y-112366680D01*
X91488292Y-112341561D01*
X91530881Y-112297459D01*
X91545126Y-112233091D01*
X91543466Y-112178079D01*
X91542245Y-112100165D01*
X91560498Y-112059268D01*
X91608726Y-112034705D01*
X91617820Y-112031608D01*
X91686598Y-112020960D01*
X91728360Y-112049435D01*
X91748263Y-112123656D01*
X91751944Y-112203832D01*
X91724658Y-112348110D01*
X91685690Y-112422797D01*
X91594148Y-112515037D01*
X91481782Y-112563957D01*
X91363051Y-112568346D01*
X91252411Y-112526999D01*
X91183080Y-112464803D01*
X91144265Y-112402706D01*
X91095125Y-112305105D01*
X91045292Y-112191368D01*
X91037677Y-112172410D01*
X90982545Y-112047479D01*
X90933954Y-111975461D01*
X90885647Y-111952300D01*
X90831370Y-111973936D01*
X90788943Y-112011080D01*
X90736702Y-112098873D01*
X90732784Y-112195470D01*
X90773041Y-112284056D01*
X90853326Y-112347814D01*
X90874040Y-112356183D01*
X90950225Y-112404904D01*
X91006785Y-112476035D01*
X91053201Y-112565793D01*
X90921584Y-112565793D01*
X90841168Y-112560510D01*
X90777786Y-112537858D01*
X90710163Y-112487633D01*
X90658076Y-112439418D01*
X90584322Y-112364446D01*
X90544702Y-112306194D01*
X90528810Y-112243628D01*
X90526184Y-112172807D01*
X90549156Y-112017594D01*
G36*
X90554018Y-110996310D02*
G01*
X90569269Y-110961415D01*
X90635235Y-110878123D01*
X90730618Y-110806897D01*
X90832406Y-110762847D01*
X90882587Y-110755678D01*
X90952647Y-110779715D01*
X90989717Y-110832439D01*
X91012164Y-110888969D01*
X91016300Y-110914854D01*
X90986283Y-110927458D01*
X90920961Y-110952346D01*
X90891445Y-110963265D01*
X90789348Y-111024492D01*
X90738423Y-111113139D01*
X90739989Y-111226807D01*
X90741994Y-111235226D01*
X90770767Y-111295912D01*
X90826859Y-111340526D01*
X90917163Y-111370998D01*
X91048571Y-111389256D01*
X91227974Y-111397229D01*
X91323433Y-111397977D01*
X91473913Y-111398348D01*
X91576495Y-111400777D01*
X91641672Y-111407240D01*
X91679938Y-111419712D01*
X91701785Y-111440167D01*
X91717707Y-111470581D01*
X91718509Y-111472339D01*
X91743272Y-111530909D01*
X91752391Y-111559925D01*
X91724822Y-111564384D01*
X91648620Y-111568201D01*
X91533541Y-111571101D01*
X91389341Y-111572809D01*
X91283814Y-111573149D01*
X91079613Y-111571412D01*
X90924697Y-111564618D01*
X90810024Y-111550393D01*
X90726551Y-111526362D01*
X90665236Y-111490152D01*
X90617034Y-111439388D01*
X90583393Y-111389261D01*
X90538619Y-111268725D01*
X90528521Y-111128443D01*
X90554018Y-110996310D01*
G37*
X90554018Y-110996310D02*
X90569269Y-110961415D01*
X90635235Y-110878123D01*
X90730618Y-110806897D01*
X90832406Y-110762847D01*
X90882587Y-110755678D01*
X90952647Y-110779715D01*
X90989717Y-110832439D01*
X91012164Y-110888969D01*
X91016300Y-110914854D01*
X90986283Y-110927458D01*
X90920961Y-110952346D01*
X90891445Y-110963265D01*
X90789348Y-111024492D01*
X90738423Y-111113139D01*
X90739989Y-111226807D01*
X90741994Y-111235226D01*
X90770767Y-111295912D01*
X90826859Y-111340526D01*
X90917163Y-111370998D01*
X91048571Y-111389256D01*
X91227974Y-111397229D01*
X91323433Y-111397977D01*
X91473913Y-111398348D01*
X91576495Y-111400777D01*
X91641672Y-111407240D01*
X91679938Y-111419712D01*
X91701785Y-111440167D01*
X91717707Y-111470581D01*
X91718509Y-111472339D01*
X91743272Y-111530909D01*
X91752391Y-111559925D01*
X91724822Y-111564384D01*
X91648620Y-111568201D01*
X91533541Y-111571101D01*
X91389341Y-111572809D01*
X91283814Y-111573149D01*
X91079613Y-111571412D01*
X90924697Y-111564618D01*
X90810024Y-111550393D01*
X90726551Y-111526362D01*
X90665236Y-111490152D01*
X90617034Y-111439388D01*
X90583393Y-111389261D01*
X90538619Y-111268725D01*
X90528521Y-111128443D01*
X90554018Y-110996310D01*
G36*
X90570540Y-109988561D02*
G01*
X90646034Y-109873050D01*
X90713617Y-109817336D01*
X90836255Y-109773196D01*
X90933298Y-109769691D01*
X91063056Y-109777632D01*
X91194039Y-110076885D01*
X91260958Y-110222389D01*
X91314790Y-110317463D01*
X91361416Y-110366899D01*
X91406720Y-110375489D01*
X91456582Y-110348028D01*
X91489632Y-110317747D01*
X91542633Y-110229637D01*
X91546347Y-110133804D01*
X91505041Y-110045788D01*
X91422983Y-109981131D01*
X91394008Y-109969567D01*
X91303509Y-109914175D01*
X91264940Y-109850447D01*
X91231946Y-109763034D01*
X91357034Y-109763034D01*
X91442156Y-109770762D01*
X91513938Y-109801034D01*
X91596356Y-109864482D01*
X91607066Y-109873912D01*
X91680391Y-109944487D01*
X91719742Y-110005153D01*
X91737845Y-110081050D01*
X91743774Y-110143970D01*
X91745251Y-110256513D01*
X91726535Y-110336630D01*
X91698747Y-110386610D01*
X91637641Y-110465162D01*
X91571554Y-110519537D01*
X91488441Y-110553948D01*
X91376254Y-110572612D01*
X91222946Y-110579744D01*
X91145136Y-110580313D01*
X91051853Y-110578378D01*
X91051853Y-110402101D01*
X91101896Y-110400056D01*
X91110092Y-110394961D01*
X91098958Y-110361334D01*
X91069493Y-110288970D01*
X91027601Y-110192253D01*
X91018597Y-110172027D01*
X90956442Y-110049797D01*
X90901815Y-109982453D01*
X90850649Y-109967652D01*
X90798876Y-110003053D01*
X90776000Y-110032289D01*
X90730250Y-110137784D01*
X90737808Y-110236524D01*
X90793651Y-110319188D01*
X90892753Y-110376452D01*
X90971414Y-110394812D01*
X91051853Y-110402101D01*
X91051853Y-110578378D01*
X90963351Y-110576541D01*
X90828853Y-110562641D01*
X90730916Y-110535106D01*
X90658811Y-110490428D01*
X90601813Y-110425099D01*
X90583393Y-110396617D01*
X90535422Y-110267237D01*
X90532403Y-110125588D01*
X90570540Y-109988561D01*
G37*
X90570540Y-109988561D02*
X90646034Y-109873050D01*
X90713617Y-109817336D01*
X90836255Y-109773196D01*
X90933298Y-109769691D01*
X91063056Y-109777632D01*
X91194039Y-110076885D01*
X91260958Y-110222389D01*
X91314790Y-110317463D01*
X91361416Y-110366899D01*
X91406720Y-110375489D01*
X91456582Y-110348028D01*
X91489632Y-110317747D01*
X91542633Y-110229637D01*
X91546347Y-110133804D01*
X91505041Y-110045788D01*
X91422983Y-109981131D01*
X91394008Y-109969567D01*
X91303509Y-109914175D01*
X91264940Y-109850447D01*
X91231946Y-109763034D01*
X91357034Y-109763034D01*
X91442156Y-109770762D01*
X91513938Y-109801034D01*
X91596356Y-109864482D01*
X91607066Y-109873912D01*
X91680391Y-109944487D01*
X91719742Y-110005153D01*
X91737845Y-110081050D01*
X91743774Y-110143970D01*
X91745251Y-110256513D01*
X91726535Y-110336630D01*
X91698747Y-110386610D01*
X91637641Y-110465162D01*
X91571554Y-110519537D01*
X91488441Y-110553948D01*
X91376254Y-110572612D01*
X91222946Y-110579744D01*
X91145136Y-110580313D01*
X91051853Y-110578378D01*
X91051853Y-110402101D01*
X91101896Y-110400056D01*
X91110092Y-110394961D01*
X91098958Y-110361334D01*
X91069493Y-110288970D01*
X91027601Y-110192253D01*
X91018597Y-110172027D01*
X90956442Y-110049797D01*
X90901815Y-109982453D01*
X90850649Y-109967652D01*
X90798876Y-110003053D01*
X90776000Y-110032289D01*
X90730250Y-110137784D01*
X90737808Y-110236524D01*
X90793651Y-110319188D01*
X90892753Y-110376452D01*
X90971414Y-110394812D01*
X91051853Y-110402101D01*
X91051853Y-110578378D01*
X90963351Y-110576541D01*
X90828853Y-110562641D01*
X90730916Y-110535106D01*
X90658811Y-110490428D01*
X90601813Y-110425099D01*
X90583393Y-110396617D01*
X90535422Y-110267237D01*
X90532403Y-110125588D01*
X90570540Y-109988561D01*
G36*
X81066998Y-116122986D02*
G01*
X81067863Y-115964994D01*
X81070205Y-115850653D01*
X81074762Y-115772593D01*
X81082270Y-115723446D01*
X81093466Y-115695841D01*
X81109088Y-115682408D01*
X81129873Y-115675779D01*
X81132563Y-115675135D01*
X81181113Y-115665065D01*
X81276905Y-115646425D01*
X81409743Y-115621155D01*
X81569431Y-115591193D01*
X81745774Y-115558478D01*
X81751967Y-115557336D01*
X81924782Y-115524567D01*
X82077469Y-115493907D01*
X82200871Y-115467336D01*
X82285831Y-115446833D01*
X82323190Y-115434374D01*
X82323852Y-115433780D01*
X82342095Y-115397081D01*
X82372497Y-115321414D01*
X82408493Y-115223122D01*
X82408685Y-115222575D01*
X82455222Y-115098767D01*
X82514504Y-114952804D01*
X82574109Y-114815219D01*
X82577056Y-114808707D01*
X82678765Y-114584610D01*
X82339897Y-114088381D01*
X82236592Y-113936154D01*
X82144237Y-113798259D01*
X82068084Y-113682685D01*
X82013385Y-113597421D01*
X81985393Y-113550456D01*
X81983317Y-113545996D01*
X81992560Y-113511866D01*
X82037156Y-113448119D01*
X82119209Y-113352269D01*
X82240821Y-113221831D01*
X82370205Y-113088672D01*
X82497702Y-112960306D01*
X82614046Y-112845419D01*
X82712052Y-112750927D01*
X82784536Y-112683747D01*
X82824313Y-112650794D01*
X82826361Y-112649568D01*
X82853656Y-112645926D01*
X82898234Y-112659650D01*
X82966112Y-112694131D01*
X83063311Y-112752761D01*
X83195851Y-112838930D01*
X83366476Y-112953800D01*
X83516655Y-113055746D01*
X83651350Y-113146877D01*
X83762740Y-113221927D01*
X83843005Y-113275631D01*
X83884325Y-113302720D01*
X83887130Y-113304426D01*
X83926721Y-113301118D01*
X84003669Y-113276047D01*
X84103432Y-113234202D01*
X84135291Y-113219288D01*
X84277226Y-113154214D01*
X84438273Y-113084788D01*
X84577621Y-113028391D01*
X84681044Y-112987753D01*
X84759642Y-112955474D01*
X84800720Y-112936822D01*
X84803885Y-112934503D01*
X84809128Y-112900197D01*
X84823494Y-112819331D01*
X84844937Y-112702657D01*
X84871413Y-112560925D01*
X84900877Y-112404890D01*
X84931283Y-112245302D01*
X84960588Y-112092915D01*
X84986745Y-111958479D01*
X85007710Y-111852748D01*
X85021439Y-111786474D01*
X85025320Y-111770218D01*
X85034900Y-111753427D01*
X85056536Y-111740751D01*
X85097531Y-111731622D01*
X85165189Y-111725469D01*
X85266812Y-111721720D01*
X85409703Y-111719808D01*
X85601165Y-111719160D01*
X85679645Y-111719126D01*
X86317906Y-111719126D01*
X86348160Y-111872402D01*
X86364564Y-111957678D01*
X86388509Y-112084930D01*
X86417107Y-112238685D01*
X86447467Y-112403466D01*
X86455806Y-112449011D01*
X86485370Y-112601068D01*
X86514442Y-112733532D01*
X86540329Y-112835286D01*
X86560337Y-112895212D01*
X86566301Y-112905195D01*
X86608534Y-112929707D01*
X86690370Y-112964852D01*
X86795683Y-113003827D01*
X86818368Y-113011558D01*
X86959018Y-113062640D01*
X87117714Y-113126046D01*
X87260225Y-113188096D01*
X87260886Y-113188402D01*
X87484440Y-113291733D01*
X88484232Y-112612039D01*
X88921300Y-113048379D01*
X89051381Y-113180351D01*
X89166048Y-113300721D01*
X89259181Y-113402727D01*
X89324658Y-113479609D01*
X89356357Y-113524607D01*
X89358368Y-113531062D01*
X89342529Y-113568960D01*
X89298496Y-113646292D01*
X89231490Y-113754611D01*
X89146734Y-113885468D01*
X89051816Y-114026948D01*
X88954998Y-114170539D01*
X88870751Y-114298565D01*
X88804258Y-114402895D01*
X88760702Y-114475400D01*
X88745264Y-114507842D01*
X88758328Y-114547424D01*
X88792750Y-114622481D01*
X88841380Y-114717532D01*
X88846785Y-114727608D01*
X88910980Y-114855609D01*
X88942463Y-114943382D01*
X88942798Y-114997972D01*
X88913548Y-115026425D01*
X88913138Y-115026590D01*
X88878498Y-115040812D01*
X88796269Y-115074731D01*
X88672814Y-115125716D01*
X88514498Y-115191138D01*
X88327686Y-115268366D01*
X88118742Y-115354771D01*
X87916446Y-115438449D01*
X87693200Y-115530412D01*
X87486392Y-115614850D01*
X87302362Y-115689231D01*
X87147451Y-115751026D01*
X87027996Y-115797703D01*
X86950339Y-115826732D01*
X86921356Y-115835678D01*
X86888110Y-115813244D01*
X86835123Y-115754561D01*
X86776704Y-115676311D01*
X86591952Y-115453466D01*
X86380182Y-115279282D01*
X86145856Y-115155846D01*
X85893434Y-115085246D01*
X85627377Y-115069569D01*
X85504575Y-115080964D01*
X85249793Y-115143050D01*
X85024801Y-115249977D01*
X84831817Y-115395111D01*
X84673061Y-115571822D01*
X84550750Y-115773478D01*
X84467105Y-115993446D01*
X84424344Y-116225094D01*
X84424687Y-116461791D01*
X84470352Y-116696905D01*
X84563559Y-116923804D01*
X84706527Y-117135856D01*
X84787383Y-117224364D01*
X84995007Y-117394111D01*
X85221895Y-117512301D01*
X85461433Y-117579722D01*
X85707007Y-117597160D01*
X85952003Y-117565402D01*
X86189808Y-117485235D01*
X86413807Y-117357445D01*
X86617387Y-117182820D01*
X86776704Y-116987688D01*
X86837602Y-116906409D01*
X86890015Y-116848991D01*
X86921406Y-116828322D01*
X86955639Y-116839144D01*
X87037419Y-116869923D01*
X87160407Y-116918126D01*
X87318263Y-116981222D01*
X87504649Y-117056678D01*
X87713226Y-117141962D01*
X87916496Y-117225781D01*
X88139933Y-117318255D01*
X88346984Y-117403911D01*
X88531286Y-117480118D01*
X88686475Y-117544247D01*
X88806188Y-117593668D01*
X88884061Y-117625752D01*
X88913138Y-117637641D01*
X88942677Y-117665726D01*
X88942591Y-117720051D01*
X88911326Y-117807605D01*
X88847329Y-117935381D01*
X88846785Y-117936392D01*
X88797121Y-118032598D01*
X88760945Y-118110369D01*
X88745408Y-118154223D01*
X88745264Y-118156158D01*
X88761024Y-118189171D01*
X88804850Y-118262054D01*
X88871557Y-118366678D01*
X88955964Y-118494910D01*
X89051816Y-118637052D01*
X89148867Y-118781767D01*
X89233270Y-118912196D01*
X89299801Y-119019890D01*
X89343238Y-119096402D01*
X89358368Y-119132938D01*
X89338482Y-119166582D01*
X89282903Y-119234224D01*
X89197754Y-119329107D01*
X89089153Y-119444470D01*
X88963221Y-119573555D01*
X88921149Y-119615771D01*
X88483931Y-120052261D01*
X87996340Y-119720023D01*
X87846605Y-119619054D01*
X87712220Y-119530438D01*
X87600969Y-119459146D01*
X87520639Y-119410150D01*
X87479014Y-119388422D01*
X87476053Y-119387785D01*
X87436818Y-119399240D01*
X87357895Y-119430051D01*
X87252509Y-119474884D01*
X87181954Y-119506353D01*
X87046876Y-119565192D01*
X86910409Y-119620604D01*
X86795103Y-119663564D01*
X86759977Y-119675234D01*
X86666174Y-119708389D01*
X86593694Y-119740799D01*
X86566301Y-119758601D01*
X86549536Y-119797886D01*
X86525770Y-119883626D01*
X86497697Y-120004697D01*
X86468009Y-120149973D01*
X86455806Y-120214988D01*
X86425468Y-120380087D01*
X86396093Y-120538448D01*
X86370569Y-120674596D01*
X86351785Y-120773057D01*
X86348160Y-120791598D01*
X86317906Y-120944873D01*
X85679645Y-120944873D01*
X85469770Y-120944529D01*
X85310980Y-120943116D01*
X85195973Y-120940064D01*
X85117446Y-120934803D01*
X85068096Y-120926763D01*
X85040619Y-120915373D01*
X85027713Y-120900063D01*
X85025320Y-120893782D01*
X85016833Y-120855896D01*
X84999900Y-120772195D01*
X84976566Y-120653433D01*
X84948875Y-120510361D01*
X84918873Y-120353732D01*
X84888604Y-120194297D01*
X84860115Y-120042809D01*
X84835449Y-119910019D01*
X84816651Y-119806681D01*
X84805767Y-119743545D01*
X84803885Y-119729497D01*
X84778704Y-119716770D01*
X84711622Y-119688600D01*
X84615333Y-119650252D01*
X84577621Y-119635609D01*
X84431921Y-119576548D01*
X84270951Y-119507000D01*
X84135291Y-119444712D01*
X84031561Y-119398879D01*
X83946326Y-119368387D01*
X83894126Y-119358208D01*
X83887130Y-119359831D01*
X83854102Y-119381343D01*
X83780643Y-119430465D01*
X83674577Y-119501923D01*
X83543726Y-119590445D01*
X83395912Y-119690759D01*
X83366734Y-119710594D01*
X83193863Y-119826988D01*
X83062226Y-119912548D01*
X82965761Y-119970684D01*
X82898408Y-120004808D01*
X82854106Y-120018331D01*
X82826794Y-120014664D01*
X82826620Y-120014570D01*
X82790746Y-119985707D01*
X82721391Y-119921867D01*
X82625745Y-119829969D01*
X82510999Y-119716933D01*
X82384341Y-119589679D01*
X82370205Y-119575328D01*
X82214903Y-119414957D01*
X82100870Y-119291195D01*
X82026002Y-119201555D01*
X81988196Y-119143552D01*
X81983317Y-119118004D01*
X82004603Y-119080718D01*
X82053773Y-119003343D01*
X82125575Y-118893867D01*
X82214755Y-118760280D01*
X82316063Y-118610570D01*
X82339897Y-118575618D01*
X82678765Y-118079390D01*
X82577056Y-117855293D01*
X82517783Y-117719011D01*
X82458170Y-117572724D01*
X82410640Y-117446965D01*
X82408685Y-117441425D01*
X82372677Y-117343057D01*
X82342229Y-117267229D01*
X82323905Y-117230282D01*
X82323852Y-117230220D01*
X82290729Y-117218496D01*
X82209267Y-117198568D01*
X82088625Y-117172413D01*
X81937959Y-117142010D01*
X81766428Y-117109337D01*
X81751967Y-117106664D01*
X81575235Y-117073890D01*
X81414810Y-117043802D01*
X81280888Y-117018339D01*
X81183663Y-116999441D01*
X81133332Y-116989047D01*
X81132563Y-116988865D01*
X81111153Y-116982539D01*
X81094988Y-116970239D01*
X81083331Y-116944594D01*
X81075445Y-116898235D01*
X81070593Y-116823792D01*
X81068039Y-116713895D01*
X81067045Y-116561175D01*
X81066874Y-116358262D01*
X81066874Y-116332000D01*
X81066998Y-116122986D01*
G37*
X81066998Y-116122986D02*
X81067863Y-115964994D01*
X81070205Y-115850653D01*
X81074762Y-115772593D01*
X81082270Y-115723446D01*
X81093466Y-115695841D01*
X81109088Y-115682408D01*
X81129873Y-115675779D01*
X81132563Y-115675135D01*
X81181113Y-115665065D01*
X81276905Y-115646425D01*
X81409743Y-115621155D01*
X81569431Y-115591193D01*
X81745774Y-115558478D01*
X81751967Y-115557336D01*
X81924782Y-115524567D01*
X82077469Y-115493907D01*
X82200871Y-115467336D01*
X82285831Y-115446833D01*
X82323190Y-115434374D01*
X82323852Y-115433780D01*
X82342095Y-115397081D01*
X82372497Y-115321414D01*
X82408493Y-115223122D01*
X82408685Y-115222575D01*
X82455222Y-115098767D01*
X82514504Y-114952804D01*
X82574109Y-114815219D01*
X82577056Y-114808707D01*
X82678765Y-114584610D01*
X82339897Y-114088381D01*
X82236592Y-113936154D01*
X82144237Y-113798259D01*
X82068084Y-113682685D01*
X82013385Y-113597421D01*
X81985393Y-113550456D01*
X81983317Y-113545996D01*
X81992560Y-113511866D01*
X82037156Y-113448119D01*
X82119209Y-113352269D01*
X82240821Y-113221831D01*
X82370205Y-113088672D01*
X82497702Y-112960306D01*
X82614046Y-112845419D01*
X82712052Y-112750927D01*
X82784536Y-112683747D01*
X82824313Y-112650794D01*
X82826361Y-112649568D01*
X82853656Y-112645926D01*
X82898234Y-112659650D01*
X82966112Y-112694131D01*
X83063311Y-112752761D01*
X83195851Y-112838930D01*
X83366476Y-112953800D01*
X83516655Y-113055746D01*
X83651350Y-113146877D01*
X83762740Y-113221927D01*
X83843005Y-113275631D01*
X83884325Y-113302720D01*
X83887130Y-113304426D01*
X83926721Y-113301118D01*
X84003669Y-113276047D01*
X84103432Y-113234202D01*
X84135291Y-113219288D01*
X84277226Y-113154214D01*
X84438273Y-113084788D01*
X84577621Y-113028391D01*
X84681044Y-112987753D01*
X84759642Y-112955474D01*
X84800720Y-112936822D01*
X84803885Y-112934503D01*
X84809128Y-112900197D01*
X84823494Y-112819331D01*
X84844937Y-112702657D01*
X84871413Y-112560925D01*
X84900877Y-112404890D01*
X84931283Y-112245302D01*
X84960588Y-112092915D01*
X84986745Y-111958479D01*
X85007710Y-111852748D01*
X85021439Y-111786474D01*
X85025320Y-111770218D01*
X85034900Y-111753427D01*
X85056536Y-111740751D01*
X85097531Y-111731622D01*
X85165189Y-111725469D01*
X85266812Y-111721720D01*
X85409703Y-111719808D01*
X85601165Y-111719160D01*
X85679645Y-111719126D01*
X86317906Y-111719126D01*
X86348160Y-111872402D01*
X86364564Y-111957678D01*
X86388509Y-112084930D01*
X86417107Y-112238685D01*
X86447467Y-112403466D01*
X86455806Y-112449011D01*
X86485370Y-112601068D01*
X86514442Y-112733532D01*
X86540329Y-112835286D01*
X86560337Y-112895212D01*
X86566301Y-112905195D01*
X86608534Y-112929707D01*
X86690370Y-112964852D01*
X86795683Y-113003827D01*
X86818368Y-113011558D01*
X86959018Y-113062640D01*
X87117714Y-113126046D01*
X87260225Y-113188096D01*
X87260886Y-113188402D01*
X87484440Y-113291733D01*
X88484232Y-112612039D01*
X88921300Y-113048379D01*
X89051381Y-113180351D01*
X89166048Y-113300721D01*
X89259181Y-113402727D01*
X89324658Y-113479609D01*
X89356357Y-113524607D01*
X89358368Y-113531062D01*
X89342529Y-113568960D01*
X89298496Y-113646292D01*
X89231490Y-113754611D01*
X89146734Y-113885468D01*
X89051816Y-114026948D01*
X88954998Y-114170539D01*
X88870751Y-114298565D01*
X88804258Y-114402895D01*
X88760702Y-114475400D01*
X88745264Y-114507842D01*
X88758328Y-114547424D01*
X88792750Y-114622481D01*
X88841380Y-114717532D01*
X88846785Y-114727608D01*
X88910980Y-114855609D01*
X88942463Y-114943382D01*
X88942798Y-114997972D01*
X88913548Y-115026425D01*
X88913138Y-115026590D01*
X88878498Y-115040812D01*
X88796269Y-115074731D01*
X88672814Y-115125716D01*
X88514498Y-115191138D01*
X88327686Y-115268366D01*
X88118742Y-115354771D01*
X87916446Y-115438449D01*
X87693200Y-115530412D01*
X87486392Y-115614850D01*
X87302362Y-115689231D01*
X87147451Y-115751026D01*
X87027996Y-115797703D01*
X86950339Y-115826732D01*
X86921356Y-115835678D01*
X86888110Y-115813244D01*
X86835123Y-115754561D01*
X86776704Y-115676311D01*
X86591952Y-115453466D01*
X86380182Y-115279282D01*
X86145856Y-115155846D01*
X85893434Y-115085246D01*
X85627377Y-115069569D01*
X85504575Y-115080964D01*
X85249793Y-115143050D01*
X85024801Y-115249977D01*
X84831817Y-115395111D01*
X84673061Y-115571822D01*
X84550750Y-115773478D01*
X84467105Y-115993446D01*
X84424344Y-116225094D01*
X84424687Y-116461791D01*
X84470352Y-116696905D01*
X84563559Y-116923804D01*
X84706527Y-117135856D01*
X84787383Y-117224364D01*
X84995007Y-117394111D01*
X85221895Y-117512301D01*
X85461433Y-117579722D01*
X85707007Y-117597160D01*
X85952003Y-117565402D01*
X86189808Y-117485235D01*
X86413807Y-117357445D01*
X86617387Y-117182820D01*
X86776704Y-116987688D01*
X86837602Y-116906409D01*
X86890015Y-116848991D01*
X86921406Y-116828322D01*
X86955639Y-116839144D01*
X87037419Y-116869923D01*
X87160407Y-116918126D01*
X87318263Y-116981222D01*
X87504649Y-117056678D01*
X87713226Y-117141962D01*
X87916496Y-117225781D01*
X88139933Y-117318255D01*
X88346984Y-117403911D01*
X88531286Y-117480118D01*
X88686475Y-117544247D01*
X88806188Y-117593668D01*
X88884061Y-117625752D01*
X88913138Y-117637641D01*
X88942677Y-117665726D01*
X88942591Y-117720051D01*
X88911326Y-117807605D01*
X88847329Y-117935381D01*
X88846785Y-117936392D01*
X88797121Y-118032598D01*
X88760945Y-118110369D01*
X88745408Y-118154223D01*
X88745264Y-118156158D01*
X88761024Y-118189171D01*
X88804850Y-118262054D01*
X88871557Y-118366678D01*
X88955964Y-118494910D01*
X89051816Y-118637052D01*
X89148867Y-118781767D01*
X89233270Y-118912196D01*
X89299801Y-119019890D01*
X89343238Y-119096402D01*
X89358368Y-119132938D01*
X89338482Y-119166582D01*
X89282903Y-119234224D01*
X89197754Y-119329107D01*
X89089153Y-119444470D01*
X88963221Y-119573555D01*
X88921149Y-119615771D01*
X88483931Y-120052261D01*
X87996340Y-119720023D01*
X87846605Y-119619054D01*
X87712220Y-119530438D01*
X87600969Y-119459146D01*
X87520639Y-119410150D01*
X87479014Y-119388422D01*
X87476053Y-119387785D01*
X87436818Y-119399240D01*
X87357895Y-119430051D01*
X87252509Y-119474884D01*
X87181954Y-119506353D01*
X87046876Y-119565192D01*
X86910409Y-119620604D01*
X86795103Y-119663564D01*
X86759977Y-119675234D01*
X86666174Y-119708389D01*
X86593694Y-119740799D01*
X86566301Y-119758601D01*
X86549536Y-119797886D01*
X86525770Y-119883626D01*
X86497697Y-120004697D01*
X86468009Y-120149973D01*
X86455806Y-120214988D01*
X86425468Y-120380087D01*
X86396093Y-120538448D01*
X86370569Y-120674596D01*
X86351785Y-120773057D01*
X86348160Y-120791598D01*
X86317906Y-120944873D01*
X85679645Y-120944873D01*
X85469770Y-120944529D01*
X85310980Y-120943116D01*
X85195973Y-120940064D01*
X85117446Y-120934803D01*
X85068096Y-120926763D01*
X85040619Y-120915373D01*
X85027713Y-120900063D01*
X85025320Y-120893782D01*
X85016833Y-120855896D01*
X84999900Y-120772195D01*
X84976566Y-120653433D01*
X84948875Y-120510361D01*
X84918873Y-120353732D01*
X84888604Y-120194297D01*
X84860115Y-120042809D01*
X84835449Y-119910019D01*
X84816651Y-119806681D01*
X84805767Y-119743545D01*
X84803885Y-119729497D01*
X84778704Y-119716770D01*
X84711622Y-119688600D01*
X84615333Y-119650252D01*
X84577621Y-119635609D01*
X84431921Y-119576548D01*
X84270951Y-119507000D01*
X84135291Y-119444712D01*
X84031561Y-119398879D01*
X83946326Y-119368387D01*
X83894126Y-119358208D01*
X83887130Y-119359831D01*
X83854102Y-119381343D01*
X83780643Y-119430465D01*
X83674577Y-119501923D01*
X83543726Y-119590445D01*
X83395912Y-119690759D01*
X83366734Y-119710594D01*
X83193863Y-119826988D01*
X83062226Y-119912548D01*
X82965761Y-119970684D01*
X82898408Y-120004808D01*
X82854106Y-120018331D01*
X82826794Y-120014664D01*
X82826620Y-120014570D01*
X82790746Y-119985707D01*
X82721391Y-119921867D01*
X82625745Y-119829969D01*
X82510999Y-119716933D01*
X82384341Y-119589679D01*
X82370205Y-119575328D01*
X82214903Y-119414957D01*
X82100870Y-119291195D01*
X82026002Y-119201555D01*
X81988196Y-119143552D01*
X81983317Y-119118004D01*
X82004603Y-119080718D01*
X82053773Y-119003343D01*
X82125575Y-118893867D01*
X82214755Y-118760280D01*
X82316063Y-118610570D01*
X82339897Y-118575618D01*
X82678765Y-118079390D01*
X82577056Y-117855293D01*
X82517783Y-117719011D01*
X82458170Y-117572724D01*
X82410640Y-117446965D01*
X82408685Y-117441425D01*
X82372677Y-117343057D01*
X82342229Y-117267229D01*
X82323905Y-117230282D01*
X82323852Y-117230220D01*
X82290729Y-117218496D01*
X82209267Y-117198568D01*
X82088625Y-117172413D01*
X81937959Y-117142010D01*
X81766428Y-117109337D01*
X81751967Y-117106664D01*
X81575235Y-117073890D01*
X81414810Y-117043802D01*
X81280888Y-117018339D01*
X81183663Y-116999441D01*
X81133332Y-116989047D01*
X81132563Y-116988865D01*
X81111153Y-116982539D01*
X81094988Y-116970239D01*
X81083331Y-116944594D01*
X81075445Y-116898235D01*
X81070593Y-116823792D01*
X81068039Y-116713895D01*
X81067045Y-116561175D01*
X81066874Y-116358262D01*
X81066874Y-116332000D01*
X81066998Y-116122986D01*
D13*
%TO.C,U5*%
X120403000Y-47692000D02*
X120403000Y-65592000D01*
X156203000Y-47692000D02*
X120403000Y-47692000D01*
X156203000Y-65592000D02*
X156203000Y-47692000D01*
X120403000Y-65592000D02*
X156203000Y-65592000D01*
X120463000Y-50182000D02*
X120463000Y-55642000D01*
X156143000Y-50182000D02*
X120463000Y-50182000D01*
X156143000Y-63102000D02*
X156143000Y-50182000D01*
X120463000Y-63102000D02*
X156143000Y-63102000D01*
X120463000Y-57642000D02*
X120463000Y-63102000D01*
X120463000Y-55642000D02*
G75*
G02*
X120463000Y-57642000I0J-1000000D01*
G01*
%TO.C,U2*%
X120430000Y-104842000D02*
X120430000Y-122742000D01*
X156230000Y-104842000D02*
X120430000Y-104842000D01*
X156230000Y-122742000D02*
X156230000Y-104842000D01*
X120430000Y-122742000D02*
X156230000Y-122742000D01*
X120490000Y-107332000D02*
X120490000Y-112792000D01*
X156170000Y-107332000D02*
X120490000Y-107332000D01*
X156170000Y-120252000D02*
X156170000Y-107332000D01*
X120490000Y-120252000D02*
X156170000Y-120252000D01*
X120490000Y-114792000D02*
X120490000Y-120252000D01*
X120490000Y-112792000D02*
G75*
G02*
X120490000Y-114792000I0J-1000000D01*
G01*
%TO.C,U9*%
X191015000Y-109668000D02*
X191015000Y-119948000D01*
X209035000Y-109668000D02*
X191015000Y-109668000D01*
X209035000Y-119948000D02*
X209035000Y-109668000D01*
X191015000Y-119948000D02*
X209035000Y-119948000D01*
X191075000Y-112158000D02*
X191075000Y-113808000D01*
X208975000Y-112158000D02*
X191075000Y-112158000D01*
X208975000Y-117458000D02*
X208975000Y-112158000D01*
X191075000Y-117458000D02*
X208975000Y-117458000D01*
X191075000Y-115808000D02*
X191075000Y-117458000D01*
X191075000Y-113808000D02*
G75*
G02*
X191075000Y-115808000I0J-1000000D01*
G01*
%TO.C,J2*%
X180400000Y-113598000D02*
X180400000Y-110938000D01*
X177800000Y-113598000D02*
X180400000Y-113598000D01*
X177800000Y-110938000D02*
X180400000Y-110938000D01*
X177800000Y-113598000D02*
X177800000Y-110938000D01*
X176530000Y-113598000D02*
X175200000Y-113598000D01*
X175200000Y-113598000D02*
X175200000Y-112268000D01*
%TO.C,J1*%
X180400000Y-118805000D02*
X180400000Y-116145000D01*
X177800000Y-118805000D02*
X180400000Y-118805000D01*
X177800000Y-116145000D02*
X180400000Y-116145000D01*
X177800000Y-118805000D02*
X177800000Y-116145000D01*
X176530000Y-118805000D02*
X175200000Y-118805000D01*
X175200000Y-118805000D02*
X175200000Y-117475000D01*
%TO.C,J4*%
X107756000Y-52384000D02*
X107756000Y-49724000D01*
X105156000Y-52384000D02*
X107756000Y-52384000D01*
X105156000Y-49724000D02*
X107756000Y-49724000D01*
X105156000Y-52384000D02*
X105156000Y-49724000D01*
X103886000Y-52384000D02*
X102556000Y-52384000D01*
X102556000Y-52384000D02*
X102556000Y-51054000D01*
%TO.C,U3*%
X120463000Y-95742000D02*
X120463000Y-101202000D01*
X120463000Y-101202000D02*
X156143000Y-101202000D01*
X156143000Y-101202000D02*
X156143000Y-88282000D01*
X156143000Y-88282000D02*
X120463000Y-88282000D01*
X120463000Y-88282000D02*
X120463000Y-93742000D01*
X120403000Y-103692000D02*
X156203000Y-103692000D01*
X156203000Y-103692000D02*
X156203000Y-85792000D01*
X156203000Y-85792000D02*
X120403000Y-85792000D01*
X120403000Y-85792000D02*
X120403000Y-103692000D01*
X120463000Y-93742000D02*
G75*
G02*
X120463000Y-95742000I0J-1000000D01*
G01*
%TO.C,R3*%
X90527000Y-53943000D02*
X90197000Y-53943000D01*
X90197000Y-53943000D02*
X90197000Y-47403000D01*
X90197000Y-47403000D02*
X90527000Y-47403000D01*
X92607000Y-53943000D02*
X92937000Y-53943000D01*
X92937000Y-53943000D02*
X92937000Y-47403000D01*
X92937000Y-47403000D02*
X92607000Y-47403000D01*
%TO.C,R2*%
X95353000Y-53943000D02*
X95023000Y-53943000D01*
X95023000Y-53943000D02*
X95023000Y-47403000D01*
X95023000Y-47403000D02*
X95353000Y-47403000D01*
X97433000Y-53943000D02*
X97763000Y-53943000D01*
X97763000Y-53943000D02*
X97763000Y-47403000D01*
X97763000Y-47403000D02*
X97433000Y-47403000D01*
%TO.C,J5*%
X110296000Y-47812000D02*
X110296000Y-45152000D01*
X105156000Y-47812000D02*
X110296000Y-47812000D01*
X105156000Y-45152000D02*
X110296000Y-45152000D01*
X105156000Y-47812000D02*
X105156000Y-45152000D01*
X103886000Y-47812000D02*
X102556000Y-47812000D01*
X102556000Y-47812000D02*
X102556000Y-46482000D01*
%TO.C,J3*%
X107756000Y-56956000D02*
X107756000Y-54296000D01*
X105156000Y-56956000D02*
X107756000Y-56956000D01*
X105156000Y-54296000D02*
X107756000Y-54296000D01*
X105156000Y-56956000D02*
X105156000Y-54296000D01*
X103886000Y-56956000D02*
X102556000Y-56956000D01*
X102556000Y-56956000D02*
X102556000Y-55626000D01*
%TO.C,U4*%
X120403000Y-66742000D02*
X120403000Y-84642000D01*
X156203000Y-66742000D02*
X120403000Y-66742000D01*
X156203000Y-84642000D02*
X156203000Y-66742000D01*
X120403000Y-84642000D02*
X156203000Y-84642000D01*
X120463000Y-69232000D02*
X120463000Y-74692000D01*
X156143000Y-69232000D02*
X120463000Y-69232000D01*
X156143000Y-82152000D02*
X156143000Y-69232000D01*
X120463000Y-82152000D02*
X156143000Y-82152000D01*
X120463000Y-76692000D02*
X120463000Y-82152000D01*
X120463000Y-74692000D02*
G75*
G02*
X120463000Y-76692000I0J-1000000D01*
G01*
%TO.C,C3*%
X115597000Y-100049000D02*
X115597000Y-92309000D01*
X118337000Y-100049000D02*
X118337000Y-92309000D01*
X115597000Y-100049000D02*
X118337000Y-100049000D01*
X115597000Y-92309000D02*
X118337000Y-92309000D01*
%TO.C,C5*%
X115597000Y-67537000D02*
X115597000Y-59797000D01*
X118337000Y-67537000D02*
X118337000Y-59797000D01*
X115597000Y-67537000D02*
X118337000Y-67537000D01*
X115597000Y-59797000D02*
X118337000Y-59797000D01*
%TO.C,C12*%
X171470000Y-44096000D02*
X171470000Y-46836000D01*
X163730000Y-44096000D02*
X163730000Y-46836000D01*
X163730000Y-46836000D02*
X171470000Y-46836000D01*
X163730000Y-44096000D02*
X171470000Y-44096000D01*
%TO.C,U6*%
X93869000Y-64583000D02*
X88409000Y-64583000D01*
X88409000Y-64583000D02*
X88409000Y-105343000D01*
X88409000Y-105343000D02*
X101329000Y-105343000D01*
X101329000Y-105343000D02*
X101329000Y-64583000D01*
X101329000Y-64583000D02*
X95869000Y-64583000D01*
X85919000Y-64523000D02*
X85919000Y-105403000D01*
X85919000Y-105403000D02*
X103819000Y-105403000D01*
X103819000Y-105403000D02*
X103819000Y-64523000D01*
X103819000Y-64523000D02*
X85919000Y-64523000D01*
X95869000Y-64583000D02*
G75*
G02*
X93869000Y-64583000I-1000000J0D01*
G01*
%TO.C,U12*%
X166513000Y-49597000D02*
X164863000Y-49597000D01*
X164863000Y-49597000D02*
X164863000Y-70037000D01*
X164863000Y-70037000D02*
X170163000Y-70037000D01*
X170163000Y-70037000D02*
X170163000Y-49597000D01*
X170163000Y-49597000D02*
X168513000Y-49597000D01*
X162373000Y-49537000D02*
X162373000Y-70097000D01*
X162373000Y-70097000D02*
X172653000Y-70097000D01*
X172653000Y-70097000D02*
X172653000Y-49537000D01*
X172653000Y-49537000D02*
X162373000Y-49537000D01*
X168513000Y-49597000D02*
G75*
G02*
X166513000Y-49597000I-1000000J0D01*
G01*
%TO.C,C1*%
X167212000Y-103779000D02*
G75*
G03*
X167212000Y-103779000I-2620000J0D01*
G01*
X162012000Y-103779000D02*
X167172000Y-103779000D01*
X162012000Y-103739000D02*
X167172000Y-103739000D01*
X162013000Y-103699000D02*
X167171000Y-103699000D01*
X162014000Y-103659000D02*
X167170000Y-103659000D01*
X162016000Y-103619000D02*
X167168000Y-103619000D01*
X162019000Y-103579000D02*
X167165000Y-103579000D01*
X162023000Y-103539000D02*
X163552000Y-103539000D01*
X165632000Y-103539000D02*
X167161000Y-103539000D01*
X162027000Y-103499000D02*
X163552000Y-103499000D01*
X165632000Y-103499000D02*
X167157000Y-103499000D01*
X162031000Y-103459000D02*
X163552000Y-103459000D01*
X165632000Y-103459000D02*
X167153000Y-103459000D01*
X162036000Y-103419000D02*
X163552000Y-103419000D01*
X165632000Y-103419000D02*
X167148000Y-103419000D01*
X162042000Y-103379000D02*
X163552000Y-103379000D01*
X165632000Y-103379000D02*
X167142000Y-103379000D01*
X162049000Y-103339000D02*
X163552000Y-103339000D01*
X165632000Y-103339000D02*
X167135000Y-103339000D01*
X162056000Y-103299000D02*
X163552000Y-103299000D01*
X165632000Y-103299000D02*
X167128000Y-103299000D01*
X162064000Y-103259000D02*
X163552000Y-103259000D01*
X165632000Y-103259000D02*
X167120000Y-103259000D01*
X162072000Y-103219000D02*
X163552000Y-103219000D01*
X165632000Y-103219000D02*
X167112000Y-103219000D01*
X162081000Y-103179000D02*
X163552000Y-103179000D01*
X165632000Y-103179000D02*
X167103000Y-103179000D01*
X162091000Y-103139000D02*
X163552000Y-103139000D01*
X165632000Y-103139000D02*
X167093000Y-103139000D01*
X162101000Y-103099000D02*
X163552000Y-103099000D01*
X165632000Y-103099000D02*
X167083000Y-103099000D01*
X162112000Y-103058000D02*
X163552000Y-103058000D01*
X165632000Y-103058000D02*
X167072000Y-103058000D01*
X162124000Y-103018000D02*
X163552000Y-103018000D01*
X165632000Y-103018000D02*
X167060000Y-103018000D01*
X162137000Y-102978000D02*
X163552000Y-102978000D01*
X165632000Y-102978000D02*
X167047000Y-102978000D01*
X162150000Y-102938000D02*
X163552000Y-102938000D01*
X165632000Y-102938000D02*
X167034000Y-102938000D01*
X162164000Y-102898000D02*
X163552000Y-102898000D01*
X165632000Y-102898000D02*
X167020000Y-102898000D01*
X162178000Y-102858000D02*
X163552000Y-102858000D01*
X165632000Y-102858000D02*
X167006000Y-102858000D01*
X162194000Y-102818000D02*
X163552000Y-102818000D01*
X165632000Y-102818000D02*
X166990000Y-102818000D01*
X162210000Y-102778000D02*
X163552000Y-102778000D01*
X165632000Y-102778000D02*
X166974000Y-102778000D01*
X162227000Y-102738000D02*
X163552000Y-102738000D01*
X165632000Y-102738000D02*
X166957000Y-102738000D01*
X162244000Y-102698000D02*
X163552000Y-102698000D01*
X165632000Y-102698000D02*
X166940000Y-102698000D01*
X162263000Y-102658000D02*
X163552000Y-102658000D01*
X165632000Y-102658000D02*
X166921000Y-102658000D01*
X162282000Y-102618000D02*
X163552000Y-102618000D01*
X165632000Y-102618000D02*
X166902000Y-102618000D01*
X162302000Y-102578000D02*
X163552000Y-102578000D01*
X165632000Y-102578000D02*
X166882000Y-102578000D01*
X162324000Y-102538000D02*
X163552000Y-102538000D01*
X165632000Y-102538000D02*
X166860000Y-102538000D01*
X162345000Y-102498000D02*
X163552000Y-102498000D01*
X165632000Y-102498000D02*
X166839000Y-102498000D01*
X162368000Y-102458000D02*
X163552000Y-102458000D01*
X165632000Y-102458000D02*
X166816000Y-102458000D01*
X162392000Y-102418000D02*
X163552000Y-102418000D01*
X165632000Y-102418000D02*
X166792000Y-102418000D01*
X162417000Y-102378000D02*
X163552000Y-102378000D01*
X165632000Y-102378000D02*
X166767000Y-102378000D01*
X162443000Y-102338000D02*
X163552000Y-102338000D01*
X165632000Y-102338000D02*
X166741000Y-102338000D01*
X162470000Y-102298000D02*
X163552000Y-102298000D01*
X165632000Y-102298000D02*
X166714000Y-102298000D01*
X162497000Y-102258000D02*
X163552000Y-102258000D01*
X165632000Y-102258000D02*
X166687000Y-102258000D01*
X162527000Y-102218000D02*
X163552000Y-102218000D01*
X165632000Y-102218000D02*
X166657000Y-102218000D01*
X162557000Y-102178000D02*
X163552000Y-102178000D01*
X165632000Y-102178000D02*
X166627000Y-102178000D01*
X162588000Y-102138000D02*
X163552000Y-102138000D01*
X165632000Y-102138000D02*
X166596000Y-102138000D01*
X162621000Y-102098000D02*
X163552000Y-102098000D01*
X165632000Y-102098000D02*
X166563000Y-102098000D01*
X162655000Y-102058000D02*
X163552000Y-102058000D01*
X165632000Y-102058000D02*
X166529000Y-102058000D01*
X162691000Y-102018000D02*
X163552000Y-102018000D01*
X165632000Y-102018000D02*
X166493000Y-102018000D01*
X162728000Y-101978000D02*
X163552000Y-101978000D01*
X165632000Y-101978000D02*
X166456000Y-101978000D01*
X162766000Y-101938000D02*
X163552000Y-101938000D01*
X165632000Y-101938000D02*
X166418000Y-101938000D01*
X162807000Y-101898000D02*
X163552000Y-101898000D01*
X165632000Y-101898000D02*
X166377000Y-101898000D01*
X162849000Y-101858000D02*
X163552000Y-101858000D01*
X165632000Y-101858000D02*
X166335000Y-101858000D01*
X162893000Y-101818000D02*
X163552000Y-101818000D01*
X165632000Y-101818000D02*
X166291000Y-101818000D01*
X162939000Y-101778000D02*
X163552000Y-101778000D01*
X165632000Y-101778000D02*
X166245000Y-101778000D01*
X162987000Y-101738000D02*
X163552000Y-101738000D01*
X165632000Y-101738000D02*
X166197000Y-101738000D01*
X163038000Y-101698000D02*
X163552000Y-101698000D01*
X165632000Y-101698000D02*
X166146000Y-101698000D01*
X163092000Y-101658000D02*
X163552000Y-101658000D01*
X165632000Y-101658000D02*
X166092000Y-101658000D01*
X163149000Y-101618000D02*
X163552000Y-101618000D01*
X165632000Y-101618000D02*
X166035000Y-101618000D01*
X163209000Y-101578000D02*
X163552000Y-101578000D01*
X165632000Y-101578000D02*
X165975000Y-101578000D01*
X163273000Y-101538000D02*
X163552000Y-101538000D01*
X165632000Y-101538000D02*
X165911000Y-101538000D01*
X163341000Y-101498000D02*
X163552000Y-101498000D01*
X165632000Y-101498000D02*
X165843000Y-101498000D01*
X163414000Y-101458000D02*
X165770000Y-101458000D01*
X163494000Y-101418000D02*
X165690000Y-101418000D01*
X163581000Y-101378000D02*
X165603000Y-101378000D01*
X163677000Y-101338000D02*
X165507000Y-101338000D01*
X163787000Y-101298000D02*
X165397000Y-101298000D01*
X163915000Y-101258000D02*
X165269000Y-101258000D01*
X164074000Y-101218000D02*
X165110000Y-101218000D01*
X164308000Y-101178000D02*
X164876000Y-101178000D01*
X163117000Y-106583775D02*
X163117000Y-106083775D01*
X162867000Y-106333775D02*
X163367000Y-106333775D01*
%TO.C,C11*%
X184297000Y-44096000D02*
X184297000Y-46836000D01*
X176557000Y-44096000D02*
X176557000Y-46836000D01*
X176557000Y-46836000D02*
X184297000Y-46836000D01*
X176557000Y-44096000D02*
X184297000Y-44096000D01*
%TO.C,U10*%
X192548000Y-49597000D02*
X190898000Y-49597000D01*
X190898000Y-49597000D02*
X190898000Y-67497000D01*
X190898000Y-67497000D02*
X196198000Y-67497000D01*
X196198000Y-67497000D02*
X196198000Y-49597000D01*
X196198000Y-49597000D02*
X194548000Y-49597000D01*
X188408000Y-49537000D02*
X188408000Y-67557000D01*
X188408000Y-67557000D02*
X198688000Y-67557000D01*
X198688000Y-67557000D02*
X198688000Y-49537000D01*
X198688000Y-49537000D02*
X188408000Y-49537000D01*
X194548000Y-49597000D02*
G75*
G02*
X192548000Y-49597000I-1000000J0D01*
G01*
%TO.C,U7*%
X217567000Y-49597000D02*
X215917000Y-49597000D01*
X215917000Y-49597000D02*
X215917000Y-67497000D01*
X215917000Y-67497000D02*
X221217000Y-67497000D01*
X221217000Y-67497000D02*
X221217000Y-49597000D01*
X221217000Y-49597000D02*
X219567000Y-49597000D01*
X213427000Y-49537000D02*
X213427000Y-67557000D01*
X213427000Y-67557000D02*
X223707000Y-67557000D01*
X223707000Y-67557000D02*
X223707000Y-49537000D01*
X223707000Y-49537000D02*
X213427000Y-49537000D01*
X219567000Y-49597000D02*
G75*
G02*
X217567000Y-49597000I-1000000J0D01*
G01*
%TO.C,U8*%
X205248000Y-49597000D02*
X203598000Y-49597000D01*
X203598000Y-49597000D02*
X203598000Y-67497000D01*
X203598000Y-67497000D02*
X208898000Y-67497000D01*
X208898000Y-67497000D02*
X208898000Y-49597000D01*
X208898000Y-49597000D02*
X207248000Y-49597000D01*
X201108000Y-49537000D02*
X201108000Y-67557000D01*
X201108000Y-67557000D02*
X211388000Y-67557000D01*
X211388000Y-67557000D02*
X211388000Y-49537000D01*
X211388000Y-49537000D02*
X201108000Y-49537000D01*
X207248000Y-49597000D02*
G75*
G02*
X205248000Y-49597000I-1000000J0D01*
G01*
%TO.C,U1*%
X171938000Y-86501775D02*
X171938000Y-91961775D01*
X171938000Y-91961775D02*
X222858000Y-91961775D01*
X222858000Y-91961775D02*
X222858000Y-79041775D01*
X222858000Y-79041775D02*
X171938000Y-79041775D01*
X171938000Y-79041775D02*
X171938000Y-84501775D01*
X171878000Y-94451775D02*
X222918000Y-94451775D01*
X222918000Y-94451775D02*
X222918000Y-76551775D01*
X222918000Y-76551775D02*
X171878000Y-76551775D01*
X171878000Y-76551775D02*
X171878000Y-94451775D01*
X171938000Y-84501775D02*
G75*
G02*
X171938000Y-86501775I0J-1000000D01*
G01*
%TO.C,U11*%
X179467000Y-49597000D02*
X177817000Y-49597000D01*
X177817000Y-49597000D02*
X177817000Y-70037000D01*
X177817000Y-70037000D02*
X183117000Y-70037000D01*
X183117000Y-70037000D02*
X183117000Y-49597000D01*
X183117000Y-49597000D02*
X181467000Y-49597000D01*
X175327000Y-49537000D02*
X175327000Y-70097000D01*
X175327000Y-70097000D02*
X185607000Y-70097000D01*
X185607000Y-70097000D02*
X185607000Y-49537000D01*
X185607000Y-49537000D02*
X175327000Y-49537000D01*
X181467000Y-49597000D02*
G75*
G02*
X179467000Y-49597000I-1000000J0D01*
G01*
%TO.C,R1*%
X166473000Y-118205000D02*
X166143000Y-118205000D01*
X166143000Y-118205000D02*
X166143000Y-111665000D01*
X166143000Y-111665000D02*
X166473000Y-111665000D01*
X168553000Y-118205000D02*
X168883000Y-118205000D01*
X168883000Y-118205000D02*
X168883000Y-111665000D01*
X168883000Y-111665000D02*
X168553000Y-111665000D01*
%TO.C,CON2*%
X219118000Y-101794000D02*
X219118000Y-109534000D01*
X219118000Y-109534000D02*
X221778000Y-109534000D01*
X221778000Y-109534000D02*
X221778000Y-101794000D01*
X221778000Y-101794000D02*
X219118000Y-101794000D01*
X221778000Y-102744000D02*
X227778000Y-102744000D01*
X227778000Y-102744000D02*
X227778000Y-103504000D01*
X227778000Y-103504000D02*
X221778000Y-103504000D01*
X221778000Y-102804000D02*
X227778000Y-102804000D01*
X221778000Y-102924000D02*
X227778000Y-102924000D01*
X221778000Y-103044000D02*
X227778000Y-103044000D01*
X221778000Y-103164000D02*
X227778000Y-103164000D01*
X221778000Y-103284000D02*
X227778000Y-103284000D01*
X221778000Y-103404000D02*
X227778000Y-103404000D01*
X218788000Y-102744000D02*
X219118000Y-102744000D01*
X218788000Y-103504000D02*
X219118000Y-103504000D01*
X219118000Y-104394000D02*
X221778000Y-104394000D01*
X221778000Y-105284000D02*
X227778000Y-105284000D01*
X227778000Y-105284000D02*
X227778000Y-106044000D01*
X227778000Y-106044000D02*
X221778000Y-106044000D01*
X218720929Y-105284000D02*
X219118000Y-105284000D01*
X218720929Y-106044000D02*
X219118000Y-106044000D01*
X219118000Y-106934000D02*
X221778000Y-106934000D01*
X221778000Y-107824000D02*
X227778000Y-107824000D01*
X227778000Y-107824000D02*
X227778000Y-108584000D01*
X227778000Y-108584000D02*
X221778000Y-108584000D01*
X218720929Y-107824000D02*
X219118000Y-107824000D01*
X218720929Y-108584000D02*
X219118000Y-108584000D01*
X216408000Y-103124000D02*
X216408000Y-101854000D01*
X216408000Y-101854000D02*
X217678000Y-101854000D01*
%TO.C,C10*%
X189892000Y-44096000D02*
X197632000Y-44096000D01*
X189892000Y-46836000D02*
X197632000Y-46836000D01*
X189892000Y-44096000D02*
X189892000Y-46836000D01*
X197632000Y-44096000D02*
X197632000Y-46836000D01*
%TO.C,C9*%
X186082000Y-118718000D02*
X186082000Y-110978000D01*
X188822000Y-118718000D02*
X188822000Y-110978000D01*
X186082000Y-118718000D02*
X188822000Y-118718000D01*
X186082000Y-110978000D02*
X188822000Y-110978000D01*
%TO.C,C8*%
X202211000Y-44096000D02*
X209951000Y-44096000D01*
X202211000Y-46836000D02*
X209951000Y-46836000D01*
X202211000Y-44096000D02*
X202211000Y-46836000D01*
X209951000Y-44096000D02*
X209951000Y-46836000D01*
%TO.C,C7*%
X214657000Y-44096000D02*
X222397000Y-44096000D01*
X214657000Y-46836000D02*
X222397000Y-46836000D01*
X214657000Y-44096000D02*
X214657000Y-46836000D01*
X222397000Y-44096000D02*
X222397000Y-46836000D01*
%TO.C,C6*%
X90959000Y-59463000D02*
X98699000Y-59463000D01*
X90959000Y-62203000D02*
X98699000Y-62203000D01*
X90959000Y-59463000D02*
X90959000Y-62203000D01*
X98699000Y-59463000D02*
X98699000Y-62203000D01*
%TO.C,C4*%
X115597000Y-77951000D02*
X115597000Y-70211000D01*
X118337000Y-77951000D02*
X118337000Y-70211000D01*
X115597000Y-77951000D02*
X118337000Y-77951000D01*
X115597000Y-70211000D02*
X118337000Y-70211000D01*
%TO.C,C2*%
X115597000Y-109574000D02*
X115597000Y-101834000D01*
X118337000Y-109574000D02*
X118337000Y-101834000D01*
X115597000Y-109574000D02*
X118337000Y-109574000D01*
X115597000Y-101834000D02*
X118337000Y-101834000D01*
%TO.C,U5*%
D10*
X118915380Y-57403904D02*
X119724904Y-57403904D01*
X119820142Y-57356285D01*
X119867761Y-57308666D01*
X119915380Y-57213428D01*
X119915380Y-57022952D01*
X119867761Y-56927714D01*
X119820142Y-56880095D01*
X119724904Y-56832476D01*
X118915380Y-56832476D01*
X118915380Y-55880095D02*
X118915380Y-56356285D01*
X119391571Y-56403904D01*
X119343952Y-56356285D01*
X119296333Y-56261047D01*
X119296333Y-56022952D01*
X119343952Y-55927714D01*
X119391571Y-55880095D01*
X119486809Y-55832476D01*
X119724904Y-55832476D01*
X119820142Y-55880095D01*
X119867761Y-55927714D01*
X119915380Y-56022952D01*
X119915380Y-56261047D01*
X119867761Y-56356285D01*
X119820142Y-56403904D01*
%TO.C,U2*%
X118942380Y-114553904D02*
X119751904Y-114553904D01*
X119847142Y-114506285D01*
X119894761Y-114458666D01*
X119942380Y-114363428D01*
X119942380Y-114172952D01*
X119894761Y-114077714D01*
X119847142Y-114030095D01*
X119751904Y-113982476D01*
X118942380Y-113982476D01*
X119037619Y-113553904D02*
X118990000Y-113506285D01*
X118942380Y-113411047D01*
X118942380Y-113172952D01*
X118990000Y-113077714D01*
X119037619Y-113030095D01*
X119132857Y-112982476D01*
X119228095Y-112982476D01*
X119370952Y-113030095D01*
X119942380Y-113601523D01*
X119942380Y-112982476D01*
%TO.C,U9*%
X189527380Y-115569904D02*
X190336904Y-115569904D01*
X190432142Y-115522285D01*
X190479761Y-115474666D01*
X190527380Y-115379428D01*
X190527380Y-115188952D01*
X190479761Y-115093714D01*
X190432142Y-115046095D01*
X190336904Y-114998476D01*
X189527380Y-114998476D01*
X190527380Y-114474666D02*
X190527380Y-114284190D01*
X190479761Y-114188952D01*
X190432142Y-114141333D01*
X190289285Y-114046095D01*
X190098809Y-113998476D01*
X189717857Y-113998476D01*
X189622619Y-114046095D01*
X189575000Y-114093714D01*
X189527380Y-114188952D01*
X189527380Y-114379428D01*
X189575000Y-114474666D01*
X189622619Y-114522285D01*
X189717857Y-114569904D01*
X189955952Y-114569904D01*
X190051190Y-114522285D01*
X190098809Y-114474666D01*
X190146428Y-114379428D01*
X190146428Y-114188952D01*
X190098809Y-114093714D01*
X190051190Y-114046095D01*
X189955952Y-113998476D01*
%TO.C,J2*%
X173652380Y-112601333D02*
X174366666Y-112601333D01*
X174509523Y-112648952D01*
X174604761Y-112744190D01*
X174652380Y-112887047D01*
X174652380Y-112982285D01*
X173747619Y-112172761D02*
X173700000Y-112125142D01*
X173652380Y-112029904D01*
X173652380Y-111791809D01*
X173700000Y-111696571D01*
X173747619Y-111648952D01*
X173842857Y-111601333D01*
X173938095Y-111601333D01*
X174080952Y-111648952D01*
X174652380Y-112220380D01*
X174652380Y-111601333D01*
%TO.C,J1*%
X173652380Y-117808333D02*
X174366666Y-117808333D01*
X174509523Y-117855952D01*
X174604761Y-117951190D01*
X174652380Y-118094047D01*
X174652380Y-118189285D01*
X174652380Y-116808333D02*
X174652380Y-117379761D01*
X174652380Y-117094047D02*
X173652380Y-117094047D01*
X173795238Y-117189285D01*
X173890476Y-117284523D01*
X173938095Y-117379761D01*
%TO.C,J4*%
X101008380Y-51387333D02*
X101722666Y-51387333D01*
X101865523Y-51434952D01*
X101960761Y-51530190D01*
X102008380Y-51673047D01*
X102008380Y-51768285D01*
X101341714Y-50482571D02*
X102008380Y-50482571D01*
X100960761Y-50720666D02*
X101675047Y-50958761D01*
X101675047Y-50339714D01*
%TO.C,U3*%
X118915380Y-95503904D02*
X119724904Y-95503904D01*
X119820142Y-95456285D01*
X119867761Y-95408666D01*
X119915380Y-95313428D01*
X119915380Y-95122952D01*
X119867761Y-95027714D01*
X119820142Y-94980095D01*
X119724904Y-94932476D01*
X118915380Y-94932476D01*
X118915380Y-94551523D02*
X118915380Y-93932476D01*
X119296333Y-94265809D01*
X119296333Y-94122952D01*
X119343952Y-94027714D01*
X119391571Y-93980095D01*
X119486809Y-93932476D01*
X119724904Y-93932476D01*
X119820142Y-93980095D01*
X119867761Y-94027714D01*
X119915380Y-94122952D01*
X119915380Y-94408666D01*
X119867761Y-94503904D01*
X119820142Y-94551523D01*
%TO.C,R3*%
X89649380Y-50839666D02*
X89173190Y-51173000D01*
X89649380Y-51411095D02*
X88649380Y-51411095D01*
X88649380Y-51030142D01*
X88697000Y-50934904D01*
X88744619Y-50887285D01*
X88839857Y-50839666D01*
X88982714Y-50839666D01*
X89077952Y-50887285D01*
X89125571Y-50934904D01*
X89173190Y-51030142D01*
X89173190Y-51411095D01*
X88649380Y-50506333D02*
X88649380Y-49887285D01*
X89030333Y-50220619D01*
X89030333Y-50077761D01*
X89077952Y-49982523D01*
X89125571Y-49934904D01*
X89220809Y-49887285D01*
X89458904Y-49887285D01*
X89554142Y-49934904D01*
X89601761Y-49982523D01*
X89649380Y-50077761D01*
X89649380Y-50363476D01*
X89601761Y-50458714D01*
X89554142Y-50506333D01*
%TO.C,R2*%
X94475380Y-50839666D02*
X93999190Y-51173000D01*
X94475380Y-51411095D02*
X93475380Y-51411095D01*
X93475380Y-51030142D01*
X93523000Y-50934904D01*
X93570619Y-50887285D01*
X93665857Y-50839666D01*
X93808714Y-50839666D01*
X93903952Y-50887285D01*
X93951571Y-50934904D01*
X93999190Y-51030142D01*
X93999190Y-51411095D01*
X93570619Y-50458714D02*
X93523000Y-50411095D01*
X93475380Y-50315857D01*
X93475380Y-50077761D01*
X93523000Y-49982523D01*
X93570619Y-49934904D01*
X93665857Y-49887285D01*
X93761095Y-49887285D01*
X93903952Y-49934904D01*
X94475380Y-50506333D01*
X94475380Y-49887285D01*
%TO.C,J5*%
X101008380Y-46815333D02*
X101722666Y-46815333D01*
X101865523Y-46862952D01*
X101960761Y-46958190D01*
X102008380Y-47101047D01*
X102008380Y-47196285D01*
X101008380Y-45862952D02*
X101008380Y-46339142D01*
X101484571Y-46386761D01*
X101436952Y-46339142D01*
X101389333Y-46243904D01*
X101389333Y-46005809D01*
X101436952Y-45910571D01*
X101484571Y-45862952D01*
X101579809Y-45815333D01*
X101817904Y-45815333D01*
X101913142Y-45862952D01*
X101960761Y-45910571D01*
X102008380Y-46005809D01*
X102008380Y-46243904D01*
X101960761Y-46339142D01*
X101913142Y-46386761D01*
%TO.C,J3*%
X101008380Y-55959333D02*
X101722666Y-55959333D01*
X101865523Y-56006952D01*
X101960761Y-56102190D01*
X102008380Y-56245047D01*
X102008380Y-56340285D01*
X101008380Y-55578380D02*
X101008380Y-54959333D01*
X101389333Y-55292666D01*
X101389333Y-55149809D01*
X101436952Y-55054571D01*
X101484571Y-55006952D01*
X101579809Y-54959333D01*
X101817904Y-54959333D01*
X101913142Y-55006952D01*
X101960761Y-55054571D01*
X102008380Y-55149809D01*
X102008380Y-55435523D01*
X101960761Y-55530761D01*
X101913142Y-55578380D01*
%TO.C,U4*%
X118915380Y-76453904D02*
X119724904Y-76453904D01*
X119820142Y-76406285D01*
X119867761Y-76358666D01*
X119915380Y-76263428D01*
X119915380Y-76072952D01*
X119867761Y-75977714D01*
X119820142Y-75930095D01*
X119724904Y-75882476D01*
X118915380Y-75882476D01*
X119248714Y-74977714D02*
X119915380Y-74977714D01*
X118867761Y-75215809D02*
X119582047Y-75453904D01*
X119582047Y-74834857D01*
%TO.C,C3*%
X114824142Y-96345666D02*
X114871761Y-96393285D01*
X114919380Y-96536142D01*
X114919380Y-96631380D01*
X114871761Y-96774238D01*
X114776523Y-96869476D01*
X114681285Y-96917095D01*
X114490809Y-96964714D01*
X114347952Y-96964714D01*
X114157476Y-96917095D01*
X114062238Y-96869476D01*
X113967000Y-96774238D01*
X113919380Y-96631380D01*
X113919380Y-96536142D01*
X113967000Y-96393285D01*
X114014619Y-96345666D01*
X113919380Y-96012333D02*
X113919380Y-95393285D01*
X114300333Y-95726619D01*
X114300333Y-95583761D01*
X114347952Y-95488523D01*
X114395571Y-95440904D01*
X114490809Y-95393285D01*
X114728904Y-95393285D01*
X114824142Y-95440904D01*
X114871761Y-95488523D01*
X114919380Y-95583761D01*
X114919380Y-95869476D01*
X114871761Y-95964714D01*
X114824142Y-96012333D01*
%TO.C,C5*%
X114824142Y-63833666D02*
X114871761Y-63881285D01*
X114919380Y-64024142D01*
X114919380Y-64119380D01*
X114871761Y-64262238D01*
X114776523Y-64357476D01*
X114681285Y-64405095D01*
X114490809Y-64452714D01*
X114347952Y-64452714D01*
X114157476Y-64405095D01*
X114062238Y-64357476D01*
X113967000Y-64262238D01*
X113919380Y-64119380D01*
X113919380Y-64024142D01*
X113967000Y-63881285D01*
X114014619Y-63833666D01*
X113919380Y-62928904D02*
X113919380Y-63405095D01*
X114395571Y-63452714D01*
X114347952Y-63405095D01*
X114300333Y-63309857D01*
X114300333Y-63071761D01*
X114347952Y-62976523D01*
X114395571Y-62928904D01*
X114490809Y-62881285D01*
X114728904Y-62881285D01*
X114824142Y-62928904D01*
X114871761Y-62976523D01*
X114919380Y-63071761D01*
X114919380Y-63309857D01*
X114871761Y-63405095D01*
X114824142Y-63452714D01*
%TO.C,C12*%
X166957142Y-43323142D02*
X166909523Y-43370761D01*
X166766666Y-43418380D01*
X166671428Y-43418380D01*
X166528571Y-43370761D01*
X166433333Y-43275523D01*
X166385714Y-43180285D01*
X166338095Y-42989809D01*
X166338095Y-42846952D01*
X166385714Y-42656476D01*
X166433333Y-42561238D01*
X166528571Y-42466000D01*
X166671428Y-42418380D01*
X166766666Y-42418380D01*
X166909523Y-42466000D01*
X166957142Y-42513619D01*
X167909523Y-43418380D02*
X167338095Y-43418380D01*
X167623809Y-43418380D02*
X167623809Y-42418380D01*
X167528571Y-42561238D01*
X167433333Y-42656476D01*
X167338095Y-42704095D01*
X168290476Y-42513619D02*
X168338095Y-42466000D01*
X168433333Y-42418380D01*
X168671428Y-42418380D01*
X168766666Y-42466000D01*
X168814285Y-42513619D01*
X168861904Y-42608857D01*
X168861904Y-42704095D01*
X168814285Y-42846952D01*
X168242857Y-43418380D01*
X168861904Y-43418380D01*
%TO.C,U6*%
X94107095Y-63035380D02*
X94107095Y-63844904D01*
X94154714Y-63940142D01*
X94202333Y-63987761D01*
X94297571Y-64035380D01*
X94488047Y-64035380D01*
X94583285Y-63987761D01*
X94630904Y-63940142D01*
X94678523Y-63844904D01*
X94678523Y-63035380D01*
X95583285Y-63035380D02*
X95392809Y-63035380D01*
X95297571Y-63083000D01*
X95249952Y-63130619D01*
X95154714Y-63273476D01*
X95107095Y-63463952D01*
X95107095Y-63844904D01*
X95154714Y-63940142D01*
X95202333Y-63987761D01*
X95297571Y-64035380D01*
X95488047Y-64035380D01*
X95583285Y-63987761D01*
X95630904Y-63940142D01*
X95678523Y-63844904D01*
X95678523Y-63606809D01*
X95630904Y-63511571D01*
X95583285Y-63463952D01*
X95488047Y-63416333D01*
X95297571Y-63416333D01*
X95202333Y-63463952D01*
X95154714Y-63511571D01*
X95107095Y-63606809D01*
%TO.C,U12*%
X166274904Y-48049380D02*
X166274904Y-48858904D01*
X166322523Y-48954142D01*
X166370142Y-49001761D01*
X166465380Y-49049380D01*
X166655857Y-49049380D01*
X166751095Y-49001761D01*
X166798714Y-48954142D01*
X166846333Y-48858904D01*
X166846333Y-48049380D01*
X167846333Y-49049380D02*
X167274904Y-49049380D01*
X167560619Y-49049380D02*
X167560619Y-48049380D01*
X167465380Y-48192238D01*
X167370142Y-48287476D01*
X167274904Y-48335095D01*
X168227285Y-48144619D02*
X168274904Y-48097000D01*
X168370142Y-48049380D01*
X168608238Y-48049380D01*
X168703476Y-48097000D01*
X168751095Y-48144619D01*
X168798714Y-48239857D01*
X168798714Y-48335095D01*
X168751095Y-48477952D01*
X168179666Y-49049380D01*
X168798714Y-49049380D01*
%TO.C,C1*%
X161199142Y-103945666D02*
X161246761Y-103993285D01*
X161294380Y-104136142D01*
X161294380Y-104231380D01*
X161246761Y-104374238D01*
X161151523Y-104469476D01*
X161056285Y-104517095D01*
X160865809Y-104564714D01*
X160722952Y-104564714D01*
X160532476Y-104517095D01*
X160437238Y-104469476D01*
X160342000Y-104374238D01*
X160294380Y-104231380D01*
X160294380Y-104136142D01*
X160342000Y-103993285D01*
X160389619Y-103945666D01*
X161294380Y-102993285D02*
X161294380Y-103564714D01*
X161294380Y-103279000D02*
X160294380Y-103279000D01*
X160437238Y-103374238D01*
X160532476Y-103469476D01*
X160580095Y-103564714D01*
%TO.C,C11*%
X179784142Y-43323142D02*
X179736523Y-43370761D01*
X179593666Y-43418380D01*
X179498428Y-43418380D01*
X179355571Y-43370761D01*
X179260333Y-43275523D01*
X179212714Y-43180285D01*
X179165095Y-42989809D01*
X179165095Y-42846952D01*
X179212714Y-42656476D01*
X179260333Y-42561238D01*
X179355571Y-42466000D01*
X179498428Y-42418380D01*
X179593666Y-42418380D01*
X179736523Y-42466000D01*
X179784142Y-42513619D01*
X180736523Y-43418380D02*
X180165095Y-43418380D01*
X180450809Y-43418380D02*
X180450809Y-42418380D01*
X180355571Y-42561238D01*
X180260333Y-42656476D01*
X180165095Y-42704095D01*
X181688904Y-43418380D02*
X181117476Y-43418380D01*
X181403190Y-43418380D02*
X181403190Y-42418380D01*
X181307952Y-42561238D01*
X181212714Y-42656476D01*
X181117476Y-42704095D01*
%TO.C,U10*%
X192309904Y-48049380D02*
X192309904Y-48858904D01*
X192357523Y-48954142D01*
X192405142Y-49001761D01*
X192500380Y-49049380D01*
X192690857Y-49049380D01*
X192786095Y-49001761D01*
X192833714Y-48954142D01*
X192881333Y-48858904D01*
X192881333Y-48049380D01*
X193881333Y-49049380D02*
X193309904Y-49049380D01*
X193595619Y-49049380D02*
X193595619Y-48049380D01*
X193500380Y-48192238D01*
X193405142Y-48287476D01*
X193309904Y-48335095D01*
X194500380Y-48049380D02*
X194595619Y-48049380D01*
X194690857Y-48097000D01*
X194738476Y-48144619D01*
X194786095Y-48239857D01*
X194833714Y-48430333D01*
X194833714Y-48668428D01*
X194786095Y-48858904D01*
X194738476Y-48954142D01*
X194690857Y-49001761D01*
X194595619Y-49049380D01*
X194500380Y-49049380D01*
X194405142Y-49001761D01*
X194357523Y-48954142D01*
X194309904Y-48858904D01*
X194262285Y-48668428D01*
X194262285Y-48430333D01*
X194309904Y-48239857D01*
X194357523Y-48144619D01*
X194405142Y-48097000D01*
X194500380Y-48049380D01*
%TO.C,U7*%
X217805095Y-48049380D02*
X217805095Y-48858904D01*
X217852714Y-48954142D01*
X217900333Y-49001761D01*
X217995571Y-49049380D01*
X218186047Y-49049380D01*
X218281285Y-49001761D01*
X218328904Y-48954142D01*
X218376523Y-48858904D01*
X218376523Y-48049380D01*
X218757476Y-48049380D02*
X219424142Y-48049380D01*
X218995571Y-49049380D01*
%TO.C,U8*%
X205486095Y-48049380D02*
X205486095Y-48858904D01*
X205533714Y-48954142D01*
X205581333Y-49001761D01*
X205676571Y-49049380D01*
X205867047Y-49049380D01*
X205962285Y-49001761D01*
X206009904Y-48954142D01*
X206057523Y-48858904D01*
X206057523Y-48049380D01*
X206676571Y-48477952D02*
X206581333Y-48430333D01*
X206533714Y-48382714D01*
X206486095Y-48287476D01*
X206486095Y-48239857D01*
X206533714Y-48144619D01*
X206581333Y-48097000D01*
X206676571Y-48049380D01*
X206867047Y-48049380D01*
X206962285Y-48097000D01*
X207009904Y-48144619D01*
X207057523Y-48239857D01*
X207057523Y-48287476D01*
X207009904Y-48382714D01*
X206962285Y-48430333D01*
X206867047Y-48477952D01*
X206676571Y-48477952D01*
X206581333Y-48525571D01*
X206533714Y-48573190D01*
X206486095Y-48668428D01*
X206486095Y-48858904D01*
X206533714Y-48954142D01*
X206581333Y-49001761D01*
X206676571Y-49049380D01*
X206867047Y-49049380D01*
X206962285Y-49001761D01*
X207009904Y-48954142D01*
X207057523Y-48858904D01*
X207057523Y-48668428D01*
X207009904Y-48573190D01*
X206962285Y-48525571D01*
X206867047Y-48477952D01*
%TO.C,U1*%
X170390380Y-86263679D02*
X171199904Y-86263679D01*
X171295142Y-86216060D01*
X171342761Y-86168441D01*
X171390380Y-86073203D01*
X171390380Y-85882727D01*
X171342761Y-85787489D01*
X171295142Y-85739870D01*
X171199904Y-85692251D01*
X170390380Y-85692251D01*
X171390380Y-84692251D02*
X171390380Y-85263679D01*
X171390380Y-84977965D02*
X170390380Y-84977965D01*
X170533238Y-85073203D01*
X170628476Y-85168441D01*
X170676095Y-85263679D01*
%TO.C,U11*%
X179228904Y-48049380D02*
X179228904Y-48858904D01*
X179276523Y-48954142D01*
X179324142Y-49001761D01*
X179419380Y-49049380D01*
X179609857Y-49049380D01*
X179705095Y-49001761D01*
X179752714Y-48954142D01*
X179800333Y-48858904D01*
X179800333Y-48049380D01*
X180800333Y-49049380D02*
X180228904Y-49049380D01*
X180514619Y-49049380D02*
X180514619Y-48049380D01*
X180419380Y-48192238D01*
X180324142Y-48287476D01*
X180228904Y-48335095D01*
X181752714Y-49049380D02*
X181181285Y-49049380D01*
X181467000Y-49049380D02*
X181467000Y-48049380D01*
X181371761Y-48192238D01*
X181276523Y-48287476D01*
X181181285Y-48335095D01*
%TO.C,R1*%
X165595380Y-115101666D02*
X165119190Y-115435000D01*
X165595380Y-115673095D02*
X164595380Y-115673095D01*
X164595380Y-115292142D01*
X164643000Y-115196904D01*
X164690619Y-115149285D01*
X164785857Y-115101666D01*
X164928714Y-115101666D01*
X165023952Y-115149285D01*
X165071571Y-115196904D01*
X165119190Y-115292142D01*
X165119190Y-115673095D01*
X165595380Y-114149285D02*
X165595380Y-114720714D01*
X165595380Y-114435000D02*
X164595380Y-114435000D01*
X164738238Y-114530238D01*
X164833476Y-114625476D01*
X164881095Y-114720714D01*
%TO.C,CON2*%
X220848714Y-101211142D02*
X220801095Y-101258761D01*
X220658238Y-101306380D01*
X220563000Y-101306380D01*
X220420142Y-101258761D01*
X220324904Y-101163523D01*
X220277285Y-101068285D01*
X220229666Y-100877809D01*
X220229666Y-100734952D01*
X220277285Y-100544476D01*
X220324904Y-100449238D01*
X220420142Y-100354000D01*
X220563000Y-100306380D01*
X220658238Y-100306380D01*
X220801095Y-100354000D01*
X220848714Y-100401619D01*
X221467761Y-100306380D02*
X221658238Y-100306380D01*
X221753476Y-100354000D01*
X221848714Y-100449238D01*
X221896333Y-100639714D01*
X221896333Y-100973047D01*
X221848714Y-101163523D01*
X221753476Y-101258761D01*
X221658238Y-101306380D01*
X221467761Y-101306380D01*
X221372523Y-101258761D01*
X221277285Y-101163523D01*
X221229666Y-100973047D01*
X221229666Y-100639714D01*
X221277285Y-100449238D01*
X221372523Y-100354000D01*
X221467761Y-100306380D01*
X222324904Y-101306380D02*
X222324904Y-100306380D01*
X222896333Y-101306380D01*
X222896333Y-100306380D01*
X223324904Y-100401619D02*
X223372523Y-100354000D01*
X223467761Y-100306380D01*
X223705857Y-100306380D01*
X223801095Y-100354000D01*
X223848714Y-100401619D01*
X223896333Y-100496857D01*
X223896333Y-100592095D01*
X223848714Y-100734952D01*
X223277285Y-101306380D01*
X223896333Y-101306380D01*
%TO.C,C10*%
X193119142Y-43323142D02*
X193071523Y-43370761D01*
X192928666Y-43418380D01*
X192833428Y-43418380D01*
X192690571Y-43370761D01*
X192595333Y-43275523D01*
X192547714Y-43180285D01*
X192500095Y-42989809D01*
X192500095Y-42846952D01*
X192547714Y-42656476D01*
X192595333Y-42561238D01*
X192690571Y-42466000D01*
X192833428Y-42418380D01*
X192928666Y-42418380D01*
X193071523Y-42466000D01*
X193119142Y-42513619D01*
X194071523Y-43418380D02*
X193500095Y-43418380D01*
X193785809Y-43418380D02*
X193785809Y-42418380D01*
X193690571Y-42561238D01*
X193595333Y-42656476D01*
X193500095Y-42704095D01*
X194690571Y-42418380D02*
X194785809Y-42418380D01*
X194881047Y-42466000D01*
X194928666Y-42513619D01*
X194976285Y-42608857D01*
X195023904Y-42799333D01*
X195023904Y-43037428D01*
X194976285Y-43227904D01*
X194928666Y-43323142D01*
X194881047Y-43370761D01*
X194785809Y-43418380D01*
X194690571Y-43418380D01*
X194595333Y-43370761D01*
X194547714Y-43323142D01*
X194500095Y-43227904D01*
X194452476Y-43037428D01*
X194452476Y-42799333D01*
X194500095Y-42608857D01*
X194547714Y-42513619D01*
X194595333Y-42466000D01*
X194690571Y-42418380D01*
%TO.C,C9*%
X185309142Y-115014666D02*
X185356761Y-115062285D01*
X185404380Y-115205142D01*
X185404380Y-115300380D01*
X185356761Y-115443238D01*
X185261523Y-115538476D01*
X185166285Y-115586095D01*
X184975809Y-115633714D01*
X184832952Y-115633714D01*
X184642476Y-115586095D01*
X184547238Y-115538476D01*
X184452000Y-115443238D01*
X184404380Y-115300380D01*
X184404380Y-115205142D01*
X184452000Y-115062285D01*
X184499619Y-115014666D01*
X185404380Y-114538476D02*
X185404380Y-114348000D01*
X185356761Y-114252761D01*
X185309142Y-114205142D01*
X185166285Y-114109904D01*
X184975809Y-114062285D01*
X184594857Y-114062285D01*
X184499619Y-114109904D01*
X184452000Y-114157523D01*
X184404380Y-114252761D01*
X184404380Y-114443238D01*
X184452000Y-114538476D01*
X184499619Y-114586095D01*
X184594857Y-114633714D01*
X184832952Y-114633714D01*
X184928190Y-114586095D01*
X184975809Y-114538476D01*
X185023428Y-114443238D01*
X185023428Y-114252761D01*
X184975809Y-114157523D01*
X184928190Y-114109904D01*
X184832952Y-114062285D01*
%TO.C,C8*%
X205914333Y-43323142D02*
X205866714Y-43370761D01*
X205723857Y-43418380D01*
X205628619Y-43418380D01*
X205485761Y-43370761D01*
X205390523Y-43275523D01*
X205342904Y-43180285D01*
X205295285Y-42989809D01*
X205295285Y-42846952D01*
X205342904Y-42656476D01*
X205390523Y-42561238D01*
X205485761Y-42466000D01*
X205628619Y-42418380D01*
X205723857Y-42418380D01*
X205866714Y-42466000D01*
X205914333Y-42513619D01*
X206485761Y-42846952D02*
X206390523Y-42799333D01*
X206342904Y-42751714D01*
X206295285Y-42656476D01*
X206295285Y-42608857D01*
X206342904Y-42513619D01*
X206390523Y-42466000D01*
X206485761Y-42418380D01*
X206676238Y-42418380D01*
X206771476Y-42466000D01*
X206819095Y-42513619D01*
X206866714Y-42608857D01*
X206866714Y-42656476D01*
X206819095Y-42751714D01*
X206771476Y-42799333D01*
X206676238Y-42846952D01*
X206485761Y-42846952D01*
X206390523Y-42894571D01*
X206342904Y-42942190D01*
X206295285Y-43037428D01*
X206295285Y-43227904D01*
X206342904Y-43323142D01*
X206390523Y-43370761D01*
X206485761Y-43418380D01*
X206676238Y-43418380D01*
X206771476Y-43370761D01*
X206819095Y-43323142D01*
X206866714Y-43227904D01*
X206866714Y-43037428D01*
X206819095Y-42942190D01*
X206771476Y-42894571D01*
X206676238Y-42846952D01*
%TO.C,C7*%
X218360333Y-43323142D02*
X218312714Y-43370761D01*
X218169857Y-43418380D01*
X218074619Y-43418380D01*
X217931761Y-43370761D01*
X217836523Y-43275523D01*
X217788904Y-43180285D01*
X217741285Y-42989809D01*
X217741285Y-42846952D01*
X217788904Y-42656476D01*
X217836523Y-42561238D01*
X217931761Y-42466000D01*
X218074619Y-42418380D01*
X218169857Y-42418380D01*
X218312714Y-42466000D01*
X218360333Y-42513619D01*
X218693666Y-42418380D02*
X219360333Y-42418380D01*
X218931761Y-43418380D01*
%TO.C,C6*%
X94662333Y-58690142D02*
X94614714Y-58737761D01*
X94471857Y-58785380D01*
X94376619Y-58785380D01*
X94233761Y-58737761D01*
X94138523Y-58642523D01*
X94090904Y-58547285D01*
X94043285Y-58356809D01*
X94043285Y-58213952D01*
X94090904Y-58023476D01*
X94138523Y-57928238D01*
X94233761Y-57833000D01*
X94376619Y-57785380D01*
X94471857Y-57785380D01*
X94614714Y-57833000D01*
X94662333Y-57880619D01*
X95519476Y-57785380D02*
X95329000Y-57785380D01*
X95233761Y-57833000D01*
X95186142Y-57880619D01*
X95090904Y-58023476D01*
X95043285Y-58213952D01*
X95043285Y-58594904D01*
X95090904Y-58690142D01*
X95138523Y-58737761D01*
X95233761Y-58785380D01*
X95424238Y-58785380D01*
X95519476Y-58737761D01*
X95567095Y-58690142D01*
X95614714Y-58594904D01*
X95614714Y-58356809D01*
X95567095Y-58261571D01*
X95519476Y-58213952D01*
X95424238Y-58166333D01*
X95233761Y-58166333D01*
X95138523Y-58213952D01*
X95090904Y-58261571D01*
X95043285Y-58356809D01*
%TO.C,C4*%
X114824142Y-74247666D02*
X114871761Y-74295285D01*
X114919380Y-74438142D01*
X114919380Y-74533380D01*
X114871761Y-74676238D01*
X114776523Y-74771476D01*
X114681285Y-74819095D01*
X114490809Y-74866714D01*
X114347952Y-74866714D01*
X114157476Y-74819095D01*
X114062238Y-74771476D01*
X113967000Y-74676238D01*
X113919380Y-74533380D01*
X113919380Y-74438142D01*
X113967000Y-74295285D01*
X114014619Y-74247666D01*
X114252714Y-73390523D02*
X114919380Y-73390523D01*
X113871761Y-73628619D02*
X114586047Y-73866714D01*
X114586047Y-73247666D01*
%TO.C,C2*%
X114824142Y-105870666D02*
X114871761Y-105918285D01*
X114919380Y-106061142D01*
X114919380Y-106156380D01*
X114871761Y-106299238D01*
X114776523Y-106394476D01*
X114681285Y-106442095D01*
X114490809Y-106489714D01*
X114347952Y-106489714D01*
X114157476Y-106442095D01*
X114062238Y-106394476D01*
X113967000Y-106299238D01*
X113919380Y-106156380D01*
X113919380Y-106061142D01*
X113967000Y-105918285D01*
X114014619Y-105870666D01*
X114014619Y-105489714D02*
X113967000Y-105442095D01*
X113919380Y-105346857D01*
X113919380Y-105108761D01*
X113967000Y-105013523D01*
X114014619Y-104965904D01*
X114109857Y-104918285D01*
X114205095Y-104918285D01*
X114347952Y-104965904D01*
X114919380Y-105537333D01*
X114919380Y-104918285D01*
%TD*%
M02*
