%TF.GenerationSoftware,KiCad,Pcbnew,(5.1.9-0-10_14)*%
%TF.CreationDate,2022-05-22T11:28:49+01:00*%
%TF.ProjectId,BBCMicro128KRomRam,4242434d-6963-4726-9f31-32384b526f6d,rev?*%
%TF.SameCoordinates,Original*%
%TF.FileFunction,Legend,Bot*%
%TF.FilePolarity,Positive*%
%FSLAX46Y46*%
G04 Gerber Fmt 4.6, Leading zero omitted, Abs format (unit mm)*
G04 Created by KiCad (PCBNEW (5.1.9-0-10_14)) date 2022-05-22 11:28:49*
%MOMM*%
%LPD*%
G01*
G04 APERTURE LIST*
%ADD10C,0.120000*%
%ADD11C,0.150000*%
G04 APERTURE END LIST*
D10*
%TO.C,CON1*%
X171898000Y-91297000D02*
X171898000Y-96757000D01*
X171898000Y-96757000D02*
X222818000Y-96757000D01*
X222818000Y-96757000D02*
X222818000Y-83837000D01*
X222818000Y-83837000D02*
X171898000Y-83837000D01*
X171898000Y-83837000D02*
X171898000Y-89297000D01*
X171838000Y-99247000D02*
X222878000Y-99247000D01*
X222878000Y-99247000D02*
X222878000Y-81347000D01*
X222878000Y-81347000D02*
X171838000Y-81347000D01*
X171838000Y-81347000D02*
X171838000Y-99247000D01*
X171898000Y-89297000D02*
G75*
G02*
X171898000Y-91297000I0J-1000000D01*
G01*
D11*
X171299142Y-89082714D02*
X171346761Y-89035095D01*
X171394380Y-88892238D01*
X171394380Y-88797000D01*
X171346761Y-88654142D01*
X171251523Y-88558904D01*
X171156285Y-88511285D01*
X170965809Y-88463666D01*
X170822952Y-88463666D01*
X170632476Y-88511285D01*
X170537238Y-88558904D01*
X170442000Y-88654142D01*
X170394380Y-88797000D01*
X170394380Y-88892238D01*
X170442000Y-89035095D01*
X170489619Y-89082714D01*
X170394380Y-89701761D02*
X170394380Y-89892238D01*
X170442000Y-89987476D01*
X170537238Y-90082714D01*
X170727714Y-90130333D01*
X171061047Y-90130333D01*
X171251523Y-90082714D01*
X171346761Y-89987476D01*
X171394380Y-89892238D01*
X171394380Y-89701761D01*
X171346761Y-89606523D01*
X171251523Y-89511285D01*
X171061047Y-89463666D01*
X170727714Y-89463666D01*
X170537238Y-89511285D01*
X170442000Y-89606523D01*
X170394380Y-89701761D01*
X171394380Y-90558904D02*
X170394380Y-90558904D01*
X171394380Y-91130333D01*
X170394380Y-91130333D01*
X171394380Y-92130333D02*
X171394380Y-91558904D01*
X171394380Y-91844619D02*
X170394380Y-91844619D01*
X170537238Y-91749380D01*
X170632476Y-91654142D01*
X170680095Y-91558904D01*
%TD*%
M02*
